G75*
%MOIN*%
%OFA0B0*%
%FSLAX25Y25*%
%IPPOS*%
%LPD*%
%AMOC8*
5,1,8,0,0,1.08239X$1,22.5*
%
%ADD10C,0.07400*%
%ADD11C,0.12661*%
%ADD12C,0.13843*%
%ADD13C,0.05550*%
%ADD14C,0.05550*%
%ADD15C,0.00800*%
D10*
X0058342Y0111000D03*
X0058342Y0121000D03*
X0058342Y0131000D03*
X0058342Y0141000D03*
X0080842Y0141000D03*
X0090842Y0141000D03*
X0100842Y0141000D03*
X0110842Y0141000D03*
X0120842Y0141000D03*
X0130842Y0141000D03*
X0140842Y0141000D03*
X0168342Y0141000D03*
X0178342Y0141000D03*
X0188342Y0141000D03*
X0198342Y0141000D03*
X0208342Y0141000D03*
X0218342Y0141000D03*
X0228342Y0141000D03*
X0243342Y0166000D03*
X0243342Y0176000D03*
X0243342Y0186000D03*
X0243342Y0196000D03*
X0243342Y0226000D03*
X0243342Y0236000D03*
X0243342Y0246000D03*
X0243342Y0256000D03*
X0203342Y0256000D03*
X0193342Y0256000D03*
X0183342Y0256000D03*
X0173342Y0256000D03*
X0148342Y0256000D03*
X0138342Y0256000D03*
X0128342Y0256000D03*
X0118342Y0256000D03*
X0093342Y0256000D03*
X0083342Y0256000D03*
X0073342Y0256000D03*
X0063342Y0256000D03*
D11*
X0083342Y0096000D03*
X0138342Y0096000D03*
D12*
X0173342Y0086000D03*
X0223342Y0086000D03*
D13*
X0208342Y0163225D02*
X0208342Y0168775D01*
X0198342Y0168775D02*
X0198342Y0163225D01*
X0188342Y0163225D02*
X0188342Y0168775D01*
X0178342Y0168775D02*
X0178342Y0163225D01*
X0168342Y0163225D02*
X0168342Y0168775D01*
X0158342Y0168775D02*
X0158342Y0163225D01*
X0148342Y0163225D02*
X0148342Y0168775D01*
X0138342Y0168775D02*
X0138342Y0163225D01*
X0128342Y0163225D02*
X0128342Y0168775D01*
X0118342Y0168775D02*
X0118342Y0163225D01*
X0108342Y0163225D02*
X0108342Y0168775D01*
X0098342Y0168775D02*
X0098342Y0163225D01*
X0088342Y0163225D02*
X0088342Y0168775D01*
X0078342Y0168775D02*
X0078342Y0163225D01*
X0068342Y0163225D02*
X0068342Y0168775D01*
X0068342Y0223225D02*
X0068342Y0228775D01*
X0078342Y0228775D02*
X0078342Y0223225D01*
X0088342Y0223225D02*
X0088342Y0228775D01*
X0098342Y0228775D02*
X0098342Y0223225D01*
X0108342Y0223225D02*
X0108342Y0228775D01*
X0118342Y0228775D02*
X0118342Y0223225D01*
X0128342Y0223225D02*
X0128342Y0228775D01*
X0138342Y0228775D02*
X0138342Y0223225D01*
X0148342Y0223225D02*
X0148342Y0228775D01*
X0158342Y0228775D02*
X0158342Y0223225D01*
X0168342Y0223225D02*
X0168342Y0228775D01*
X0178342Y0228775D02*
X0178342Y0223225D01*
X0188342Y0223225D02*
X0188342Y0228775D01*
X0198342Y0228775D02*
X0198342Y0223225D01*
X0208342Y0223225D02*
X0208342Y0228775D01*
D14*
X0213342Y0206000D03*
X0203342Y0206000D03*
X0203342Y0196000D03*
X0213342Y0196000D03*
X0213342Y0186000D03*
X0203342Y0186000D03*
D15*
X0046142Y0268200D02*
X0046142Y0068800D01*
X0255542Y0068800D01*
X0255542Y0268200D01*
X0046142Y0268200D01*
X0046142Y0267703D02*
X0255542Y0267703D01*
X0255542Y0266904D02*
X0046142Y0266904D01*
X0046142Y0266106D02*
X0255542Y0266106D01*
X0255542Y0265307D02*
X0046142Y0265307D01*
X0046142Y0264509D02*
X0255542Y0264509D01*
X0255542Y0263710D02*
X0046142Y0263710D01*
X0046142Y0262912D02*
X0255542Y0262912D01*
X0255542Y0262113D02*
X0046142Y0262113D01*
X0046142Y0261315D02*
X0255542Y0261315D01*
X0255542Y0260516D02*
X0245712Y0260516D01*
X0246015Y0260362D02*
X0245300Y0260726D01*
X0244536Y0260974D01*
X0243743Y0261100D01*
X0243742Y0261100D01*
X0243742Y0256400D01*
X0248442Y0256400D01*
X0248442Y0256401D01*
X0248316Y0257194D01*
X0248068Y0257958D01*
X0247704Y0258673D01*
X0247232Y0259322D01*
X0246664Y0259890D01*
X0246015Y0260362D01*
X0246837Y0259718D02*
X0255542Y0259718D01*
X0255542Y0258919D02*
X0247525Y0258919D01*
X0247985Y0258121D02*
X0255542Y0258121D01*
X0255542Y0257322D02*
X0248275Y0257322D01*
X0248422Y0256524D02*
X0255542Y0256524D01*
X0255542Y0255725D02*
X0243742Y0255725D01*
X0243742Y0255600D02*
X0243742Y0256400D01*
X0242942Y0256400D01*
X0242942Y0261100D01*
X0242940Y0261100D01*
X0242148Y0260974D01*
X0241384Y0260726D01*
X0240669Y0260362D01*
X0240019Y0259890D01*
X0239452Y0259322D01*
X0238980Y0258673D01*
X0238615Y0257958D01*
X0238367Y0257194D01*
X0238242Y0256401D01*
X0238242Y0256400D01*
X0242942Y0256400D01*
X0242942Y0255600D01*
X0243742Y0255600D01*
X0248442Y0255600D01*
X0248442Y0255599D01*
X0248316Y0254806D01*
X0248068Y0254042D01*
X0247704Y0253327D01*
X0247232Y0252678D01*
X0246664Y0252110D01*
X0246015Y0251638D01*
X0245300Y0251274D01*
X0244536Y0251026D01*
X0243743Y0250900D01*
X0243742Y0250900D01*
X0243742Y0255600D01*
X0243742Y0254927D02*
X0242942Y0254927D01*
X0242942Y0255600D02*
X0242942Y0250900D01*
X0242940Y0250900D01*
X0242148Y0251026D01*
X0241384Y0251274D01*
X0240669Y0251638D01*
X0240019Y0252110D01*
X0239452Y0252678D01*
X0238980Y0253327D01*
X0238615Y0254042D01*
X0238367Y0254806D01*
X0238242Y0255599D01*
X0238242Y0255600D01*
X0242942Y0255600D01*
X0242942Y0255725D02*
X0208242Y0255725D01*
X0208242Y0255025D02*
X0207496Y0253224D01*
X0206117Y0251846D01*
X0204316Y0251100D01*
X0202367Y0251100D01*
X0200566Y0251846D01*
X0199188Y0253224D01*
X0198442Y0255025D01*
X0198442Y0256975D01*
X0199188Y0258776D01*
X0200566Y0260154D01*
X0202367Y0260900D01*
X0204316Y0260900D01*
X0206117Y0260154D01*
X0207496Y0258776D01*
X0208242Y0256975D01*
X0208242Y0255025D01*
X0208201Y0254927D02*
X0238348Y0254927D01*
X0238588Y0254128D02*
X0207870Y0254128D01*
X0207539Y0253330D02*
X0238979Y0253330D01*
X0239598Y0252531D02*
X0206803Y0252531D01*
X0205844Y0251733D02*
X0240539Y0251733D01*
X0240566Y0250154D02*
X0239188Y0248776D01*
X0238701Y0247600D01*
X0157679Y0247600D01*
X0141408Y0231329D01*
X0140593Y0232144D01*
X0139132Y0232750D01*
X0137551Y0232750D01*
X0136090Y0232144D01*
X0134972Y0231026D01*
X0134367Y0229565D01*
X0134367Y0222435D01*
X0134972Y0220974D01*
X0136090Y0219856D01*
X0137551Y0219250D01*
X0139132Y0219250D01*
X0140593Y0219856D01*
X0141711Y0220974D01*
X0142317Y0222435D01*
X0142317Y0227712D01*
X0144506Y0229902D01*
X0144367Y0229565D01*
X0144367Y0222435D01*
X0144972Y0220974D01*
X0146090Y0219856D01*
X0147551Y0219250D01*
X0149132Y0219250D01*
X0150593Y0219856D01*
X0151711Y0220974D01*
X0152317Y0222435D01*
X0152317Y0227712D01*
X0154506Y0229902D01*
X0154367Y0229565D01*
X0154367Y0222435D01*
X0154972Y0220974D01*
X0156090Y0219856D01*
X0157551Y0219250D01*
X0159132Y0219250D01*
X0160593Y0219856D01*
X0161711Y0220974D01*
X0162317Y0222435D01*
X0162317Y0229565D01*
X0161711Y0231026D01*
X0160593Y0232144D01*
X0159132Y0232750D01*
X0157551Y0232750D01*
X0157215Y0232610D01*
X0159005Y0234400D01*
X0238701Y0234400D01*
X0239188Y0233224D01*
X0240566Y0231846D01*
X0242367Y0231100D01*
X0244316Y0231100D01*
X0246117Y0231846D01*
X0247496Y0233224D01*
X0248242Y0235025D01*
X0248242Y0236975D01*
X0247496Y0238776D01*
X0246117Y0240154D01*
X0244316Y0240900D01*
X0242367Y0240900D01*
X0240566Y0240154D01*
X0239188Y0238776D01*
X0238701Y0237600D01*
X0157679Y0237600D01*
X0156742Y0236663D01*
X0156742Y0236663D01*
X0151408Y0231329D01*
X0150593Y0232144D01*
X0149132Y0232750D01*
X0147551Y0232750D01*
X0147215Y0232610D01*
X0159005Y0244400D01*
X0238701Y0244400D01*
X0239188Y0243224D01*
X0240566Y0241846D01*
X0242367Y0241100D01*
X0244316Y0241100D01*
X0246117Y0241846D01*
X0247496Y0243224D01*
X0248242Y0245025D01*
X0248242Y0246975D01*
X0247496Y0248776D01*
X0246117Y0250154D01*
X0244316Y0250900D01*
X0242367Y0250900D01*
X0240566Y0250154D01*
X0240548Y0250136D02*
X0046142Y0250136D01*
X0046142Y0250934D02*
X0062725Y0250934D01*
X0062942Y0250934D02*
X0063742Y0250934D01*
X0063742Y0250900D02*
X0063743Y0250900D01*
X0064536Y0251026D01*
X0065300Y0251274D01*
X0066015Y0251638D01*
X0066664Y0252110D01*
X0067232Y0252678D01*
X0067704Y0253327D01*
X0068068Y0254042D01*
X0068316Y0254806D01*
X0068442Y0255599D01*
X0068442Y0255600D01*
X0063742Y0255600D01*
X0063742Y0256400D01*
X0068442Y0256400D01*
X0068442Y0256401D01*
X0068316Y0257194D01*
X0068068Y0257958D01*
X0067704Y0258673D01*
X0067232Y0259322D01*
X0066664Y0259890D01*
X0066015Y0260362D01*
X0065300Y0260726D01*
X0064536Y0260974D01*
X0063743Y0261100D01*
X0063742Y0261100D01*
X0063742Y0256400D01*
X0062942Y0256400D01*
X0062942Y0261100D01*
X0062940Y0261100D01*
X0062148Y0260974D01*
X0061384Y0260726D01*
X0060669Y0260362D01*
X0060019Y0259890D01*
X0059452Y0259322D01*
X0058980Y0258673D01*
X0058615Y0257958D01*
X0058367Y0257194D01*
X0058242Y0256401D01*
X0058242Y0256400D01*
X0062942Y0256400D01*
X0062942Y0255600D01*
X0063742Y0255600D01*
X0063742Y0250900D01*
X0063958Y0250934D02*
X0117725Y0250934D01*
X0117942Y0250934D02*
X0118742Y0250934D01*
X0118742Y0250900D02*
X0118743Y0250900D01*
X0119536Y0251026D01*
X0120300Y0251274D01*
X0121015Y0251638D01*
X0121664Y0252110D01*
X0122232Y0252678D01*
X0122704Y0253327D01*
X0123068Y0254042D01*
X0123316Y0254806D01*
X0123442Y0255599D01*
X0123442Y0255600D01*
X0118742Y0255600D01*
X0118742Y0256400D01*
X0123442Y0256400D01*
X0123442Y0256401D01*
X0123316Y0257194D01*
X0123068Y0257958D01*
X0122704Y0258673D01*
X0122232Y0259322D01*
X0121664Y0259890D01*
X0121015Y0260362D01*
X0120300Y0260726D01*
X0119536Y0260974D01*
X0118743Y0261100D01*
X0118742Y0261100D01*
X0118742Y0256400D01*
X0117942Y0256400D01*
X0117942Y0261100D01*
X0117940Y0261100D01*
X0117148Y0260974D01*
X0116384Y0260726D01*
X0115669Y0260362D01*
X0115019Y0259890D01*
X0114452Y0259322D01*
X0113980Y0258673D01*
X0113615Y0257958D01*
X0113367Y0257194D01*
X0113242Y0256401D01*
X0113242Y0256400D01*
X0117942Y0256400D01*
X0117942Y0255600D01*
X0118742Y0255600D01*
X0118742Y0250900D01*
X0118958Y0250934D02*
X0172725Y0250934D01*
X0172942Y0250934D02*
X0173742Y0250934D01*
X0173742Y0250900D02*
X0173743Y0250900D01*
X0174536Y0251026D01*
X0175300Y0251274D01*
X0176015Y0251638D01*
X0176664Y0252110D01*
X0177232Y0252678D01*
X0177704Y0253327D01*
X0178068Y0254042D01*
X0178316Y0254806D01*
X0178442Y0255599D01*
X0178442Y0255600D01*
X0173742Y0255600D01*
X0173742Y0256400D01*
X0178442Y0256400D01*
X0178442Y0256401D01*
X0178316Y0257194D01*
X0178068Y0257958D01*
X0177704Y0258673D01*
X0177232Y0259322D01*
X0176664Y0259890D01*
X0176015Y0260362D01*
X0175300Y0260726D01*
X0174536Y0260974D01*
X0173743Y0261100D01*
X0173742Y0261100D01*
X0173742Y0256400D01*
X0172942Y0256400D01*
X0172942Y0261100D01*
X0172940Y0261100D01*
X0172148Y0260974D01*
X0171384Y0260726D01*
X0170669Y0260362D01*
X0170019Y0259890D01*
X0169452Y0259322D01*
X0168980Y0258673D01*
X0168615Y0257958D01*
X0168367Y0257194D01*
X0168242Y0256401D01*
X0168242Y0256400D01*
X0172942Y0256400D01*
X0172942Y0255600D01*
X0173742Y0255600D01*
X0173742Y0250900D01*
X0173958Y0250934D02*
X0242725Y0250934D01*
X0242942Y0250934D02*
X0243742Y0250934D01*
X0243958Y0250934D02*
X0255542Y0250934D01*
X0255542Y0250136D02*
X0246136Y0250136D01*
X0246934Y0249337D02*
X0255542Y0249337D01*
X0255542Y0248539D02*
X0247594Y0248539D01*
X0247925Y0247740D02*
X0255542Y0247740D01*
X0255542Y0246941D02*
X0248242Y0246941D01*
X0248242Y0246143D02*
X0255542Y0246143D01*
X0255542Y0245344D02*
X0248242Y0245344D01*
X0248043Y0244546D02*
X0255542Y0244546D01*
X0255542Y0243747D02*
X0247712Y0243747D01*
X0247220Y0242949D02*
X0255542Y0242949D01*
X0255542Y0242150D02*
X0246422Y0242150D01*
X0244925Y0241352D02*
X0255542Y0241352D01*
X0255542Y0240553D02*
X0245153Y0240553D01*
X0246517Y0239755D02*
X0255542Y0239755D01*
X0255542Y0238956D02*
X0247315Y0238956D01*
X0247752Y0238158D02*
X0255542Y0238158D01*
X0255542Y0237359D02*
X0248082Y0237359D01*
X0248242Y0236561D02*
X0255542Y0236561D01*
X0255542Y0235762D02*
X0248242Y0235762D01*
X0248216Y0234964D02*
X0255542Y0234964D01*
X0255542Y0234165D02*
X0247886Y0234165D01*
X0247555Y0233367D02*
X0255542Y0233367D01*
X0255542Y0232568D02*
X0246840Y0232568D01*
X0245933Y0231770D02*
X0255542Y0231770D01*
X0255542Y0230971D02*
X0221104Y0230971D01*
X0221542Y0230790D02*
X0219466Y0231650D01*
X0217218Y0231650D01*
X0215141Y0230790D01*
X0213552Y0229200D01*
X0212692Y0227124D01*
X0212692Y0224876D01*
X0213552Y0222800D01*
X0215141Y0221210D01*
X0217218Y0220350D01*
X0219466Y0220350D01*
X0221542Y0221210D01*
X0223132Y0222800D01*
X0223992Y0224876D01*
X0223992Y0227124D01*
X0223132Y0229200D01*
X0221542Y0230790D01*
X0222159Y0230173D02*
X0240611Y0230173D01*
X0240566Y0230154D02*
X0239188Y0228776D01*
X0238442Y0226975D01*
X0238442Y0225025D01*
X0239188Y0223224D01*
X0240566Y0221846D01*
X0242367Y0221100D01*
X0244316Y0221100D01*
X0246117Y0221846D01*
X0247496Y0223224D01*
X0248242Y0225025D01*
X0248242Y0226975D01*
X0247496Y0228776D01*
X0246117Y0230154D01*
X0244316Y0230900D01*
X0242367Y0230900D01*
X0240566Y0230154D01*
X0239786Y0229374D02*
X0222958Y0229374D01*
X0223390Y0228576D02*
X0239105Y0228576D01*
X0238774Y0227777D02*
X0223721Y0227777D01*
X0223992Y0226979D02*
X0238443Y0226979D01*
X0238442Y0226180D02*
X0223992Y0226180D01*
X0223992Y0225382D02*
X0238442Y0225382D01*
X0238625Y0224583D02*
X0223870Y0224583D01*
X0223540Y0223785D02*
X0238956Y0223785D01*
X0239426Y0222986D02*
X0223209Y0222986D01*
X0222520Y0222188D02*
X0240225Y0222188D01*
X0241669Y0221389D02*
X0221721Y0221389D01*
X0220047Y0220591D02*
X0255542Y0220591D01*
X0255542Y0221389D02*
X0245014Y0221389D01*
X0246459Y0222188D02*
X0255542Y0222188D01*
X0255542Y0222986D02*
X0247258Y0222986D01*
X0247728Y0223785D02*
X0255542Y0223785D01*
X0255542Y0224583D02*
X0248059Y0224583D01*
X0248242Y0225382D02*
X0255542Y0225382D01*
X0255542Y0226180D02*
X0248242Y0226180D01*
X0248240Y0226979D02*
X0255542Y0226979D01*
X0255542Y0227777D02*
X0247909Y0227777D01*
X0247579Y0228576D02*
X0255542Y0228576D01*
X0255542Y0229374D02*
X0246897Y0229374D01*
X0246072Y0230173D02*
X0255542Y0230173D01*
X0255542Y0219792D02*
X0210440Y0219792D01*
X0210593Y0219856D02*
X0211711Y0220974D01*
X0212317Y0222435D01*
X0212317Y0229565D01*
X0211711Y0231026D01*
X0210593Y0232144D01*
X0209132Y0232750D01*
X0207551Y0232750D01*
X0206090Y0232144D01*
X0204972Y0231026D01*
X0204367Y0229565D01*
X0204367Y0222435D01*
X0204972Y0220974D01*
X0206090Y0219856D01*
X0207551Y0219250D01*
X0209132Y0219250D01*
X0210593Y0219856D01*
X0211328Y0220591D02*
X0216637Y0220591D01*
X0214962Y0221389D02*
X0211884Y0221389D01*
X0212214Y0222188D02*
X0214164Y0222188D01*
X0213475Y0222986D02*
X0212317Y0222986D01*
X0212317Y0223785D02*
X0213144Y0223785D01*
X0212813Y0224583D02*
X0212317Y0224583D01*
X0212317Y0225382D02*
X0212692Y0225382D01*
X0212692Y0226180D02*
X0212317Y0226180D01*
X0212317Y0226979D02*
X0212692Y0226979D01*
X0212962Y0227777D02*
X0212317Y0227777D01*
X0212317Y0228576D02*
X0213293Y0228576D01*
X0213726Y0229374D02*
X0212317Y0229374D01*
X0212065Y0230173D02*
X0214524Y0230173D01*
X0215579Y0230971D02*
X0211734Y0230971D01*
X0210968Y0231770D02*
X0240750Y0231770D01*
X0239844Y0232568D02*
X0209570Y0232568D01*
X0207113Y0232568D02*
X0199570Y0232568D01*
X0199132Y0232750D02*
X0197551Y0232750D01*
X0196090Y0232144D01*
X0194972Y0231026D01*
X0194367Y0229565D01*
X0194367Y0222435D01*
X0194972Y0220974D01*
X0196090Y0219856D01*
X0197551Y0219250D01*
X0199132Y0219250D01*
X0200593Y0219856D01*
X0201711Y0220974D01*
X0202317Y0222435D01*
X0202317Y0229565D01*
X0201711Y0231026D01*
X0200593Y0232144D01*
X0199132Y0232750D01*
X0197113Y0232568D02*
X0189570Y0232568D01*
X0189132Y0232750D02*
X0187551Y0232750D01*
X0186090Y0232144D01*
X0184972Y0231026D01*
X0184367Y0229565D01*
X0184367Y0222435D01*
X0184972Y0220974D01*
X0186090Y0219856D01*
X0187551Y0219250D01*
X0189132Y0219250D01*
X0190593Y0219856D01*
X0191711Y0220974D01*
X0192317Y0222435D01*
X0192317Y0229565D01*
X0191711Y0231026D01*
X0190593Y0232144D01*
X0189132Y0232750D01*
X0187113Y0232568D02*
X0180092Y0232568D01*
X0179944Y0232644D02*
X0179319Y0232847D01*
X0178729Y0232940D01*
X0178729Y0226387D01*
X0182517Y0226387D01*
X0182517Y0229103D01*
X0182414Y0229752D01*
X0182211Y0230377D01*
X0181912Y0230963D01*
X0181526Y0231495D01*
X0181062Y0231959D01*
X0180530Y0232345D01*
X0179944Y0232644D01*
X0178729Y0232568D02*
X0177954Y0232568D01*
X0177954Y0232940D02*
X0177364Y0232847D01*
X0176739Y0232644D01*
X0176154Y0232345D01*
X0175622Y0231959D01*
X0175157Y0231495D01*
X0174771Y0230963D01*
X0174473Y0230377D01*
X0174270Y0229752D01*
X0174167Y0229103D01*
X0174167Y0226387D01*
X0177954Y0226387D01*
X0177954Y0225613D01*
X0174167Y0225613D01*
X0174167Y0222897D01*
X0174270Y0222248D01*
X0174473Y0221623D01*
X0174771Y0221037D01*
X0175157Y0220505D01*
X0175622Y0220041D01*
X0176154Y0219655D01*
X0176739Y0219356D01*
X0177364Y0219153D01*
X0177954Y0219060D01*
X0177954Y0225613D01*
X0178729Y0225613D01*
X0178729Y0226387D01*
X0177954Y0226387D01*
X0177954Y0232940D01*
X0177954Y0231770D02*
X0178729Y0231770D01*
X0178729Y0230971D02*
X0177954Y0230971D01*
X0177954Y0230173D02*
X0178729Y0230173D01*
X0178729Y0229374D02*
X0177954Y0229374D01*
X0177954Y0228576D02*
X0178729Y0228576D01*
X0178729Y0227777D02*
X0177954Y0227777D01*
X0177954Y0226979D02*
X0178729Y0226979D01*
X0178729Y0226180D02*
X0184367Y0226180D01*
X0184367Y0225382D02*
X0182517Y0225382D01*
X0182517Y0225613D02*
X0178729Y0225613D01*
X0178729Y0219060D01*
X0179319Y0219153D01*
X0179944Y0219356D01*
X0180530Y0219655D01*
X0181062Y0220041D01*
X0181526Y0220505D01*
X0181912Y0221037D01*
X0182211Y0221623D01*
X0182414Y0222248D01*
X0182517Y0222897D01*
X0182517Y0225613D01*
X0182517Y0224583D02*
X0184367Y0224583D01*
X0184367Y0223785D02*
X0182517Y0223785D01*
X0182517Y0222986D02*
X0184367Y0222986D01*
X0184469Y0222188D02*
X0182394Y0222188D01*
X0182092Y0221389D02*
X0184800Y0221389D01*
X0185355Y0220591D02*
X0181588Y0220591D01*
X0180719Y0219792D02*
X0186243Y0219792D01*
X0190440Y0219792D02*
X0196243Y0219792D01*
X0195355Y0220591D02*
X0191328Y0220591D01*
X0191884Y0221389D02*
X0194800Y0221389D01*
X0194469Y0222188D02*
X0192214Y0222188D01*
X0192317Y0222986D02*
X0194367Y0222986D01*
X0194367Y0223785D02*
X0192317Y0223785D01*
X0192317Y0224583D02*
X0194367Y0224583D01*
X0194367Y0225382D02*
X0192317Y0225382D01*
X0192317Y0226180D02*
X0194367Y0226180D01*
X0194367Y0226979D02*
X0192317Y0226979D01*
X0192317Y0227777D02*
X0194367Y0227777D01*
X0194367Y0228576D02*
X0192317Y0228576D01*
X0192317Y0229374D02*
X0194367Y0229374D01*
X0194619Y0230173D02*
X0192065Y0230173D01*
X0191734Y0230971D02*
X0194949Y0230971D01*
X0195716Y0231770D02*
X0190968Y0231770D01*
X0185716Y0231770D02*
X0181251Y0231770D01*
X0181906Y0230971D02*
X0184949Y0230971D01*
X0184619Y0230173D02*
X0182277Y0230173D01*
X0182474Y0229374D02*
X0184367Y0229374D01*
X0184367Y0228576D02*
X0182517Y0228576D01*
X0182517Y0227777D02*
X0184367Y0227777D01*
X0184367Y0226979D02*
X0182517Y0226979D01*
X0178729Y0225382D02*
X0177954Y0225382D01*
X0177954Y0226180D02*
X0172317Y0226180D01*
X0172317Y0225382D02*
X0174167Y0225382D01*
X0174167Y0224583D02*
X0172317Y0224583D01*
X0172317Y0223785D02*
X0174167Y0223785D01*
X0174167Y0222986D02*
X0172317Y0222986D01*
X0172317Y0222435D02*
X0172317Y0229565D01*
X0171711Y0231026D01*
X0170593Y0232144D01*
X0169132Y0232750D01*
X0167551Y0232750D01*
X0166090Y0232144D01*
X0164972Y0231026D01*
X0164367Y0229565D01*
X0164367Y0222435D01*
X0164972Y0220974D01*
X0166090Y0219856D01*
X0167551Y0219250D01*
X0169132Y0219250D01*
X0170593Y0219856D01*
X0171711Y0220974D01*
X0172317Y0222435D01*
X0172214Y0222188D02*
X0174289Y0222188D01*
X0174592Y0221389D02*
X0171884Y0221389D01*
X0171328Y0220591D02*
X0175096Y0220591D01*
X0175964Y0219792D02*
X0170440Y0219792D01*
X0166243Y0219792D02*
X0160440Y0219792D01*
X0161328Y0220591D02*
X0165355Y0220591D01*
X0164800Y0221389D02*
X0161884Y0221389D01*
X0162214Y0222188D02*
X0164469Y0222188D01*
X0164367Y0222986D02*
X0162317Y0222986D01*
X0162317Y0223785D02*
X0164367Y0223785D01*
X0164367Y0224583D02*
X0162317Y0224583D01*
X0162317Y0225382D02*
X0164367Y0225382D01*
X0164367Y0226180D02*
X0162317Y0226180D01*
X0162317Y0226979D02*
X0164367Y0226979D01*
X0164367Y0227777D02*
X0162317Y0227777D01*
X0162317Y0228576D02*
X0164367Y0228576D01*
X0164367Y0229374D02*
X0162317Y0229374D01*
X0162065Y0230173D02*
X0164619Y0230173D01*
X0164949Y0230971D02*
X0161734Y0230971D01*
X0160968Y0231770D02*
X0165716Y0231770D01*
X0167113Y0232568D02*
X0159570Y0232568D01*
X0158770Y0234165D02*
X0238798Y0234165D01*
X0239129Y0233367D02*
X0157971Y0233367D01*
X0158342Y0236000D02*
X0148342Y0226000D01*
X0152317Y0226180D02*
X0154367Y0226180D01*
X0154367Y0225382D02*
X0152317Y0225382D01*
X0152317Y0224583D02*
X0154367Y0224583D01*
X0154367Y0223785D02*
X0152317Y0223785D01*
X0152317Y0222986D02*
X0154367Y0222986D01*
X0154469Y0222188D02*
X0152214Y0222188D01*
X0151884Y0221389D02*
X0154800Y0221389D01*
X0155355Y0220591D02*
X0151328Y0220591D01*
X0150440Y0219792D02*
X0156243Y0219792D01*
X0154367Y0226979D02*
X0152317Y0226979D01*
X0152382Y0227777D02*
X0154367Y0227777D01*
X0154367Y0228576D02*
X0153180Y0228576D01*
X0153979Y0229374D02*
X0154367Y0229374D01*
X0151849Y0231770D02*
X0150968Y0231770D01*
X0149570Y0232568D02*
X0152647Y0232568D01*
X0153446Y0233367D02*
X0147971Y0233367D01*
X0148770Y0234165D02*
X0154244Y0234165D01*
X0155043Y0234964D02*
X0149568Y0234964D01*
X0150367Y0235762D02*
X0155841Y0235762D01*
X0156640Y0236561D02*
X0151165Y0236561D01*
X0151964Y0237359D02*
X0157438Y0237359D01*
X0158342Y0236000D02*
X0243342Y0236000D01*
X0241530Y0240553D02*
X0155158Y0240553D01*
X0154359Y0239755D02*
X0240167Y0239755D01*
X0239369Y0238956D02*
X0153561Y0238956D01*
X0152762Y0238158D02*
X0238932Y0238158D01*
X0240262Y0242150D02*
X0156755Y0242150D01*
X0155956Y0241352D02*
X0241759Y0241352D01*
X0239463Y0242949D02*
X0157553Y0242949D01*
X0158352Y0243747D02*
X0238971Y0243747D01*
X0243342Y0246000D02*
X0158342Y0246000D01*
X0138342Y0226000D01*
X0142317Y0226180D02*
X0144367Y0226180D01*
X0144367Y0225382D02*
X0142317Y0225382D01*
X0142317Y0224583D02*
X0144367Y0224583D01*
X0144367Y0223785D02*
X0142317Y0223785D01*
X0142317Y0222986D02*
X0144367Y0222986D01*
X0144469Y0222188D02*
X0142214Y0222188D01*
X0141884Y0221389D02*
X0144800Y0221389D01*
X0145355Y0220591D02*
X0141328Y0220591D01*
X0140440Y0219792D02*
X0146243Y0219792D01*
X0144367Y0226979D02*
X0142317Y0226979D01*
X0142382Y0227777D02*
X0144367Y0227777D01*
X0144367Y0228576D02*
X0143180Y0228576D01*
X0143979Y0229374D02*
X0144367Y0229374D01*
X0141849Y0231770D02*
X0140968Y0231770D01*
X0139570Y0232568D02*
X0142647Y0232568D01*
X0143446Y0233367D02*
X0046142Y0233367D01*
X0046142Y0234165D02*
X0144244Y0234165D01*
X0145043Y0234964D02*
X0046142Y0234964D01*
X0046142Y0235762D02*
X0145841Y0235762D01*
X0146640Y0236561D02*
X0046142Y0236561D01*
X0046142Y0237359D02*
X0147438Y0237359D01*
X0148237Y0238158D02*
X0046142Y0238158D01*
X0046142Y0238956D02*
X0149035Y0238956D01*
X0149834Y0239755D02*
X0046142Y0239755D01*
X0046142Y0240553D02*
X0150632Y0240553D01*
X0151431Y0241352D02*
X0046142Y0241352D01*
X0046142Y0242150D02*
X0152230Y0242150D01*
X0153028Y0242949D02*
X0046142Y0242949D01*
X0046142Y0243747D02*
X0153827Y0243747D01*
X0154625Y0244546D02*
X0046142Y0244546D01*
X0046142Y0245344D02*
X0155424Y0245344D01*
X0156222Y0246143D02*
X0046142Y0246143D01*
X0046142Y0246941D02*
X0157021Y0246941D01*
X0151803Y0252531D02*
X0169598Y0252531D01*
X0169452Y0252678D02*
X0170019Y0252110D01*
X0170669Y0251638D01*
X0171384Y0251274D01*
X0172148Y0251026D01*
X0172940Y0250900D01*
X0172942Y0250900D01*
X0172942Y0255600D01*
X0168242Y0255600D01*
X0168242Y0255599D01*
X0168367Y0254806D01*
X0168615Y0254042D01*
X0168980Y0253327D01*
X0169452Y0252678D01*
X0168979Y0253330D02*
X0152539Y0253330D01*
X0152496Y0253224D02*
X0153242Y0255025D01*
X0153242Y0256975D01*
X0152496Y0258776D01*
X0151117Y0260154D01*
X0149316Y0260900D01*
X0147367Y0260900D01*
X0145566Y0260154D01*
X0144188Y0258776D01*
X0143442Y0256975D01*
X0143442Y0255025D01*
X0144188Y0253224D01*
X0145566Y0251846D01*
X0147367Y0251100D01*
X0149316Y0251100D01*
X0151117Y0251846D01*
X0152496Y0253224D01*
X0152870Y0254128D02*
X0168588Y0254128D01*
X0168348Y0254927D02*
X0153201Y0254927D01*
X0153242Y0255725D02*
X0172942Y0255725D01*
X0172942Y0254927D02*
X0173742Y0254927D01*
X0173742Y0255725D02*
X0178442Y0255725D01*
X0178442Y0255025D02*
X0179188Y0253224D01*
X0180566Y0251846D01*
X0182367Y0251100D01*
X0184316Y0251100D01*
X0186117Y0251846D01*
X0187496Y0253224D01*
X0188242Y0255025D01*
X0188242Y0256975D01*
X0187496Y0258776D01*
X0186117Y0260154D01*
X0184316Y0260900D01*
X0182367Y0260900D01*
X0180566Y0260154D01*
X0179188Y0258776D01*
X0178442Y0256975D01*
X0178442Y0255025D01*
X0178483Y0254927D02*
X0178335Y0254927D01*
X0178096Y0254128D02*
X0178813Y0254128D01*
X0179144Y0253330D02*
X0177705Y0253330D01*
X0177085Y0252531D02*
X0179881Y0252531D01*
X0180840Y0251733D02*
X0176145Y0251733D01*
X0173742Y0251733D02*
X0172942Y0251733D01*
X0172942Y0252531D02*
X0173742Y0252531D01*
X0173742Y0253330D02*
X0172942Y0253330D01*
X0172942Y0254128D02*
X0173742Y0254128D01*
X0173742Y0256524D02*
X0172942Y0256524D01*
X0172942Y0257322D02*
X0173742Y0257322D01*
X0173742Y0258121D02*
X0172942Y0258121D01*
X0172942Y0258919D02*
X0173742Y0258919D01*
X0173742Y0259718D02*
X0172942Y0259718D01*
X0172942Y0260516D02*
X0173742Y0260516D01*
X0175712Y0260516D02*
X0181441Y0260516D01*
X0180130Y0259718D02*
X0176837Y0259718D01*
X0177525Y0258919D02*
X0179331Y0258919D01*
X0178916Y0258121D02*
X0177985Y0258121D01*
X0178275Y0257322D02*
X0178586Y0257322D01*
X0178442Y0256524D02*
X0178422Y0256524D01*
X0185844Y0251733D02*
X0190840Y0251733D01*
X0190566Y0251846D02*
X0192367Y0251100D01*
X0194316Y0251100D01*
X0196117Y0251846D01*
X0197496Y0253224D01*
X0198242Y0255025D01*
X0198242Y0256975D01*
X0197496Y0258776D01*
X0196117Y0260154D01*
X0194316Y0260900D01*
X0192367Y0260900D01*
X0190566Y0260154D01*
X0189188Y0258776D01*
X0188442Y0256975D01*
X0188442Y0255025D01*
X0189188Y0253224D01*
X0190566Y0251846D01*
X0189881Y0252531D02*
X0186803Y0252531D01*
X0187539Y0253330D02*
X0189144Y0253330D01*
X0188813Y0254128D02*
X0187870Y0254128D01*
X0188201Y0254927D02*
X0188483Y0254927D01*
X0188442Y0255725D02*
X0188242Y0255725D01*
X0188242Y0256524D02*
X0188442Y0256524D01*
X0188586Y0257322D02*
X0188098Y0257322D01*
X0187767Y0258121D02*
X0188916Y0258121D01*
X0189331Y0258919D02*
X0187352Y0258919D01*
X0186554Y0259718D02*
X0190130Y0259718D01*
X0191441Y0260516D02*
X0185243Y0260516D01*
X0195243Y0260516D02*
X0201441Y0260516D01*
X0200130Y0259718D02*
X0196554Y0259718D01*
X0197352Y0258919D02*
X0199331Y0258919D01*
X0198916Y0258121D02*
X0197767Y0258121D01*
X0198098Y0257322D02*
X0198586Y0257322D01*
X0198442Y0256524D02*
X0198242Y0256524D01*
X0198242Y0255725D02*
X0198442Y0255725D01*
X0198483Y0254927D02*
X0198201Y0254927D01*
X0197870Y0254128D02*
X0198813Y0254128D01*
X0199144Y0253330D02*
X0197539Y0253330D01*
X0196803Y0252531D02*
X0199881Y0252531D01*
X0200840Y0251733D02*
X0195844Y0251733D01*
X0206554Y0259718D02*
X0239847Y0259718D01*
X0239159Y0258919D02*
X0207352Y0258919D01*
X0207767Y0258121D02*
X0238698Y0258121D01*
X0238409Y0257322D02*
X0208098Y0257322D01*
X0208242Y0256524D02*
X0238261Y0256524D01*
X0242942Y0256524D02*
X0243742Y0256524D01*
X0243742Y0257322D02*
X0242942Y0257322D01*
X0242942Y0258121D02*
X0243742Y0258121D01*
X0243742Y0258919D02*
X0242942Y0258919D01*
X0242942Y0259718D02*
X0243742Y0259718D01*
X0243742Y0260516D02*
X0242942Y0260516D01*
X0240972Y0260516D02*
X0205243Y0260516D01*
X0170972Y0260516D02*
X0150243Y0260516D01*
X0151554Y0259718D02*
X0169847Y0259718D01*
X0169159Y0258919D02*
X0152352Y0258919D01*
X0152767Y0258121D02*
X0168698Y0258121D01*
X0168409Y0257322D02*
X0153098Y0257322D01*
X0153242Y0256524D02*
X0168261Y0256524D01*
X0170539Y0251733D02*
X0150844Y0251733D01*
X0145840Y0251733D02*
X0140844Y0251733D01*
X0141117Y0251846D02*
X0142496Y0253224D01*
X0143242Y0255025D01*
X0143242Y0256975D01*
X0142496Y0258776D01*
X0141117Y0260154D01*
X0139316Y0260900D01*
X0137367Y0260900D01*
X0135566Y0260154D01*
X0134188Y0258776D01*
X0133442Y0256975D01*
X0133442Y0255025D01*
X0134188Y0253224D01*
X0135566Y0251846D01*
X0137367Y0251100D01*
X0139316Y0251100D01*
X0141117Y0251846D01*
X0141803Y0252531D02*
X0144881Y0252531D01*
X0144144Y0253330D02*
X0142539Y0253330D01*
X0142870Y0254128D02*
X0143813Y0254128D01*
X0143483Y0254927D02*
X0143201Y0254927D01*
X0143242Y0255725D02*
X0143442Y0255725D01*
X0143442Y0256524D02*
X0143242Y0256524D01*
X0143098Y0257322D02*
X0143586Y0257322D01*
X0143916Y0258121D02*
X0142767Y0258121D01*
X0142352Y0258919D02*
X0144331Y0258919D01*
X0145130Y0259718D02*
X0141554Y0259718D01*
X0140243Y0260516D02*
X0146441Y0260516D01*
X0136441Y0260516D02*
X0130243Y0260516D01*
X0131117Y0260154D02*
X0129316Y0260900D01*
X0127367Y0260900D01*
X0125566Y0260154D01*
X0124188Y0258776D01*
X0123442Y0256975D01*
X0123442Y0255025D01*
X0124188Y0253224D01*
X0125566Y0251846D01*
X0127367Y0251100D01*
X0129316Y0251100D01*
X0131117Y0251846D01*
X0132496Y0253224D01*
X0133242Y0255025D01*
X0133242Y0256975D01*
X0132496Y0258776D01*
X0131117Y0260154D01*
X0131554Y0259718D02*
X0135130Y0259718D01*
X0134331Y0258919D02*
X0132352Y0258919D01*
X0132767Y0258121D02*
X0133916Y0258121D01*
X0133586Y0257322D02*
X0133098Y0257322D01*
X0133242Y0256524D02*
X0133442Y0256524D01*
X0133442Y0255725D02*
X0133242Y0255725D01*
X0133201Y0254927D02*
X0133483Y0254927D01*
X0133813Y0254128D02*
X0132870Y0254128D01*
X0132539Y0253330D02*
X0134144Y0253330D01*
X0134881Y0252531D02*
X0131803Y0252531D01*
X0130844Y0251733D02*
X0135840Y0251733D01*
X0125840Y0251733D02*
X0121145Y0251733D01*
X0122085Y0252531D02*
X0124881Y0252531D01*
X0124144Y0253330D02*
X0122705Y0253330D01*
X0123096Y0254128D02*
X0123813Y0254128D01*
X0123483Y0254927D02*
X0123335Y0254927D01*
X0123442Y0255725D02*
X0118742Y0255725D01*
X0118742Y0254927D02*
X0117942Y0254927D01*
X0117942Y0255600D02*
X0117942Y0250900D01*
X0117940Y0250900D01*
X0117148Y0251026D01*
X0116384Y0251274D01*
X0115669Y0251638D01*
X0115019Y0252110D01*
X0114452Y0252678D01*
X0113980Y0253327D01*
X0113615Y0254042D01*
X0113367Y0254806D01*
X0113242Y0255599D01*
X0113242Y0255600D01*
X0117942Y0255600D01*
X0117942Y0255725D02*
X0098242Y0255725D01*
X0098242Y0255025D02*
X0097496Y0253224D01*
X0096117Y0251846D01*
X0094316Y0251100D01*
X0092367Y0251100D01*
X0090566Y0251846D01*
X0089188Y0253224D01*
X0088442Y0255025D01*
X0088442Y0256975D01*
X0089188Y0258776D01*
X0090566Y0260154D01*
X0092367Y0260900D01*
X0094316Y0260900D01*
X0096117Y0260154D01*
X0097496Y0258776D01*
X0098242Y0256975D01*
X0098242Y0255025D01*
X0098201Y0254927D02*
X0113348Y0254927D01*
X0113588Y0254128D02*
X0097870Y0254128D01*
X0097539Y0253330D02*
X0113979Y0253330D01*
X0114598Y0252531D02*
X0096803Y0252531D01*
X0095844Y0251733D02*
X0115539Y0251733D01*
X0117942Y0251733D02*
X0118742Y0251733D01*
X0118742Y0252531D02*
X0117942Y0252531D01*
X0117942Y0253330D02*
X0118742Y0253330D01*
X0118742Y0254128D02*
X0117942Y0254128D01*
X0117942Y0256524D02*
X0118742Y0256524D01*
X0118742Y0257322D02*
X0117942Y0257322D01*
X0117942Y0258121D02*
X0118742Y0258121D01*
X0118742Y0258919D02*
X0117942Y0258919D01*
X0117942Y0259718D02*
X0118742Y0259718D01*
X0118742Y0260516D02*
X0117942Y0260516D01*
X0115972Y0260516D02*
X0095243Y0260516D01*
X0096554Y0259718D02*
X0114847Y0259718D01*
X0114159Y0258919D02*
X0097352Y0258919D01*
X0097767Y0258121D02*
X0113698Y0258121D01*
X0113409Y0257322D02*
X0098098Y0257322D01*
X0098242Y0256524D02*
X0113261Y0256524D01*
X0120712Y0260516D02*
X0126441Y0260516D01*
X0125130Y0259718D02*
X0121837Y0259718D01*
X0122525Y0258919D02*
X0124331Y0258919D01*
X0123916Y0258121D02*
X0122985Y0258121D01*
X0123275Y0257322D02*
X0123586Y0257322D01*
X0123442Y0256524D02*
X0123422Y0256524D01*
X0127551Y0232750D02*
X0126090Y0232144D01*
X0124972Y0231026D01*
X0124367Y0229565D01*
X0124367Y0222435D01*
X0124972Y0220974D01*
X0126090Y0219856D01*
X0127551Y0219250D01*
X0129132Y0219250D01*
X0130593Y0219856D01*
X0131711Y0220974D01*
X0132317Y0222435D01*
X0132317Y0229565D01*
X0131711Y0231026D01*
X0130593Y0232144D01*
X0129132Y0232750D01*
X0127551Y0232750D01*
X0127113Y0232568D02*
X0119570Y0232568D01*
X0119132Y0232750D02*
X0117551Y0232750D01*
X0116090Y0232144D01*
X0114972Y0231026D01*
X0114367Y0229565D01*
X0114367Y0222435D01*
X0114972Y0220974D01*
X0116090Y0219856D01*
X0117551Y0219250D01*
X0119132Y0219250D01*
X0120593Y0219856D01*
X0121711Y0220974D01*
X0122317Y0222435D01*
X0122317Y0229565D01*
X0121711Y0231026D01*
X0120593Y0232144D01*
X0119132Y0232750D01*
X0117113Y0232568D02*
X0109570Y0232568D01*
X0109132Y0232750D02*
X0107551Y0232750D01*
X0106090Y0232144D01*
X0104972Y0231026D01*
X0104367Y0229565D01*
X0104367Y0222435D01*
X0104972Y0220974D01*
X0106090Y0219856D01*
X0107551Y0219250D01*
X0109132Y0219250D01*
X0110593Y0219856D01*
X0111711Y0220974D01*
X0112317Y0222435D01*
X0112317Y0229565D01*
X0111711Y0231026D01*
X0110593Y0232144D01*
X0109132Y0232750D01*
X0107113Y0232568D02*
X0099570Y0232568D01*
X0099132Y0232750D02*
X0097551Y0232750D01*
X0096090Y0232144D01*
X0094972Y0231026D01*
X0094367Y0229565D01*
X0094367Y0222435D01*
X0094972Y0220974D01*
X0096090Y0219856D01*
X0097551Y0219250D01*
X0099132Y0219250D01*
X0100593Y0219856D01*
X0101711Y0220974D01*
X0102317Y0222435D01*
X0102317Y0229565D01*
X0101711Y0231026D01*
X0100593Y0232144D01*
X0099132Y0232750D01*
X0097113Y0232568D02*
X0089570Y0232568D01*
X0089132Y0232750D02*
X0087551Y0232750D01*
X0086090Y0232144D01*
X0084972Y0231026D01*
X0084367Y0229565D01*
X0084367Y0222435D01*
X0084972Y0220974D01*
X0086090Y0219856D01*
X0087551Y0219250D01*
X0089132Y0219250D01*
X0090593Y0219856D01*
X0091711Y0220974D01*
X0092317Y0222435D01*
X0092317Y0229565D01*
X0091711Y0231026D01*
X0090593Y0232144D01*
X0089132Y0232750D01*
X0087113Y0232568D02*
X0079570Y0232568D01*
X0079132Y0232750D02*
X0077551Y0232750D01*
X0076090Y0232144D01*
X0074972Y0231026D01*
X0074367Y0229565D01*
X0074367Y0222435D01*
X0074972Y0220974D01*
X0076090Y0219856D01*
X0077551Y0219250D01*
X0079132Y0219250D01*
X0080593Y0219856D01*
X0081711Y0220974D01*
X0082317Y0222435D01*
X0082317Y0229565D01*
X0081711Y0231026D01*
X0080593Y0232144D01*
X0079132Y0232750D01*
X0077113Y0232568D02*
X0069570Y0232568D01*
X0069132Y0232750D02*
X0067551Y0232750D01*
X0066090Y0232144D01*
X0064972Y0231026D01*
X0064367Y0229565D01*
X0064367Y0224288D01*
X0063329Y0223250D01*
X0063311Y0223231D01*
X0063992Y0224876D01*
X0063992Y0227124D01*
X0063132Y0229200D01*
X0061542Y0230790D01*
X0059466Y0231650D01*
X0057218Y0231650D01*
X0055141Y0230790D01*
X0053552Y0229200D01*
X0052692Y0227124D01*
X0052692Y0224876D01*
X0053552Y0222800D01*
X0055141Y0221210D01*
X0057218Y0220350D01*
X0059466Y0220350D01*
X0061542Y0221210D01*
X0062392Y0222060D01*
X0062392Y0169940D01*
X0061542Y0170790D01*
X0059466Y0171650D01*
X0057218Y0171650D01*
X0055141Y0170790D01*
X0053552Y0169200D01*
X0052692Y0167124D01*
X0052692Y0164876D01*
X0053552Y0162800D01*
X0055141Y0161210D01*
X0057218Y0160350D01*
X0059466Y0160350D01*
X0061110Y0161031D01*
X0047679Y0147600D01*
X0046742Y0146663D01*
X0046742Y0140337D01*
X0053929Y0133150D01*
X0053442Y0131975D01*
X0053442Y0130025D01*
X0054188Y0128224D01*
X0055566Y0126846D01*
X0057367Y0126100D01*
X0059316Y0126100D01*
X0061117Y0126846D01*
X0062496Y0128224D01*
X0063242Y0130025D01*
X0063242Y0131975D01*
X0062496Y0133776D01*
X0061117Y0135154D01*
X0059316Y0135900D01*
X0057367Y0135900D01*
X0056191Y0135413D01*
X0049942Y0141663D01*
X0049942Y0145337D01*
X0065275Y0160671D01*
X0066090Y0159856D01*
X0067551Y0159250D01*
X0069132Y0159250D01*
X0070593Y0159856D01*
X0071711Y0160974D01*
X0072317Y0162435D01*
X0072317Y0169565D01*
X0071711Y0171026D01*
X0070593Y0172144D01*
X0069132Y0172750D01*
X0067551Y0172750D01*
X0066090Y0172144D01*
X0065592Y0171646D01*
X0065592Y0220354D01*
X0066090Y0219856D01*
X0067551Y0219250D01*
X0069132Y0219250D01*
X0070593Y0219856D01*
X0071711Y0220974D01*
X0072317Y0222435D01*
X0072317Y0229565D01*
X0071711Y0231026D01*
X0070593Y0232144D01*
X0069132Y0232750D01*
X0067113Y0232568D02*
X0046142Y0232568D01*
X0046142Y0231770D02*
X0065716Y0231770D01*
X0064949Y0230971D02*
X0061104Y0230971D01*
X0062159Y0230173D02*
X0064619Y0230173D01*
X0064367Y0229374D02*
X0062958Y0229374D01*
X0063390Y0228576D02*
X0064367Y0228576D01*
X0064367Y0227777D02*
X0063721Y0227777D01*
X0063992Y0226979D02*
X0064367Y0226979D01*
X0064367Y0226180D02*
X0063992Y0226180D01*
X0063992Y0225382D02*
X0064367Y0225382D01*
X0064367Y0224583D02*
X0063870Y0224583D01*
X0063864Y0223785D02*
X0063540Y0223785D01*
X0063329Y0223250D02*
X0063329Y0223250D01*
X0063992Y0221650D02*
X0063992Y0166000D01*
X0063992Y0161650D01*
X0048342Y0146000D01*
X0048342Y0141000D01*
X0058342Y0131000D01*
X0062919Y0132754D02*
X0064325Y0132754D01*
X0065123Y0131956D02*
X0063242Y0131956D01*
X0063242Y0131157D02*
X0065922Y0131157D01*
X0066720Y0130359D02*
X0063242Y0130359D01*
X0063049Y0129560D02*
X0067519Y0129560D01*
X0067679Y0129400D02*
X0134005Y0129400D01*
X0140705Y0136100D01*
X0141816Y0136100D01*
X0143617Y0136846D01*
X0144996Y0138224D01*
X0145742Y0140025D01*
X0145742Y0141975D01*
X0144996Y0143776D01*
X0143617Y0145154D01*
X0141816Y0145900D01*
X0139867Y0145900D01*
X0138066Y0145154D01*
X0136688Y0143776D01*
X0135942Y0141975D01*
X0135942Y0140025D01*
X0136688Y0138224D01*
X0137496Y0137417D01*
X0132679Y0132600D01*
X0069005Y0132600D01*
X0062755Y0138850D01*
X0063242Y0140025D01*
X0063242Y0141975D01*
X0062496Y0143776D01*
X0061117Y0145154D01*
X0059316Y0145900D01*
X0057367Y0145900D01*
X0055566Y0145154D01*
X0054188Y0143776D01*
X0053442Y0141975D01*
X0053442Y0140025D01*
X0054188Y0138224D01*
X0055566Y0136846D01*
X0057367Y0136100D01*
X0059316Y0136100D01*
X0060492Y0136587D01*
X0066742Y0130337D01*
X0067679Y0129400D01*
X0068342Y0131000D02*
X0133342Y0131000D01*
X0140842Y0138500D01*
X0140842Y0141000D01*
X0145376Y0139142D02*
X0163807Y0139142D01*
X0164138Y0138344D02*
X0145045Y0138344D01*
X0144317Y0137545D02*
X0164867Y0137545D01*
X0164188Y0138224D02*
X0165566Y0136846D01*
X0167367Y0136100D01*
X0169316Y0136100D01*
X0171117Y0136846D01*
X0172496Y0138224D01*
X0173242Y0140025D01*
X0173242Y0140767D01*
X0173442Y0140567D01*
X0173442Y0140025D01*
X0174188Y0138224D01*
X0175566Y0136846D01*
X0177367Y0136100D01*
X0179316Y0136100D01*
X0181117Y0136846D01*
X0182496Y0138224D01*
X0183242Y0140025D01*
X0183242Y0141975D01*
X0182496Y0143776D01*
X0181117Y0145154D01*
X0179316Y0145900D01*
X0177367Y0145900D01*
X0175566Y0145154D01*
X0174473Y0144061D01*
X0171971Y0146563D01*
X0171034Y0147500D01*
X0159105Y0147500D01*
X0147215Y0159390D01*
X0147551Y0159250D01*
X0149132Y0159250D01*
X0150593Y0159856D01*
X0151711Y0160974D01*
X0152317Y0162435D01*
X0152317Y0169565D01*
X0151711Y0171026D01*
X0150593Y0172144D01*
X0149132Y0172750D01*
X0147551Y0172750D01*
X0146090Y0172144D01*
X0144972Y0171026D01*
X0144367Y0169565D01*
X0144367Y0162435D01*
X0144506Y0162098D01*
X0142317Y0164288D01*
X0142317Y0169565D01*
X0141711Y0171026D01*
X0140593Y0172144D01*
X0139132Y0172750D01*
X0137551Y0172750D01*
X0136090Y0172144D01*
X0134972Y0171026D01*
X0134367Y0169565D01*
X0134367Y0164288D01*
X0132177Y0162098D01*
X0132317Y0162435D01*
X0132317Y0169565D01*
X0131711Y0171026D01*
X0130593Y0172144D01*
X0129132Y0172750D01*
X0127551Y0172750D01*
X0126090Y0172144D01*
X0124972Y0171026D01*
X0124367Y0169565D01*
X0124367Y0162435D01*
X0124972Y0160974D01*
X0126090Y0159856D01*
X0127551Y0159250D01*
X0129132Y0159250D01*
X0129469Y0159390D01*
X0122679Y0152600D01*
X0097679Y0152600D01*
X0096742Y0151663D01*
X0090979Y0145900D01*
X0089867Y0145900D01*
X0088066Y0145154D01*
X0086688Y0143776D01*
X0085942Y0141975D01*
X0085942Y0140025D01*
X0086688Y0138224D01*
X0088066Y0136846D01*
X0089867Y0136100D01*
X0091816Y0136100D01*
X0093617Y0136846D01*
X0094996Y0138224D01*
X0095742Y0140025D01*
X0095742Y0141975D01*
X0094996Y0143776D01*
X0094188Y0144583D01*
X0099005Y0149400D01*
X0124005Y0149400D01*
X0135275Y0160671D01*
X0136090Y0159856D01*
X0137551Y0159250D01*
X0139132Y0159250D01*
X0140593Y0159856D01*
X0141408Y0160671D01*
X0156842Y0145237D01*
X0157779Y0144300D01*
X0164712Y0144300D01*
X0164188Y0143776D01*
X0163442Y0141975D01*
X0163442Y0140025D01*
X0164188Y0138224D01*
X0163477Y0139941D02*
X0145707Y0139941D01*
X0145742Y0140739D02*
X0163442Y0140739D01*
X0163442Y0141538D02*
X0145742Y0141538D01*
X0145592Y0142337D02*
X0163592Y0142337D01*
X0163922Y0143135D02*
X0145261Y0143135D01*
X0144838Y0143934D02*
X0164346Y0143934D01*
X0158442Y0145900D02*
X0170371Y0145900D01*
X0175271Y0141000D01*
X0178342Y0141000D01*
X0182876Y0139142D02*
X0183807Y0139142D01*
X0184138Y0138344D02*
X0182545Y0138344D01*
X0181817Y0137545D02*
X0184867Y0137545D01*
X0184188Y0138224D02*
X0185566Y0136846D01*
X0187367Y0136100D01*
X0189316Y0136100D01*
X0191117Y0136846D01*
X0192496Y0138224D01*
X0193242Y0140025D01*
X0193242Y0141975D01*
X0192496Y0143776D01*
X0191117Y0145154D01*
X0189316Y0145900D01*
X0187367Y0145900D01*
X0185566Y0145154D01*
X0184188Y0143776D01*
X0183442Y0141975D01*
X0183442Y0140025D01*
X0184188Y0138224D01*
X0183477Y0139941D02*
X0183207Y0139941D01*
X0183242Y0140739D02*
X0183442Y0140739D01*
X0183442Y0141538D02*
X0183242Y0141538D01*
X0183092Y0142337D02*
X0183592Y0142337D01*
X0183922Y0143135D02*
X0182761Y0143135D01*
X0182338Y0143934D02*
X0184346Y0143934D01*
X0185144Y0144732D02*
X0181539Y0144732D01*
X0180208Y0145531D02*
X0186475Y0145531D01*
X0190208Y0145531D02*
X0196475Y0145531D01*
X0197367Y0145900D02*
X0195566Y0145154D01*
X0194188Y0143776D01*
X0193442Y0141975D01*
X0193442Y0140025D01*
X0194188Y0138224D01*
X0195566Y0136846D01*
X0197367Y0136100D01*
X0199316Y0136100D01*
X0201117Y0136846D01*
X0202496Y0138224D01*
X0203242Y0140025D01*
X0203242Y0141975D01*
X0202496Y0143776D01*
X0201117Y0145154D01*
X0199316Y0145900D01*
X0197367Y0145900D01*
X0195144Y0144732D02*
X0191539Y0144732D01*
X0192338Y0143934D02*
X0194346Y0143934D01*
X0193922Y0143135D02*
X0192761Y0143135D01*
X0193092Y0142337D02*
X0193592Y0142337D01*
X0193442Y0141538D02*
X0193242Y0141538D01*
X0193242Y0140739D02*
X0193442Y0140739D01*
X0193477Y0139941D02*
X0193207Y0139941D01*
X0192876Y0139142D02*
X0193807Y0139142D01*
X0194138Y0138344D02*
X0192545Y0138344D01*
X0191817Y0137545D02*
X0194867Y0137545D01*
X0195805Y0136747D02*
X0190878Y0136747D01*
X0185805Y0136747D02*
X0180878Y0136747D01*
X0175805Y0136747D02*
X0170878Y0136747D01*
X0171817Y0137545D02*
X0174867Y0137545D01*
X0174138Y0138344D02*
X0172545Y0138344D01*
X0172876Y0139142D02*
X0173807Y0139142D01*
X0173477Y0139941D02*
X0173207Y0139941D01*
X0173242Y0140739D02*
X0173269Y0140739D01*
X0173802Y0144732D02*
X0175144Y0144732D01*
X0176475Y0145531D02*
X0173004Y0145531D01*
X0172205Y0146329D02*
X0255542Y0146329D01*
X0255542Y0145531D02*
X0230208Y0145531D01*
X0229316Y0145900D02*
X0231117Y0145154D01*
X0232496Y0143776D01*
X0233242Y0141975D01*
X0233242Y0140025D01*
X0232496Y0138224D01*
X0231117Y0136846D01*
X0229316Y0136100D01*
X0227367Y0136100D01*
X0225566Y0136846D01*
X0224188Y0138224D01*
X0223442Y0140025D01*
X0223442Y0141975D01*
X0224188Y0143776D01*
X0225566Y0145154D01*
X0227367Y0145900D01*
X0229316Y0145900D01*
X0231539Y0144732D02*
X0255542Y0144732D01*
X0255542Y0143934D02*
X0232338Y0143934D01*
X0232761Y0143135D02*
X0255542Y0143135D01*
X0255542Y0142337D02*
X0233092Y0142337D01*
X0233242Y0141538D02*
X0255542Y0141538D01*
X0255542Y0140739D02*
X0233242Y0140739D01*
X0233207Y0139941D02*
X0255542Y0139941D01*
X0255542Y0139142D02*
X0232876Y0139142D01*
X0232545Y0138344D02*
X0255542Y0138344D01*
X0255542Y0137545D02*
X0231817Y0137545D01*
X0230878Y0136747D02*
X0255542Y0136747D01*
X0255542Y0135948D02*
X0209049Y0135948D01*
X0208742Y0135948D02*
X0207942Y0135948D01*
X0207942Y0135900D02*
X0207942Y0140600D01*
X0208742Y0140600D01*
X0208742Y0141400D01*
X0213442Y0141400D01*
X0213442Y0141401D01*
X0213316Y0142194D01*
X0213068Y0142958D01*
X0212704Y0143673D01*
X0212232Y0144322D01*
X0211664Y0144890D01*
X0211015Y0145362D01*
X0210300Y0145726D01*
X0209536Y0145974D01*
X0208743Y0146100D01*
X0208742Y0146100D01*
X0208742Y0141400D01*
X0207942Y0141400D01*
X0207942Y0146100D01*
X0207940Y0146100D01*
X0207148Y0145974D01*
X0206384Y0145726D01*
X0205669Y0145362D01*
X0205019Y0144890D01*
X0204452Y0144322D01*
X0203980Y0143673D01*
X0203615Y0142958D01*
X0203367Y0142194D01*
X0203242Y0141401D01*
X0203242Y0141400D01*
X0207942Y0141400D01*
X0207942Y0140600D01*
X0203242Y0140600D01*
X0203242Y0140599D01*
X0203367Y0139806D01*
X0203615Y0139042D01*
X0203980Y0138327D01*
X0204452Y0137678D01*
X0205019Y0137110D01*
X0205669Y0136638D01*
X0206384Y0136274D01*
X0207148Y0136026D01*
X0207940Y0135900D01*
X0207942Y0135900D01*
X0207635Y0135948D02*
X0140553Y0135948D01*
X0139754Y0135150D02*
X0255542Y0135150D01*
X0255542Y0134351D02*
X0138956Y0134351D01*
X0138157Y0133553D02*
X0255542Y0133553D01*
X0255542Y0132754D02*
X0137359Y0132754D01*
X0136560Y0131956D02*
X0255542Y0131956D01*
X0255542Y0131157D02*
X0135762Y0131157D01*
X0134963Y0130359D02*
X0255542Y0130359D01*
X0255542Y0129560D02*
X0134165Y0129560D01*
X0132833Y0132754D02*
X0068850Y0132754D01*
X0068052Y0133553D02*
X0133632Y0133553D01*
X0134430Y0134351D02*
X0067253Y0134351D01*
X0066455Y0135150D02*
X0135229Y0135150D01*
X0136027Y0135948D02*
X0131549Y0135948D01*
X0131242Y0135948D02*
X0130442Y0135948D01*
X0130442Y0135900D02*
X0130442Y0140600D01*
X0131242Y0140600D01*
X0131242Y0141400D01*
X0135942Y0141400D01*
X0135942Y0141401D01*
X0135816Y0142194D01*
X0135568Y0142958D01*
X0135204Y0143673D01*
X0134732Y0144322D01*
X0134164Y0144890D01*
X0133515Y0145362D01*
X0132800Y0145726D01*
X0132036Y0145974D01*
X0131243Y0146100D01*
X0131242Y0146100D01*
X0131242Y0141400D01*
X0130442Y0141400D01*
X0130442Y0146100D01*
X0130440Y0146100D01*
X0129648Y0145974D01*
X0128884Y0145726D01*
X0128169Y0145362D01*
X0127519Y0144890D01*
X0126952Y0144322D01*
X0126480Y0143673D01*
X0126115Y0142958D01*
X0125867Y0142194D01*
X0125742Y0141401D01*
X0125742Y0141400D01*
X0130442Y0141400D01*
X0130442Y0140600D01*
X0125742Y0140600D01*
X0125742Y0140599D01*
X0125867Y0139806D01*
X0126115Y0139042D01*
X0126480Y0138327D01*
X0126952Y0137678D01*
X0127519Y0137110D01*
X0128169Y0136638D01*
X0128884Y0136274D01*
X0129648Y0136026D01*
X0130440Y0135900D01*
X0130442Y0135900D01*
X0130135Y0135948D02*
X0065656Y0135948D01*
X0064858Y0136747D02*
X0078305Y0136747D01*
X0078066Y0136846D02*
X0079867Y0136100D01*
X0081816Y0136100D01*
X0083617Y0136846D01*
X0084996Y0138224D01*
X0085742Y0140025D01*
X0085742Y0141975D01*
X0084996Y0143776D01*
X0083617Y0145154D01*
X0081816Y0145900D01*
X0079867Y0145900D01*
X0078066Y0145154D01*
X0076688Y0143776D01*
X0075942Y0141975D01*
X0075942Y0140025D01*
X0076688Y0138224D01*
X0078066Y0136846D01*
X0077367Y0137545D02*
X0064059Y0137545D01*
X0063261Y0138344D02*
X0076638Y0138344D01*
X0076307Y0139142D02*
X0062876Y0139142D01*
X0063207Y0139941D02*
X0075977Y0139941D01*
X0075942Y0140739D02*
X0063242Y0140739D01*
X0063242Y0141538D02*
X0075942Y0141538D01*
X0076092Y0142337D02*
X0063092Y0142337D01*
X0062761Y0143135D02*
X0076422Y0143135D01*
X0076846Y0143934D02*
X0062338Y0143934D01*
X0061539Y0144732D02*
X0077644Y0144732D01*
X0078975Y0145531D02*
X0060208Y0145531D01*
X0056475Y0145531D02*
X0050135Y0145531D01*
X0049942Y0144732D02*
X0055144Y0144732D01*
X0054346Y0143934D02*
X0049942Y0143934D01*
X0049942Y0143135D02*
X0053922Y0143135D01*
X0053592Y0142337D02*
X0049942Y0142337D01*
X0050067Y0141538D02*
X0053442Y0141538D01*
X0053442Y0140739D02*
X0050865Y0140739D01*
X0051664Y0139941D02*
X0053477Y0139941D01*
X0053807Y0139142D02*
X0052462Y0139142D01*
X0053261Y0138344D02*
X0054138Y0138344D01*
X0054059Y0137545D02*
X0054867Y0137545D01*
X0054858Y0136747D02*
X0055805Y0136747D01*
X0055656Y0135948D02*
X0061131Y0135948D01*
X0061122Y0135150D02*
X0061929Y0135150D01*
X0061920Y0134351D02*
X0062728Y0134351D01*
X0062588Y0133553D02*
X0063526Y0133553D01*
X0068342Y0131000D02*
X0058342Y0141000D01*
X0051929Y0135150D02*
X0046142Y0135150D01*
X0046142Y0135948D02*
X0051131Y0135948D01*
X0050332Y0136747D02*
X0046142Y0136747D01*
X0046142Y0137545D02*
X0049534Y0137545D01*
X0048735Y0138344D02*
X0046142Y0138344D01*
X0046142Y0139142D02*
X0047937Y0139142D01*
X0047138Y0139941D02*
X0046142Y0139941D01*
X0046142Y0140739D02*
X0046742Y0140739D01*
X0046742Y0141538D02*
X0046142Y0141538D01*
X0046142Y0142337D02*
X0046742Y0142337D01*
X0046742Y0143135D02*
X0046142Y0143135D01*
X0046142Y0143934D02*
X0046742Y0143934D01*
X0046742Y0144732D02*
X0046142Y0144732D01*
X0046142Y0145531D02*
X0046742Y0145531D01*
X0046742Y0146329D02*
X0046142Y0146329D01*
X0046142Y0147128D02*
X0047207Y0147128D01*
X0048005Y0147926D02*
X0046142Y0147926D01*
X0046142Y0148725D02*
X0048804Y0148725D01*
X0049602Y0149523D02*
X0046142Y0149523D01*
X0046142Y0150322D02*
X0050401Y0150322D01*
X0051199Y0151120D02*
X0046142Y0151120D01*
X0046142Y0151919D02*
X0051998Y0151919D01*
X0052796Y0152717D02*
X0046142Y0152717D01*
X0046142Y0153516D02*
X0053595Y0153516D01*
X0054393Y0154314D02*
X0046142Y0154314D01*
X0046142Y0155113D02*
X0055192Y0155113D01*
X0055990Y0155911D02*
X0046142Y0155911D01*
X0046142Y0156710D02*
X0056789Y0156710D01*
X0057587Y0157508D02*
X0046142Y0157508D01*
X0046142Y0158307D02*
X0058386Y0158307D01*
X0059184Y0159105D02*
X0046142Y0159105D01*
X0046142Y0159904D02*
X0059983Y0159904D01*
X0060316Y0160702D02*
X0060781Y0160702D01*
X0062911Y0158307D02*
X0128386Y0158307D01*
X0129184Y0159105D02*
X0063710Y0159105D01*
X0064508Y0159904D02*
X0066042Y0159904D01*
X0063992Y0163660D02*
X0063992Y0166000D01*
X0062392Y0170284D02*
X0062048Y0170284D01*
X0062392Y0171083D02*
X0060835Y0171083D01*
X0062392Y0171881D02*
X0046142Y0171881D01*
X0046142Y0171083D02*
X0055849Y0171083D01*
X0054636Y0170284D02*
X0046142Y0170284D01*
X0046142Y0169486D02*
X0053837Y0169486D01*
X0053339Y0168687D02*
X0046142Y0168687D01*
X0046142Y0167889D02*
X0053009Y0167889D01*
X0052692Y0167090D02*
X0046142Y0167090D01*
X0046142Y0166292D02*
X0052692Y0166292D01*
X0052692Y0165493D02*
X0046142Y0165493D01*
X0046142Y0164695D02*
X0052767Y0164695D01*
X0053098Y0163896D02*
X0046142Y0163896D01*
X0046142Y0163098D02*
X0053428Y0163098D01*
X0054052Y0162299D02*
X0046142Y0162299D01*
X0046142Y0161501D02*
X0054851Y0161501D01*
X0056367Y0160702D02*
X0046142Y0160702D01*
X0055725Y0151120D02*
X0096199Y0151120D01*
X0095401Y0150322D02*
X0054926Y0150322D01*
X0054128Y0149523D02*
X0094602Y0149523D01*
X0093804Y0148725D02*
X0053329Y0148725D01*
X0052531Y0147926D02*
X0093005Y0147926D01*
X0092207Y0147128D02*
X0051732Y0147128D01*
X0050934Y0146329D02*
X0091408Y0146329D01*
X0088975Y0145531D02*
X0082708Y0145531D01*
X0084039Y0144732D02*
X0087644Y0144732D01*
X0086846Y0143934D02*
X0084838Y0143934D01*
X0085261Y0143135D02*
X0086422Y0143135D01*
X0086092Y0142337D02*
X0085592Y0142337D01*
X0085742Y0141538D02*
X0085942Y0141538D01*
X0085942Y0140739D02*
X0085742Y0140739D01*
X0085707Y0139941D02*
X0085977Y0139941D01*
X0086307Y0139142D02*
X0085376Y0139142D01*
X0085045Y0138344D02*
X0086638Y0138344D01*
X0087367Y0137545D02*
X0084317Y0137545D01*
X0083378Y0136747D02*
X0088305Y0136747D01*
X0090842Y0141000D02*
X0090842Y0143500D01*
X0098342Y0151000D01*
X0123342Y0151000D01*
X0138342Y0166000D01*
X0158442Y0145900D01*
X0157347Y0144732D02*
X0144039Y0144732D01*
X0142708Y0145531D02*
X0156549Y0145531D01*
X0155750Y0146329D02*
X0095934Y0146329D01*
X0096732Y0147128D02*
X0154951Y0147128D01*
X0154153Y0147926D02*
X0097531Y0147926D01*
X0098329Y0148725D02*
X0153354Y0148725D01*
X0152556Y0149523D02*
X0124128Y0149523D01*
X0124926Y0150322D02*
X0151757Y0150322D01*
X0150959Y0151120D02*
X0125725Y0151120D01*
X0126523Y0151919D02*
X0150160Y0151919D01*
X0149362Y0152717D02*
X0127322Y0152717D01*
X0128120Y0153516D02*
X0148563Y0153516D01*
X0147765Y0154314D02*
X0128919Y0154314D01*
X0129717Y0155113D02*
X0146966Y0155113D01*
X0146168Y0155911D02*
X0130516Y0155911D01*
X0131314Y0156710D02*
X0145369Y0156710D01*
X0144571Y0157508D02*
X0132113Y0157508D01*
X0132911Y0158307D02*
X0143772Y0158307D01*
X0142974Y0159105D02*
X0133710Y0159105D01*
X0134508Y0159904D02*
X0136042Y0159904D01*
X0133177Y0163098D02*
X0132317Y0163098D01*
X0132317Y0163896D02*
X0133975Y0163896D01*
X0134367Y0164695D02*
X0132317Y0164695D01*
X0132317Y0165493D02*
X0134367Y0165493D01*
X0134367Y0166292D02*
X0132317Y0166292D01*
X0132317Y0167090D02*
X0134367Y0167090D01*
X0134367Y0167889D02*
X0132317Y0167889D01*
X0132317Y0168687D02*
X0134367Y0168687D01*
X0134367Y0169486D02*
X0132317Y0169486D01*
X0132019Y0170284D02*
X0134665Y0170284D01*
X0135029Y0171083D02*
X0131655Y0171083D01*
X0130856Y0171881D02*
X0135827Y0171881D01*
X0137383Y0172680D02*
X0129301Y0172680D01*
X0127383Y0172680D02*
X0119301Y0172680D01*
X0119132Y0172750D02*
X0117551Y0172750D01*
X0116090Y0172144D01*
X0114972Y0171026D01*
X0114367Y0169565D01*
X0114367Y0162435D01*
X0114972Y0160974D01*
X0116090Y0159856D01*
X0117551Y0159250D01*
X0119132Y0159250D01*
X0120593Y0159856D01*
X0121711Y0160974D01*
X0122317Y0162435D01*
X0122317Y0169565D01*
X0121711Y0171026D01*
X0120593Y0172144D01*
X0119132Y0172750D01*
X0117383Y0172680D02*
X0109301Y0172680D01*
X0109132Y0172750D02*
X0107551Y0172750D01*
X0106090Y0172144D01*
X0104972Y0171026D01*
X0104367Y0169565D01*
X0104367Y0162435D01*
X0104972Y0160974D01*
X0106090Y0159856D01*
X0107551Y0159250D01*
X0109132Y0159250D01*
X0110593Y0159856D01*
X0111711Y0160974D01*
X0112317Y0162435D01*
X0112317Y0169565D01*
X0111711Y0171026D01*
X0110593Y0172144D01*
X0109132Y0172750D01*
X0107383Y0172680D02*
X0099301Y0172680D01*
X0099132Y0172750D02*
X0097551Y0172750D01*
X0096090Y0172144D01*
X0094972Y0171026D01*
X0094367Y0169565D01*
X0094367Y0162435D01*
X0094972Y0160974D01*
X0096090Y0159856D01*
X0097551Y0159250D01*
X0099132Y0159250D01*
X0100593Y0159856D01*
X0101711Y0160974D01*
X0102317Y0162435D01*
X0102317Y0169565D01*
X0101711Y0171026D01*
X0100593Y0172144D01*
X0099132Y0172750D01*
X0097383Y0172680D02*
X0089301Y0172680D01*
X0089132Y0172750D02*
X0087551Y0172750D01*
X0086090Y0172144D01*
X0084972Y0171026D01*
X0084367Y0169565D01*
X0084367Y0162435D01*
X0084972Y0160974D01*
X0086090Y0159856D01*
X0087551Y0159250D01*
X0089132Y0159250D01*
X0090593Y0159856D01*
X0091711Y0160974D01*
X0092317Y0162435D01*
X0092317Y0169565D01*
X0091711Y0171026D01*
X0090593Y0172144D01*
X0089132Y0172750D01*
X0087383Y0172680D02*
X0079301Y0172680D01*
X0079132Y0172750D02*
X0077551Y0172750D01*
X0076090Y0172144D01*
X0074972Y0171026D01*
X0074367Y0169565D01*
X0074367Y0162435D01*
X0074972Y0160974D01*
X0076090Y0159856D01*
X0077551Y0159250D01*
X0079132Y0159250D01*
X0080593Y0159856D01*
X0081711Y0160974D01*
X0082317Y0162435D01*
X0082317Y0169565D01*
X0081711Y0171026D01*
X0080593Y0172144D01*
X0079132Y0172750D01*
X0077383Y0172680D02*
X0069301Y0172680D01*
X0070856Y0171881D02*
X0075827Y0171881D01*
X0075029Y0171083D02*
X0071655Y0171083D01*
X0072019Y0170284D02*
X0074665Y0170284D01*
X0074367Y0169486D02*
X0072317Y0169486D01*
X0072317Y0168687D02*
X0074367Y0168687D01*
X0074367Y0167889D02*
X0072317Y0167889D01*
X0072317Y0167090D02*
X0074367Y0167090D01*
X0074367Y0166292D02*
X0072317Y0166292D01*
X0072317Y0165493D02*
X0074367Y0165493D01*
X0074367Y0164695D02*
X0072317Y0164695D01*
X0072317Y0163896D02*
X0074367Y0163896D01*
X0074367Y0163098D02*
X0072317Y0163098D01*
X0072261Y0162299D02*
X0074423Y0162299D01*
X0074754Y0161501D02*
X0071930Y0161501D01*
X0071440Y0160702D02*
X0075244Y0160702D01*
X0076042Y0159904D02*
X0070642Y0159904D01*
X0062113Y0157508D02*
X0127587Y0157508D01*
X0126789Y0156710D02*
X0061314Y0156710D01*
X0060516Y0155911D02*
X0125990Y0155911D01*
X0125192Y0155113D02*
X0059717Y0155113D01*
X0058919Y0154314D02*
X0124393Y0154314D01*
X0123595Y0153516D02*
X0058120Y0153516D01*
X0057322Y0152717D02*
X0122796Y0152717D01*
X0121816Y0145900D02*
X0119867Y0145900D01*
X0118066Y0145154D01*
X0116688Y0143776D01*
X0115942Y0141975D01*
X0115942Y0140025D01*
X0116688Y0138224D01*
X0118066Y0136846D01*
X0119867Y0136100D01*
X0121816Y0136100D01*
X0123617Y0136846D01*
X0124996Y0138224D01*
X0125742Y0140025D01*
X0125742Y0141975D01*
X0124996Y0143776D01*
X0123617Y0145154D01*
X0121816Y0145900D01*
X0122708Y0145531D02*
X0128500Y0145531D01*
X0127361Y0144732D02*
X0124039Y0144732D01*
X0124838Y0143934D02*
X0126669Y0143934D01*
X0126206Y0143135D02*
X0125261Y0143135D01*
X0125592Y0142337D02*
X0125914Y0142337D01*
X0125763Y0141538D02*
X0125742Y0141538D01*
X0125742Y0140739D02*
X0130442Y0140739D01*
X0130442Y0139941D02*
X0131242Y0139941D01*
X0131242Y0140600D02*
X0131242Y0135900D01*
X0131243Y0135900D01*
X0132036Y0136026D01*
X0132800Y0136274D01*
X0133515Y0136638D01*
X0134164Y0137110D01*
X0134732Y0137678D01*
X0135204Y0138327D01*
X0135568Y0139042D01*
X0135816Y0139806D01*
X0135942Y0140599D01*
X0135942Y0140600D01*
X0131242Y0140600D01*
X0131242Y0140739D02*
X0135942Y0140739D01*
X0135977Y0139941D02*
X0135838Y0139941D01*
X0135601Y0139142D02*
X0136307Y0139142D01*
X0136638Y0138344D02*
X0135212Y0138344D01*
X0134600Y0137545D02*
X0137367Y0137545D01*
X0136826Y0136747D02*
X0133665Y0136747D01*
X0131242Y0136747D02*
X0130442Y0136747D01*
X0130442Y0137545D02*
X0131242Y0137545D01*
X0131242Y0138344D02*
X0130442Y0138344D01*
X0130442Y0139142D02*
X0131242Y0139142D01*
X0131242Y0141538D02*
X0130442Y0141538D01*
X0130442Y0142337D02*
X0131242Y0142337D01*
X0131242Y0143135D02*
X0130442Y0143135D01*
X0130442Y0143934D02*
X0131242Y0143934D01*
X0131242Y0144732D02*
X0130442Y0144732D01*
X0130442Y0145531D02*
X0131242Y0145531D01*
X0133184Y0145531D02*
X0138975Y0145531D01*
X0137644Y0144732D02*
X0134322Y0144732D01*
X0135014Y0143934D02*
X0136846Y0143934D01*
X0136422Y0143135D02*
X0135478Y0143135D01*
X0135770Y0142337D02*
X0136092Y0142337D01*
X0135942Y0141538D02*
X0135920Y0141538D01*
X0143378Y0136747D02*
X0165805Y0136747D01*
X0171407Y0147128D02*
X0255542Y0147128D01*
X0255542Y0147926D02*
X0158678Y0147926D01*
X0157880Y0148725D02*
X0255542Y0148725D01*
X0255542Y0149523D02*
X0157081Y0149523D01*
X0156283Y0150322D02*
X0255542Y0150322D01*
X0255542Y0151120D02*
X0155484Y0151120D01*
X0154686Y0151919D02*
X0255542Y0151919D01*
X0255542Y0152717D02*
X0153887Y0152717D01*
X0153089Y0153516D02*
X0255542Y0153516D01*
X0255542Y0154314D02*
X0152290Y0154314D01*
X0151492Y0155113D02*
X0255542Y0155113D01*
X0255542Y0155911D02*
X0150693Y0155911D01*
X0149895Y0156710D02*
X0255542Y0156710D01*
X0255542Y0157508D02*
X0149096Y0157508D01*
X0148298Y0158307D02*
X0255542Y0158307D01*
X0255542Y0159105D02*
X0199017Y0159105D01*
X0198729Y0159105D02*
X0197954Y0159105D01*
X0197954Y0159060D02*
X0197954Y0165613D01*
X0194167Y0165613D01*
X0194167Y0162897D01*
X0194270Y0162248D01*
X0194473Y0161623D01*
X0194771Y0161037D01*
X0195157Y0160505D01*
X0195622Y0160041D01*
X0196154Y0159655D01*
X0196739Y0159356D01*
X0197364Y0159153D01*
X0197954Y0159060D01*
X0197667Y0159105D02*
X0147499Y0159105D01*
X0150642Y0159904D02*
X0156042Y0159904D01*
X0156090Y0159856D02*
X0157551Y0159250D01*
X0159132Y0159250D01*
X0160593Y0159856D01*
X0161711Y0160974D01*
X0162317Y0162435D01*
X0162317Y0169565D01*
X0161711Y0171026D01*
X0160593Y0172144D01*
X0159132Y0172750D01*
X0157551Y0172750D01*
X0156090Y0172144D01*
X0154972Y0171026D01*
X0154367Y0169565D01*
X0154367Y0162435D01*
X0154972Y0160974D01*
X0156090Y0159856D01*
X0155244Y0160702D02*
X0151440Y0160702D01*
X0151930Y0161501D02*
X0154754Y0161501D01*
X0154423Y0162299D02*
X0152261Y0162299D01*
X0152317Y0163098D02*
X0154367Y0163098D01*
X0154367Y0163896D02*
X0152317Y0163896D01*
X0152317Y0164695D02*
X0154367Y0164695D01*
X0154367Y0165493D02*
X0152317Y0165493D01*
X0152317Y0166292D02*
X0154367Y0166292D01*
X0154367Y0167090D02*
X0152317Y0167090D01*
X0152317Y0167889D02*
X0154367Y0167889D01*
X0154367Y0168687D02*
X0152317Y0168687D01*
X0152317Y0169486D02*
X0154367Y0169486D01*
X0154665Y0170284D02*
X0152019Y0170284D01*
X0151655Y0171083D02*
X0155029Y0171083D01*
X0155827Y0171881D02*
X0150856Y0171881D01*
X0149301Y0172680D02*
X0157383Y0172680D01*
X0159301Y0172680D02*
X0167383Y0172680D01*
X0167551Y0172750D02*
X0166090Y0172144D01*
X0164972Y0171026D01*
X0164367Y0169565D01*
X0164367Y0162435D01*
X0164972Y0160974D01*
X0166090Y0159856D01*
X0167551Y0159250D01*
X0169132Y0159250D01*
X0170593Y0159856D01*
X0171711Y0160974D01*
X0172317Y0162435D01*
X0172317Y0169565D01*
X0171711Y0171026D01*
X0170593Y0172144D01*
X0169132Y0172750D01*
X0167551Y0172750D01*
X0169301Y0172680D02*
X0177383Y0172680D01*
X0177551Y0172750D02*
X0176090Y0172144D01*
X0174972Y0171026D01*
X0174367Y0169565D01*
X0174367Y0162435D01*
X0174972Y0160974D01*
X0176090Y0159856D01*
X0177551Y0159250D01*
X0179132Y0159250D01*
X0180593Y0159856D01*
X0181711Y0160974D01*
X0182317Y0162435D01*
X0182317Y0169565D01*
X0181711Y0171026D01*
X0180593Y0172144D01*
X0179132Y0172750D01*
X0177551Y0172750D01*
X0179301Y0172680D02*
X0187383Y0172680D01*
X0187551Y0172750D02*
X0186090Y0172144D01*
X0184972Y0171026D01*
X0184367Y0169565D01*
X0184367Y0162435D01*
X0184972Y0160974D01*
X0186090Y0159856D01*
X0187551Y0159250D01*
X0189132Y0159250D01*
X0190593Y0159856D01*
X0191711Y0160974D01*
X0192317Y0162435D01*
X0192317Y0169565D01*
X0191711Y0171026D01*
X0190593Y0172144D01*
X0189132Y0172750D01*
X0187551Y0172750D01*
X0189301Y0172680D02*
X0196851Y0172680D01*
X0196739Y0172644D02*
X0196154Y0172345D01*
X0195622Y0171959D01*
X0195157Y0171495D01*
X0194771Y0170963D01*
X0194473Y0170377D01*
X0194270Y0169752D01*
X0194167Y0169103D01*
X0194167Y0166387D01*
X0197954Y0166387D01*
X0197954Y0165613D01*
X0198729Y0165613D01*
X0198729Y0166387D01*
X0202517Y0166387D01*
X0202517Y0169103D01*
X0202414Y0169752D01*
X0202211Y0170377D01*
X0201912Y0170963D01*
X0201526Y0171495D01*
X0201062Y0171959D01*
X0200530Y0172345D01*
X0199944Y0172644D01*
X0199319Y0172847D01*
X0198729Y0172940D01*
X0198729Y0166387D01*
X0197954Y0166387D01*
X0197954Y0172940D01*
X0197364Y0172847D01*
X0196739Y0172644D01*
X0197954Y0172680D02*
X0198729Y0172680D01*
X0198729Y0171881D02*
X0197954Y0171881D01*
X0197954Y0171083D02*
X0198729Y0171083D01*
X0198729Y0170284D02*
X0197954Y0170284D01*
X0197954Y0169486D02*
X0198729Y0169486D01*
X0198729Y0168687D02*
X0197954Y0168687D01*
X0197954Y0167889D02*
X0198729Y0167889D01*
X0198729Y0167090D02*
X0197954Y0167090D01*
X0197954Y0166292D02*
X0192317Y0166292D01*
X0192317Y0167090D02*
X0194167Y0167090D01*
X0194167Y0167889D02*
X0192317Y0167889D01*
X0192317Y0168687D02*
X0194167Y0168687D01*
X0194228Y0169486D02*
X0192317Y0169486D01*
X0192019Y0170284D02*
X0194443Y0170284D01*
X0194858Y0171083D02*
X0191655Y0171083D01*
X0190856Y0171881D02*
X0195544Y0171881D01*
X0199833Y0172680D02*
X0207383Y0172680D01*
X0207551Y0172750D02*
X0206090Y0172144D01*
X0204972Y0171026D01*
X0204367Y0169565D01*
X0204367Y0162435D01*
X0204972Y0160974D01*
X0206090Y0159856D01*
X0207551Y0159250D01*
X0209132Y0159250D01*
X0210593Y0159856D01*
X0211711Y0160974D01*
X0212317Y0162435D01*
X0212317Y0169565D01*
X0211711Y0171026D01*
X0210593Y0172144D01*
X0209132Y0172750D01*
X0207551Y0172750D01*
X0209301Y0172680D02*
X0239732Y0172680D01*
X0239188Y0173224D02*
X0240566Y0171846D01*
X0242367Y0171100D01*
X0244316Y0171100D01*
X0246117Y0171846D01*
X0247496Y0173224D01*
X0248242Y0175025D01*
X0248242Y0176975D01*
X0247496Y0178776D01*
X0246117Y0180154D01*
X0244316Y0180900D01*
X0242367Y0180900D01*
X0240566Y0180154D01*
X0239188Y0178776D01*
X0238442Y0176975D01*
X0238442Y0175025D01*
X0239188Y0173224D01*
X0239083Y0173478D02*
X0065592Y0173478D01*
X0065592Y0172680D02*
X0067383Y0172680D01*
X0065827Y0171881D02*
X0065592Y0171881D01*
X0065592Y0174277D02*
X0238752Y0174277D01*
X0238442Y0175075D02*
X0065592Y0175075D01*
X0065592Y0175874D02*
X0238442Y0175874D01*
X0238442Y0176672D02*
X0065592Y0176672D01*
X0065592Y0177471D02*
X0238647Y0177471D01*
X0238978Y0178270D02*
X0065592Y0178270D01*
X0065592Y0179068D02*
X0239480Y0179068D01*
X0240279Y0179867D02*
X0065592Y0179867D01*
X0065592Y0180665D02*
X0241800Y0180665D01*
X0242367Y0181100D02*
X0240566Y0181846D01*
X0239188Y0183224D01*
X0238442Y0185025D01*
X0238442Y0186975D01*
X0239188Y0188776D01*
X0240566Y0190154D01*
X0242367Y0190900D01*
X0244316Y0190900D01*
X0246117Y0190154D01*
X0247496Y0188776D01*
X0248242Y0186975D01*
X0248242Y0185025D01*
X0247496Y0183224D01*
X0246117Y0181846D01*
X0244316Y0181100D01*
X0242367Y0181100D01*
X0241489Y0181464D02*
X0065592Y0181464D01*
X0065592Y0182262D02*
X0201979Y0182262D01*
X0202551Y0182025D02*
X0204132Y0182025D01*
X0205593Y0182630D01*
X0206711Y0183748D01*
X0207317Y0185209D01*
X0207317Y0186791D01*
X0206711Y0188252D01*
X0205593Y0189370D01*
X0204132Y0189975D01*
X0202551Y0189975D01*
X0201090Y0189370D01*
X0199972Y0188252D01*
X0199367Y0186791D01*
X0199367Y0185209D01*
X0199972Y0183748D01*
X0201090Y0182630D01*
X0202551Y0182025D01*
X0200660Y0183061D02*
X0065592Y0183061D01*
X0065592Y0183859D02*
X0199926Y0183859D01*
X0199596Y0184658D02*
X0065592Y0184658D01*
X0065592Y0185456D02*
X0199367Y0185456D01*
X0199367Y0186255D02*
X0065592Y0186255D01*
X0065592Y0187053D02*
X0199476Y0187053D01*
X0199806Y0187852D02*
X0065592Y0187852D01*
X0065592Y0188650D02*
X0200371Y0188650D01*
X0201281Y0189449D02*
X0065592Y0189449D01*
X0065592Y0190247D02*
X0240791Y0190247D01*
X0239861Y0189449D02*
X0215403Y0189449D01*
X0215593Y0189370D02*
X0214132Y0189975D01*
X0212551Y0189975D01*
X0211090Y0189370D01*
X0209972Y0188252D01*
X0209367Y0186791D01*
X0209367Y0185209D01*
X0209972Y0183748D01*
X0211090Y0182630D01*
X0212551Y0182025D01*
X0214132Y0182025D01*
X0215593Y0182630D01*
X0216711Y0183748D01*
X0217317Y0185209D01*
X0217317Y0186791D01*
X0216711Y0188252D01*
X0215593Y0189370D01*
X0216313Y0188650D02*
X0239136Y0188650D01*
X0238805Y0187852D02*
X0216877Y0187852D01*
X0217208Y0187053D02*
X0238474Y0187053D01*
X0238442Y0186255D02*
X0217317Y0186255D01*
X0217317Y0185456D02*
X0238442Y0185456D01*
X0238594Y0184658D02*
X0217088Y0184658D01*
X0216757Y0183859D02*
X0238925Y0183859D01*
X0239352Y0183061D02*
X0216024Y0183061D01*
X0214704Y0182262D02*
X0240150Y0182262D01*
X0244884Y0180665D02*
X0255542Y0180665D01*
X0255542Y0179867D02*
X0246405Y0179867D01*
X0247203Y0179068D02*
X0255542Y0179068D01*
X0255542Y0178270D02*
X0247705Y0178270D01*
X0248036Y0177471D02*
X0255542Y0177471D01*
X0255542Y0176672D02*
X0248242Y0176672D01*
X0248242Y0175874D02*
X0255542Y0175874D01*
X0255542Y0175075D02*
X0248242Y0175075D01*
X0247932Y0174277D02*
X0255542Y0174277D01*
X0255542Y0173478D02*
X0247601Y0173478D01*
X0246951Y0172680D02*
X0255542Y0172680D01*
X0255542Y0171881D02*
X0246153Y0171881D01*
X0245300Y0170726D02*
X0244536Y0170974D01*
X0243743Y0171100D01*
X0243742Y0171100D01*
X0243742Y0166400D01*
X0248442Y0166400D01*
X0248442Y0166401D01*
X0248316Y0167194D01*
X0248068Y0167958D01*
X0247704Y0168673D01*
X0247232Y0169322D01*
X0246664Y0169890D01*
X0246015Y0170362D01*
X0245300Y0170726D01*
X0246121Y0170284D02*
X0255542Y0170284D01*
X0255542Y0169486D02*
X0247068Y0169486D01*
X0247693Y0168687D02*
X0255542Y0168687D01*
X0255542Y0167889D02*
X0248091Y0167889D01*
X0248333Y0167090D02*
X0255542Y0167090D01*
X0255542Y0166292D02*
X0243742Y0166292D01*
X0243742Y0166400D02*
X0243742Y0165600D01*
X0248442Y0165600D01*
X0248442Y0165599D01*
X0248316Y0164806D01*
X0248068Y0164042D01*
X0247704Y0163327D01*
X0247232Y0162678D01*
X0246664Y0162110D01*
X0246015Y0161638D01*
X0245300Y0161274D01*
X0244536Y0161026D01*
X0243743Y0160900D01*
X0243742Y0160900D01*
X0243742Y0165600D01*
X0242942Y0165600D01*
X0242942Y0160900D01*
X0242940Y0160900D01*
X0242148Y0161026D01*
X0241384Y0161274D01*
X0240669Y0161638D01*
X0240019Y0162110D01*
X0239452Y0162678D01*
X0238980Y0163327D01*
X0238615Y0164042D01*
X0238367Y0164806D01*
X0238242Y0165599D01*
X0238242Y0165600D01*
X0242942Y0165600D01*
X0242942Y0166400D01*
X0242942Y0171100D01*
X0242940Y0171100D01*
X0242148Y0170974D01*
X0241384Y0170726D01*
X0240669Y0170362D01*
X0240019Y0169890D01*
X0239452Y0169322D01*
X0238980Y0168673D01*
X0238615Y0167958D01*
X0238367Y0167194D01*
X0238242Y0166401D01*
X0238242Y0166400D01*
X0242942Y0166400D01*
X0243742Y0166400D01*
X0243742Y0167090D02*
X0242942Y0167090D01*
X0242942Y0166292D02*
X0223992Y0166292D01*
X0223992Y0167090D02*
X0238351Y0167090D01*
X0238593Y0167889D02*
X0223675Y0167889D01*
X0223992Y0167124D02*
X0223132Y0169200D01*
X0221542Y0170790D01*
X0219466Y0171650D01*
X0217218Y0171650D01*
X0215141Y0170790D01*
X0213552Y0169200D01*
X0212692Y0167124D01*
X0212692Y0164876D01*
X0213552Y0162800D01*
X0215141Y0161210D01*
X0217218Y0160350D01*
X0219466Y0160350D01*
X0221542Y0161210D01*
X0223132Y0162800D01*
X0223992Y0164876D01*
X0223992Y0167124D01*
X0223992Y0165493D02*
X0238258Y0165493D01*
X0238403Y0164695D02*
X0223917Y0164695D01*
X0223586Y0163896D02*
X0238690Y0163896D01*
X0239146Y0163098D02*
X0223255Y0163098D01*
X0222631Y0162299D02*
X0239830Y0162299D01*
X0240938Y0161501D02*
X0221833Y0161501D01*
X0220316Y0160702D02*
X0255542Y0160702D01*
X0255542Y0159904D02*
X0210642Y0159904D01*
X0211440Y0160702D02*
X0216367Y0160702D01*
X0214851Y0161501D02*
X0211930Y0161501D01*
X0212261Y0162299D02*
X0214052Y0162299D01*
X0213428Y0163098D02*
X0212317Y0163098D01*
X0212317Y0163896D02*
X0213098Y0163896D01*
X0212767Y0164695D02*
X0212317Y0164695D01*
X0212317Y0165493D02*
X0212692Y0165493D01*
X0212692Y0166292D02*
X0212317Y0166292D01*
X0212317Y0167090D02*
X0212692Y0167090D01*
X0213009Y0167889D02*
X0212317Y0167889D01*
X0212317Y0168687D02*
X0213339Y0168687D01*
X0213837Y0169486D02*
X0212317Y0169486D01*
X0212019Y0170284D02*
X0214636Y0170284D01*
X0215849Y0171083D02*
X0211655Y0171083D01*
X0210856Y0171881D02*
X0240531Y0171881D01*
X0240562Y0170284D02*
X0222048Y0170284D01*
X0222846Y0169486D02*
X0239615Y0169486D01*
X0238990Y0168687D02*
X0223344Y0168687D01*
X0220835Y0171083D02*
X0242833Y0171083D01*
X0242942Y0171083D02*
X0243742Y0171083D01*
X0243851Y0171083D02*
X0255542Y0171083D01*
X0255542Y0165493D02*
X0248425Y0165493D01*
X0248280Y0164695D02*
X0255542Y0164695D01*
X0255542Y0163896D02*
X0247994Y0163896D01*
X0247537Y0163098D02*
X0255542Y0163098D01*
X0255542Y0162299D02*
X0246854Y0162299D01*
X0245745Y0161501D02*
X0255542Y0161501D01*
X0243742Y0161501D02*
X0242942Y0161501D01*
X0242942Y0162299D02*
X0243742Y0162299D01*
X0243742Y0163098D02*
X0242942Y0163098D01*
X0242942Y0163896D02*
X0243742Y0163896D01*
X0243742Y0164695D02*
X0242942Y0164695D01*
X0242942Y0165493D02*
X0243742Y0165493D01*
X0243742Y0167889D02*
X0242942Y0167889D01*
X0242942Y0168687D02*
X0243742Y0168687D01*
X0243742Y0169486D02*
X0242942Y0169486D01*
X0242942Y0170284D02*
X0243742Y0170284D01*
X0245194Y0181464D02*
X0255542Y0181464D01*
X0255542Y0182262D02*
X0246534Y0182262D01*
X0247332Y0183061D02*
X0255542Y0183061D01*
X0255542Y0183859D02*
X0247759Y0183859D01*
X0248089Y0184658D02*
X0255542Y0184658D01*
X0255542Y0185456D02*
X0248242Y0185456D01*
X0248242Y0186255D02*
X0255542Y0186255D01*
X0255542Y0187053D02*
X0248209Y0187053D01*
X0247879Y0187852D02*
X0255542Y0187852D01*
X0255542Y0188650D02*
X0247548Y0188650D01*
X0246823Y0189449D02*
X0255542Y0189449D01*
X0255542Y0190247D02*
X0245892Y0190247D01*
X0246113Y0191844D02*
X0255542Y0191844D01*
X0255542Y0191046D02*
X0065592Y0191046D01*
X0065592Y0191844D02*
X0240570Y0191844D01*
X0240566Y0191846D02*
X0242367Y0191100D01*
X0244316Y0191100D01*
X0246117Y0191846D01*
X0247496Y0193224D01*
X0248242Y0195025D01*
X0248242Y0196975D01*
X0247496Y0198776D01*
X0246117Y0200154D01*
X0244316Y0200900D01*
X0242367Y0200900D01*
X0240566Y0200154D01*
X0239188Y0198776D01*
X0238442Y0196975D01*
X0238442Y0195025D01*
X0239188Y0193224D01*
X0240566Y0191846D01*
X0239769Y0192643D02*
X0215606Y0192643D01*
X0215593Y0192630D02*
X0216711Y0193748D01*
X0217317Y0195209D01*
X0217317Y0196791D01*
X0216711Y0198252D01*
X0215593Y0199370D01*
X0214132Y0199975D01*
X0212551Y0199975D01*
X0211090Y0199370D01*
X0209972Y0198252D01*
X0209367Y0196791D01*
X0209367Y0195209D01*
X0209972Y0193748D01*
X0211090Y0192630D01*
X0212551Y0192025D01*
X0214132Y0192025D01*
X0215593Y0192630D01*
X0216404Y0193441D02*
X0239098Y0193441D01*
X0238767Y0194240D02*
X0216915Y0194240D01*
X0217246Y0195038D02*
X0238442Y0195038D01*
X0238442Y0195837D02*
X0217317Y0195837D01*
X0217317Y0196635D02*
X0238442Y0196635D01*
X0238632Y0197434D02*
X0217050Y0197434D01*
X0216719Y0198232D02*
X0238963Y0198232D01*
X0239443Y0199031D02*
X0215932Y0199031D01*
X0214484Y0199829D02*
X0240241Y0199829D01*
X0241710Y0200628D02*
X0065592Y0200628D01*
X0065592Y0201426D02*
X0255542Y0201426D01*
X0255542Y0200628D02*
X0244974Y0200628D01*
X0246442Y0199829D02*
X0255542Y0199829D01*
X0255542Y0199031D02*
X0247241Y0199031D01*
X0247721Y0198232D02*
X0255542Y0198232D01*
X0255542Y0197434D02*
X0248052Y0197434D01*
X0248242Y0196635D02*
X0255542Y0196635D01*
X0255542Y0195837D02*
X0248242Y0195837D01*
X0248242Y0195038D02*
X0255542Y0195038D01*
X0255542Y0194240D02*
X0247916Y0194240D01*
X0247586Y0193441D02*
X0255542Y0193441D01*
X0255542Y0192643D02*
X0246914Y0192643D01*
X0255542Y0202225D02*
X0214614Y0202225D01*
X0214132Y0202025D02*
X0215593Y0202630D01*
X0216711Y0203748D01*
X0217317Y0205209D01*
X0217317Y0206791D01*
X0216711Y0208252D01*
X0215593Y0209370D01*
X0214132Y0209975D01*
X0212551Y0209975D01*
X0211090Y0209370D01*
X0209972Y0208252D01*
X0209367Y0206791D01*
X0209367Y0205209D01*
X0209972Y0203748D01*
X0211090Y0202630D01*
X0212551Y0202025D01*
X0214132Y0202025D01*
X0212069Y0202225D02*
X0204614Y0202225D01*
X0204132Y0202025D02*
X0205593Y0202630D01*
X0206711Y0203748D01*
X0207317Y0205209D01*
X0207317Y0206791D01*
X0206711Y0208252D01*
X0205593Y0209370D01*
X0204132Y0209975D01*
X0202551Y0209975D01*
X0201090Y0209370D01*
X0199972Y0208252D01*
X0199367Y0206791D01*
X0199367Y0205209D01*
X0199972Y0203748D01*
X0201090Y0202630D01*
X0202551Y0202025D01*
X0204132Y0202025D01*
X0204132Y0199975D02*
X0202551Y0199975D01*
X0201090Y0199370D01*
X0199972Y0198252D01*
X0199367Y0196791D01*
X0199367Y0195209D01*
X0199972Y0193748D01*
X0201090Y0192630D01*
X0202551Y0192025D01*
X0204132Y0192025D01*
X0205593Y0192630D01*
X0206711Y0193748D01*
X0207317Y0195209D01*
X0207317Y0196791D01*
X0206711Y0198252D01*
X0205593Y0199370D01*
X0204132Y0199975D01*
X0204484Y0199829D02*
X0212200Y0199829D01*
X0210751Y0199031D02*
X0205932Y0199031D01*
X0206719Y0198232D02*
X0209964Y0198232D01*
X0209633Y0197434D02*
X0207050Y0197434D01*
X0207317Y0196635D02*
X0209367Y0196635D01*
X0209367Y0195837D02*
X0207317Y0195837D01*
X0207246Y0195038D02*
X0209438Y0195038D01*
X0209769Y0194240D02*
X0206915Y0194240D01*
X0206404Y0193441D02*
X0210279Y0193441D01*
X0211078Y0192643D02*
X0205606Y0192643D01*
X0205403Y0189449D02*
X0211281Y0189449D01*
X0210371Y0188650D02*
X0206313Y0188650D01*
X0206877Y0187852D02*
X0209806Y0187852D01*
X0209476Y0187053D02*
X0207208Y0187053D01*
X0207317Y0186255D02*
X0209367Y0186255D01*
X0209367Y0185456D02*
X0207317Y0185456D01*
X0207088Y0184658D02*
X0209596Y0184658D01*
X0209926Y0183859D02*
X0206757Y0183859D01*
X0206024Y0183061D02*
X0210660Y0183061D01*
X0211979Y0182262D02*
X0204704Y0182262D01*
X0205827Y0171881D02*
X0201139Y0171881D01*
X0201825Y0171083D02*
X0205029Y0171083D01*
X0204665Y0170284D02*
X0202241Y0170284D01*
X0202456Y0169486D02*
X0204367Y0169486D01*
X0204367Y0168687D02*
X0202517Y0168687D01*
X0202517Y0167889D02*
X0204367Y0167889D01*
X0204367Y0167090D02*
X0202517Y0167090D01*
X0202517Y0165613D02*
X0198729Y0165613D01*
X0198729Y0159060D01*
X0199319Y0159153D01*
X0199944Y0159356D01*
X0200530Y0159655D01*
X0201062Y0160041D01*
X0201526Y0160505D01*
X0201912Y0161037D01*
X0202211Y0161623D01*
X0202414Y0162248D01*
X0202517Y0162897D01*
X0202517Y0165613D01*
X0202517Y0165493D02*
X0204367Y0165493D01*
X0204367Y0164695D02*
X0202517Y0164695D01*
X0202517Y0163896D02*
X0204367Y0163896D01*
X0204367Y0163098D02*
X0202517Y0163098D01*
X0202422Y0162299D02*
X0204423Y0162299D01*
X0204754Y0161501D02*
X0202149Y0161501D01*
X0201669Y0160702D02*
X0205244Y0160702D01*
X0206042Y0159904D02*
X0200873Y0159904D01*
X0198729Y0159904D02*
X0197954Y0159904D01*
X0197954Y0160702D02*
X0198729Y0160702D01*
X0198729Y0161501D02*
X0197954Y0161501D01*
X0197954Y0162299D02*
X0198729Y0162299D01*
X0198729Y0163098D02*
X0197954Y0163098D01*
X0197954Y0163896D02*
X0198729Y0163896D01*
X0198729Y0164695D02*
X0197954Y0164695D01*
X0197954Y0165493D02*
X0198729Y0165493D01*
X0198729Y0166292D02*
X0204367Y0166292D01*
X0195811Y0159904D02*
X0190642Y0159904D01*
X0191440Y0160702D02*
X0195014Y0160702D01*
X0194535Y0161501D02*
X0191930Y0161501D01*
X0192261Y0162299D02*
X0194262Y0162299D01*
X0194167Y0163098D02*
X0192317Y0163098D01*
X0192317Y0163896D02*
X0194167Y0163896D01*
X0194167Y0164695D02*
X0192317Y0164695D01*
X0192317Y0165493D02*
X0194167Y0165493D01*
X0184367Y0165493D02*
X0182317Y0165493D01*
X0182317Y0164695D02*
X0184367Y0164695D01*
X0184367Y0163896D02*
X0182317Y0163896D01*
X0182317Y0163098D02*
X0184367Y0163098D01*
X0184423Y0162299D02*
X0182261Y0162299D01*
X0181930Y0161501D02*
X0184754Y0161501D01*
X0185244Y0160702D02*
X0181440Y0160702D01*
X0180642Y0159904D02*
X0186042Y0159904D01*
X0184367Y0166292D02*
X0182317Y0166292D01*
X0182317Y0167090D02*
X0184367Y0167090D01*
X0184367Y0167889D02*
X0182317Y0167889D01*
X0182317Y0168687D02*
X0184367Y0168687D01*
X0184367Y0169486D02*
X0182317Y0169486D01*
X0182019Y0170284D02*
X0184665Y0170284D01*
X0185029Y0171083D02*
X0181655Y0171083D01*
X0180856Y0171881D02*
X0185827Y0171881D01*
X0175827Y0171881D02*
X0170856Y0171881D01*
X0171655Y0171083D02*
X0175029Y0171083D01*
X0174665Y0170284D02*
X0172019Y0170284D01*
X0172317Y0169486D02*
X0174367Y0169486D01*
X0174367Y0168687D02*
X0172317Y0168687D01*
X0172317Y0167889D02*
X0174367Y0167889D01*
X0174367Y0167090D02*
X0172317Y0167090D01*
X0172317Y0166292D02*
X0174367Y0166292D01*
X0174367Y0165493D02*
X0172317Y0165493D01*
X0172317Y0164695D02*
X0174367Y0164695D01*
X0174367Y0163896D02*
X0172317Y0163896D01*
X0172317Y0163098D02*
X0174367Y0163098D01*
X0174423Y0162299D02*
X0172261Y0162299D01*
X0171930Y0161501D02*
X0174754Y0161501D01*
X0175244Y0160702D02*
X0171440Y0160702D01*
X0170642Y0159904D02*
X0176042Y0159904D01*
X0166042Y0159904D02*
X0160642Y0159904D01*
X0161440Y0160702D02*
X0165244Y0160702D01*
X0164754Y0161501D02*
X0161930Y0161501D01*
X0162261Y0162299D02*
X0164423Y0162299D01*
X0164367Y0163098D02*
X0162317Y0163098D01*
X0162317Y0163896D02*
X0164367Y0163896D01*
X0164367Y0164695D02*
X0162317Y0164695D01*
X0162317Y0165493D02*
X0164367Y0165493D01*
X0164367Y0166292D02*
X0162317Y0166292D01*
X0162317Y0167090D02*
X0164367Y0167090D01*
X0164367Y0167889D02*
X0162317Y0167889D01*
X0162317Y0168687D02*
X0164367Y0168687D01*
X0164367Y0169486D02*
X0162317Y0169486D01*
X0162019Y0170284D02*
X0164665Y0170284D01*
X0165029Y0171083D02*
X0161655Y0171083D01*
X0160856Y0171881D02*
X0165827Y0171881D01*
X0147383Y0172680D02*
X0139301Y0172680D01*
X0140856Y0171881D02*
X0145827Y0171881D01*
X0145029Y0171083D02*
X0141655Y0171083D01*
X0142019Y0170284D02*
X0144665Y0170284D01*
X0144367Y0169486D02*
X0142317Y0169486D01*
X0142317Y0168687D02*
X0144367Y0168687D01*
X0144367Y0167889D02*
X0142317Y0167889D01*
X0142317Y0167090D02*
X0144367Y0167090D01*
X0144367Y0166292D02*
X0142317Y0166292D01*
X0142317Y0165493D02*
X0144367Y0165493D01*
X0144367Y0164695D02*
X0142317Y0164695D01*
X0142708Y0163896D02*
X0144367Y0163896D01*
X0144367Y0163098D02*
X0143507Y0163098D01*
X0144305Y0162299D02*
X0144423Y0162299D01*
X0142175Y0159904D02*
X0140642Y0159904D01*
X0132378Y0162299D02*
X0132261Y0162299D01*
X0126042Y0159904D02*
X0120642Y0159904D01*
X0121440Y0160702D02*
X0125244Y0160702D01*
X0124754Y0161501D02*
X0121930Y0161501D01*
X0122261Y0162299D02*
X0124423Y0162299D01*
X0124367Y0163098D02*
X0122317Y0163098D01*
X0122317Y0163896D02*
X0124367Y0163896D01*
X0124367Y0164695D02*
X0122317Y0164695D01*
X0122317Y0165493D02*
X0124367Y0165493D01*
X0124367Y0166292D02*
X0122317Y0166292D01*
X0122317Y0167090D02*
X0124367Y0167090D01*
X0124367Y0167889D02*
X0122317Y0167889D01*
X0122317Y0168687D02*
X0124367Y0168687D01*
X0124367Y0169486D02*
X0122317Y0169486D01*
X0122019Y0170284D02*
X0124665Y0170284D01*
X0125029Y0171083D02*
X0121655Y0171083D01*
X0120856Y0171881D02*
X0125827Y0171881D01*
X0115827Y0171881D02*
X0110856Y0171881D01*
X0111655Y0171083D02*
X0115029Y0171083D01*
X0114665Y0170284D02*
X0112019Y0170284D01*
X0112317Y0169486D02*
X0114367Y0169486D01*
X0114367Y0168687D02*
X0112317Y0168687D01*
X0112317Y0167889D02*
X0114367Y0167889D01*
X0114367Y0167090D02*
X0112317Y0167090D01*
X0112317Y0166292D02*
X0114367Y0166292D01*
X0114367Y0165493D02*
X0112317Y0165493D01*
X0112317Y0164695D02*
X0114367Y0164695D01*
X0114367Y0163896D02*
X0112317Y0163896D01*
X0112317Y0163098D02*
X0114367Y0163098D01*
X0114423Y0162299D02*
X0112261Y0162299D01*
X0111930Y0161501D02*
X0114754Y0161501D01*
X0115244Y0160702D02*
X0111440Y0160702D01*
X0110642Y0159904D02*
X0116042Y0159904D01*
X0106042Y0159904D02*
X0100642Y0159904D01*
X0101440Y0160702D02*
X0105244Y0160702D01*
X0104754Y0161501D02*
X0101930Y0161501D01*
X0102261Y0162299D02*
X0104423Y0162299D01*
X0104367Y0163098D02*
X0102317Y0163098D01*
X0102317Y0163896D02*
X0104367Y0163896D01*
X0104367Y0164695D02*
X0102317Y0164695D01*
X0102317Y0165493D02*
X0104367Y0165493D01*
X0104367Y0166292D02*
X0102317Y0166292D01*
X0102317Y0167090D02*
X0104367Y0167090D01*
X0104367Y0167889D02*
X0102317Y0167889D01*
X0102317Y0168687D02*
X0104367Y0168687D01*
X0104367Y0169486D02*
X0102317Y0169486D01*
X0102019Y0170284D02*
X0104665Y0170284D01*
X0105029Y0171083D02*
X0101655Y0171083D01*
X0100856Y0171881D02*
X0105827Y0171881D01*
X0095827Y0171881D02*
X0090856Y0171881D01*
X0091655Y0171083D02*
X0095029Y0171083D01*
X0094665Y0170284D02*
X0092019Y0170284D01*
X0092317Y0169486D02*
X0094367Y0169486D01*
X0094367Y0168687D02*
X0092317Y0168687D01*
X0092317Y0167889D02*
X0094367Y0167889D01*
X0094367Y0167090D02*
X0092317Y0167090D01*
X0092317Y0166292D02*
X0094367Y0166292D01*
X0094367Y0165493D02*
X0092317Y0165493D01*
X0092317Y0164695D02*
X0094367Y0164695D01*
X0094367Y0163896D02*
X0092317Y0163896D01*
X0092317Y0163098D02*
X0094367Y0163098D01*
X0094423Y0162299D02*
X0092261Y0162299D01*
X0091930Y0161501D02*
X0094754Y0161501D01*
X0095244Y0160702D02*
X0091440Y0160702D01*
X0090642Y0159904D02*
X0096042Y0159904D01*
X0086042Y0159904D02*
X0080642Y0159904D01*
X0081440Y0160702D02*
X0085244Y0160702D01*
X0084754Y0161501D02*
X0081930Y0161501D01*
X0082261Y0162299D02*
X0084423Y0162299D01*
X0084367Y0163098D02*
X0082317Y0163098D01*
X0082317Y0163896D02*
X0084367Y0163896D01*
X0084367Y0164695D02*
X0082317Y0164695D01*
X0082317Y0165493D02*
X0084367Y0165493D01*
X0084367Y0166292D02*
X0082317Y0166292D01*
X0082317Y0167090D02*
X0084367Y0167090D01*
X0084367Y0167889D02*
X0082317Y0167889D01*
X0082317Y0168687D02*
X0084367Y0168687D01*
X0084367Y0169486D02*
X0082317Y0169486D01*
X0082019Y0170284D02*
X0084665Y0170284D01*
X0085029Y0171083D02*
X0081655Y0171083D01*
X0080856Y0171881D02*
X0085827Y0171881D01*
X0062392Y0172680D02*
X0046142Y0172680D01*
X0046142Y0173478D02*
X0062392Y0173478D01*
X0062392Y0174277D02*
X0046142Y0174277D01*
X0046142Y0175075D02*
X0062392Y0175075D01*
X0062392Y0175874D02*
X0046142Y0175874D01*
X0046142Y0176672D02*
X0062392Y0176672D01*
X0062392Y0177471D02*
X0046142Y0177471D01*
X0046142Y0178270D02*
X0062392Y0178270D01*
X0062392Y0179068D02*
X0046142Y0179068D01*
X0046142Y0179867D02*
X0062392Y0179867D01*
X0062392Y0180665D02*
X0046142Y0180665D01*
X0046142Y0181464D02*
X0062392Y0181464D01*
X0062392Y0182262D02*
X0046142Y0182262D01*
X0046142Y0183061D02*
X0062392Y0183061D01*
X0062392Y0183859D02*
X0046142Y0183859D01*
X0046142Y0184658D02*
X0062392Y0184658D01*
X0062392Y0185456D02*
X0046142Y0185456D01*
X0046142Y0186255D02*
X0062392Y0186255D01*
X0062392Y0187053D02*
X0046142Y0187053D01*
X0046142Y0187852D02*
X0062392Y0187852D01*
X0062392Y0188650D02*
X0046142Y0188650D01*
X0046142Y0189449D02*
X0062392Y0189449D01*
X0062392Y0190247D02*
X0046142Y0190247D01*
X0046142Y0191046D02*
X0062392Y0191046D01*
X0062392Y0191844D02*
X0046142Y0191844D01*
X0046142Y0192643D02*
X0062392Y0192643D01*
X0062392Y0193441D02*
X0046142Y0193441D01*
X0046142Y0194240D02*
X0062392Y0194240D01*
X0062392Y0195038D02*
X0046142Y0195038D01*
X0046142Y0195837D02*
X0062392Y0195837D01*
X0062392Y0196635D02*
X0046142Y0196635D01*
X0046142Y0197434D02*
X0062392Y0197434D01*
X0062392Y0198232D02*
X0046142Y0198232D01*
X0046142Y0199031D02*
X0062392Y0199031D01*
X0062392Y0199829D02*
X0046142Y0199829D01*
X0046142Y0200628D02*
X0062392Y0200628D01*
X0062392Y0201426D02*
X0046142Y0201426D01*
X0046142Y0202225D02*
X0062392Y0202225D01*
X0062392Y0203023D02*
X0046142Y0203023D01*
X0046142Y0203822D02*
X0062392Y0203822D01*
X0062392Y0204620D02*
X0046142Y0204620D01*
X0046142Y0205419D02*
X0062392Y0205419D01*
X0062392Y0206217D02*
X0046142Y0206217D01*
X0046142Y0207016D02*
X0062392Y0207016D01*
X0062392Y0207814D02*
X0046142Y0207814D01*
X0046142Y0208613D02*
X0062392Y0208613D01*
X0062392Y0209411D02*
X0046142Y0209411D01*
X0046142Y0210210D02*
X0062392Y0210210D01*
X0062392Y0211008D02*
X0046142Y0211008D01*
X0046142Y0211807D02*
X0062392Y0211807D01*
X0062392Y0212605D02*
X0046142Y0212605D01*
X0046142Y0213404D02*
X0062392Y0213404D01*
X0062392Y0214203D02*
X0046142Y0214203D01*
X0046142Y0215001D02*
X0062392Y0215001D01*
X0062392Y0215800D02*
X0046142Y0215800D01*
X0046142Y0216598D02*
X0062392Y0216598D01*
X0062392Y0217397D02*
X0046142Y0217397D01*
X0046142Y0218195D02*
X0062392Y0218195D01*
X0062392Y0218994D02*
X0046142Y0218994D01*
X0046142Y0219792D02*
X0062392Y0219792D01*
X0062392Y0220591D02*
X0060047Y0220591D01*
X0061721Y0221389D02*
X0062392Y0221389D01*
X0063992Y0221650D02*
X0068342Y0226000D01*
X0072317Y0226180D02*
X0074367Y0226180D01*
X0074367Y0225382D02*
X0072317Y0225382D01*
X0072317Y0224583D02*
X0074367Y0224583D01*
X0074367Y0223785D02*
X0072317Y0223785D01*
X0072317Y0222986D02*
X0074367Y0222986D01*
X0074469Y0222188D02*
X0072214Y0222188D01*
X0071884Y0221389D02*
X0074800Y0221389D01*
X0075355Y0220591D02*
X0071328Y0220591D01*
X0070440Y0219792D02*
X0076243Y0219792D01*
X0080440Y0219792D02*
X0086243Y0219792D01*
X0085355Y0220591D02*
X0081328Y0220591D01*
X0081884Y0221389D02*
X0084800Y0221389D01*
X0084469Y0222188D02*
X0082214Y0222188D01*
X0082317Y0222986D02*
X0084367Y0222986D01*
X0084367Y0223785D02*
X0082317Y0223785D01*
X0082317Y0224583D02*
X0084367Y0224583D01*
X0084367Y0225382D02*
X0082317Y0225382D01*
X0082317Y0226180D02*
X0084367Y0226180D01*
X0084367Y0226979D02*
X0082317Y0226979D01*
X0082317Y0227777D02*
X0084367Y0227777D01*
X0084367Y0228576D02*
X0082317Y0228576D01*
X0082317Y0229374D02*
X0084367Y0229374D01*
X0084619Y0230173D02*
X0082065Y0230173D01*
X0081734Y0230971D02*
X0084949Y0230971D01*
X0085716Y0231770D02*
X0080968Y0231770D01*
X0075716Y0231770D02*
X0070968Y0231770D01*
X0071734Y0230971D02*
X0074949Y0230971D01*
X0074619Y0230173D02*
X0072065Y0230173D01*
X0072317Y0229374D02*
X0074367Y0229374D01*
X0074367Y0228576D02*
X0072317Y0228576D01*
X0072317Y0227777D02*
X0074367Y0227777D01*
X0074367Y0226979D02*
X0072317Y0226979D01*
X0066243Y0219792D02*
X0065592Y0219792D01*
X0065592Y0218994D02*
X0255542Y0218994D01*
X0255542Y0218195D02*
X0065592Y0218195D01*
X0065592Y0217397D02*
X0255542Y0217397D01*
X0255542Y0216598D02*
X0065592Y0216598D01*
X0065592Y0215800D02*
X0255542Y0215800D01*
X0255542Y0215001D02*
X0065592Y0215001D01*
X0065592Y0214203D02*
X0255542Y0214203D01*
X0255542Y0213404D02*
X0065592Y0213404D01*
X0065592Y0212605D02*
X0255542Y0212605D01*
X0255542Y0211807D02*
X0065592Y0211807D01*
X0065592Y0211008D02*
X0255542Y0211008D01*
X0255542Y0210210D02*
X0065592Y0210210D01*
X0065592Y0209411D02*
X0201191Y0209411D01*
X0200334Y0208613D02*
X0065592Y0208613D01*
X0065592Y0207814D02*
X0199791Y0207814D01*
X0199460Y0207016D02*
X0065592Y0207016D01*
X0065592Y0206217D02*
X0199367Y0206217D01*
X0199367Y0205419D02*
X0065592Y0205419D01*
X0065592Y0204620D02*
X0199611Y0204620D01*
X0199942Y0203822D02*
X0065592Y0203822D01*
X0065592Y0203023D02*
X0200697Y0203023D01*
X0202069Y0202225D02*
X0065592Y0202225D01*
X0065592Y0199829D02*
X0202200Y0199829D01*
X0200751Y0199031D02*
X0065592Y0199031D01*
X0065592Y0198232D02*
X0199964Y0198232D01*
X0199633Y0197434D02*
X0065592Y0197434D01*
X0065592Y0196635D02*
X0199367Y0196635D01*
X0199367Y0195837D02*
X0065592Y0195837D01*
X0065592Y0195038D02*
X0199438Y0195038D01*
X0199769Y0194240D02*
X0065592Y0194240D01*
X0065592Y0193441D02*
X0200279Y0193441D01*
X0201078Y0192643D02*
X0065592Y0192643D01*
X0056637Y0220591D02*
X0046142Y0220591D01*
X0046142Y0221389D02*
X0054962Y0221389D01*
X0054164Y0222188D02*
X0046142Y0222188D01*
X0046142Y0222986D02*
X0053475Y0222986D01*
X0053144Y0223785D02*
X0046142Y0223785D01*
X0046142Y0224583D02*
X0052813Y0224583D01*
X0052692Y0225382D02*
X0046142Y0225382D01*
X0046142Y0226180D02*
X0052692Y0226180D01*
X0052692Y0226979D02*
X0046142Y0226979D01*
X0046142Y0227777D02*
X0052962Y0227777D01*
X0053293Y0228576D02*
X0046142Y0228576D01*
X0046142Y0229374D02*
X0053726Y0229374D01*
X0054524Y0230173D02*
X0046142Y0230173D01*
X0046142Y0230971D02*
X0055579Y0230971D01*
X0046142Y0247740D02*
X0238759Y0247740D01*
X0239090Y0248539D02*
X0046142Y0248539D01*
X0046142Y0249337D02*
X0239749Y0249337D01*
X0242942Y0251733D02*
X0243742Y0251733D01*
X0243742Y0252531D02*
X0242942Y0252531D01*
X0242942Y0253330D02*
X0243742Y0253330D01*
X0243742Y0254128D02*
X0242942Y0254128D01*
X0246145Y0251733D02*
X0255542Y0251733D01*
X0255542Y0252531D02*
X0247085Y0252531D01*
X0247705Y0253330D02*
X0255542Y0253330D01*
X0255542Y0254128D02*
X0248096Y0254128D01*
X0248335Y0254927D02*
X0255542Y0254927D01*
X0205716Y0231770D02*
X0200968Y0231770D01*
X0201734Y0230971D02*
X0204949Y0230971D01*
X0204619Y0230173D02*
X0202065Y0230173D01*
X0202317Y0229374D02*
X0204367Y0229374D01*
X0204367Y0228576D02*
X0202317Y0228576D01*
X0202317Y0227777D02*
X0204367Y0227777D01*
X0204367Y0226979D02*
X0202317Y0226979D01*
X0202317Y0226180D02*
X0204367Y0226180D01*
X0204367Y0225382D02*
X0202317Y0225382D01*
X0202317Y0224583D02*
X0204367Y0224583D01*
X0204367Y0223785D02*
X0202317Y0223785D01*
X0202317Y0222986D02*
X0204367Y0222986D01*
X0204469Y0222188D02*
X0202214Y0222188D01*
X0201884Y0221389D02*
X0204800Y0221389D01*
X0205355Y0220591D02*
X0201328Y0220591D01*
X0200440Y0219792D02*
X0206243Y0219792D01*
X0205492Y0209411D02*
X0211191Y0209411D01*
X0210334Y0208613D02*
X0206350Y0208613D01*
X0206893Y0207814D02*
X0209791Y0207814D01*
X0209460Y0207016D02*
X0207223Y0207016D01*
X0207317Y0206217D02*
X0209367Y0206217D01*
X0209367Y0205419D02*
X0207317Y0205419D01*
X0207073Y0204620D02*
X0209611Y0204620D01*
X0209942Y0203822D02*
X0206742Y0203822D01*
X0205986Y0203023D02*
X0210697Y0203023D01*
X0215986Y0203023D02*
X0255542Y0203023D01*
X0255542Y0203822D02*
X0216742Y0203822D01*
X0217073Y0204620D02*
X0255542Y0204620D01*
X0255542Y0205419D02*
X0217317Y0205419D01*
X0217317Y0206217D02*
X0255542Y0206217D01*
X0255542Y0207016D02*
X0217223Y0207016D01*
X0216893Y0207814D02*
X0255542Y0207814D01*
X0255542Y0208613D02*
X0216350Y0208613D01*
X0215492Y0209411D02*
X0255542Y0209411D01*
X0178729Y0219792D02*
X0177954Y0219792D01*
X0177954Y0220591D02*
X0178729Y0220591D01*
X0178729Y0221389D02*
X0177954Y0221389D01*
X0177954Y0222188D02*
X0178729Y0222188D01*
X0178729Y0222986D02*
X0177954Y0222986D01*
X0177954Y0223785D02*
X0178729Y0223785D01*
X0178729Y0224583D02*
X0177954Y0224583D01*
X0174167Y0226979D02*
X0172317Y0226979D01*
X0172317Y0227777D02*
X0174167Y0227777D01*
X0174167Y0228576D02*
X0172317Y0228576D01*
X0172317Y0229374D02*
X0174210Y0229374D01*
X0174406Y0230173D02*
X0172065Y0230173D01*
X0171734Y0230971D02*
X0174777Y0230971D01*
X0175433Y0231770D02*
X0170968Y0231770D01*
X0169570Y0232568D02*
X0176591Y0232568D01*
X0137113Y0232568D02*
X0129570Y0232568D01*
X0130968Y0231770D02*
X0135716Y0231770D01*
X0134949Y0230971D02*
X0131734Y0230971D01*
X0132065Y0230173D02*
X0134619Y0230173D01*
X0134367Y0229374D02*
X0132317Y0229374D01*
X0132317Y0228576D02*
X0134367Y0228576D01*
X0134367Y0227777D02*
X0132317Y0227777D01*
X0132317Y0226979D02*
X0134367Y0226979D01*
X0134367Y0226180D02*
X0132317Y0226180D01*
X0132317Y0225382D02*
X0134367Y0225382D01*
X0134367Y0224583D02*
X0132317Y0224583D01*
X0132317Y0223785D02*
X0134367Y0223785D01*
X0134367Y0222986D02*
X0132317Y0222986D01*
X0132214Y0222188D02*
X0134469Y0222188D01*
X0134800Y0221389D02*
X0131884Y0221389D01*
X0131328Y0220591D02*
X0135355Y0220591D01*
X0136243Y0219792D02*
X0130440Y0219792D01*
X0126243Y0219792D02*
X0120440Y0219792D01*
X0121328Y0220591D02*
X0125355Y0220591D01*
X0124800Y0221389D02*
X0121884Y0221389D01*
X0122214Y0222188D02*
X0124469Y0222188D01*
X0124367Y0222986D02*
X0122317Y0222986D01*
X0122317Y0223785D02*
X0124367Y0223785D01*
X0124367Y0224583D02*
X0122317Y0224583D01*
X0122317Y0225382D02*
X0124367Y0225382D01*
X0124367Y0226180D02*
X0122317Y0226180D01*
X0122317Y0226979D02*
X0124367Y0226979D01*
X0124367Y0227777D02*
X0122317Y0227777D01*
X0122317Y0228576D02*
X0124367Y0228576D01*
X0124367Y0229374D02*
X0122317Y0229374D01*
X0122065Y0230173D02*
X0124619Y0230173D01*
X0124949Y0230971D02*
X0121734Y0230971D01*
X0120968Y0231770D02*
X0125716Y0231770D01*
X0115716Y0231770D02*
X0110968Y0231770D01*
X0111734Y0230971D02*
X0114949Y0230971D01*
X0114619Y0230173D02*
X0112065Y0230173D01*
X0112317Y0229374D02*
X0114367Y0229374D01*
X0114367Y0228576D02*
X0112317Y0228576D01*
X0112317Y0227777D02*
X0114367Y0227777D01*
X0114367Y0226979D02*
X0112317Y0226979D01*
X0112317Y0226180D02*
X0114367Y0226180D01*
X0114367Y0225382D02*
X0112317Y0225382D01*
X0112317Y0224583D02*
X0114367Y0224583D01*
X0114367Y0223785D02*
X0112317Y0223785D01*
X0112317Y0222986D02*
X0114367Y0222986D01*
X0114469Y0222188D02*
X0112214Y0222188D01*
X0111884Y0221389D02*
X0114800Y0221389D01*
X0115355Y0220591D02*
X0111328Y0220591D01*
X0110440Y0219792D02*
X0116243Y0219792D01*
X0106243Y0219792D02*
X0100440Y0219792D01*
X0101328Y0220591D02*
X0105355Y0220591D01*
X0104800Y0221389D02*
X0101884Y0221389D01*
X0102214Y0222188D02*
X0104469Y0222188D01*
X0104367Y0222986D02*
X0102317Y0222986D01*
X0102317Y0223785D02*
X0104367Y0223785D01*
X0104367Y0224583D02*
X0102317Y0224583D01*
X0102317Y0225382D02*
X0104367Y0225382D01*
X0104367Y0226180D02*
X0102317Y0226180D01*
X0102317Y0226979D02*
X0104367Y0226979D01*
X0104367Y0227777D02*
X0102317Y0227777D01*
X0102317Y0228576D02*
X0104367Y0228576D01*
X0104367Y0229374D02*
X0102317Y0229374D01*
X0102065Y0230173D02*
X0104619Y0230173D01*
X0104949Y0230971D02*
X0101734Y0230971D01*
X0100968Y0231770D02*
X0105716Y0231770D01*
X0095716Y0231770D02*
X0090968Y0231770D01*
X0091734Y0230971D02*
X0094949Y0230971D01*
X0094619Y0230173D02*
X0092065Y0230173D01*
X0092317Y0229374D02*
X0094367Y0229374D01*
X0094367Y0228576D02*
X0092317Y0228576D01*
X0092317Y0227777D02*
X0094367Y0227777D01*
X0094367Y0226979D02*
X0092317Y0226979D01*
X0092317Y0226180D02*
X0094367Y0226180D01*
X0094367Y0225382D02*
X0092317Y0225382D01*
X0092317Y0224583D02*
X0094367Y0224583D01*
X0094367Y0223785D02*
X0092317Y0223785D01*
X0092317Y0222986D02*
X0094367Y0222986D01*
X0094469Y0222188D02*
X0092214Y0222188D01*
X0091884Y0221389D02*
X0094800Y0221389D01*
X0095355Y0220591D02*
X0091328Y0220591D01*
X0090440Y0219792D02*
X0096243Y0219792D01*
X0090840Y0251733D02*
X0085844Y0251733D01*
X0086117Y0251846D02*
X0087496Y0253224D01*
X0088242Y0255025D01*
X0088242Y0256975D01*
X0087496Y0258776D01*
X0086117Y0260154D01*
X0084316Y0260900D01*
X0082367Y0260900D01*
X0080566Y0260154D01*
X0079188Y0258776D01*
X0078442Y0256975D01*
X0078442Y0255025D01*
X0079188Y0253224D01*
X0080566Y0251846D01*
X0082367Y0251100D01*
X0084316Y0251100D01*
X0086117Y0251846D01*
X0086803Y0252531D02*
X0089881Y0252531D01*
X0089144Y0253330D02*
X0087539Y0253330D01*
X0087870Y0254128D02*
X0088813Y0254128D01*
X0088483Y0254927D02*
X0088201Y0254927D01*
X0088242Y0255725D02*
X0088442Y0255725D01*
X0088442Y0256524D02*
X0088242Y0256524D01*
X0088098Y0257322D02*
X0088586Y0257322D01*
X0088916Y0258121D02*
X0087767Y0258121D01*
X0087352Y0258919D02*
X0089331Y0258919D01*
X0090130Y0259718D02*
X0086554Y0259718D01*
X0085243Y0260516D02*
X0091441Y0260516D01*
X0081441Y0260516D02*
X0075243Y0260516D01*
X0076117Y0260154D02*
X0074316Y0260900D01*
X0072367Y0260900D01*
X0070566Y0260154D01*
X0069188Y0258776D01*
X0068442Y0256975D01*
X0068442Y0255025D01*
X0069188Y0253224D01*
X0070566Y0251846D01*
X0072367Y0251100D01*
X0074316Y0251100D01*
X0076117Y0251846D01*
X0077496Y0253224D01*
X0078242Y0255025D01*
X0078242Y0256975D01*
X0077496Y0258776D01*
X0076117Y0260154D01*
X0076554Y0259718D02*
X0080130Y0259718D01*
X0079331Y0258919D02*
X0077352Y0258919D01*
X0077767Y0258121D02*
X0078916Y0258121D01*
X0078586Y0257322D02*
X0078098Y0257322D01*
X0078242Y0256524D02*
X0078442Y0256524D01*
X0078442Y0255725D02*
X0078242Y0255725D01*
X0078201Y0254927D02*
X0078483Y0254927D01*
X0078813Y0254128D02*
X0077870Y0254128D01*
X0077539Y0253330D02*
X0079144Y0253330D01*
X0079881Y0252531D02*
X0076803Y0252531D01*
X0075844Y0251733D02*
X0080840Y0251733D01*
X0070840Y0251733D02*
X0066145Y0251733D01*
X0067085Y0252531D02*
X0069881Y0252531D01*
X0069144Y0253330D02*
X0067705Y0253330D01*
X0068096Y0254128D02*
X0068813Y0254128D01*
X0068483Y0254927D02*
X0068335Y0254927D01*
X0068442Y0255725D02*
X0063742Y0255725D01*
X0063742Y0254927D02*
X0062942Y0254927D01*
X0062942Y0255600D02*
X0062942Y0250900D01*
X0062940Y0250900D01*
X0062148Y0251026D01*
X0061384Y0251274D01*
X0060669Y0251638D01*
X0060019Y0252110D01*
X0059452Y0252678D01*
X0058980Y0253327D01*
X0058615Y0254042D01*
X0058367Y0254806D01*
X0058242Y0255599D01*
X0058242Y0255600D01*
X0062942Y0255600D01*
X0062942Y0255725D02*
X0046142Y0255725D01*
X0046142Y0254927D02*
X0058348Y0254927D01*
X0058588Y0254128D02*
X0046142Y0254128D01*
X0046142Y0253330D02*
X0058979Y0253330D01*
X0059598Y0252531D02*
X0046142Y0252531D01*
X0046142Y0251733D02*
X0060539Y0251733D01*
X0062942Y0251733D02*
X0063742Y0251733D01*
X0063742Y0252531D02*
X0062942Y0252531D01*
X0062942Y0253330D02*
X0063742Y0253330D01*
X0063742Y0254128D02*
X0062942Y0254128D01*
X0062942Y0256524D02*
X0063742Y0256524D01*
X0063742Y0257322D02*
X0062942Y0257322D01*
X0062942Y0258121D02*
X0063742Y0258121D01*
X0063742Y0258919D02*
X0062942Y0258919D01*
X0062942Y0259718D02*
X0063742Y0259718D01*
X0063742Y0260516D02*
X0062942Y0260516D01*
X0060972Y0260516D02*
X0046142Y0260516D01*
X0046142Y0259718D02*
X0059847Y0259718D01*
X0059159Y0258919D02*
X0046142Y0258919D01*
X0046142Y0258121D02*
X0058698Y0258121D01*
X0058409Y0257322D02*
X0046142Y0257322D01*
X0046142Y0256524D02*
X0058261Y0256524D01*
X0065712Y0260516D02*
X0071441Y0260516D01*
X0070130Y0259718D02*
X0066837Y0259718D01*
X0067525Y0258919D02*
X0069331Y0258919D01*
X0068916Y0258121D02*
X0067985Y0258121D01*
X0068275Y0257322D02*
X0068586Y0257322D01*
X0068442Y0256524D02*
X0068422Y0256524D01*
X0056523Y0151919D02*
X0096998Y0151919D01*
X0099867Y0145900D02*
X0098066Y0145154D01*
X0096688Y0143776D01*
X0095942Y0141975D01*
X0095942Y0140025D01*
X0096688Y0138224D01*
X0098066Y0136846D01*
X0099867Y0136100D01*
X0101816Y0136100D01*
X0103617Y0136846D01*
X0104996Y0138224D01*
X0105742Y0140025D01*
X0105742Y0141975D01*
X0104996Y0143776D01*
X0103617Y0145154D01*
X0101816Y0145900D01*
X0099867Y0145900D01*
X0098975Y0145531D02*
X0095135Y0145531D01*
X0094337Y0144732D02*
X0097644Y0144732D01*
X0096846Y0143934D02*
X0094838Y0143934D01*
X0095261Y0143135D02*
X0096422Y0143135D01*
X0096092Y0142337D02*
X0095592Y0142337D01*
X0095742Y0141538D02*
X0095942Y0141538D01*
X0095942Y0140739D02*
X0095742Y0140739D01*
X0095707Y0139941D02*
X0095977Y0139941D01*
X0096307Y0139142D02*
X0095376Y0139142D01*
X0095045Y0138344D02*
X0096638Y0138344D01*
X0097367Y0137545D02*
X0094317Y0137545D01*
X0093378Y0136747D02*
X0098305Y0136747D01*
X0103378Y0136747D02*
X0108305Y0136747D01*
X0108066Y0136846D02*
X0109867Y0136100D01*
X0111816Y0136100D01*
X0113617Y0136846D01*
X0114996Y0138224D01*
X0115742Y0140025D01*
X0115742Y0141975D01*
X0114996Y0143776D01*
X0113617Y0145154D01*
X0111816Y0145900D01*
X0109867Y0145900D01*
X0108066Y0145154D01*
X0106688Y0143776D01*
X0105942Y0141975D01*
X0105942Y0140025D01*
X0106688Y0138224D01*
X0108066Y0136846D01*
X0107367Y0137545D02*
X0104317Y0137545D01*
X0105045Y0138344D02*
X0106638Y0138344D01*
X0106307Y0139142D02*
X0105376Y0139142D01*
X0105707Y0139941D02*
X0105977Y0139941D01*
X0105942Y0140739D02*
X0105742Y0140739D01*
X0105742Y0141538D02*
X0105942Y0141538D01*
X0106092Y0142337D02*
X0105592Y0142337D01*
X0105261Y0143135D02*
X0106422Y0143135D01*
X0106846Y0143934D02*
X0104838Y0143934D01*
X0104039Y0144732D02*
X0107644Y0144732D01*
X0108975Y0145531D02*
X0102708Y0145531D01*
X0112708Y0145531D02*
X0118975Y0145531D01*
X0117644Y0144732D02*
X0114039Y0144732D01*
X0114838Y0143934D02*
X0116846Y0143934D01*
X0116422Y0143135D02*
X0115261Y0143135D01*
X0115592Y0142337D02*
X0116092Y0142337D01*
X0115942Y0141538D02*
X0115742Y0141538D01*
X0115742Y0140739D02*
X0115942Y0140739D01*
X0115977Y0139941D02*
X0115707Y0139941D01*
X0115376Y0139142D02*
X0116307Y0139142D01*
X0116638Y0138344D02*
X0115045Y0138344D01*
X0114317Y0137545D02*
X0117367Y0137545D01*
X0118305Y0136747D02*
X0113378Y0136747D01*
X0123378Y0136747D02*
X0128019Y0136747D01*
X0127084Y0137545D02*
X0124317Y0137545D01*
X0125045Y0138344D02*
X0126471Y0138344D01*
X0126083Y0139142D02*
X0125376Y0139142D01*
X0125707Y0139941D02*
X0125846Y0139941D01*
X0135766Y0103929D02*
X0132763Y0102196D01*
X0130726Y0099391D01*
X0130005Y0096000D01*
X0130726Y0092609D01*
X0132763Y0089804D01*
X0135766Y0088071D01*
X0139213Y0087709D01*
X0142510Y0088780D01*
X0145087Y0091100D01*
X0146497Y0094267D01*
X0146497Y0097733D01*
X0145087Y0100900D01*
X0142510Y0103220D01*
X0139213Y0104291D01*
X0135766Y0103929D01*
X0136517Y0104008D02*
X0085085Y0104008D01*
X0084213Y0104291D02*
X0087510Y0103220D01*
X0090087Y0100900D01*
X0091497Y0097733D01*
X0091497Y0094267D01*
X0090087Y0091100D01*
X0087510Y0088780D01*
X0084213Y0087709D01*
X0080766Y0088071D01*
X0077763Y0089804D01*
X0075726Y0092609D01*
X0075005Y0096000D01*
X0075726Y0099391D01*
X0077763Y0102196D01*
X0080766Y0103929D01*
X0084213Y0104291D01*
X0081517Y0104008D02*
X0046142Y0104008D01*
X0046142Y0104806D02*
X0255542Y0104806D01*
X0255542Y0104008D02*
X0140085Y0104008D01*
X0142522Y0103209D02*
X0255542Y0103209D01*
X0255542Y0102411D02*
X0143409Y0102411D01*
X0144296Y0101612D02*
X0255542Y0101612D01*
X0255542Y0100814D02*
X0145125Y0100814D01*
X0145481Y0100015D02*
X0255542Y0100015D01*
X0255542Y0099217D02*
X0145836Y0099217D01*
X0146192Y0098418D02*
X0255542Y0098418D01*
X0255542Y0097620D02*
X0146497Y0097620D01*
X0146497Y0096821D02*
X0255542Y0096821D01*
X0255542Y0096023D02*
X0146497Y0096023D01*
X0146497Y0095224D02*
X0255542Y0095224D01*
X0255542Y0094426D02*
X0146497Y0094426D01*
X0146212Y0093627D02*
X0170243Y0093627D01*
X0170766Y0093929D02*
X0169505Y0093201D01*
X0168741Y0092885D01*
X0168447Y0092590D01*
X0167763Y0092196D01*
X0166996Y0091139D01*
X0166457Y0090600D01*
X0166262Y0090129D01*
X0165726Y0089391D01*
X0165483Y0088248D01*
X0165221Y0087615D01*
X0165221Y0087015D01*
X0165005Y0086000D01*
X0165221Y0084985D01*
X0165221Y0084385D01*
X0165483Y0083752D01*
X0165726Y0082609D01*
X0166262Y0081871D01*
X0166457Y0081400D01*
X0166996Y0080861D01*
X0167763Y0079804D01*
X0168447Y0079410D01*
X0168741Y0079115D01*
X0169505Y0078799D01*
X0170766Y0078071D01*
X0171431Y0078001D01*
X0171726Y0077879D01*
X0172595Y0077879D01*
X0174213Y0077709D01*
X0174737Y0077879D01*
X0174957Y0077879D01*
X0175760Y0078211D01*
X0177510Y0078780D01*
X0177832Y0079069D01*
X0177942Y0079115D01*
X0178481Y0079654D01*
X0180087Y0081100D01*
X0180215Y0081388D01*
X0180227Y0081400D01*
X0180314Y0081609D01*
X0181497Y0084267D01*
X0181497Y0087733D01*
X0180314Y0090391D01*
X0180227Y0090600D01*
X0180215Y0090612D01*
X0180087Y0090900D01*
X0178481Y0092346D01*
X0177942Y0092885D01*
X0177832Y0092931D01*
X0177510Y0093220D01*
X0175760Y0093789D01*
X0174957Y0094121D01*
X0174737Y0094121D01*
X0174213Y0094291D01*
X0172595Y0094121D01*
X0171726Y0094121D01*
X0171431Y0093999D01*
X0170766Y0093929D01*
X0168685Y0092829D02*
X0145856Y0092829D01*
X0145501Y0092030D02*
X0167643Y0092030D01*
X0167063Y0091232D02*
X0145145Y0091232D01*
X0144347Y0090433D02*
X0166388Y0090433D01*
X0165903Y0089635D02*
X0143460Y0089635D01*
X0142573Y0088836D02*
X0165608Y0088836D01*
X0165395Y0088038D02*
X0140226Y0088038D01*
X0136082Y0088038D02*
X0085226Y0088038D01*
X0087573Y0088836D02*
X0134440Y0088836D01*
X0133057Y0089635D02*
X0088460Y0089635D01*
X0089347Y0090433D02*
X0132306Y0090433D01*
X0131726Y0091232D02*
X0090145Y0091232D01*
X0090501Y0092030D02*
X0131146Y0092030D01*
X0130679Y0092829D02*
X0090856Y0092829D01*
X0091212Y0093627D02*
X0130509Y0093627D01*
X0130339Y0094426D02*
X0091497Y0094426D01*
X0091497Y0095224D02*
X0130170Y0095224D01*
X0130010Y0096023D02*
X0091497Y0096023D01*
X0091497Y0096821D02*
X0130179Y0096821D01*
X0130349Y0097620D02*
X0091497Y0097620D01*
X0091192Y0098418D02*
X0130519Y0098418D01*
X0130689Y0099217D02*
X0090836Y0099217D01*
X0090481Y0100015D02*
X0131179Y0100015D01*
X0131759Y0100814D02*
X0090125Y0100814D01*
X0089296Y0101612D02*
X0132340Y0101612D01*
X0133136Y0102411D02*
X0088409Y0102411D01*
X0087522Y0103209D02*
X0134519Y0103209D01*
X0165221Y0087239D02*
X0046142Y0087239D01*
X0046142Y0086441D02*
X0165098Y0086441D01*
X0165081Y0085642D02*
X0046142Y0085642D01*
X0046142Y0084844D02*
X0165221Y0084844D01*
X0165361Y0084045D02*
X0046142Y0084045D01*
X0046142Y0083247D02*
X0165590Y0083247D01*
X0165842Y0082448D02*
X0046142Y0082448D01*
X0046142Y0081650D02*
X0166353Y0081650D01*
X0167003Y0080851D02*
X0046142Y0080851D01*
X0046142Y0080053D02*
X0167583Y0080053D01*
X0168602Y0079254D02*
X0046142Y0079254D01*
X0046142Y0078456D02*
X0170099Y0078456D01*
X0176512Y0078456D02*
X0220099Y0078456D01*
X0219505Y0078799D02*
X0220766Y0078071D01*
X0221431Y0078001D01*
X0221726Y0077879D01*
X0222595Y0077879D01*
X0224213Y0077709D01*
X0224737Y0077879D01*
X0224957Y0077879D01*
X0225760Y0078211D01*
X0227510Y0078780D01*
X0227832Y0079069D01*
X0227942Y0079115D01*
X0228481Y0079654D01*
X0230087Y0081100D01*
X0230215Y0081388D01*
X0230227Y0081400D01*
X0230314Y0081609D01*
X0231497Y0084267D01*
X0231497Y0087733D01*
X0230314Y0090391D01*
X0230227Y0090600D01*
X0230215Y0090612D01*
X0230087Y0090900D01*
X0228481Y0092346D01*
X0227942Y0092885D01*
X0227832Y0092931D01*
X0227510Y0093220D01*
X0225760Y0093789D01*
X0224957Y0094121D01*
X0224737Y0094121D01*
X0224213Y0094291D01*
X0222595Y0094121D01*
X0221726Y0094121D01*
X0221431Y0093999D01*
X0220766Y0093929D01*
X0219505Y0093201D01*
X0218741Y0092885D01*
X0218447Y0092590D01*
X0217763Y0092196D01*
X0216996Y0091139D01*
X0216457Y0090600D01*
X0216262Y0090129D01*
X0215726Y0089391D01*
X0215483Y0088248D01*
X0215221Y0087615D01*
X0215221Y0087015D01*
X0215005Y0086000D01*
X0215221Y0084985D01*
X0215221Y0084385D01*
X0215483Y0083752D01*
X0215726Y0082609D01*
X0216262Y0081871D01*
X0216457Y0081400D01*
X0216996Y0080861D01*
X0217763Y0079804D01*
X0218447Y0079410D01*
X0218741Y0079115D01*
X0219505Y0078799D01*
X0218602Y0079254D02*
X0178081Y0079254D01*
X0178924Y0080053D02*
X0217583Y0080053D01*
X0217003Y0080851D02*
X0179811Y0080851D01*
X0180331Y0081650D02*
X0216353Y0081650D01*
X0215842Y0082448D02*
X0180687Y0082448D01*
X0181042Y0083247D02*
X0215590Y0083247D01*
X0215361Y0084045D02*
X0181398Y0084045D01*
X0181497Y0084844D02*
X0215221Y0084844D01*
X0215081Y0085642D02*
X0181497Y0085642D01*
X0181497Y0086441D02*
X0215098Y0086441D01*
X0215221Y0087239D02*
X0181497Y0087239D01*
X0181361Y0088038D02*
X0215395Y0088038D01*
X0215608Y0088836D02*
X0181006Y0088836D01*
X0180650Y0089635D02*
X0215903Y0089635D01*
X0216388Y0090433D02*
X0180296Y0090433D01*
X0179719Y0091232D02*
X0217063Y0091232D01*
X0217643Y0092030D02*
X0178832Y0092030D01*
X0177998Y0092829D02*
X0218685Y0092829D01*
X0220243Y0093627D02*
X0176257Y0093627D01*
X0226257Y0093627D02*
X0255542Y0093627D01*
X0255542Y0092829D02*
X0227998Y0092829D01*
X0228832Y0092030D02*
X0255542Y0092030D01*
X0255542Y0091232D02*
X0229719Y0091232D01*
X0230296Y0090433D02*
X0255542Y0090433D01*
X0255542Y0089635D02*
X0230650Y0089635D01*
X0231006Y0088836D02*
X0255542Y0088836D01*
X0255542Y0088038D02*
X0231361Y0088038D01*
X0231497Y0087239D02*
X0255542Y0087239D01*
X0255542Y0086441D02*
X0231497Y0086441D01*
X0231497Y0085642D02*
X0255542Y0085642D01*
X0255542Y0084844D02*
X0231497Y0084844D01*
X0231398Y0084045D02*
X0255542Y0084045D01*
X0255542Y0083247D02*
X0231042Y0083247D01*
X0230687Y0082448D02*
X0255542Y0082448D01*
X0255542Y0081650D02*
X0230331Y0081650D01*
X0229811Y0080851D02*
X0255542Y0080851D01*
X0255542Y0080053D02*
X0228924Y0080053D01*
X0228081Y0079254D02*
X0255542Y0079254D01*
X0255542Y0078456D02*
X0226512Y0078456D01*
X0255542Y0077657D02*
X0046142Y0077657D01*
X0046142Y0076859D02*
X0255542Y0076859D01*
X0255542Y0076060D02*
X0046142Y0076060D01*
X0046142Y0075262D02*
X0255542Y0075262D01*
X0255542Y0074463D02*
X0046142Y0074463D01*
X0046142Y0073665D02*
X0255542Y0073665D01*
X0255542Y0072866D02*
X0046142Y0072866D01*
X0046142Y0072068D02*
X0255542Y0072068D01*
X0255542Y0071269D02*
X0046142Y0071269D01*
X0046142Y0070470D02*
X0255542Y0070470D01*
X0255542Y0069672D02*
X0046142Y0069672D01*
X0046142Y0068873D02*
X0255542Y0068873D01*
X0255542Y0105605D02*
X0046142Y0105605D01*
X0046142Y0106403D02*
X0056129Y0106403D01*
X0056384Y0106274D02*
X0057148Y0106026D01*
X0057940Y0105900D01*
X0057942Y0105900D01*
X0057942Y0110600D01*
X0058742Y0110600D01*
X0058742Y0111400D01*
X0063442Y0111400D01*
X0063442Y0111401D01*
X0063316Y0112194D01*
X0063068Y0112958D01*
X0062704Y0113673D01*
X0062232Y0114322D01*
X0061664Y0114890D01*
X0061015Y0115362D01*
X0060300Y0115726D01*
X0059536Y0115974D01*
X0058743Y0116100D01*
X0058742Y0116100D01*
X0058742Y0111400D01*
X0057942Y0111400D01*
X0057942Y0116100D01*
X0057940Y0116100D01*
X0057148Y0115974D01*
X0056384Y0115726D01*
X0055669Y0115362D01*
X0055019Y0114890D01*
X0054452Y0114322D01*
X0053980Y0113673D01*
X0053615Y0112958D01*
X0053367Y0112194D01*
X0053242Y0111401D01*
X0053242Y0111400D01*
X0057942Y0111400D01*
X0057942Y0110600D01*
X0053242Y0110600D01*
X0053242Y0110599D01*
X0053367Y0109806D01*
X0053615Y0109042D01*
X0053980Y0108327D01*
X0054452Y0107678D01*
X0055019Y0107110D01*
X0055669Y0106638D01*
X0056384Y0106274D01*
X0057942Y0106403D02*
X0058742Y0106403D01*
X0058743Y0105900D02*
X0059536Y0106026D01*
X0060300Y0106274D01*
X0061015Y0106638D01*
X0061664Y0107110D01*
X0062232Y0107678D01*
X0062704Y0108327D01*
X0063068Y0109042D01*
X0063316Y0109806D01*
X0063442Y0110599D01*
X0063442Y0110600D01*
X0058742Y0110600D01*
X0058742Y0105900D01*
X0058743Y0105900D01*
X0058742Y0107202D02*
X0057942Y0107202D01*
X0057942Y0108001D02*
X0058742Y0108001D01*
X0058742Y0108799D02*
X0057942Y0108799D01*
X0057942Y0109598D02*
X0058742Y0109598D01*
X0058742Y0110396D02*
X0057942Y0110396D01*
X0057942Y0111195D02*
X0046142Y0111195D01*
X0046142Y0111993D02*
X0053336Y0111993D01*
X0053561Y0112792D02*
X0046142Y0112792D01*
X0046142Y0113590D02*
X0053938Y0113590D01*
X0054518Y0114389D02*
X0046142Y0114389D01*
X0046142Y0115187D02*
X0055428Y0115187D01*
X0055715Y0116784D02*
X0046142Y0116784D01*
X0046142Y0115986D02*
X0057218Y0115986D01*
X0057367Y0116100D02*
X0059316Y0116100D01*
X0061117Y0116846D01*
X0062496Y0118224D01*
X0063242Y0120025D01*
X0063242Y0121975D01*
X0062496Y0123776D01*
X0061117Y0125154D01*
X0059316Y0125900D01*
X0057367Y0125900D01*
X0055566Y0125154D01*
X0054188Y0123776D01*
X0053442Y0121975D01*
X0053442Y0120025D01*
X0054188Y0118224D01*
X0055566Y0116846D01*
X0057367Y0116100D01*
X0057942Y0115986D02*
X0058742Y0115986D01*
X0059465Y0115986D02*
X0255542Y0115986D01*
X0255542Y0116784D02*
X0060968Y0116784D01*
X0061854Y0117583D02*
X0255542Y0117583D01*
X0255542Y0118381D02*
X0062561Y0118381D01*
X0062892Y0119180D02*
X0255542Y0119180D01*
X0255542Y0119978D02*
X0063222Y0119978D01*
X0063242Y0120777D02*
X0255542Y0120777D01*
X0255542Y0121575D02*
X0063242Y0121575D01*
X0063077Y0122374D02*
X0255542Y0122374D01*
X0255542Y0123172D02*
X0062746Y0123172D01*
X0062301Y0123971D02*
X0255542Y0123971D01*
X0255542Y0124769D02*
X0061502Y0124769D01*
X0060119Y0125568D02*
X0255542Y0125568D01*
X0255542Y0126366D02*
X0059959Y0126366D01*
X0061436Y0127165D02*
X0255542Y0127165D01*
X0255542Y0127963D02*
X0062235Y0127963D01*
X0062718Y0128762D02*
X0255542Y0128762D01*
X0255542Y0115187D02*
X0061255Y0115187D01*
X0062166Y0114389D02*
X0255542Y0114389D01*
X0255542Y0113590D02*
X0062746Y0113590D01*
X0063122Y0112792D02*
X0255542Y0112792D01*
X0255542Y0111993D02*
X0063348Y0111993D01*
X0063410Y0110396D02*
X0255542Y0110396D01*
X0255542Y0109598D02*
X0063249Y0109598D01*
X0062944Y0108799D02*
X0255542Y0108799D01*
X0255542Y0108001D02*
X0062466Y0108001D01*
X0061756Y0107202D02*
X0255542Y0107202D01*
X0255542Y0106403D02*
X0060554Y0106403D01*
X0058742Y0111195D02*
X0255542Y0111195D01*
X0225805Y0136747D02*
X0220878Y0136747D01*
X0221117Y0136846D02*
X0222496Y0138224D01*
X0223242Y0140025D01*
X0223242Y0141975D01*
X0222496Y0143776D01*
X0221117Y0145154D01*
X0219316Y0145900D01*
X0217367Y0145900D01*
X0215566Y0145154D01*
X0214188Y0143776D01*
X0213442Y0141975D01*
X0213442Y0140025D01*
X0214188Y0138224D01*
X0215566Y0136846D01*
X0217367Y0136100D01*
X0219316Y0136100D01*
X0221117Y0136846D01*
X0221817Y0137545D02*
X0224867Y0137545D01*
X0224138Y0138344D02*
X0222545Y0138344D01*
X0222876Y0139142D02*
X0223807Y0139142D01*
X0223477Y0139941D02*
X0223207Y0139941D01*
X0223242Y0140739D02*
X0223442Y0140739D01*
X0223442Y0141538D02*
X0223242Y0141538D01*
X0223092Y0142337D02*
X0223592Y0142337D01*
X0223922Y0143135D02*
X0222761Y0143135D01*
X0222338Y0143934D02*
X0224346Y0143934D01*
X0225144Y0144732D02*
X0221539Y0144732D01*
X0220208Y0145531D02*
X0226475Y0145531D01*
X0216475Y0145531D02*
X0210684Y0145531D01*
X0211822Y0144732D02*
X0215144Y0144732D01*
X0214346Y0143934D02*
X0212514Y0143934D01*
X0212978Y0143135D02*
X0213922Y0143135D01*
X0213592Y0142337D02*
X0213270Y0142337D01*
X0213420Y0141538D02*
X0213442Y0141538D01*
X0213442Y0140739D02*
X0208742Y0140739D01*
X0208742Y0140600D02*
X0213442Y0140600D01*
X0213442Y0140599D01*
X0213316Y0139806D01*
X0213068Y0139042D01*
X0212704Y0138327D01*
X0212232Y0137678D01*
X0211664Y0137110D01*
X0211015Y0136638D01*
X0210300Y0136274D01*
X0209536Y0136026D01*
X0208743Y0135900D01*
X0208742Y0135900D01*
X0208742Y0140600D01*
X0208742Y0139941D02*
X0207942Y0139941D01*
X0207942Y0140739D02*
X0203242Y0140739D01*
X0203207Y0139941D02*
X0203346Y0139941D01*
X0203583Y0139142D02*
X0202876Y0139142D01*
X0202545Y0138344D02*
X0203971Y0138344D01*
X0204584Y0137545D02*
X0201817Y0137545D01*
X0200878Y0136747D02*
X0205519Y0136747D01*
X0207942Y0136747D02*
X0208742Y0136747D01*
X0208742Y0137545D02*
X0207942Y0137545D01*
X0207942Y0138344D02*
X0208742Y0138344D01*
X0208742Y0139142D02*
X0207942Y0139142D01*
X0207942Y0141538D02*
X0208742Y0141538D01*
X0208742Y0142337D02*
X0207942Y0142337D01*
X0207942Y0143135D02*
X0208742Y0143135D01*
X0208742Y0143934D02*
X0207942Y0143934D01*
X0207942Y0144732D02*
X0208742Y0144732D01*
X0208742Y0145531D02*
X0207942Y0145531D01*
X0206000Y0145531D02*
X0200208Y0145531D01*
X0201539Y0144732D02*
X0204861Y0144732D01*
X0204169Y0143934D02*
X0202338Y0143934D01*
X0202761Y0143135D02*
X0203706Y0143135D01*
X0203414Y0142337D02*
X0203092Y0142337D01*
X0203242Y0141538D02*
X0203263Y0141538D01*
X0211165Y0136747D02*
X0215805Y0136747D01*
X0214867Y0137545D02*
X0212100Y0137545D01*
X0212712Y0138344D02*
X0214138Y0138344D01*
X0213807Y0139142D02*
X0213101Y0139142D01*
X0213338Y0139941D02*
X0213477Y0139941D01*
X0081082Y0088038D02*
X0046142Y0088038D01*
X0046142Y0088836D02*
X0079440Y0088836D01*
X0078057Y0089635D02*
X0046142Y0089635D01*
X0046142Y0090433D02*
X0077306Y0090433D01*
X0076726Y0091232D02*
X0046142Y0091232D01*
X0046142Y0092030D02*
X0076146Y0092030D01*
X0075679Y0092829D02*
X0046142Y0092829D01*
X0046142Y0093627D02*
X0075509Y0093627D01*
X0075339Y0094426D02*
X0046142Y0094426D01*
X0046142Y0095224D02*
X0075170Y0095224D01*
X0075010Y0096023D02*
X0046142Y0096023D01*
X0046142Y0096821D02*
X0075179Y0096821D01*
X0075349Y0097620D02*
X0046142Y0097620D01*
X0046142Y0098418D02*
X0075519Y0098418D01*
X0075689Y0099217D02*
X0046142Y0099217D01*
X0046142Y0100015D02*
X0076179Y0100015D01*
X0076759Y0100814D02*
X0046142Y0100814D01*
X0046142Y0101612D02*
X0077340Y0101612D01*
X0078136Y0102411D02*
X0046142Y0102411D01*
X0046142Y0103209D02*
X0079519Y0103209D01*
X0058742Y0111993D02*
X0057942Y0111993D01*
X0057942Y0112792D02*
X0058742Y0112792D01*
X0058742Y0113590D02*
X0057942Y0113590D01*
X0057942Y0114389D02*
X0058742Y0114389D01*
X0058742Y0115187D02*
X0057942Y0115187D01*
X0054830Y0117583D02*
X0046142Y0117583D01*
X0046142Y0118381D02*
X0054123Y0118381D01*
X0053792Y0119180D02*
X0046142Y0119180D01*
X0046142Y0119978D02*
X0053461Y0119978D01*
X0053442Y0120777D02*
X0046142Y0120777D01*
X0046142Y0121575D02*
X0053442Y0121575D01*
X0053607Y0122374D02*
X0046142Y0122374D01*
X0046142Y0123172D02*
X0053938Y0123172D01*
X0054383Y0123971D02*
X0046142Y0123971D01*
X0046142Y0124769D02*
X0055181Y0124769D01*
X0056565Y0125568D02*
X0046142Y0125568D01*
X0046142Y0126366D02*
X0056724Y0126366D01*
X0055247Y0127165D02*
X0046142Y0127165D01*
X0046142Y0127963D02*
X0054449Y0127963D01*
X0053965Y0128762D02*
X0046142Y0128762D01*
X0046142Y0129560D02*
X0053634Y0129560D01*
X0053442Y0130359D02*
X0046142Y0130359D01*
X0046142Y0131157D02*
X0053442Y0131157D01*
X0053442Y0131956D02*
X0046142Y0131956D01*
X0046142Y0132754D02*
X0053765Y0132754D01*
X0053526Y0133553D02*
X0046142Y0133553D01*
X0046142Y0134351D02*
X0052728Y0134351D01*
X0053274Y0110396D02*
X0046142Y0110396D01*
X0046142Y0109598D02*
X0053435Y0109598D01*
X0053739Y0108799D02*
X0046142Y0108799D01*
X0046142Y0108001D02*
X0054217Y0108001D01*
X0054927Y0107202D02*
X0046142Y0107202D01*
M02*
