%
M48
M72
T01C0.03150
T02C0.04000
T03C0.06500
T04C0.08661
T05C0.09843
%
T01
X68342Y166000
X78342Y166000
X88342Y166000
X98342Y166000
X108342Y166000
X118342Y166000
X128342Y166000
X138342Y166000
X148342Y166000
X158342Y166000
X168342Y166000
X178342Y166000
X188342Y166000
X198342Y166000
X208342Y166000
X213342Y186000
X203342Y186000
X203342Y196000
X213342Y196000
X213342Y206000
X203342Y206000
X208342Y226000
X198342Y226000
X188342Y226000
X178342Y226000
X168342Y226000
X158342Y226000
X148342Y226000
X138342Y226000
X128342Y226000
X118342Y226000
X108342Y226000
X98342Y226000
X88342Y226000
X78342Y226000
X68342Y226000
T02
X73342Y256000
X83342Y256000
X93342Y256000
X118342Y256000
X128342Y256000
X138342Y256000
X148342Y256000
X173342Y256000
X183342Y256000
X193342Y256000
X203342Y256000
X243342Y256000
X243342Y246000
X243342Y236000
X243342Y226000
X243342Y196000
X243342Y186000
X243342Y176000
X243342Y166000
X228342Y141000
X218342Y141000
X208342Y141000
X198342Y141000
X188342Y141000
X178342Y141000
X168342Y141000
X140842Y141000
X130842Y141000
X120842Y141000
X110842Y141000
X100842Y141000
X90842Y141000
X80842Y141000
X58342Y141000
X58342Y131000
X58342Y121000
X58342Y111000
X63342Y256000
T03
X58342Y226000
X58342Y166000
X218342Y166000
X218342Y226000
T04
X83342Y96000
X138342Y96000
T05
X173342Y86000
X223342Y86000
M30
