G75*
%MOIN*%
%OFA0B0*%
%FSLAX25Y25*%
%IPPOS*%
%LPD*%
%AMOC8*
5,1,8,0,0,1.08239X$1,22.5*
%
%ADD10C,0.00000*%
%ADD11C,0.00800*%
%ADD12C,0.00512*%
%ADD13C,0.00600*%
%ADD14C,0.07400*%
%ADD15C,0.12661*%
%ADD16C,0.13843*%
%ADD17C,0.05550*%
%ADD18C,0.05550*%
D10*
X0028342Y0001000D02*
X0028342Y0315961D01*
X0422043Y0315961D01*
X0422043Y0001000D01*
X0028342Y0001000D01*
X0055092Y0166000D02*
X0055094Y0166113D01*
X0055100Y0166227D01*
X0055110Y0166340D01*
X0055124Y0166452D01*
X0055141Y0166564D01*
X0055163Y0166676D01*
X0055189Y0166786D01*
X0055218Y0166896D01*
X0055251Y0167004D01*
X0055288Y0167112D01*
X0055329Y0167217D01*
X0055373Y0167322D01*
X0055421Y0167425D01*
X0055472Y0167526D01*
X0055527Y0167625D01*
X0055586Y0167722D01*
X0055648Y0167817D01*
X0055713Y0167910D01*
X0055781Y0168001D01*
X0055852Y0168089D01*
X0055927Y0168175D01*
X0056004Y0168258D01*
X0056084Y0168338D01*
X0056167Y0168415D01*
X0056253Y0168490D01*
X0056341Y0168561D01*
X0056432Y0168629D01*
X0056525Y0168694D01*
X0056620Y0168756D01*
X0056717Y0168815D01*
X0056816Y0168870D01*
X0056917Y0168921D01*
X0057020Y0168969D01*
X0057125Y0169013D01*
X0057230Y0169054D01*
X0057338Y0169091D01*
X0057446Y0169124D01*
X0057556Y0169153D01*
X0057666Y0169179D01*
X0057778Y0169201D01*
X0057890Y0169218D01*
X0058002Y0169232D01*
X0058115Y0169242D01*
X0058229Y0169248D01*
X0058342Y0169250D01*
X0058455Y0169248D01*
X0058569Y0169242D01*
X0058682Y0169232D01*
X0058794Y0169218D01*
X0058906Y0169201D01*
X0059018Y0169179D01*
X0059128Y0169153D01*
X0059238Y0169124D01*
X0059346Y0169091D01*
X0059454Y0169054D01*
X0059559Y0169013D01*
X0059664Y0168969D01*
X0059767Y0168921D01*
X0059868Y0168870D01*
X0059967Y0168815D01*
X0060064Y0168756D01*
X0060159Y0168694D01*
X0060252Y0168629D01*
X0060343Y0168561D01*
X0060431Y0168490D01*
X0060517Y0168415D01*
X0060600Y0168338D01*
X0060680Y0168258D01*
X0060757Y0168175D01*
X0060832Y0168089D01*
X0060903Y0168001D01*
X0060971Y0167910D01*
X0061036Y0167817D01*
X0061098Y0167722D01*
X0061157Y0167625D01*
X0061212Y0167526D01*
X0061263Y0167425D01*
X0061311Y0167322D01*
X0061355Y0167217D01*
X0061396Y0167112D01*
X0061433Y0167004D01*
X0061466Y0166896D01*
X0061495Y0166786D01*
X0061521Y0166676D01*
X0061543Y0166564D01*
X0061560Y0166452D01*
X0061574Y0166340D01*
X0061584Y0166227D01*
X0061590Y0166113D01*
X0061592Y0166000D01*
X0061590Y0165887D01*
X0061584Y0165773D01*
X0061574Y0165660D01*
X0061560Y0165548D01*
X0061543Y0165436D01*
X0061521Y0165324D01*
X0061495Y0165214D01*
X0061466Y0165104D01*
X0061433Y0164996D01*
X0061396Y0164888D01*
X0061355Y0164783D01*
X0061311Y0164678D01*
X0061263Y0164575D01*
X0061212Y0164474D01*
X0061157Y0164375D01*
X0061098Y0164278D01*
X0061036Y0164183D01*
X0060971Y0164090D01*
X0060903Y0163999D01*
X0060832Y0163911D01*
X0060757Y0163825D01*
X0060680Y0163742D01*
X0060600Y0163662D01*
X0060517Y0163585D01*
X0060431Y0163510D01*
X0060343Y0163439D01*
X0060252Y0163371D01*
X0060159Y0163306D01*
X0060064Y0163244D01*
X0059967Y0163185D01*
X0059868Y0163130D01*
X0059767Y0163079D01*
X0059664Y0163031D01*
X0059559Y0162987D01*
X0059454Y0162946D01*
X0059346Y0162909D01*
X0059238Y0162876D01*
X0059128Y0162847D01*
X0059018Y0162821D01*
X0058906Y0162799D01*
X0058794Y0162782D01*
X0058682Y0162768D01*
X0058569Y0162758D01*
X0058455Y0162752D01*
X0058342Y0162750D01*
X0058229Y0162752D01*
X0058115Y0162758D01*
X0058002Y0162768D01*
X0057890Y0162782D01*
X0057778Y0162799D01*
X0057666Y0162821D01*
X0057556Y0162847D01*
X0057446Y0162876D01*
X0057338Y0162909D01*
X0057230Y0162946D01*
X0057125Y0162987D01*
X0057020Y0163031D01*
X0056917Y0163079D01*
X0056816Y0163130D01*
X0056717Y0163185D01*
X0056620Y0163244D01*
X0056525Y0163306D01*
X0056432Y0163371D01*
X0056341Y0163439D01*
X0056253Y0163510D01*
X0056167Y0163585D01*
X0056084Y0163662D01*
X0056004Y0163742D01*
X0055927Y0163825D01*
X0055852Y0163911D01*
X0055781Y0163999D01*
X0055713Y0164090D01*
X0055648Y0164183D01*
X0055586Y0164278D01*
X0055527Y0164375D01*
X0055472Y0164474D01*
X0055421Y0164575D01*
X0055373Y0164678D01*
X0055329Y0164783D01*
X0055288Y0164888D01*
X0055251Y0164996D01*
X0055218Y0165104D01*
X0055189Y0165214D01*
X0055163Y0165324D01*
X0055141Y0165436D01*
X0055124Y0165548D01*
X0055110Y0165660D01*
X0055100Y0165773D01*
X0055094Y0165887D01*
X0055092Y0166000D01*
X0055092Y0226000D02*
X0055094Y0226113D01*
X0055100Y0226227D01*
X0055110Y0226340D01*
X0055124Y0226452D01*
X0055141Y0226564D01*
X0055163Y0226676D01*
X0055189Y0226786D01*
X0055218Y0226896D01*
X0055251Y0227004D01*
X0055288Y0227112D01*
X0055329Y0227217D01*
X0055373Y0227322D01*
X0055421Y0227425D01*
X0055472Y0227526D01*
X0055527Y0227625D01*
X0055586Y0227722D01*
X0055648Y0227817D01*
X0055713Y0227910D01*
X0055781Y0228001D01*
X0055852Y0228089D01*
X0055927Y0228175D01*
X0056004Y0228258D01*
X0056084Y0228338D01*
X0056167Y0228415D01*
X0056253Y0228490D01*
X0056341Y0228561D01*
X0056432Y0228629D01*
X0056525Y0228694D01*
X0056620Y0228756D01*
X0056717Y0228815D01*
X0056816Y0228870D01*
X0056917Y0228921D01*
X0057020Y0228969D01*
X0057125Y0229013D01*
X0057230Y0229054D01*
X0057338Y0229091D01*
X0057446Y0229124D01*
X0057556Y0229153D01*
X0057666Y0229179D01*
X0057778Y0229201D01*
X0057890Y0229218D01*
X0058002Y0229232D01*
X0058115Y0229242D01*
X0058229Y0229248D01*
X0058342Y0229250D01*
X0058455Y0229248D01*
X0058569Y0229242D01*
X0058682Y0229232D01*
X0058794Y0229218D01*
X0058906Y0229201D01*
X0059018Y0229179D01*
X0059128Y0229153D01*
X0059238Y0229124D01*
X0059346Y0229091D01*
X0059454Y0229054D01*
X0059559Y0229013D01*
X0059664Y0228969D01*
X0059767Y0228921D01*
X0059868Y0228870D01*
X0059967Y0228815D01*
X0060064Y0228756D01*
X0060159Y0228694D01*
X0060252Y0228629D01*
X0060343Y0228561D01*
X0060431Y0228490D01*
X0060517Y0228415D01*
X0060600Y0228338D01*
X0060680Y0228258D01*
X0060757Y0228175D01*
X0060832Y0228089D01*
X0060903Y0228001D01*
X0060971Y0227910D01*
X0061036Y0227817D01*
X0061098Y0227722D01*
X0061157Y0227625D01*
X0061212Y0227526D01*
X0061263Y0227425D01*
X0061311Y0227322D01*
X0061355Y0227217D01*
X0061396Y0227112D01*
X0061433Y0227004D01*
X0061466Y0226896D01*
X0061495Y0226786D01*
X0061521Y0226676D01*
X0061543Y0226564D01*
X0061560Y0226452D01*
X0061574Y0226340D01*
X0061584Y0226227D01*
X0061590Y0226113D01*
X0061592Y0226000D01*
X0061590Y0225887D01*
X0061584Y0225773D01*
X0061574Y0225660D01*
X0061560Y0225548D01*
X0061543Y0225436D01*
X0061521Y0225324D01*
X0061495Y0225214D01*
X0061466Y0225104D01*
X0061433Y0224996D01*
X0061396Y0224888D01*
X0061355Y0224783D01*
X0061311Y0224678D01*
X0061263Y0224575D01*
X0061212Y0224474D01*
X0061157Y0224375D01*
X0061098Y0224278D01*
X0061036Y0224183D01*
X0060971Y0224090D01*
X0060903Y0223999D01*
X0060832Y0223911D01*
X0060757Y0223825D01*
X0060680Y0223742D01*
X0060600Y0223662D01*
X0060517Y0223585D01*
X0060431Y0223510D01*
X0060343Y0223439D01*
X0060252Y0223371D01*
X0060159Y0223306D01*
X0060064Y0223244D01*
X0059967Y0223185D01*
X0059868Y0223130D01*
X0059767Y0223079D01*
X0059664Y0223031D01*
X0059559Y0222987D01*
X0059454Y0222946D01*
X0059346Y0222909D01*
X0059238Y0222876D01*
X0059128Y0222847D01*
X0059018Y0222821D01*
X0058906Y0222799D01*
X0058794Y0222782D01*
X0058682Y0222768D01*
X0058569Y0222758D01*
X0058455Y0222752D01*
X0058342Y0222750D01*
X0058229Y0222752D01*
X0058115Y0222758D01*
X0058002Y0222768D01*
X0057890Y0222782D01*
X0057778Y0222799D01*
X0057666Y0222821D01*
X0057556Y0222847D01*
X0057446Y0222876D01*
X0057338Y0222909D01*
X0057230Y0222946D01*
X0057125Y0222987D01*
X0057020Y0223031D01*
X0056917Y0223079D01*
X0056816Y0223130D01*
X0056717Y0223185D01*
X0056620Y0223244D01*
X0056525Y0223306D01*
X0056432Y0223371D01*
X0056341Y0223439D01*
X0056253Y0223510D01*
X0056167Y0223585D01*
X0056084Y0223662D01*
X0056004Y0223742D01*
X0055927Y0223825D01*
X0055852Y0223911D01*
X0055781Y0223999D01*
X0055713Y0224090D01*
X0055648Y0224183D01*
X0055586Y0224278D01*
X0055527Y0224375D01*
X0055472Y0224474D01*
X0055421Y0224575D01*
X0055373Y0224678D01*
X0055329Y0224783D01*
X0055288Y0224888D01*
X0055251Y0224996D01*
X0055218Y0225104D01*
X0055189Y0225214D01*
X0055163Y0225324D01*
X0055141Y0225436D01*
X0055124Y0225548D01*
X0055110Y0225660D01*
X0055100Y0225773D01*
X0055094Y0225887D01*
X0055092Y0226000D01*
X0215092Y0226000D02*
X0215094Y0226113D01*
X0215100Y0226227D01*
X0215110Y0226340D01*
X0215124Y0226452D01*
X0215141Y0226564D01*
X0215163Y0226676D01*
X0215189Y0226786D01*
X0215218Y0226896D01*
X0215251Y0227004D01*
X0215288Y0227112D01*
X0215329Y0227217D01*
X0215373Y0227322D01*
X0215421Y0227425D01*
X0215472Y0227526D01*
X0215527Y0227625D01*
X0215586Y0227722D01*
X0215648Y0227817D01*
X0215713Y0227910D01*
X0215781Y0228001D01*
X0215852Y0228089D01*
X0215927Y0228175D01*
X0216004Y0228258D01*
X0216084Y0228338D01*
X0216167Y0228415D01*
X0216253Y0228490D01*
X0216341Y0228561D01*
X0216432Y0228629D01*
X0216525Y0228694D01*
X0216620Y0228756D01*
X0216717Y0228815D01*
X0216816Y0228870D01*
X0216917Y0228921D01*
X0217020Y0228969D01*
X0217125Y0229013D01*
X0217230Y0229054D01*
X0217338Y0229091D01*
X0217446Y0229124D01*
X0217556Y0229153D01*
X0217666Y0229179D01*
X0217778Y0229201D01*
X0217890Y0229218D01*
X0218002Y0229232D01*
X0218115Y0229242D01*
X0218229Y0229248D01*
X0218342Y0229250D01*
X0218455Y0229248D01*
X0218569Y0229242D01*
X0218682Y0229232D01*
X0218794Y0229218D01*
X0218906Y0229201D01*
X0219018Y0229179D01*
X0219128Y0229153D01*
X0219238Y0229124D01*
X0219346Y0229091D01*
X0219454Y0229054D01*
X0219559Y0229013D01*
X0219664Y0228969D01*
X0219767Y0228921D01*
X0219868Y0228870D01*
X0219967Y0228815D01*
X0220064Y0228756D01*
X0220159Y0228694D01*
X0220252Y0228629D01*
X0220343Y0228561D01*
X0220431Y0228490D01*
X0220517Y0228415D01*
X0220600Y0228338D01*
X0220680Y0228258D01*
X0220757Y0228175D01*
X0220832Y0228089D01*
X0220903Y0228001D01*
X0220971Y0227910D01*
X0221036Y0227817D01*
X0221098Y0227722D01*
X0221157Y0227625D01*
X0221212Y0227526D01*
X0221263Y0227425D01*
X0221311Y0227322D01*
X0221355Y0227217D01*
X0221396Y0227112D01*
X0221433Y0227004D01*
X0221466Y0226896D01*
X0221495Y0226786D01*
X0221521Y0226676D01*
X0221543Y0226564D01*
X0221560Y0226452D01*
X0221574Y0226340D01*
X0221584Y0226227D01*
X0221590Y0226113D01*
X0221592Y0226000D01*
X0221590Y0225887D01*
X0221584Y0225773D01*
X0221574Y0225660D01*
X0221560Y0225548D01*
X0221543Y0225436D01*
X0221521Y0225324D01*
X0221495Y0225214D01*
X0221466Y0225104D01*
X0221433Y0224996D01*
X0221396Y0224888D01*
X0221355Y0224783D01*
X0221311Y0224678D01*
X0221263Y0224575D01*
X0221212Y0224474D01*
X0221157Y0224375D01*
X0221098Y0224278D01*
X0221036Y0224183D01*
X0220971Y0224090D01*
X0220903Y0223999D01*
X0220832Y0223911D01*
X0220757Y0223825D01*
X0220680Y0223742D01*
X0220600Y0223662D01*
X0220517Y0223585D01*
X0220431Y0223510D01*
X0220343Y0223439D01*
X0220252Y0223371D01*
X0220159Y0223306D01*
X0220064Y0223244D01*
X0219967Y0223185D01*
X0219868Y0223130D01*
X0219767Y0223079D01*
X0219664Y0223031D01*
X0219559Y0222987D01*
X0219454Y0222946D01*
X0219346Y0222909D01*
X0219238Y0222876D01*
X0219128Y0222847D01*
X0219018Y0222821D01*
X0218906Y0222799D01*
X0218794Y0222782D01*
X0218682Y0222768D01*
X0218569Y0222758D01*
X0218455Y0222752D01*
X0218342Y0222750D01*
X0218229Y0222752D01*
X0218115Y0222758D01*
X0218002Y0222768D01*
X0217890Y0222782D01*
X0217778Y0222799D01*
X0217666Y0222821D01*
X0217556Y0222847D01*
X0217446Y0222876D01*
X0217338Y0222909D01*
X0217230Y0222946D01*
X0217125Y0222987D01*
X0217020Y0223031D01*
X0216917Y0223079D01*
X0216816Y0223130D01*
X0216717Y0223185D01*
X0216620Y0223244D01*
X0216525Y0223306D01*
X0216432Y0223371D01*
X0216341Y0223439D01*
X0216253Y0223510D01*
X0216167Y0223585D01*
X0216084Y0223662D01*
X0216004Y0223742D01*
X0215927Y0223825D01*
X0215852Y0223911D01*
X0215781Y0223999D01*
X0215713Y0224090D01*
X0215648Y0224183D01*
X0215586Y0224278D01*
X0215527Y0224375D01*
X0215472Y0224474D01*
X0215421Y0224575D01*
X0215373Y0224678D01*
X0215329Y0224783D01*
X0215288Y0224888D01*
X0215251Y0224996D01*
X0215218Y0225104D01*
X0215189Y0225214D01*
X0215163Y0225324D01*
X0215141Y0225436D01*
X0215124Y0225548D01*
X0215110Y0225660D01*
X0215100Y0225773D01*
X0215094Y0225887D01*
X0215092Y0226000D01*
X0215092Y0166000D02*
X0215094Y0166113D01*
X0215100Y0166227D01*
X0215110Y0166340D01*
X0215124Y0166452D01*
X0215141Y0166564D01*
X0215163Y0166676D01*
X0215189Y0166786D01*
X0215218Y0166896D01*
X0215251Y0167004D01*
X0215288Y0167112D01*
X0215329Y0167217D01*
X0215373Y0167322D01*
X0215421Y0167425D01*
X0215472Y0167526D01*
X0215527Y0167625D01*
X0215586Y0167722D01*
X0215648Y0167817D01*
X0215713Y0167910D01*
X0215781Y0168001D01*
X0215852Y0168089D01*
X0215927Y0168175D01*
X0216004Y0168258D01*
X0216084Y0168338D01*
X0216167Y0168415D01*
X0216253Y0168490D01*
X0216341Y0168561D01*
X0216432Y0168629D01*
X0216525Y0168694D01*
X0216620Y0168756D01*
X0216717Y0168815D01*
X0216816Y0168870D01*
X0216917Y0168921D01*
X0217020Y0168969D01*
X0217125Y0169013D01*
X0217230Y0169054D01*
X0217338Y0169091D01*
X0217446Y0169124D01*
X0217556Y0169153D01*
X0217666Y0169179D01*
X0217778Y0169201D01*
X0217890Y0169218D01*
X0218002Y0169232D01*
X0218115Y0169242D01*
X0218229Y0169248D01*
X0218342Y0169250D01*
X0218455Y0169248D01*
X0218569Y0169242D01*
X0218682Y0169232D01*
X0218794Y0169218D01*
X0218906Y0169201D01*
X0219018Y0169179D01*
X0219128Y0169153D01*
X0219238Y0169124D01*
X0219346Y0169091D01*
X0219454Y0169054D01*
X0219559Y0169013D01*
X0219664Y0168969D01*
X0219767Y0168921D01*
X0219868Y0168870D01*
X0219967Y0168815D01*
X0220064Y0168756D01*
X0220159Y0168694D01*
X0220252Y0168629D01*
X0220343Y0168561D01*
X0220431Y0168490D01*
X0220517Y0168415D01*
X0220600Y0168338D01*
X0220680Y0168258D01*
X0220757Y0168175D01*
X0220832Y0168089D01*
X0220903Y0168001D01*
X0220971Y0167910D01*
X0221036Y0167817D01*
X0221098Y0167722D01*
X0221157Y0167625D01*
X0221212Y0167526D01*
X0221263Y0167425D01*
X0221311Y0167322D01*
X0221355Y0167217D01*
X0221396Y0167112D01*
X0221433Y0167004D01*
X0221466Y0166896D01*
X0221495Y0166786D01*
X0221521Y0166676D01*
X0221543Y0166564D01*
X0221560Y0166452D01*
X0221574Y0166340D01*
X0221584Y0166227D01*
X0221590Y0166113D01*
X0221592Y0166000D01*
X0221590Y0165887D01*
X0221584Y0165773D01*
X0221574Y0165660D01*
X0221560Y0165548D01*
X0221543Y0165436D01*
X0221521Y0165324D01*
X0221495Y0165214D01*
X0221466Y0165104D01*
X0221433Y0164996D01*
X0221396Y0164888D01*
X0221355Y0164783D01*
X0221311Y0164678D01*
X0221263Y0164575D01*
X0221212Y0164474D01*
X0221157Y0164375D01*
X0221098Y0164278D01*
X0221036Y0164183D01*
X0220971Y0164090D01*
X0220903Y0163999D01*
X0220832Y0163911D01*
X0220757Y0163825D01*
X0220680Y0163742D01*
X0220600Y0163662D01*
X0220517Y0163585D01*
X0220431Y0163510D01*
X0220343Y0163439D01*
X0220252Y0163371D01*
X0220159Y0163306D01*
X0220064Y0163244D01*
X0219967Y0163185D01*
X0219868Y0163130D01*
X0219767Y0163079D01*
X0219664Y0163031D01*
X0219559Y0162987D01*
X0219454Y0162946D01*
X0219346Y0162909D01*
X0219238Y0162876D01*
X0219128Y0162847D01*
X0219018Y0162821D01*
X0218906Y0162799D01*
X0218794Y0162782D01*
X0218682Y0162768D01*
X0218569Y0162758D01*
X0218455Y0162752D01*
X0218342Y0162750D01*
X0218229Y0162752D01*
X0218115Y0162758D01*
X0218002Y0162768D01*
X0217890Y0162782D01*
X0217778Y0162799D01*
X0217666Y0162821D01*
X0217556Y0162847D01*
X0217446Y0162876D01*
X0217338Y0162909D01*
X0217230Y0162946D01*
X0217125Y0162987D01*
X0217020Y0163031D01*
X0216917Y0163079D01*
X0216816Y0163130D01*
X0216717Y0163185D01*
X0216620Y0163244D01*
X0216525Y0163306D01*
X0216432Y0163371D01*
X0216341Y0163439D01*
X0216253Y0163510D01*
X0216167Y0163585D01*
X0216084Y0163662D01*
X0216004Y0163742D01*
X0215927Y0163825D01*
X0215852Y0163911D01*
X0215781Y0163999D01*
X0215713Y0164090D01*
X0215648Y0164183D01*
X0215586Y0164278D01*
X0215527Y0164375D01*
X0215472Y0164474D01*
X0215421Y0164575D01*
X0215373Y0164678D01*
X0215329Y0164783D01*
X0215288Y0164888D01*
X0215251Y0164996D01*
X0215218Y0165104D01*
X0215189Y0165214D01*
X0215163Y0165324D01*
X0215141Y0165436D01*
X0215124Y0165548D01*
X0215110Y0165660D01*
X0215100Y0165773D01*
X0215094Y0165887D01*
X0215092Y0166000D01*
D11*
X0212692Y0166292D02*
X0212317Y0166292D01*
X0212317Y0167090D02*
X0212692Y0167090D01*
X0212692Y0167124D02*
X0212692Y0164876D01*
X0213552Y0162800D01*
X0215141Y0161210D01*
X0217218Y0160350D01*
X0219466Y0160350D01*
X0221542Y0161210D01*
X0223132Y0162800D01*
X0223992Y0164876D01*
X0223992Y0167124D01*
X0223132Y0169200D01*
X0221542Y0170790D01*
X0219466Y0171650D01*
X0217218Y0171650D01*
X0215141Y0170790D01*
X0213552Y0169200D01*
X0212692Y0167124D01*
X0213009Y0167889D02*
X0212317Y0167889D01*
X0212317Y0168687D02*
X0213339Y0168687D01*
X0213837Y0169486D02*
X0212317Y0169486D01*
X0212317Y0169565D02*
X0211711Y0171026D01*
X0210593Y0172144D01*
X0209132Y0172750D01*
X0207551Y0172750D01*
X0206090Y0172144D01*
X0204972Y0171026D01*
X0204367Y0169565D01*
X0204367Y0162435D01*
X0204972Y0160974D01*
X0206090Y0159856D01*
X0207551Y0159250D01*
X0209132Y0159250D01*
X0210593Y0159856D01*
X0211711Y0160974D01*
X0212317Y0162435D01*
X0212317Y0169565D01*
X0212019Y0170284D02*
X0214636Y0170284D01*
X0215849Y0171083D02*
X0211655Y0171083D01*
X0210856Y0171881D02*
X0240531Y0171881D01*
X0240566Y0171846D02*
X0242367Y0171100D01*
X0244316Y0171100D01*
X0246117Y0171846D01*
X0247496Y0173224D01*
X0248242Y0175025D01*
X0248242Y0176975D01*
X0247496Y0178776D01*
X0246117Y0180154D01*
X0244316Y0180900D01*
X0242367Y0180900D01*
X0241191Y0180413D01*
X0219942Y0201663D01*
X0219005Y0202600D01*
X0215520Y0202600D01*
X0215593Y0202630D01*
X0216711Y0203748D01*
X0217317Y0205209D01*
X0217317Y0206791D01*
X0216711Y0208252D01*
X0215593Y0209370D01*
X0215520Y0209400D01*
X0217679Y0209400D01*
X0238929Y0188150D01*
X0238442Y0186975D01*
X0238442Y0185025D01*
X0239188Y0183224D01*
X0240566Y0181846D01*
X0242367Y0181100D01*
X0244316Y0181100D01*
X0246117Y0181846D01*
X0247496Y0183224D01*
X0248242Y0185025D01*
X0248242Y0186975D01*
X0247496Y0188776D01*
X0246117Y0190154D01*
X0244316Y0190900D01*
X0242367Y0190900D01*
X0241191Y0190413D01*
X0219942Y0211663D01*
X0219005Y0212600D01*
X0184005Y0212600D01*
X0177468Y0219137D01*
X0177954Y0219060D01*
X0177954Y0225613D01*
X0174167Y0225613D01*
X0174167Y0222897D01*
X0174253Y0222351D01*
X0172317Y0224288D01*
X0172317Y0229565D01*
X0171711Y0231026D01*
X0170593Y0232144D01*
X0169132Y0232750D01*
X0167551Y0232750D01*
X0166090Y0232144D01*
X0164972Y0231026D01*
X0164367Y0229565D01*
X0164367Y0222435D01*
X0164972Y0220974D01*
X0166090Y0219856D01*
X0167551Y0219250D01*
X0169132Y0219250D01*
X0170593Y0219856D01*
X0171408Y0220671D01*
X0182679Y0209400D01*
X0201164Y0209400D01*
X0201090Y0209370D01*
X0199972Y0208252D01*
X0199367Y0206791D01*
X0199367Y0205209D01*
X0199972Y0203748D01*
X0201090Y0202630D01*
X0201164Y0202600D01*
X0179005Y0202600D01*
X0161171Y0220433D01*
X0161711Y0220974D01*
X0162317Y0222435D01*
X0162317Y0229565D01*
X0161711Y0231026D01*
X0160593Y0232144D01*
X0159132Y0232750D01*
X0157551Y0232750D01*
X0156090Y0232144D01*
X0154972Y0231026D01*
X0154367Y0229565D01*
X0154367Y0222435D01*
X0154972Y0220974D01*
X0156090Y0219856D01*
X0157551Y0219250D01*
X0157829Y0219250D01*
X0177679Y0199400D01*
X0201164Y0199400D01*
X0201090Y0199370D01*
X0199972Y0198252D01*
X0199367Y0196791D01*
X0199367Y0195209D01*
X0199972Y0193748D01*
X0201090Y0192630D01*
X0202551Y0192025D01*
X0204132Y0192025D01*
X0205593Y0192630D01*
X0206711Y0193748D01*
X0207317Y0195209D01*
X0207317Y0196791D01*
X0206711Y0198252D01*
X0205593Y0199370D01*
X0205520Y0199400D01*
X0211164Y0199400D01*
X0211090Y0199370D01*
X0209972Y0198252D01*
X0209367Y0196791D01*
X0209367Y0195209D01*
X0209972Y0193748D01*
X0211090Y0192630D01*
X0212551Y0192025D01*
X0214132Y0192025D01*
X0215593Y0192630D01*
X0216711Y0193748D01*
X0217317Y0195209D01*
X0217317Y0196791D01*
X0216711Y0198252D01*
X0215593Y0199370D01*
X0215520Y0199400D01*
X0217679Y0199400D01*
X0238929Y0178150D01*
X0238442Y0176975D01*
X0238442Y0175025D01*
X0239188Y0173224D01*
X0240566Y0171846D01*
X0239732Y0172680D02*
X0209301Y0172680D01*
X0207383Y0172680D02*
X0199833Y0172680D01*
X0199944Y0172644D02*
X0199319Y0172847D01*
X0198729Y0172940D01*
X0198729Y0166387D01*
X0202517Y0166387D01*
X0202517Y0169103D01*
X0202414Y0169752D01*
X0202211Y0170377D01*
X0201912Y0170963D01*
X0201526Y0171495D01*
X0201062Y0171959D01*
X0200530Y0172345D01*
X0199944Y0172644D01*
X0198729Y0172680D02*
X0197954Y0172680D01*
X0197954Y0172940D02*
X0197364Y0172847D01*
X0196739Y0172644D01*
X0196154Y0172345D01*
X0195622Y0171959D01*
X0195157Y0171495D01*
X0194771Y0170963D01*
X0194473Y0170377D01*
X0194270Y0169752D01*
X0194167Y0169103D01*
X0194167Y0166387D01*
X0197954Y0166387D01*
X0197954Y0165613D01*
X0194167Y0165613D01*
X0194167Y0162897D01*
X0194270Y0162248D01*
X0194473Y0161623D01*
X0194771Y0161037D01*
X0195157Y0160505D01*
X0195622Y0160041D01*
X0196154Y0159655D01*
X0196739Y0159356D01*
X0197364Y0159153D01*
X0197954Y0159060D01*
X0197954Y0165613D01*
X0198729Y0165613D01*
X0198729Y0166387D01*
X0197954Y0166387D01*
X0197954Y0172940D01*
X0197954Y0171881D02*
X0198729Y0171881D01*
X0198729Y0171083D02*
X0197954Y0171083D01*
X0197954Y0170284D02*
X0198729Y0170284D01*
X0198729Y0169486D02*
X0197954Y0169486D01*
X0197954Y0168687D02*
X0198729Y0168687D01*
X0198729Y0167889D02*
X0197954Y0167889D01*
X0197954Y0167090D02*
X0198729Y0167090D01*
X0198729Y0166292D02*
X0204367Y0166292D01*
X0204367Y0167090D02*
X0202517Y0167090D01*
X0202517Y0167889D02*
X0204367Y0167889D01*
X0204367Y0168687D02*
X0202517Y0168687D01*
X0202456Y0169486D02*
X0204367Y0169486D01*
X0204665Y0170284D02*
X0202241Y0170284D01*
X0201825Y0171083D02*
X0205029Y0171083D01*
X0205827Y0171881D02*
X0201139Y0171881D01*
X0196851Y0172680D02*
X0189301Y0172680D01*
X0189132Y0172750D02*
X0187551Y0172750D01*
X0186090Y0172144D01*
X0184972Y0171026D01*
X0184367Y0169565D01*
X0184367Y0162435D01*
X0184506Y0162098D01*
X0182317Y0164288D01*
X0182317Y0169565D01*
X0181711Y0171026D01*
X0180593Y0172144D01*
X0179132Y0172750D01*
X0177551Y0172750D01*
X0176090Y0172144D01*
X0174972Y0171026D01*
X0174367Y0169565D01*
X0174367Y0162435D01*
X0174972Y0160974D01*
X0176090Y0159856D01*
X0177551Y0159250D01*
X0179132Y0159250D01*
X0180593Y0159856D01*
X0181408Y0160671D01*
X0187679Y0154400D01*
X0212679Y0154400D01*
X0223929Y0143150D01*
X0223442Y0141975D01*
X0223442Y0140025D01*
X0223929Y0138850D01*
X0217679Y0132600D01*
X0151505Y0132600D01*
X0145255Y0138850D01*
X0145742Y0140025D01*
X0145742Y0141975D01*
X0144996Y0143776D01*
X0143617Y0145154D01*
X0141816Y0145900D01*
X0139867Y0145900D01*
X0138066Y0145154D01*
X0136688Y0143776D01*
X0135942Y0141975D01*
X0135942Y0140025D01*
X0136688Y0138224D01*
X0138066Y0136846D01*
X0139867Y0136100D01*
X0141816Y0136100D01*
X0142992Y0136587D01*
X0149242Y0130337D01*
X0150179Y0129400D01*
X0219005Y0129400D01*
X0226191Y0136587D01*
X0227367Y0136100D01*
X0229316Y0136100D01*
X0231117Y0136846D01*
X0232496Y0138224D01*
X0232983Y0139400D01*
X0239005Y0139400D01*
X0254005Y0154400D01*
X0254942Y0155337D01*
X0254942Y0186663D01*
X0247755Y0193850D01*
X0248242Y0195025D01*
X0248242Y0196975D01*
X0247496Y0198776D01*
X0246117Y0200154D01*
X0244942Y0200641D01*
X0244942Y0221359D01*
X0246117Y0221846D01*
X0247496Y0223224D01*
X0248242Y0225025D01*
X0248242Y0226975D01*
X0247496Y0228776D01*
X0246117Y0230154D01*
X0244316Y0230900D01*
X0242367Y0230900D01*
X0241191Y0230413D01*
X0214942Y0256663D01*
X0214005Y0257600D01*
X0207983Y0257600D01*
X0207496Y0258776D01*
X0206117Y0260154D01*
X0204316Y0260900D01*
X0202367Y0260900D01*
X0201191Y0260413D01*
X0194005Y0267600D01*
X0097679Y0267600D01*
X0096742Y0266663D01*
X0096742Y0266663D01*
X0091742Y0261663D01*
X0091742Y0260641D01*
X0090566Y0260154D01*
X0089188Y0258776D01*
X0088442Y0256975D01*
X0088442Y0255025D01*
X0089188Y0253224D01*
X0090566Y0251846D01*
X0092367Y0251100D01*
X0094316Y0251100D01*
X0096117Y0251846D01*
X0097496Y0253224D01*
X0098242Y0255025D01*
X0098242Y0256975D01*
X0097496Y0258776D01*
X0096117Y0260154D01*
X0095157Y0260552D01*
X0099005Y0264400D01*
X0154479Y0264400D01*
X0150492Y0260413D01*
X0149316Y0260900D01*
X0147367Y0260900D01*
X0145566Y0260154D01*
X0144188Y0258776D01*
X0143442Y0256975D01*
X0143442Y0255025D01*
X0144188Y0253224D01*
X0145566Y0251846D01*
X0147367Y0251100D01*
X0149316Y0251100D01*
X0151117Y0251846D01*
X0152496Y0253224D01*
X0153242Y0255025D01*
X0153242Y0256975D01*
X0152755Y0258150D01*
X0159005Y0264400D01*
X0192679Y0264400D01*
X0198929Y0258150D01*
X0198442Y0256975D01*
X0198442Y0255025D01*
X0199188Y0253224D01*
X0200566Y0251846D01*
X0202367Y0251100D01*
X0204316Y0251100D01*
X0206117Y0251846D01*
X0207496Y0253224D01*
X0207983Y0254400D01*
X0212679Y0254400D01*
X0238929Y0228150D01*
X0238442Y0226975D01*
X0238442Y0225025D01*
X0239188Y0223224D01*
X0240566Y0221846D01*
X0241742Y0221359D01*
X0241742Y0200641D01*
X0240566Y0200154D01*
X0239188Y0198776D01*
X0238442Y0196975D01*
X0238442Y0195025D01*
X0239188Y0193224D01*
X0240566Y0191846D01*
X0242367Y0191100D01*
X0244316Y0191100D01*
X0245492Y0191587D01*
X0251742Y0185337D01*
X0251742Y0156663D01*
X0237679Y0142600D01*
X0232983Y0142600D01*
X0232496Y0143776D01*
X0231117Y0145154D01*
X0229316Y0145900D01*
X0227367Y0145900D01*
X0226191Y0145413D01*
X0214942Y0156663D01*
X0214005Y0157600D01*
X0189005Y0157600D01*
X0187215Y0159390D01*
X0187551Y0159250D01*
X0189132Y0159250D01*
X0190593Y0159856D01*
X0191711Y0160974D01*
X0192317Y0162435D01*
X0192317Y0169565D01*
X0191711Y0171026D01*
X0190593Y0172144D01*
X0189132Y0172750D01*
X0187383Y0172680D02*
X0179301Y0172680D01*
X0180856Y0171881D02*
X0185827Y0171881D01*
X0185029Y0171083D02*
X0181655Y0171083D01*
X0182019Y0170284D02*
X0184665Y0170284D01*
X0184367Y0169486D02*
X0182317Y0169486D01*
X0182317Y0168687D02*
X0184367Y0168687D01*
X0184367Y0167889D02*
X0182317Y0167889D01*
X0182317Y0167090D02*
X0184367Y0167090D01*
X0184367Y0166292D02*
X0182317Y0166292D01*
X0182317Y0165493D02*
X0184367Y0165493D01*
X0184367Y0164695D02*
X0182317Y0164695D01*
X0182708Y0163896D02*
X0184367Y0163896D01*
X0184367Y0163098D02*
X0183507Y0163098D01*
X0184305Y0162299D02*
X0184423Y0162299D01*
X0182175Y0159904D02*
X0180642Y0159904D01*
X0182974Y0159105D02*
X0157499Y0159105D01*
X0157551Y0159250D02*
X0159132Y0159250D01*
X0160593Y0159856D01*
X0161711Y0160974D01*
X0162317Y0162435D01*
X0162317Y0169565D01*
X0161711Y0171026D01*
X0160593Y0172144D01*
X0159132Y0172750D01*
X0157551Y0172750D01*
X0156090Y0172144D01*
X0154972Y0171026D01*
X0154367Y0169565D01*
X0154367Y0162435D01*
X0154506Y0162098D01*
X0152317Y0164288D01*
X0152317Y0169565D01*
X0151711Y0171026D01*
X0150593Y0172144D01*
X0149132Y0172750D01*
X0147551Y0172750D01*
X0146090Y0172144D01*
X0144972Y0171026D01*
X0144367Y0169565D01*
X0144367Y0164288D01*
X0142177Y0162098D01*
X0142317Y0162435D01*
X0142317Y0169565D01*
X0141711Y0171026D01*
X0140593Y0172144D01*
X0139132Y0172750D01*
X0137551Y0172750D01*
X0136090Y0172144D01*
X0134972Y0171026D01*
X0134367Y0169565D01*
X0134367Y0162435D01*
X0134972Y0160974D01*
X0136090Y0159856D01*
X0137551Y0159250D01*
X0139132Y0159250D01*
X0139469Y0159390D01*
X0137679Y0157600D01*
X0092679Y0157600D01*
X0091742Y0156663D01*
X0080979Y0145900D01*
X0079867Y0145900D01*
X0078066Y0145154D01*
X0076688Y0143776D01*
X0075942Y0141975D01*
X0075942Y0140025D01*
X0076688Y0138224D01*
X0078066Y0136846D01*
X0079867Y0136100D01*
X0081816Y0136100D01*
X0083617Y0136846D01*
X0084996Y0138224D01*
X0085742Y0140025D01*
X0085742Y0141975D01*
X0084996Y0143776D01*
X0084188Y0144583D01*
X0094005Y0154400D01*
X0139005Y0154400D01*
X0145275Y0160671D01*
X0146090Y0159856D01*
X0147551Y0159250D01*
X0149132Y0159250D01*
X0150593Y0159856D01*
X0151408Y0160671D01*
X0162679Y0149400D01*
X0187679Y0149400D01*
X0193929Y0143150D01*
X0193442Y0141975D01*
X0193442Y0140025D01*
X0194188Y0138224D01*
X0195566Y0136846D01*
X0197367Y0136100D01*
X0199316Y0136100D01*
X0201117Y0136846D01*
X0202496Y0138224D01*
X0203242Y0140025D01*
X0203242Y0141975D01*
X0202496Y0143776D01*
X0201117Y0145154D01*
X0199316Y0145900D01*
X0197367Y0145900D01*
X0196191Y0145413D01*
X0189942Y0151663D01*
X0189005Y0152600D01*
X0164005Y0152600D01*
X0157215Y0159390D01*
X0157551Y0159250D01*
X0158298Y0158307D02*
X0183772Y0158307D01*
X0184571Y0157508D02*
X0159096Y0157508D01*
X0159895Y0156710D02*
X0185369Y0156710D01*
X0186168Y0155911D02*
X0160693Y0155911D01*
X0161492Y0155113D02*
X0186966Y0155113D01*
X0188342Y0156000D02*
X0178342Y0166000D01*
X0174367Y0166292D02*
X0172317Y0166292D01*
X0172317Y0167090D02*
X0174367Y0167090D01*
X0174367Y0167889D02*
X0172317Y0167889D01*
X0172317Y0168687D02*
X0174367Y0168687D01*
X0174367Y0169486D02*
X0172317Y0169486D01*
X0172317Y0169565D02*
X0171711Y0171026D01*
X0170593Y0172144D01*
X0169132Y0172750D01*
X0167551Y0172750D01*
X0166090Y0172144D01*
X0164972Y0171026D01*
X0164367Y0169565D01*
X0164367Y0162435D01*
X0164972Y0160974D01*
X0166090Y0159856D01*
X0167551Y0159250D01*
X0169132Y0159250D01*
X0170593Y0159856D01*
X0171711Y0160974D01*
X0172317Y0162435D01*
X0172317Y0169565D01*
X0172019Y0170284D02*
X0174665Y0170284D01*
X0175029Y0171083D02*
X0171655Y0171083D01*
X0170856Y0171881D02*
X0175827Y0171881D01*
X0177383Y0172680D02*
X0169301Y0172680D01*
X0167383Y0172680D02*
X0159301Y0172680D01*
X0160856Y0171881D02*
X0165827Y0171881D01*
X0165029Y0171083D02*
X0161655Y0171083D01*
X0162019Y0170284D02*
X0164665Y0170284D01*
X0164367Y0169486D02*
X0162317Y0169486D01*
X0162317Y0168687D02*
X0164367Y0168687D01*
X0164367Y0167889D02*
X0162317Y0167889D01*
X0162317Y0167090D02*
X0164367Y0167090D01*
X0164367Y0166292D02*
X0162317Y0166292D01*
X0162317Y0165493D02*
X0164367Y0165493D01*
X0164367Y0164695D02*
X0162317Y0164695D01*
X0162317Y0163896D02*
X0164367Y0163896D01*
X0164367Y0163098D02*
X0162317Y0163098D01*
X0162261Y0162299D02*
X0164423Y0162299D01*
X0164754Y0161501D02*
X0161930Y0161501D01*
X0161440Y0160702D02*
X0165244Y0160702D01*
X0166042Y0159904D02*
X0160642Y0159904D01*
X0156168Y0155911D02*
X0140516Y0155911D01*
X0141314Y0156710D02*
X0155369Y0156710D01*
X0154571Y0157508D02*
X0142113Y0157508D01*
X0142911Y0158307D02*
X0153772Y0158307D01*
X0152974Y0159105D02*
X0143710Y0159105D01*
X0144508Y0159904D02*
X0146042Y0159904D01*
X0143177Y0163098D02*
X0142317Y0163098D01*
X0142317Y0163896D02*
X0143975Y0163896D01*
X0144367Y0164695D02*
X0142317Y0164695D01*
X0142317Y0165493D02*
X0144367Y0165493D01*
X0144367Y0166292D02*
X0142317Y0166292D01*
X0142317Y0167090D02*
X0144367Y0167090D01*
X0144367Y0167889D02*
X0142317Y0167889D01*
X0142317Y0168687D02*
X0144367Y0168687D01*
X0144367Y0169486D02*
X0142317Y0169486D01*
X0142019Y0170284D02*
X0144665Y0170284D01*
X0145029Y0171083D02*
X0141655Y0171083D01*
X0140856Y0171881D02*
X0145827Y0171881D01*
X0147383Y0172680D02*
X0139301Y0172680D01*
X0137383Y0172680D02*
X0129301Y0172680D01*
X0129132Y0172750D02*
X0127551Y0172750D01*
X0126090Y0172144D01*
X0124972Y0171026D01*
X0124367Y0169565D01*
X0124367Y0162435D01*
X0124972Y0160974D01*
X0126090Y0159856D01*
X0127551Y0159250D01*
X0129132Y0159250D01*
X0130593Y0159856D01*
X0131711Y0160974D01*
X0132317Y0162435D01*
X0132317Y0169565D01*
X0131711Y0171026D01*
X0130593Y0172144D01*
X0129132Y0172750D01*
X0127383Y0172680D02*
X0119301Y0172680D01*
X0119132Y0172750D02*
X0117551Y0172750D01*
X0116090Y0172144D01*
X0114972Y0171026D01*
X0114367Y0169565D01*
X0114367Y0162435D01*
X0114972Y0160974D01*
X0116090Y0159856D01*
X0117551Y0159250D01*
X0119132Y0159250D01*
X0120593Y0159856D01*
X0121711Y0160974D01*
X0122317Y0162435D01*
X0122317Y0169565D01*
X0121711Y0171026D01*
X0120593Y0172144D01*
X0119132Y0172750D01*
X0117383Y0172680D02*
X0109301Y0172680D01*
X0109132Y0172750D02*
X0107551Y0172750D01*
X0106090Y0172144D01*
X0104972Y0171026D01*
X0104367Y0169565D01*
X0104367Y0162435D01*
X0104972Y0160974D01*
X0106090Y0159856D01*
X0107551Y0159250D01*
X0109132Y0159250D01*
X0110593Y0159856D01*
X0111711Y0160974D01*
X0112317Y0162435D01*
X0112317Y0169565D01*
X0111711Y0171026D01*
X0110593Y0172144D01*
X0109132Y0172750D01*
X0107383Y0172680D02*
X0099301Y0172680D01*
X0099132Y0172750D02*
X0097551Y0172750D01*
X0096090Y0172144D01*
X0094972Y0171026D01*
X0094367Y0169565D01*
X0094367Y0162435D01*
X0094972Y0160974D01*
X0096090Y0159856D01*
X0097551Y0159250D01*
X0099132Y0159250D01*
X0100593Y0159856D01*
X0101711Y0160974D01*
X0102317Y0162435D01*
X0102317Y0169565D01*
X0101711Y0171026D01*
X0100593Y0172144D01*
X0099132Y0172750D01*
X0097383Y0172680D02*
X0089301Y0172680D01*
X0089132Y0172750D02*
X0087551Y0172750D01*
X0086090Y0172144D01*
X0084972Y0171026D01*
X0084367Y0169565D01*
X0084367Y0162435D01*
X0084972Y0160974D01*
X0086090Y0159856D01*
X0087551Y0159250D01*
X0089132Y0159250D01*
X0090593Y0159856D01*
X0091711Y0160974D01*
X0092317Y0162435D01*
X0092317Y0169565D01*
X0091711Y0171026D01*
X0090593Y0172144D01*
X0089132Y0172750D01*
X0087383Y0172680D02*
X0079301Y0172680D01*
X0079132Y0172750D02*
X0077551Y0172750D01*
X0076090Y0172144D01*
X0074972Y0171026D01*
X0074367Y0169565D01*
X0074367Y0162435D01*
X0074972Y0160974D01*
X0076090Y0159856D01*
X0077551Y0159250D01*
X0079132Y0159250D01*
X0080593Y0159856D01*
X0081711Y0160974D01*
X0082317Y0162435D01*
X0082317Y0169565D01*
X0081711Y0171026D01*
X0080593Y0172144D01*
X0079132Y0172750D01*
X0077383Y0172680D02*
X0069301Y0172680D01*
X0069132Y0172750D02*
X0067551Y0172750D01*
X0066090Y0172144D01*
X0064972Y0171026D01*
X0064367Y0169565D01*
X0064367Y0162435D01*
X0064972Y0160974D01*
X0066090Y0159856D01*
X0066742Y0159586D01*
X0066742Y0126663D01*
X0062894Y0122815D01*
X0062496Y0123776D01*
X0061117Y0125154D01*
X0059316Y0125900D01*
X0057367Y0125900D01*
X0055566Y0125154D01*
X0054188Y0123776D01*
X0053442Y0121975D01*
X0053442Y0120025D01*
X0054188Y0118224D01*
X0055566Y0116846D01*
X0057367Y0116100D01*
X0059316Y0116100D01*
X0061117Y0116846D01*
X0062496Y0118224D01*
X0062983Y0119400D01*
X0064005Y0119400D01*
X0069005Y0124400D01*
X0069942Y0125337D01*
X0069942Y0159586D01*
X0070593Y0159856D01*
X0071711Y0160974D01*
X0072317Y0162435D01*
X0072317Y0169565D01*
X0071711Y0171026D01*
X0070593Y0172144D01*
X0069132Y0172750D01*
X0067383Y0172680D02*
X0046142Y0172680D01*
X0046142Y0173478D02*
X0239083Y0173478D01*
X0238752Y0174277D02*
X0046142Y0174277D01*
X0046142Y0175075D02*
X0238442Y0175075D01*
X0238442Y0175874D02*
X0046142Y0175874D01*
X0046142Y0176672D02*
X0238442Y0176672D01*
X0238647Y0177471D02*
X0046142Y0177471D01*
X0046142Y0178270D02*
X0238810Y0178270D01*
X0238011Y0179068D02*
X0046142Y0179068D01*
X0046142Y0179867D02*
X0237213Y0179867D01*
X0236414Y0180665D02*
X0046142Y0180665D01*
X0046142Y0181464D02*
X0235616Y0181464D01*
X0234817Y0182262D02*
X0214704Y0182262D01*
X0214132Y0182025D02*
X0215593Y0182630D01*
X0216711Y0183748D01*
X0217317Y0185209D01*
X0217317Y0186791D01*
X0216711Y0188252D01*
X0215593Y0189370D01*
X0214132Y0189975D01*
X0212551Y0189975D01*
X0211090Y0189370D01*
X0209972Y0188252D01*
X0209367Y0186791D01*
X0209367Y0185209D01*
X0209972Y0183748D01*
X0211090Y0182630D01*
X0212551Y0182025D01*
X0214132Y0182025D01*
X0216024Y0183061D02*
X0234018Y0183061D01*
X0233220Y0183859D02*
X0216757Y0183859D01*
X0217088Y0184658D02*
X0232421Y0184658D01*
X0231623Y0185456D02*
X0217317Y0185456D01*
X0217317Y0186255D02*
X0230824Y0186255D01*
X0230026Y0187053D02*
X0217208Y0187053D01*
X0216877Y0187852D02*
X0229227Y0187852D01*
X0228429Y0188650D02*
X0216313Y0188650D01*
X0215403Y0189449D02*
X0227630Y0189449D01*
X0226832Y0190247D02*
X0046142Y0190247D01*
X0046142Y0189449D02*
X0201281Y0189449D01*
X0201090Y0189370D02*
X0199972Y0188252D01*
X0199367Y0186791D01*
X0199367Y0185209D01*
X0199972Y0183748D01*
X0201090Y0182630D01*
X0202551Y0182025D01*
X0204132Y0182025D01*
X0205593Y0182630D01*
X0206711Y0183748D01*
X0207317Y0185209D01*
X0207317Y0186791D01*
X0206711Y0188252D01*
X0205593Y0189370D01*
X0204132Y0189975D01*
X0202551Y0189975D01*
X0201090Y0189370D01*
X0200371Y0188650D02*
X0046142Y0188650D01*
X0046142Y0187852D02*
X0199806Y0187852D01*
X0199476Y0187053D02*
X0046142Y0187053D01*
X0046142Y0186255D02*
X0199367Y0186255D01*
X0199367Y0185456D02*
X0046142Y0185456D01*
X0046142Y0184658D02*
X0199596Y0184658D01*
X0199926Y0183859D02*
X0046142Y0183859D01*
X0046142Y0183061D02*
X0200660Y0183061D01*
X0201979Y0182262D02*
X0046142Y0182262D01*
X0046142Y0191046D02*
X0226033Y0191046D01*
X0225235Y0191844D02*
X0046142Y0191844D01*
X0046142Y0192643D02*
X0201078Y0192643D01*
X0200279Y0193441D02*
X0046142Y0193441D01*
X0046142Y0194240D02*
X0199769Y0194240D01*
X0199438Y0195038D02*
X0046142Y0195038D01*
X0046142Y0195837D02*
X0199367Y0195837D01*
X0199367Y0196635D02*
X0046142Y0196635D01*
X0046142Y0197434D02*
X0199633Y0197434D01*
X0199964Y0198232D02*
X0046142Y0198232D01*
X0046142Y0199031D02*
X0200751Y0199031D01*
X0205932Y0199031D02*
X0210751Y0199031D01*
X0209964Y0198232D02*
X0206719Y0198232D01*
X0207050Y0197434D02*
X0209633Y0197434D01*
X0209367Y0196635D02*
X0207317Y0196635D01*
X0207317Y0195837D02*
X0209367Y0195837D01*
X0209438Y0195038D02*
X0207246Y0195038D01*
X0206915Y0194240D02*
X0209769Y0194240D01*
X0210279Y0193441D02*
X0206404Y0193441D01*
X0205606Y0192643D02*
X0211078Y0192643D01*
X0211281Y0189449D02*
X0205403Y0189449D01*
X0206313Y0188650D02*
X0210371Y0188650D01*
X0209806Y0187852D02*
X0206877Y0187852D01*
X0207208Y0187053D02*
X0209476Y0187053D01*
X0209367Y0186255D02*
X0207317Y0186255D01*
X0207317Y0185456D02*
X0209367Y0185456D01*
X0209596Y0184658D02*
X0207088Y0184658D01*
X0206757Y0183859D02*
X0209926Y0183859D01*
X0210660Y0183061D02*
X0206024Y0183061D01*
X0204704Y0182262D02*
X0211979Y0182262D01*
X0215606Y0192643D02*
X0224436Y0192643D01*
X0223638Y0193441D02*
X0216404Y0193441D01*
X0216915Y0194240D02*
X0222839Y0194240D01*
X0222041Y0195038D02*
X0217246Y0195038D01*
X0217317Y0195837D02*
X0221242Y0195837D01*
X0220444Y0196635D02*
X0217317Y0196635D01*
X0217050Y0197434D02*
X0219645Y0197434D01*
X0218847Y0198232D02*
X0216719Y0198232D01*
X0215932Y0199031D02*
X0218048Y0199031D01*
X0218342Y0201000D02*
X0178342Y0201000D01*
X0158342Y0221000D01*
X0158342Y0226000D01*
X0162317Y0226180D02*
X0164367Y0226180D01*
X0164367Y0225382D02*
X0162317Y0225382D01*
X0162317Y0224583D02*
X0164367Y0224583D01*
X0164367Y0223785D02*
X0162317Y0223785D01*
X0162317Y0222986D02*
X0164367Y0222986D01*
X0164469Y0222188D02*
X0162214Y0222188D01*
X0161884Y0221389D02*
X0164800Y0221389D01*
X0165355Y0220591D02*
X0161328Y0220591D01*
X0161812Y0219792D02*
X0166243Y0219792D01*
X0164208Y0217397D02*
X0174682Y0217397D01*
X0173884Y0218195D02*
X0163409Y0218195D01*
X0162611Y0218994D02*
X0173085Y0218994D01*
X0172287Y0219792D02*
X0170440Y0219792D01*
X0171328Y0220591D02*
X0171488Y0220591D01*
X0173618Y0222986D02*
X0174167Y0222986D01*
X0174167Y0223785D02*
X0172820Y0223785D01*
X0172317Y0224583D02*
X0174167Y0224583D01*
X0174167Y0225382D02*
X0172317Y0225382D01*
X0172317Y0226180D02*
X0177954Y0226180D01*
X0177954Y0226387D02*
X0177954Y0225613D01*
X0178729Y0225613D01*
X0178729Y0226387D01*
X0182517Y0226387D01*
X0182517Y0229103D01*
X0182414Y0229752D01*
X0182211Y0230377D01*
X0181912Y0230963D01*
X0181526Y0231495D01*
X0181062Y0231959D01*
X0180530Y0232345D01*
X0179944Y0232644D01*
X0179319Y0232847D01*
X0178729Y0232940D01*
X0178729Y0226387D01*
X0177954Y0226387D01*
X0174167Y0226387D01*
X0174167Y0229103D01*
X0174270Y0229752D01*
X0174473Y0230377D01*
X0174771Y0230963D01*
X0175157Y0231495D01*
X0175622Y0231959D01*
X0176154Y0232345D01*
X0176739Y0232644D01*
X0177364Y0232847D01*
X0177954Y0232940D01*
X0177954Y0226387D01*
X0177954Y0226979D02*
X0178729Y0226979D01*
X0178729Y0227777D02*
X0177954Y0227777D01*
X0177954Y0228576D02*
X0178729Y0228576D01*
X0178729Y0229374D02*
X0177954Y0229374D01*
X0177954Y0230173D02*
X0178729Y0230173D01*
X0178729Y0230971D02*
X0177954Y0230971D01*
X0177954Y0231770D02*
X0178729Y0231770D01*
X0178729Y0232568D02*
X0177954Y0232568D01*
X0176591Y0232568D02*
X0169570Y0232568D01*
X0170968Y0231770D02*
X0175433Y0231770D01*
X0174777Y0230971D02*
X0171734Y0230971D01*
X0172065Y0230173D02*
X0174406Y0230173D01*
X0174210Y0229374D02*
X0172317Y0229374D01*
X0172317Y0228576D02*
X0174167Y0228576D01*
X0174167Y0227777D02*
X0172317Y0227777D01*
X0172317Y0226979D02*
X0174167Y0226979D01*
X0177954Y0225382D02*
X0178729Y0225382D01*
X0178729Y0225613D02*
X0178729Y0219060D01*
X0179319Y0219153D01*
X0179944Y0219356D01*
X0180530Y0219655D01*
X0181062Y0220041D01*
X0181526Y0220505D01*
X0181912Y0221037D01*
X0182211Y0221623D01*
X0182414Y0222248D01*
X0182517Y0222897D01*
X0182517Y0225613D01*
X0178729Y0225613D01*
X0178729Y0226180D02*
X0184367Y0226180D01*
X0184367Y0225382D02*
X0182517Y0225382D01*
X0182517Y0224583D02*
X0184367Y0224583D01*
X0184367Y0223785D02*
X0182517Y0223785D01*
X0182517Y0222986D02*
X0184367Y0222986D01*
X0184367Y0222435D02*
X0184972Y0220974D01*
X0186090Y0219856D01*
X0187551Y0219250D01*
X0189132Y0219250D01*
X0190593Y0219856D01*
X0191711Y0220974D01*
X0192317Y0222435D01*
X0192317Y0229565D01*
X0191711Y0231026D01*
X0190593Y0232144D01*
X0189132Y0232750D01*
X0187551Y0232750D01*
X0186090Y0232144D01*
X0184972Y0231026D01*
X0184367Y0229565D01*
X0184367Y0222435D01*
X0184469Y0222188D02*
X0182394Y0222188D01*
X0182092Y0221389D02*
X0184800Y0221389D01*
X0185355Y0220591D02*
X0181588Y0220591D01*
X0180719Y0219792D02*
X0186243Y0219792D01*
X0190440Y0219792D02*
X0196243Y0219792D01*
X0196090Y0219856D02*
X0197551Y0219250D01*
X0199132Y0219250D01*
X0200593Y0219856D01*
X0201711Y0220974D01*
X0202317Y0222435D01*
X0202317Y0229565D01*
X0201711Y0231026D01*
X0200593Y0232144D01*
X0199132Y0232750D01*
X0197551Y0232750D01*
X0196090Y0232144D01*
X0194972Y0231026D01*
X0194367Y0229565D01*
X0194367Y0222435D01*
X0194972Y0220974D01*
X0196090Y0219856D01*
X0195355Y0220591D02*
X0191328Y0220591D01*
X0191884Y0221389D02*
X0194800Y0221389D01*
X0194469Y0222188D02*
X0192214Y0222188D01*
X0192317Y0222986D02*
X0194367Y0222986D01*
X0194367Y0223785D02*
X0192317Y0223785D01*
X0192317Y0224583D02*
X0194367Y0224583D01*
X0194367Y0225382D02*
X0192317Y0225382D01*
X0192317Y0226180D02*
X0194367Y0226180D01*
X0194367Y0226979D02*
X0192317Y0226979D01*
X0192317Y0227777D02*
X0194367Y0227777D01*
X0194367Y0228576D02*
X0192317Y0228576D01*
X0192317Y0229374D02*
X0194367Y0229374D01*
X0194619Y0230173D02*
X0192065Y0230173D01*
X0191734Y0230971D02*
X0194949Y0230971D01*
X0195716Y0231770D02*
X0190968Y0231770D01*
X0189570Y0232568D02*
X0197113Y0232568D01*
X0199570Y0232568D02*
X0207113Y0232568D01*
X0207551Y0232750D02*
X0206090Y0232144D01*
X0204972Y0231026D01*
X0204367Y0229565D01*
X0204367Y0222435D01*
X0204972Y0220974D01*
X0206090Y0219856D01*
X0207551Y0219250D01*
X0209132Y0219250D01*
X0210593Y0219856D01*
X0211711Y0220974D01*
X0212317Y0222435D01*
X0212317Y0229565D01*
X0211711Y0231026D01*
X0210593Y0232144D01*
X0209132Y0232750D01*
X0207551Y0232750D01*
X0209570Y0232568D02*
X0234511Y0232568D01*
X0235309Y0231770D02*
X0210968Y0231770D01*
X0211734Y0230971D02*
X0215579Y0230971D01*
X0215141Y0230790D02*
X0213552Y0229200D01*
X0212692Y0227124D01*
X0212692Y0224876D01*
X0213552Y0222800D01*
X0215141Y0221210D01*
X0217218Y0220350D01*
X0219466Y0220350D01*
X0221542Y0221210D01*
X0223132Y0222800D01*
X0223992Y0224876D01*
X0223992Y0227124D01*
X0223132Y0229200D01*
X0221542Y0230790D01*
X0219466Y0231650D01*
X0217218Y0231650D01*
X0215141Y0230790D01*
X0214524Y0230173D02*
X0212065Y0230173D01*
X0212317Y0229374D02*
X0213726Y0229374D01*
X0213293Y0228576D02*
X0212317Y0228576D01*
X0212317Y0227777D02*
X0212962Y0227777D01*
X0212692Y0226979D02*
X0212317Y0226979D01*
X0212317Y0226180D02*
X0212692Y0226180D01*
X0212692Y0225382D02*
X0212317Y0225382D01*
X0212317Y0224583D02*
X0212813Y0224583D01*
X0213144Y0223785D02*
X0212317Y0223785D01*
X0212317Y0222986D02*
X0213475Y0222986D01*
X0214164Y0222188D02*
X0212214Y0222188D01*
X0211884Y0221389D02*
X0214962Y0221389D01*
X0216637Y0220591D02*
X0211328Y0220591D01*
X0210440Y0219792D02*
X0241742Y0219792D01*
X0241742Y0218994D02*
X0177611Y0218994D01*
X0177954Y0219792D02*
X0178729Y0219792D01*
X0178729Y0220591D02*
X0177954Y0220591D01*
X0177954Y0221389D02*
X0178729Y0221389D01*
X0178729Y0222188D02*
X0177954Y0222188D01*
X0177954Y0222986D02*
X0178729Y0222986D01*
X0178729Y0223785D02*
X0177954Y0223785D01*
X0177954Y0224583D02*
X0178729Y0224583D01*
X0182517Y0226979D02*
X0184367Y0226979D01*
X0184367Y0227777D02*
X0182517Y0227777D01*
X0182517Y0228576D02*
X0184367Y0228576D01*
X0184367Y0229374D02*
X0182474Y0229374D01*
X0182277Y0230173D02*
X0184619Y0230173D01*
X0184949Y0230971D02*
X0181906Y0230971D01*
X0181251Y0231770D02*
X0185716Y0231770D01*
X0187113Y0232568D02*
X0180092Y0232568D01*
X0176165Y0236561D02*
X0230518Y0236561D01*
X0229720Y0237359D02*
X0176964Y0237359D01*
X0177762Y0238158D02*
X0228921Y0238158D01*
X0228123Y0238956D02*
X0178561Y0238956D01*
X0179359Y0239755D02*
X0227324Y0239755D01*
X0226526Y0240553D02*
X0180158Y0240553D01*
X0180956Y0241352D02*
X0225727Y0241352D01*
X0224929Y0242150D02*
X0181755Y0242150D01*
X0182553Y0242949D02*
X0224130Y0242949D01*
X0223332Y0243747D02*
X0183352Y0243747D01*
X0184150Y0244546D02*
X0222533Y0244546D01*
X0221735Y0245344D02*
X0184949Y0245344D01*
X0185748Y0246143D02*
X0220936Y0246143D01*
X0220138Y0246941D02*
X0186546Y0246941D01*
X0187345Y0247740D02*
X0219339Y0247740D01*
X0218541Y0248539D02*
X0188143Y0248539D01*
X0188942Y0249337D02*
X0217742Y0249337D01*
X0216944Y0250136D02*
X0189740Y0250136D01*
X0190539Y0250934D02*
X0216145Y0250934D01*
X0215347Y0251733D02*
X0205844Y0251733D01*
X0206803Y0252531D02*
X0214548Y0252531D01*
X0213749Y0253330D02*
X0207539Y0253330D01*
X0207870Y0254128D02*
X0212951Y0254128D01*
X0213342Y0256000D02*
X0203342Y0256000D01*
X0193342Y0266000D01*
X0158342Y0266000D01*
X0148342Y0256000D01*
X0152870Y0254128D02*
X0168588Y0254128D01*
X0168615Y0254042D02*
X0168980Y0253327D01*
X0169452Y0252678D01*
X0170019Y0252110D01*
X0170669Y0251638D01*
X0171384Y0251274D01*
X0172148Y0251026D01*
X0172940Y0250900D01*
X0172942Y0250900D01*
X0172942Y0255600D01*
X0173742Y0255600D01*
X0173742Y0256400D01*
X0178442Y0256400D01*
X0178442Y0256401D01*
X0178316Y0257194D01*
X0178068Y0257958D01*
X0177704Y0258673D01*
X0177232Y0259322D01*
X0176664Y0259890D01*
X0176015Y0260362D01*
X0175300Y0260726D01*
X0174536Y0260974D01*
X0173743Y0261100D01*
X0173742Y0261100D01*
X0173742Y0256400D01*
X0172942Y0256400D01*
X0172942Y0261100D01*
X0172940Y0261100D01*
X0172148Y0260974D01*
X0171384Y0260726D01*
X0170669Y0260362D01*
X0170019Y0259890D01*
X0169452Y0259322D01*
X0168980Y0258673D01*
X0168615Y0257958D01*
X0168367Y0257194D01*
X0168242Y0256401D01*
X0168242Y0256400D01*
X0172942Y0256400D01*
X0172942Y0255600D01*
X0168242Y0255600D01*
X0168242Y0255599D01*
X0168367Y0254806D01*
X0168615Y0254042D01*
X0168979Y0253330D02*
X0152539Y0253330D01*
X0151803Y0252531D02*
X0169598Y0252531D01*
X0170539Y0251733D02*
X0150844Y0251733D01*
X0153201Y0254927D02*
X0168348Y0254927D01*
X0168261Y0256524D02*
X0153242Y0256524D01*
X0153242Y0255725D02*
X0172942Y0255725D01*
X0172942Y0254927D02*
X0173742Y0254927D01*
X0173742Y0255600D02*
X0173742Y0250900D01*
X0173743Y0250900D01*
X0174536Y0251026D01*
X0175300Y0251274D01*
X0176015Y0251638D01*
X0176664Y0252110D01*
X0177232Y0252678D01*
X0177704Y0253327D01*
X0178068Y0254042D01*
X0178316Y0254806D01*
X0178442Y0255599D01*
X0178442Y0255600D01*
X0173742Y0255600D01*
X0173742Y0255725D02*
X0178442Y0255725D01*
X0178442Y0255025D02*
X0178929Y0253850D01*
X0167679Y0242600D01*
X0132679Y0242600D01*
X0121408Y0231329D01*
X0120593Y0232144D01*
X0119132Y0232750D01*
X0117551Y0232750D01*
X0117215Y0232610D01*
X0136191Y0251587D01*
X0137367Y0251100D01*
X0139316Y0251100D01*
X0141117Y0251846D01*
X0142496Y0253224D01*
X0143242Y0255025D01*
X0143242Y0256975D01*
X0142496Y0258776D01*
X0141117Y0260154D01*
X0139316Y0260900D01*
X0137367Y0260900D01*
X0135566Y0260154D01*
X0134188Y0258776D01*
X0133442Y0256975D01*
X0133442Y0255025D01*
X0133929Y0253850D01*
X0111408Y0231329D01*
X0110593Y0232144D01*
X0109132Y0232750D01*
X0107551Y0232750D01*
X0107215Y0232610D01*
X0126191Y0251587D01*
X0127367Y0251100D01*
X0129316Y0251100D01*
X0131117Y0251846D01*
X0132496Y0253224D01*
X0133242Y0255025D01*
X0133242Y0256975D01*
X0132496Y0258776D01*
X0131117Y0260154D01*
X0129316Y0260900D01*
X0127367Y0260900D01*
X0125566Y0260154D01*
X0124188Y0258776D01*
X0123442Y0256975D01*
X0123442Y0255025D01*
X0123929Y0253850D01*
X0101408Y0231329D01*
X0100593Y0232144D01*
X0099132Y0232750D01*
X0097551Y0232750D01*
X0096090Y0232144D01*
X0094972Y0231026D01*
X0094367Y0229565D01*
X0094367Y0222435D01*
X0094972Y0220974D01*
X0096090Y0219856D01*
X0097551Y0219250D01*
X0099132Y0219250D01*
X0100593Y0219856D01*
X0101711Y0220974D01*
X0102317Y0222435D01*
X0102317Y0227712D01*
X0104506Y0229902D01*
X0104367Y0229565D01*
X0104367Y0222435D01*
X0104972Y0220974D01*
X0106090Y0219856D01*
X0107551Y0219250D01*
X0109132Y0219250D01*
X0110593Y0219856D01*
X0111711Y0220974D01*
X0112317Y0222435D01*
X0112317Y0227712D01*
X0114506Y0229902D01*
X0114367Y0229565D01*
X0114367Y0222435D01*
X0114972Y0220974D01*
X0116090Y0219856D01*
X0117551Y0219250D01*
X0119132Y0219250D01*
X0120593Y0219856D01*
X0121711Y0220974D01*
X0122317Y0222435D01*
X0122317Y0227712D01*
X0124506Y0229902D01*
X0124367Y0229565D01*
X0124367Y0222435D01*
X0124972Y0220974D01*
X0126090Y0219856D01*
X0127551Y0219250D01*
X0129132Y0219250D01*
X0130593Y0219856D01*
X0131711Y0220974D01*
X0132317Y0222435D01*
X0132317Y0227712D01*
X0134506Y0229902D01*
X0134367Y0229565D01*
X0134367Y0222435D01*
X0134972Y0220974D01*
X0136090Y0219856D01*
X0137551Y0219250D01*
X0139132Y0219250D01*
X0140593Y0219856D01*
X0141711Y0220974D01*
X0142317Y0222435D01*
X0142317Y0229565D01*
X0141711Y0231026D01*
X0140593Y0232144D01*
X0139132Y0232750D01*
X0137551Y0232750D01*
X0137215Y0232610D01*
X0139005Y0234400D01*
X0174005Y0234400D01*
X0191191Y0251587D01*
X0192367Y0251100D01*
X0194316Y0251100D01*
X0196117Y0251846D01*
X0197496Y0253224D01*
X0198242Y0255025D01*
X0198242Y0256975D01*
X0197496Y0258776D01*
X0196117Y0260154D01*
X0194316Y0260900D01*
X0192367Y0260900D01*
X0190566Y0260154D01*
X0189188Y0258776D01*
X0188442Y0256975D01*
X0188442Y0255025D01*
X0188929Y0253850D01*
X0172679Y0237600D01*
X0137679Y0237600D01*
X0131408Y0231329D01*
X0130593Y0232144D01*
X0129132Y0232750D01*
X0127551Y0232750D01*
X0127215Y0232610D01*
X0134005Y0239400D01*
X0169005Y0239400D01*
X0181191Y0251587D01*
X0182367Y0251100D01*
X0184316Y0251100D01*
X0186117Y0251846D01*
X0187496Y0253224D01*
X0188242Y0255025D01*
X0188242Y0256975D01*
X0187496Y0258776D01*
X0186117Y0260154D01*
X0184316Y0260900D01*
X0182367Y0260900D01*
X0180566Y0260154D01*
X0179188Y0258776D01*
X0178442Y0256975D01*
X0178442Y0255025D01*
X0178483Y0254927D02*
X0178335Y0254927D01*
X0178096Y0254128D02*
X0178813Y0254128D01*
X0178409Y0253330D02*
X0177705Y0253330D01*
X0177610Y0252531D02*
X0177085Y0252531D01*
X0176812Y0251733D02*
X0176145Y0251733D01*
X0176013Y0250934D02*
X0173958Y0250934D01*
X0173742Y0250934D02*
X0172942Y0250934D01*
X0172725Y0250934D02*
X0135539Y0250934D01*
X0134740Y0250136D02*
X0175215Y0250136D01*
X0174416Y0249337D02*
X0133942Y0249337D01*
X0133143Y0248539D02*
X0173618Y0248539D01*
X0172819Y0247740D02*
X0132345Y0247740D01*
X0131546Y0246941D02*
X0172021Y0246941D01*
X0171222Y0246143D02*
X0130748Y0246143D01*
X0129949Y0245344D02*
X0170424Y0245344D01*
X0169625Y0244546D02*
X0129150Y0244546D01*
X0128352Y0243747D02*
X0168827Y0243747D01*
X0168028Y0242949D02*
X0127553Y0242949D01*
X0126755Y0242150D02*
X0132230Y0242150D01*
X0131431Y0241352D02*
X0125956Y0241352D01*
X0125158Y0240553D02*
X0130632Y0240553D01*
X0129834Y0239755D02*
X0124359Y0239755D01*
X0123561Y0238956D02*
X0129035Y0238956D01*
X0128237Y0238158D02*
X0122762Y0238158D01*
X0121964Y0237359D02*
X0127438Y0237359D01*
X0126640Y0236561D02*
X0121165Y0236561D01*
X0120367Y0235762D02*
X0125841Y0235762D01*
X0125043Y0234964D02*
X0119568Y0234964D01*
X0118770Y0234165D02*
X0124244Y0234165D01*
X0123446Y0233367D02*
X0117971Y0233367D01*
X0119570Y0232568D02*
X0122647Y0232568D01*
X0121849Y0231770D02*
X0120968Y0231770D01*
X0123979Y0229374D02*
X0124367Y0229374D01*
X0124367Y0228576D02*
X0123180Y0228576D01*
X0122382Y0227777D02*
X0124367Y0227777D01*
X0124367Y0226979D02*
X0122317Y0226979D01*
X0122317Y0226180D02*
X0124367Y0226180D01*
X0124367Y0225382D02*
X0122317Y0225382D01*
X0122317Y0224583D02*
X0124367Y0224583D01*
X0124367Y0223785D02*
X0122317Y0223785D01*
X0122317Y0222986D02*
X0124367Y0222986D01*
X0124469Y0222188D02*
X0122214Y0222188D01*
X0121884Y0221389D02*
X0124800Y0221389D01*
X0125355Y0220591D02*
X0121328Y0220591D01*
X0120440Y0219792D02*
X0126243Y0219792D01*
X0130440Y0219792D02*
X0136243Y0219792D01*
X0135355Y0220591D02*
X0131328Y0220591D01*
X0131884Y0221389D02*
X0134800Y0221389D01*
X0134469Y0222188D02*
X0132214Y0222188D01*
X0132317Y0222986D02*
X0134367Y0222986D01*
X0134367Y0223785D02*
X0132317Y0223785D01*
X0132317Y0224583D02*
X0134367Y0224583D01*
X0134367Y0225382D02*
X0132317Y0225382D01*
X0132317Y0226180D02*
X0134367Y0226180D01*
X0134367Y0226979D02*
X0132317Y0226979D01*
X0132382Y0227777D02*
X0134367Y0227777D01*
X0134367Y0228576D02*
X0133180Y0228576D01*
X0133979Y0229374D02*
X0134367Y0229374D01*
X0131849Y0231770D02*
X0130968Y0231770D01*
X0129570Y0232568D02*
X0132647Y0232568D01*
X0133446Y0233367D02*
X0127971Y0233367D01*
X0128770Y0234165D02*
X0134244Y0234165D01*
X0135043Y0234964D02*
X0129568Y0234964D01*
X0130367Y0235762D02*
X0135841Y0235762D01*
X0136640Y0236561D02*
X0131165Y0236561D01*
X0131964Y0237359D02*
X0137438Y0237359D01*
X0138342Y0236000D02*
X0128342Y0226000D01*
X0137971Y0233367D02*
X0233712Y0233367D01*
X0232914Y0234165D02*
X0138770Y0234165D01*
X0139570Y0232568D02*
X0147113Y0232568D01*
X0147551Y0232750D02*
X0146090Y0232144D01*
X0144972Y0231026D01*
X0144367Y0229565D01*
X0144367Y0222435D01*
X0144972Y0220974D01*
X0146090Y0219856D01*
X0147551Y0219250D01*
X0149132Y0219250D01*
X0150593Y0219856D01*
X0151711Y0220974D01*
X0152317Y0222435D01*
X0152317Y0229565D01*
X0151711Y0231026D01*
X0150593Y0232144D01*
X0149132Y0232750D01*
X0147551Y0232750D01*
X0149570Y0232568D02*
X0157113Y0232568D01*
X0155716Y0231770D02*
X0150968Y0231770D01*
X0151734Y0230971D02*
X0154949Y0230971D01*
X0154619Y0230173D02*
X0152065Y0230173D01*
X0152317Y0229374D02*
X0154367Y0229374D01*
X0154367Y0228576D02*
X0152317Y0228576D01*
X0152317Y0227777D02*
X0154367Y0227777D01*
X0154367Y0226979D02*
X0152317Y0226979D01*
X0152317Y0226180D02*
X0154367Y0226180D01*
X0154367Y0225382D02*
X0152317Y0225382D01*
X0152317Y0224583D02*
X0154367Y0224583D01*
X0154367Y0223785D02*
X0152317Y0223785D01*
X0152317Y0222986D02*
X0154367Y0222986D01*
X0154469Y0222188D02*
X0152214Y0222188D01*
X0151884Y0221389D02*
X0154800Y0221389D01*
X0155355Y0220591D02*
X0151328Y0220591D01*
X0150440Y0219792D02*
X0156243Y0219792D01*
X0158085Y0218994D02*
X0046142Y0218994D01*
X0046142Y0219792D02*
X0066243Y0219792D01*
X0066090Y0219856D02*
X0067551Y0219250D01*
X0069132Y0219250D01*
X0070593Y0219856D01*
X0071711Y0220974D01*
X0072317Y0222435D01*
X0072317Y0229565D01*
X0072177Y0229902D01*
X0074367Y0227712D01*
X0074367Y0222435D01*
X0074972Y0220974D01*
X0076090Y0219856D01*
X0077551Y0219250D01*
X0079132Y0219250D01*
X0080593Y0219856D01*
X0081711Y0220974D01*
X0082317Y0222435D01*
X0082317Y0229565D01*
X0082177Y0229902D01*
X0084367Y0227712D01*
X0084367Y0222435D01*
X0084972Y0220974D01*
X0086090Y0219856D01*
X0087551Y0219250D01*
X0089132Y0219250D01*
X0090593Y0219856D01*
X0091711Y0220974D01*
X0092317Y0222435D01*
X0092317Y0229565D01*
X0091711Y0231026D01*
X0090593Y0232144D01*
X0089132Y0232750D01*
X0087551Y0232750D01*
X0086090Y0232144D01*
X0085275Y0231329D01*
X0084942Y0231663D01*
X0084942Y0251359D01*
X0086117Y0251846D01*
X0087496Y0253224D01*
X0088242Y0255025D01*
X0088242Y0256975D01*
X0087496Y0258776D01*
X0086117Y0260154D01*
X0084316Y0260900D01*
X0082367Y0260900D01*
X0080566Y0260154D01*
X0079188Y0258776D01*
X0078442Y0256975D01*
X0078442Y0255025D01*
X0079188Y0253224D01*
X0080566Y0251846D01*
X0081742Y0251359D01*
X0081742Y0230953D01*
X0081711Y0231026D01*
X0080593Y0232144D01*
X0079132Y0232750D01*
X0077551Y0232750D01*
X0076090Y0232144D01*
X0075275Y0231329D01*
X0074942Y0231663D01*
X0074942Y0251359D01*
X0076117Y0251846D01*
X0077496Y0253224D01*
X0078242Y0255025D01*
X0078242Y0256975D01*
X0077496Y0258776D01*
X0076117Y0260154D01*
X0074316Y0260900D01*
X0072367Y0260900D01*
X0070566Y0260154D01*
X0069188Y0258776D01*
X0068442Y0256975D01*
X0068442Y0255025D01*
X0069188Y0253224D01*
X0070566Y0251846D01*
X0071742Y0251359D01*
X0071742Y0230953D01*
X0071711Y0231026D01*
X0070593Y0232144D01*
X0069132Y0232750D01*
X0067551Y0232750D01*
X0066090Y0232144D01*
X0064972Y0231026D01*
X0064367Y0229565D01*
X0064367Y0222435D01*
X0064972Y0220974D01*
X0066090Y0219856D01*
X0065355Y0220591D02*
X0060047Y0220591D01*
X0059466Y0220350D02*
X0061542Y0221210D01*
X0063132Y0222800D01*
X0063992Y0224876D01*
X0063992Y0227124D01*
X0063132Y0229200D01*
X0061542Y0230790D01*
X0059466Y0231650D01*
X0057218Y0231650D01*
X0055141Y0230790D01*
X0053552Y0229200D01*
X0052692Y0227124D01*
X0052692Y0224876D01*
X0053552Y0222800D01*
X0055141Y0221210D01*
X0057218Y0220350D01*
X0059466Y0220350D01*
X0061721Y0221389D02*
X0064800Y0221389D01*
X0064469Y0222188D02*
X0062520Y0222188D01*
X0063209Y0222986D02*
X0064367Y0222986D01*
X0064367Y0223785D02*
X0063540Y0223785D01*
X0063870Y0224583D02*
X0064367Y0224583D01*
X0064367Y0225382D02*
X0063992Y0225382D01*
X0063992Y0226180D02*
X0064367Y0226180D01*
X0064367Y0226979D02*
X0063992Y0226979D01*
X0063721Y0227777D02*
X0064367Y0227777D01*
X0064367Y0228576D02*
X0063390Y0228576D01*
X0062958Y0229374D02*
X0064367Y0229374D01*
X0064619Y0230173D02*
X0062159Y0230173D01*
X0061104Y0230971D02*
X0064949Y0230971D01*
X0065716Y0231770D02*
X0046142Y0231770D01*
X0046142Y0232568D02*
X0067113Y0232568D01*
X0069570Y0232568D02*
X0071742Y0232568D01*
X0071742Y0231770D02*
X0070968Y0231770D01*
X0071734Y0230971D02*
X0071742Y0230971D01*
X0073342Y0231000D02*
X0078342Y0226000D01*
X0082317Y0226180D02*
X0084367Y0226180D01*
X0084367Y0225382D02*
X0082317Y0225382D01*
X0082317Y0224583D02*
X0084367Y0224583D01*
X0084367Y0223785D02*
X0082317Y0223785D01*
X0082317Y0222986D02*
X0084367Y0222986D01*
X0084469Y0222188D02*
X0082214Y0222188D01*
X0081884Y0221389D02*
X0084800Y0221389D01*
X0085355Y0220591D02*
X0081328Y0220591D01*
X0080440Y0219792D02*
X0086243Y0219792D01*
X0090440Y0219792D02*
X0096243Y0219792D01*
X0095355Y0220591D02*
X0091328Y0220591D01*
X0091884Y0221389D02*
X0094800Y0221389D01*
X0094469Y0222188D02*
X0092214Y0222188D01*
X0092317Y0222986D02*
X0094367Y0222986D01*
X0094367Y0223785D02*
X0092317Y0223785D01*
X0092317Y0224583D02*
X0094367Y0224583D01*
X0094367Y0225382D02*
X0092317Y0225382D01*
X0092317Y0226180D02*
X0094367Y0226180D01*
X0094367Y0226979D02*
X0092317Y0226979D01*
X0092317Y0227777D02*
X0094367Y0227777D01*
X0094367Y0228576D02*
X0092317Y0228576D01*
X0092317Y0229374D02*
X0094367Y0229374D01*
X0094619Y0230173D02*
X0092065Y0230173D01*
X0091734Y0230971D02*
X0094949Y0230971D01*
X0095716Y0231770D02*
X0090968Y0231770D01*
X0089570Y0232568D02*
X0097113Y0232568D01*
X0099570Y0232568D02*
X0102647Y0232568D01*
X0101849Y0231770D02*
X0100968Y0231770D01*
X0103446Y0233367D02*
X0084942Y0233367D01*
X0084942Y0234165D02*
X0104244Y0234165D01*
X0105043Y0234964D02*
X0084942Y0234964D01*
X0084942Y0235762D02*
X0105841Y0235762D01*
X0106640Y0236561D02*
X0084942Y0236561D01*
X0084942Y0237359D02*
X0107438Y0237359D01*
X0108237Y0238158D02*
X0084942Y0238158D01*
X0084942Y0238956D02*
X0109035Y0238956D01*
X0109834Y0239755D02*
X0084942Y0239755D01*
X0084942Y0240553D02*
X0110632Y0240553D01*
X0111431Y0241352D02*
X0084942Y0241352D01*
X0084942Y0242150D02*
X0112230Y0242150D01*
X0113028Y0242949D02*
X0084942Y0242949D01*
X0084942Y0243747D02*
X0113827Y0243747D01*
X0114625Y0244546D02*
X0084942Y0244546D01*
X0084942Y0245344D02*
X0115424Y0245344D01*
X0116222Y0246143D02*
X0084942Y0246143D01*
X0084942Y0246941D02*
X0117021Y0246941D01*
X0117819Y0247740D02*
X0084942Y0247740D01*
X0084942Y0248539D02*
X0118618Y0248539D01*
X0119416Y0249337D02*
X0084942Y0249337D01*
X0084942Y0250136D02*
X0120215Y0250136D01*
X0119536Y0251026D02*
X0120300Y0251274D01*
X0121015Y0251638D01*
X0121664Y0252110D01*
X0122232Y0252678D01*
X0122704Y0253327D01*
X0123068Y0254042D01*
X0123316Y0254806D01*
X0123442Y0255599D01*
X0123442Y0255600D01*
X0118742Y0255600D01*
X0118742Y0256400D01*
X0123442Y0256400D01*
X0123442Y0256401D01*
X0123316Y0257194D01*
X0123068Y0257958D01*
X0122704Y0258673D01*
X0122232Y0259322D01*
X0121664Y0259890D01*
X0121015Y0260362D01*
X0120300Y0260726D01*
X0119536Y0260974D01*
X0118743Y0261100D01*
X0118742Y0261100D01*
X0118742Y0256400D01*
X0117942Y0256400D01*
X0117942Y0261100D01*
X0117940Y0261100D01*
X0117148Y0260974D01*
X0116384Y0260726D01*
X0115669Y0260362D01*
X0115019Y0259890D01*
X0114452Y0259322D01*
X0113980Y0258673D01*
X0113615Y0257958D01*
X0113367Y0257194D01*
X0113242Y0256401D01*
X0113242Y0256400D01*
X0117942Y0256400D01*
X0117942Y0255600D01*
X0118742Y0255600D01*
X0118742Y0250900D01*
X0118743Y0250900D01*
X0119536Y0251026D01*
X0118958Y0250934D02*
X0121013Y0250934D01*
X0121145Y0251733D02*
X0121812Y0251733D01*
X0122085Y0252531D02*
X0122610Y0252531D01*
X0122705Y0253330D02*
X0123409Y0253330D01*
X0123096Y0254128D02*
X0123813Y0254128D01*
X0123483Y0254927D02*
X0123335Y0254927D01*
X0123442Y0255725D02*
X0118742Y0255725D01*
X0118742Y0254927D02*
X0117942Y0254927D01*
X0117942Y0255600D02*
X0117942Y0250900D01*
X0117940Y0250900D01*
X0117148Y0251026D01*
X0116384Y0251274D01*
X0115669Y0251638D01*
X0115019Y0252110D01*
X0114452Y0252678D01*
X0113980Y0253327D01*
X0113615Y0254042D01*
X0113367Y0254806D01*
X0113242Y0255599D01*
X0113242Y0255600D01*
X0117942Y0255600D01*
X0117942Y0255725D02*
X0098242Y0255725D01*
X0098242Y0256524D02*
X0113261Y0256524D01*
X0113409Y0257322D02*
X0098098Y0257322D01*
X0097767Y0258121D02*
X0113698Y0258121D01*
X0114159Y0258919D02*
X0097352Y0258919D01*
X0096554Y0259718D02*
X0114847Y0259718D01*
X0115972Y0260516D02*
X0095243Y0260516D01*
X0095919Y0261315D02*
X0151394Y0261315D01*
X0152192Y0262113D02*
X0096718Y0262113D01*
X0097516Y0262912D02*
X0152991Y0262912D01*
X0153789Y0263710D02*
X0098315Y0263710D01*
X0098342Y0266000D02*
X0158342Y0266000D01*
X0158315Y0263710D02*
X0193369Y0263710D01*
X0194167Y0262912D02*
X0157516Y0262912D01*
X0156718Y0262113D02*
X0194966Y0262113D01*
X0195764Y0261315D02*
X0155919Y0261315D01*
X0155121Y0260516D02*
X0170972Y0260516D01*
X0169847Y0259718D02*
X0154322Y0259718D01*
X0153524Y0258919D02*
X0169159Y0258919D01*
X0168698Y0258121D02*
X0152767Y0258121D01*
X0153098Y0257322D02*
X0168409Y0257322D01*
X0172942Y0257322D02*
X0173742Y0257322D01*
X0173742Y0256524D02*
X0172942Y0256524D01*
X0172942Y0258121D02*
X0173742Y0258121D01*
X0173742Y0258919D02*
X0172942Y0258919D01*
X0172942Y0259718D02*
X0173742Y0259718D01*
X0173742Y0260516D02*
X0172942Y0260516D01*
X0175712Y0260516D02*
X0181441Y0260516D01*
X0180130Y0259718D02*
X0176837Y0259718D01*
X0177525Y0258919D02*
X0179331Y0258919D01*
X0178916Y0258121D02*
X0177985Y0258121D01*
X0178275Y0257322D02*
X0178586Y0257322D01*
X0178442Y0256524D02*
X0178422Y0256524D01*
X0183342Y0256000D02*
X0168342Y0241000D01*
X0133342Y0241000D01*
X0118342Y0226000D01*
X0114367Y0226180D02*
X0112317Y0226180D01*
X0112317Y0225382D02*
X0114367Y0225382D01*
X0114367Y0224583D02*
X0112317Y0224583D01*
X0112317Y0223785D02*
X0114367Y0223785D01*
X0114367Y0222986D02*
X0112317Y0222986D01*
X0112214Y0222188D02*
X0114469Y0222188D01*
X0114800Y0221389D02*
X0111884Y0221389D01*
X0111328Y0220591D02*
X0115355Y0220591D01*
X0116243Y0219792D02*
X0110440Y0219792D01*
X0106243Y0219792D02*
X0100440Y0219792D01*
X0101328Y0220591D02*
X0105355Y0220591D01*
X0104800Y0221389D02*
X0101884Y0221389D01*
X0102214Y0222188D02*
X0104469Y0222188D01*
X0104367Y0222986D02*
X0102317Y0222986D01*
X0102317Y0223785D02*
X0104367Y0223785D01*
X0104367Y0224583D02*
X0102317Y0224583D01*
X0102317Y0225382D02*
X0104367Y0225382D01*
X0104367Y0226180D02*
X0102317Y0226180D01*
X0102317Y0226979D02*
X0104367Y0226979D01*
X0104367Y0227777D02*
X0102382Y0227777D01*
X0103180Y0228576D02*
X0104367Y0228576D01*
X0104367Y0229374D02*
X0103979Y0229374D01*
X0108342Y0226000D02*
X0138342Y0256000D01*
X0142870Y0254128D02*
X0143813Y0254128D01*
X0143483Y0254927D02*
X0143201Y0254927D01*
X0143242Y0255725D02*
X0143442Y0255725D01*
X0143442Y0256524D02*
X0143242Y0256524D01*
X0143098Y0257322D02*
X0143586Y0257322D01*
X0143916Y0258121D02*
X0142767Y0258121D01*
X0142352Y0258919D02*
X0144331Y0258919D01*
X0145130Y0259718D02*
X0141554Y0259718D01*
X0140243Y0260516D02*
X0146441Y0260516D01*
X0150243Y0260516D02*
X0150595Y0260516D01*
X0144144Y0253330D02*
X0142539Y0253330D01*
X0141803Y0252531D02*
X0144881Y0252531D01*
X0145840Y0251733D02*
X0140844Y0251733D01*
X0133813Y0254128D02*
X0132870Y0254128D01*
X0132539Y0253330D02*
X0133409Y0253330D01*
X0132610Y0252531D02*
X0131803Y0252531D01*
X0131812Y0251733D02*
X0130844Y0251733D01*
X0131013Y0250934D02*
X0125539Y0250934D01*
X0124740Y0250136D02*
X0130215Y0250136D01*
X0129416Y0249337D02*
X0123942Y0249337D01*
X0123143Y0248539D02*
X0128618Y0248539D01*
X0127819Y0247740D02*
X0122345Y0247740D01*
X0121546Y0246941D02*
X0127021Y0246941D01*
X0126222Y0246143D02*
X0120748Y0246143D01*
X0119949Y0245344D02*
X0125424Y0245344D01*
X0124625Y0244546D02*
X0119150Y0244546D01*
X0118352Y0243747D02*
X0123827Y0243747D01*
X0123028Y0242949D02*
X0117553Y0242949D01*
X0116755Y0242150D02*
X0122230Y0242150D01*
X0121431Y0241352D02*
X0115956Y0241352D01*
X0115158Y0240553D02*
X0120632Y0240553D01*
X0119834Y0239755D02*
X0114359Y0239755D01*
X0113561Y0238956D02*
X0119035Y0238956D01*
X0118237Y0238158D02*
X0112762Y0238158D01*
X0111964Y0237359D02*
X0117438Y0237359D01*
X0116640Y0236561D02*
X0111165Y0236561D01*
X0110367Y0235762D02*
X0115841Y0235762D01*
X0115043Y0234964D02*
X0109568Y0234964D01*
X0108770Y0234165D02*
X0114244Y0234165D01*
X0113446Y0233367D02*
X0107971Y0233367D01*
X0109570Y0232568D02*
X0112647Y0232568D01*
X0111849Y0231770D02*
X0110968Y0231770D01*
X0113979Y0229374D02*
X0114367Y0229374D01*
X0114367Y0228576D02*
X0113180Y0228576D01*
X0112382Y0227777D02*
X0114367Y0227777D01*
X0114367Y0226979D02*
X0112317Y0226979D01*
X0098342Y0226000D02*
X0128342Y0256000D01*
X0132767Y0258121D02*
X0133916Y0258121D01*
X0133586Y0257322D02*
X0133098Y0257322D01*
X0133242Y0256524D02*
X0133442Y0256524D01*
X0133442Y0255725D02*
X0133242Y0255725D01*
X0133201Y0254927D02*
X0133483Y0254927D01*
X0134331Y0258919D02*
X0132352Y0258919D01*
X0131554Y0259718D02*
X0135130Y0259718D01*
X0136441Y0260516D02*
X0130243Y0260516D01*
X0126441Y0260516D02*
X0120712Y0260516D01*
X0121837Y0259718D02*
X0125130Y0259718D01*
X0124331Y0258919D02*
X0122525Y0258919D01*
X0122985Y0258121D02*
X0123916Y0258121D01*
X0123586Y0257322D02*
X0123275Y0257322D01*
X0123422Y0256524D02*
X0123442Y0256524D01*
X0118742Y0256524D02*
X0117942Y0256524D01*
X0117942Y0257322D02*
X0118742Y0257322D01*
X0118742Y0258121D02*
X0117942Y0258121D01*
X0117942Y0258919D02*
X0118742Y0258919D01*
X0118742Y0259718D02*
X0117942Y0259718D01*
X0117942Y0260516D02*
X0118742Y0260516D01*
X0118742Y0254128D02*
X0117942Y0254128D01*
X0117942Y0253330D02*
X0118742Y0253330D01*
X0118742Y0252531D02*
X0117942Y0252531D01*
X0117942Y0251733D02*
X0118742Y0251733D01*
X0118742Y0250934D02*
X0117942Y0250934D01*
X0117725Y0250934D02*
X0084942Y0250934D01*
X0085844Y0251733D02*
X0090840Y0251733D01*
X0089881Y0252531D02*
X0086803Y0252531D01*
X0087539Y0253330D02*
X0089144Y0253330D01*
X0088813Y0254128D02*
X0087870Y0254128D01*
X0088201Y0254927D02*
X0088483Y0254927D01*
X0088442Y0255725D02*
X0088242Y0255725D01*
X0088242Y0256524D02*
X0088442Y0256524D01*
X0088586Y0257322D02*
X0088098Y0257322D01*
X0087767Y0258121D02*
X0088916Y0258121D01*
X0089331Y0258919D02*
X0087352Y0258919D01*
X0086554Y0259718D02*
X0090130Y0259718D01*
X0091441Y0260516D02*
X0085243Y0260516D01*
X0081441Y0260516D02*
X0075243Y0260516D01*
X0076554Y0259718D02*
X0080130Y0259718D01*
X0079331Y0258919D02*
X0077352Y0258919D01*
X0077767Y0258121D02*
X0078916Y0258121D01*
X0078586Y0257322D02*
X0078098Y0257322D01*
X0078242Y0256524D02*
X0078442Y0256524D01*
X0078442Y0255725D02*
X0078242Y0255725D01*
X0078201Y0254927D02*
X0078483Y0254927D01*
X0078813Y0254128D02*
X0077870Y0254128D01*
X0077539Y0253330D02*
X0079144Y0253330D01*
X0079881Y0252531D02*
X0076803Y0252531D01*
X0075844Y0251733D02*
X0080840Y0251733D01*
X0081742Y0250934D02*
X0074942Y0250934D01*
X0074942Y0250136D02*
X0081742Y0250136D01*
X0081742Y0249337D02*
X0074942Y0249337D01*
X0074942Y0248539D02*
X0081742Y0248539D01*
X0081742Y0247740D02*
X0074942Y0247740D01*
X0074942Y0246941D02*
X0081742Y0246941D01*
X0081742Y0246143D02*
X0074942Y0246143D01*
X0074942Y0245344D02*
X0081742Y0245344D01*
X0081742Y0244546D02*
X0074942Y0244546D01*
X0074942Y0243747D02*
X0081742Y0243747D01*
X0081742Y0242949D02*
X0074942Y0242949D01*
X0074942Y0242150D02*
X0081742Y0242150D01*
X0081742Y0241352D02*
X0074942Y0241352D01*
X0074942Y0240553D02*
X0081742Y0240553D01*
X0081742Y0239755D02*
X0074942Y0239755D01*
X0074942Y0238956D02*
X0081742Y0238956D01*
X0081742Y0238158D02*
X0074942Y0238158D01*
X0074942Y0237359D02*
X0081742Y0237359D01*
X0081742Y0236561D02*
X0074942Y0236561D01*
X0074942Y0235762D02*
X0081742Y0235762D01*
X0081742Y0234964D02*
X0074942Y0234964D01*
X0074942Y0234165D02*
X0081742Y0234165D01*
X0081742Y0233367D02*
X0074942Y0233367D01*
X0074942Y0232568D02*
X0077113Y0232568D01*
X0075716Y0231770D02*
X0074942Y0231770D01*
X0073342Y0231000D02*
X0073342Y0256000D01*
X0069881Y0252531D02*
X0067085Y0252531D01*
X0067232Y0252678D02*
X0067704Y0253327D01*
X0068068Y0254042D01*
X0068316Y0254806D01*
X0068442Y0255599D01*
X0068442Y0255600D01*
X0063742Y0255600D01*
X0063742Y0256400D01*
X0068442Y0256400D01*
X0068442Y0256401D01*
X0068316Y0257194D01*
X0068068Y0257958D01*
X0067704Y0258673D01*
X0067232Y0259322D01*
X0066664Y0259890D01*
X0066015Y0260362D01*
X0065300Y0260726D01*
X0064536Y0260974D01*
X0063743Y0261100D01*
X0063742Y0261100D01*
X0063742Y0256400D01*
X0062942Y0256400D01*
X0062942Y0261100D01*
X0062940Y0261100D01*
X0062148Y0260974D01*
X0061384Y0260726D01*
X0060669Y0260362D01*
X0060019Y0259890D01*
X0059452Y0259322D01*
X0058980Y0258673D01*
X0058615Y0257958D01*
X0058367Y0257194D01*
X0058242Y0256401D01*
X0058242Y0256400D01*
X0062942Y0256400D01*
X0062942Y0255600D01*
X0063742Y0255600D01*
X0063742Y0250900D01*
X0063743Y0250900D01*
X0064536Y0251026D01*
X0065300Y0251274D01*
X0066015Y0251638D01*
X0066664Y0252110D01*
X0067232Y0252678D01*
X0067705Y0253330D02*
X0069144Y0253330D01*
X0068813Y0254128D02*
X0068096Y0254128D01*
X0068335Y0254927D02*
X0068483Y0254927D01*
X0068442Y0255725D02*
X0063742Y0255725D01*
X0063742Y0254927D02*
X0062942Y0254927D01*
X0062942Y0255600D02*
X0062942Y0250900D01*
X0062940Y0250900D01*
X0062148Y0251026D01*
X0061384Y0251274D01*
X0060669Y0251638D01*
X0060019Y0252110D01*
X0059452Y0252678D01*
X0058980Y0253327D01*
X0058615Y0254042D01*
X0058367Y0254806D01*
X0058242Y0255599D01*
X0058242Y0255600D01*
X0062942Y0255600D01*
X0062942Y0255725D02*
X0046142Y0255725D01*
X0046142Y0254927D02*
X0058348Y0254927D01*
X0058588Y0254128D02*
X0046142Y0254128D01*
X0046142Y0253330D02*
X0058979Y0253330D01*
X0059598Y0252531D02*
X0046142Y0252531D01*
X0046142Y0251733D02*
X0060539Y0251733D01*
X0062725Y0250934D02*
X0046142Y0250934D01*
X0046142Y0250136D02*
X0071742Y0250136D01*
X0071742Y0250934D02*
X0063958Y0250934D01*
X0063742Y0250934D02*
X0062942Y0250934D01*
X0062942Y0251733D02*
X0063742Y0251733D01*
X0063742Y0252531D02*
X0062942Y0252531D01*
X0062942Y0253330D02*
X0063742Y0253330D01*
X0063742Y0254128D02*
X0062942Y0254128D01*
X0062942Y0256524D02*
X0063742Y0256524D01*
X0063742Y0257322D02*
X0062942Y0257322D01*
X0062942Y0258121D02*
X0063742Y0258121D01*
X0063742Y0258919D02*
X0062942Y0258919D01*
X0062942Y0259718D02*
X0063742Y0259718D01*
X0063742Y0260516D02*
X0062942Y0260516D01*
X0060972Y0260516D02*
X0046142Y0260516D01*
X0046142Y0259718D02*
X0059847Y0259718D01*
X0059159Y0258919D02*
X0046142Y0258919D01*
X0046142Y0258121D02*
X0058698Y0258121D01*
X0058409Y0257322D02*
X0046142Y0257322D01*
X0046142Y0256524D02*
X0058261Y0256524D01*
X0065712Y0260516D02*
X0071441Y0260516D01*
X0070130Y0259718D02*
X0066837Y0259718D01*
X0067525Y0258919D02*
X0069331Y0258919D01*
X0068916Y0258121D02*
X0067985Y0258121D01*
X0068275Y0257322D02*
X0068586Y0257322D01*
X0068442Y0256524D02*
X0068422Y0256524D01*
X0066145Y0251733D02*
X0070840Y0251733D01*
X0071742Y0249337D02*
X0046142Y0249337D01*
X0046142Y0248539D02*
X0071742Y0248539D01*
X0071742Y0247740D02*
X0046142Y0247740D01*
X0046142Y0246941D02*
X0071742Y0246941D01*
X0071742Y0246143D02*
X0046142Y0246143D01*
X0046142Y0245344D02*
X0071742Y0245344D01*
X0071742Y0244546D02*
X0046142Y0244546D01*
X0046142Y0243747D02*
X0071742Y0243747D01*
X0071742Y0242949D02*
X0046142Y0242949D01*
X0046142Y0242150D02*
X0071742Y0242150D01*
X0071742Y0241352D02*
X0046142Y0241352D01*
X0046142Y0240553D02*
X0071742Y0240553D01*
X0071742Y0239755D02*
X0046142Y0239755D01*
X0046142Y0238956D02*
X0071742Y0238956D01*
X0071742Y0238158D02*
X0046142Y0238158D01*
X0046142Y0237359D02*
X0071742Y0237359D01*
X0071742Y0236561D02*
X0046142Y0236561D01*
X0046142Y0235762D02*
X0071742Y0235762D01*
X0071742Y0234964D02*
X0046142Y0234964D01*
X0046142Y0234165D02*
X0071742Y0234165D01*
X0071742Y0233367D02*
X0046142Y0233367D01*
X0046142Y0230971D02*
X0055579Y0230971D01*
X0054524Y0230173D02*
X0046142Y0230173D01*
X0046142Y0229374D02*
X0053726Y0229374D01*
X0053293Y0228576D02*
X0046142Y0228576D01*
X0046142Y0227777D02*
X0052962Y0227777D01*
X0052692Y0226979D02*
X0046142Y0226979D01*
X0046142Y0226180D02*
X0052692Y0226180D01*
X0052692Y0225382D02*
X0046142Y0225382D01*
X0046142Y0224583D02*
X0052813Y0224583D01*
X0053144Y0223785D02*
X0046142Y0223785D01*
X0046142Y0222986D02*
X0053475Y0222986D01*
X0054164Y0222188D02*
X0046142Y0222188D01*
X0046142Y0221389D02*
X0054962Y0221389D01*
X0056637Y0220591D02*
X0046142Y0220591D01*
X0046142Y0218195D02*
X0158884Y0218195D01*
X0159682Y0217397D02*
X0046142Y0217397D01*
X0046142Y0216598D02*
X0160481Y0216598D01*
X0161280Y0215800D02*
X0046142Y0215800D01*
X0046142Y0215001D02*
X0162078Y0215001D01*
X0162877Y0214203D02*
X0046142Y0214203D01*
X0046142Y0213404D02*
X0163675Y0213404D01*
X0164474Y0212605D02*
X0046142Y0212605D01*
X0046142Y0211807D02*
X0165272Y0211807D01*
X0166071Y0211008D02*
X0046142Y0211008D01*
X0046142Y0210210D02*
X0166869Y0210210D01*
X0167668Y0209411D02*
X0046142Y0209411D01*
X0046142Y0208613D02*
X0168466Y0208613D01*
X0169265Y0207814D02*
X0046142Y0207814D01*
X0046142Y0207016D02*
X0170063Y0207016D01*
X0170862Y0206217D02*
X0046142Y0206217D01*
X0046142Y0205419D02*
X0171660Y0205419D01*
X0172459Y0204620D02*
X0046142Y0204620D01*
X0046142Y0203822D02*
X0173257Y0203822D01*
X0174056Y0203023D02*
X0046142Y0203023D01*
X0046142Y0202225D02*
X0174854Y0202225D01*
X0175653Y0201426D02*
X0046142Y0201426D01*
X0046142Y0200628D02*
X0176451Y0200628D01*
X0177250Y0199829D02*
X0046142Y0199829D01*
X0070440Y0219792D02*
X0076243Y0219792D01*
X0075355Y0220591D02*
X0071328Y0220591D01*
X0071884Y0221389D02*
X0074800Y0221389D01*
X0074469Y0222188D02*
X0072214Y0222188D01*
X0072317Y0222986D02*
X0074367Y0222986D01*
X0074367Y0223785D02*
X0072317Y0223785D01*
X0072317Y0224583D02*
X0074367Y0224583D01*
X0074367Y0225382D02*
X0072317Y0225382D01*
X0072317Y0226180D02*
X0074367Y0226180D01*
X0074367Y0226979D02*
X0072317Y0226979D01*
X0072317Y0227777D02*
X0074302Y0227777D01*
X0073503Y0228576D02*
X0072317Y0228576D01*
X0072317Y0229374D02*
X0072705Y0229374D01*
X0079570Y0232568D02*
X0081742Y0232568D01*
X0081742Y0231770D02*
X0080968Y0231770D01*
X0081734Y0230971D02*
X0081742Y0230971D01*
X0083342Y0231000D02*
X0088342Y0226000D01*
X0084367Y0226979D02*
X0082317Y0226979D01*
X0082317Y0227777D02*
X0084302Y0227777D01*
X0083503Y0228576D02*
X0082317Y0228576D01*
X0082317Y0229374D02*
X0082705Y0229374D01*
X0083342Y0231000D02*
X0083342Y0256000D01*
X0091742Y0261315D02*
X0046142Y0261315D01*
X0046142Y0262113D02*
X0092192Y0262113D01*
X0092991Y0262912D02*
X0046142Y0262912D01*
X0046142Y0263710D02*
X0093789Y0263710D01*
X0094588Y0264509D02*
X0046142Y0264509D01*
X0046142Y0265307D02*
X0095386Y0265307D01*
X0096185Y0266106D02*
X0046142Y0266106D01*
X0046142Y0266904D02*
X0096983Y0266904D01*
X0098342Y0266000D02*
X0093342Y0261000D01*
X0093342Y0256000D01*
X0097870Y0254128D02*
X0113588Y0254128D01*
X0113348Y0254927D02*
X0098201Y0254927D01*
X0097539Y0253330D02*
X0113979Y0253330D01*
X0114598Y0252531D02*
X0096803Y0252531D01*
X0095844Y0251733D02*
X0115539Y0251733D01*
X0132762Y0238158D02*
X0173237Y0238158D01*
X0174035Y0238956D02*
X0133561Y0238956D01*
X0138342Y0236000D02*
X0173342Y0236000D01*
X0193342Y0256000D01*
X0197870Y0254128D02*
X0198813Y0254128D01*
X0198483Y0254927D02*
X0198201Y0254927D01*
X0198242Y0255725D02*
X0198442Y0255725D01*
X0198442Y0256524D02*
X0198242Y0256524D01*
X0198098Y0257322D02*
X0198586Y0257322D01*
X0198916Y0258121D02*
X0197767Y0258121D01*
X0198160Y0258919D02*
X0197352Y0258919D01*
X0197361Y0259718D02*
X0196554Y0259718D01*
X0196563Y0260516D02*
X0195243Y0260516D01*
X0191441Y0260516D02*
X0185243Y0260516D01*
X0186554Y0259718D02*
X0190130Y0259718D01*
X0189331Y0258919D02*
X0187352Y0258919D01*
X0187767Y0258121D02*
X0188916Y0258121D01*
X0188586Y0257322D02*
X0188098Y0257322D01*
X0188242Y0256524D02*
X0188442Y0256524D01*
X0188442Y0255725D02*
X0188242Y0255725D01*
X0188201Y0254927D02*
X0188483Y0254927D01*
X0188813Y0254128D02*
X0187870Y0254128D01*
X0187539Y0253330D02*
X0188409Y0253330D01*
X0187610Y0252531D02*
X0186803Y0252531D01*
X0186812Y0251733D02*
X0185844Y0251733D01*
X0186013Y0250934D02*
X0180539Y0250934D01*
X0179740Y0250136D02*
X0185215Y0250136D01*
X0184416Y0249337D02*
X0178942Y0249337D01*
X0178143Y0248539D02*
X0183618Y0248539D01*
X0182819Y0247740D02*
X0177345Y0247740D01*
X0176546Y0246941D02*
X0182021Y0246941D01*
X0181222Y0246143D02*
X0175748Y0246143D01*
X0174949Y0245344D02*
X0180424Y0245344D01*
X0179625Y0244546D02*
X0174150Y0244546D01*
X0173352Y0243747D02*
X0178827Y0243747D01*
X0178028Y0242949D02*
X0172553Y0242949D01*
X0171755Y0242150D02*
X0177230Y0242150D01*
X0176431Y0241352D02*
X0170956Y0241352D01*
X0170158Y0240553D02*
X0175632Y0240553D01*
X0174834Y0239755D02*
X0169359Y0239755D01*
X0174568Y0234964D02*
X0232115Y0234964D01*
X0231317Y0235762D02*
X0175367Y0235762D01*
X0167113Y0232568D02*
X0159570Y0232568D01*
X0160968Y0231770D02*
X0165716Y0231770D01*
X0164949Y0230971D02*
X0161734Y0230971D01*
X0162065Y0230173D02*
X0164619Y0230173D01*
X0164367Y0229374D02*
X0162317Y0229374D01*
X0162317Y0228576D02*
X0164367Y0228576D01*
X0164367Y0227777D02*
X0162317Y0227777D01*
X0162317Y0226979D02*
X0164367Y0226979D01*
X0168342Y0226000D02*
X0183342Y0211000D01*
X0218342Y0211000D01*
X0243342Y0186000D01*
X0247879Y0187852D02*
X0249227Y0187852D01*
X0248429Y0188650D02*
X0247548Y0188650D01*
X0247630Y0189449D02*
X0246823Y0189449D01*
X0246832Y0190247D02*
X0245892Y0190247D01*
X0246033Y0191046D02*
X0240559Y0191046D01*
X0240570Y0191844D02*
X0239760Y0191844D01*
X0239769Y0192643D02*
X0238962Y0192643D01*
X0239098Y0193441D02*
X0238163Y0193441D01*
X0238767Y0194240D02*
X0237365Y0194240D01*
X0236566Y0195038D02*
X0238442Y0195038D01*
X0238442Y0195837D02*
X0235768Y0195837D01*
X0234969Y0196635D02*
X0238442Y0196635D01*
X0238632Y0197434D02*
X0234171Y0197434D01*
X0233372Y0198232D02*
X0238963Y0198232D01*
X0239443Y0199031D02*
X0232574Y0199031D01*
X0231775Y0199829D02*
X0240241Y0199829D01*
X0241710Y0200628D02*
X0230977Y0200628D01*
X0230178Y0201426D02*
X0241742Y0201426D01*
X0241742Y0202225D02*
X0229380Y0202225D01*
X0228581Y0203023D02*
X0241742Y0203023D01*
X0241742Y0203822D02*
X0227783Y0203822D01*
X0226984Y0204620D02*
X0241742Y0204620D01*
X0241742Y0205419D02*
X0226186Y0205419D01*
X0225387Y0206217D02*
X0241742Y0206217D01*
X0241742Y0207016D02*
X0224589Y0207016D01*
X0223790Y0207814D02*
X0241742Y0207814D01*
X0241742Y0208613D02*
X0222992Y0208613D01*
X0222193Y0209411D02*
X0241742Y0209411D01*
X0241742Y0210210D02*
X0221395Y0210210D01*
X0220596Y0211008D02*
X0241742Y0211008D01*
X0241742Y0211807D02*
X0219798Y0211807D01*
X0218466Y0208613D02*
X0216350Y0208613D01*
X0216893Y0207814D02*
X0219265Y0207814D01*
X0220063Y0207016D02*
X0217223Y0207016D01*
X0217317Y0206217D02*
X0220862Y0206217D01*
X0221660Y0205419D02*
X0217317Y0205419D01*
X0217073Y0204620D02*
X0222459Y0204620D01*
X0223257Y0203822D02*
X0216742Y0203822D01*
X0215986Y0203023D02*
X0224056Y0203023D01*
X0224854Y0202225D02*
X0219380Y0202225D01*
X0220178Y0201426D02*
X0225653Y0201426D01*
X0226451Y0200628D02*
X0220977Y0200628D01*
X0221775Y0199829D02*
X0227250Y0199829D01*
X0228048Y0199031D02*
X0222574Y0199031D01*
X0223372Y0198232D02*
X0228847Y0198232D01*
X0229645Y0197434D02*
X0224171Y0197434D01*
X0224969Y0196635D02*
X0230444Y0196635D01*
X0231242Y0195837D02*
X0225768Y0195837D01*
X0226566Y0195038D02*
X0232041Y0195038D01*
X0232839Y0194240D02*
X0227365Y0194240D01*
X0228163Y0193441D02*
X0233638Y0193441D01*
X0234436Y0192643D02*
X0228962Y0192643D01*
X0229760Y0191844D02*
X0235235Y0191844D01*
X0236033Y0191046D02*
X0230559Y0191046D01*
X0231357Y0190247D02*
X0236832Y0190247D01*
X0237630Y0189449D02*
X0232156Y0189449D01*
X0232954Y0188650D02*
X0238429Y0188650D01*
X0238805Y0187852D02*
X0233753Y0187852D01*
X0234551Y0187053D02*
X0238474Y0187053D01*
X0238442Y0186255D02*
X0235350Y0186255D01*
X0236148Y0185456D02*
X0238442Y0185456D01*
X0238594Y0184658D02*
X0236947Y0184658D01*
X0237745Y0183859D02*
X0238925Y0183859D01*
X0238544Y0183061D02*
X0239352Y0183061D01*
X0239342Y0182262D02*
X0240150Y0182262D01*
X0240141Y0181464D02*
X0241489Y0181464D01*
X0241800Y0180665D02*
X0240939Y0180665D01*
X0244884Y0180665D02*
X0251742Y0180665D01*
X0251742Y0179867D02*
X0246405Y0179867D01*
X0247203Y0179068D02*
X0251742Y0179068D01*
X0251742Y0178270D02*
X0247705Y0178270D01*
X0248036Y0177471D02*
X0251742Y0177471D01*
X0251742Y0176672D02*
X0248242Y0176672D01*
X0248242Y0175874D02*
X0251742Y0175874D01*
X0251742Y0175075D02*
X0248242Y0175075D01*
X0247932Y0174277D02*
X0251742Y0174277D01*
X0251742Y0173478D02*
X0247601Y0173478D01*
X0246951Y0172680D02*
X0251742Y0172680D01*
X0251742Y0171881D02*
X0246153Y0171881D01*
X0245300Y0170726D02*
X0244536Y0170974D01*
X0243743Y0171100D01*
X0243742Y0171100D01*
X0243742Y0166400D01*
X0248442Y0166400D01*
X0248442Y0166401D01*
X0248316Y0167194D01*
X0248068Y0167958D01*
X0247704Y0168673D01*
X0247232Y0169322D01*
X0246664Y0169890D01*
X0246015Y0170362D01*
X0245300Y0170726D01*
X0246121Y0170284D02*
X0251742Y0170284D01*
X0251742Y0169486D02*
X0247068Y0169486D01*
X0247693Y0168687D02*
X0251742Y0168687D01*
X0251742Y0167889D02*
X0248091Y0167889D01*
X0248333Y0167090D02*
X0251742Y0167090D01*
X0251742Y0166292D02*
X0243742Y0166292D01*
X0243742Y0166400D02*
X0243742Y0165600D01*
X0248442Y0165600D01*
X0248442Y0165599D01*
X0248316Y0164806D01*
X0248068Y0164042D01*
X0247704Y0163327D01*
X0247232Y0162678D01*
X0246664Y0162110D01*
X0246015Y0161638D01*
X0245300Y0161274D01*
X0244536Y0161026D01*
X0243743Y0160900D01*
X0243742Y0160900D01*
X0243742Y0165600D01*
X0242942Y0165600D01*
X0242942Y0160900D01*
X0242940Y0160900D01*
X0242148Y0161026D01*
X0241384Y0161274D01*
X0240669Y0161638D01*
X0240019Y0162110D01*
X0239452Y0162678D01*
X0238980Y0163327D01*
X0238615Y0164042D01*
X0238367Y0164806D01*
X0238242Y0165599D01*
X0238242Y0165600D01*
X0242942Y0165600D01*
X0242942Y0166400D01*
X0242942Y0171100D01*
X0242940Y0171100D01*
X0242148Y0170974D01*
X0241384Y0170726D01*
X0240669Y0170362D01*
X0240019Y0169890D01*
X0239452Y0169322D01*
X0238980Y0168673D01*
X0238615Y0167958D01*
X0238367Y0167194D01*
X0238242Y0166401D01*
X0238242Y0166400D01*
X0242942Y0166400D01*
X0243742Y0166400D01*
X0243742Y0167090D02*
X0242942Y0167090D01*
X0242942Y0166292D02*
X0223992Y0166292D01*
X0223992Y0167090D02*
X0238351Y0167090D01*
X0238593Y0167889D02*
X0223675Y0167889D01*
X0223344Y0168687D02*
X0238990Y0168687D01*
X0239615Y0169486D02*
X0222846Y0169486D01*
X0222048Y0170284D02*
X0240562Y0170284D01*
X0242942Y0170284D02*
X0243742Y0170284D01*
X0243742Y0169486D02*
X0242942Y0169486D01*
X0242942Y0168687D02*
X0243742Y0168687D01*
X0243742Y0167889D02*
X0242942Y0167889D01*
X0242942Y0165493D02*
X0243742Y0165493D01*
X0243742Y0164695D02*
X0242942Y0164695D01*
X0242942Y0163896D02*
X0243742Y0163896D01*
X0243742Y0163098D02*
X0242942Y0163098D01*
X0242942Y0162299D02*
X0243742Y0162299D01*
X0243742Y0161501D02*
X0242942Y0161501D01*
X0240938Y0161501D02*
X0221833Y0161501D01*
X0222631Y0162299D02*
X0239830Y0162299D01*
X0239146Y0163098D02*
X0223255Y0163098D01*
X0223586Y0163896D02*
X0238690Y0163896D01*
X0238403Y0164695D02*
X0223917Y0164695D01*
X0223992Y0165493D02*
X0238258Y0165493D01*
X0242833Y0171083D02*
X0220835Y0171083D01*
X0212692Y0165493D02*
X0212317Y0165493D01*
X0212317Y0164695D02*
X0212767Y0164695D01*
X0213098Y0163896D02*
X0212317Y0163896D01*
X0212317Y0163098D02*
X0213428Y0163098D01*
X0214052Y0162299D02*
X0212261Y0162299D01*
X0211930Y0161501D02*
X0214851Y0161501D01*
X0216367Y0160702D02*
X0211440Y0160702D01*
X0210642Y0159904D02*
X0251742Y0159904D01*
X0251742Y0160702D02*
X0220316Y0160702D01*
X0215693Y0155911D02*
X0250990Y0155911D01*
X0251742Y0156710D02*
X0214895Y0156710D01*
X0214096Y0157508D02*
X0251742Y0157508D01*
X0251742Y0158307D02*
X0188298Y0158307D01*
X0187499Y0159105D02*
X0197667Y0159105D01*
X0197954Y0159105D02*
X0198729Y0159105D01*
X0198729Y0159060D02*
X0199319Y0159153D01*
X0199944Y0159356D01*
X0200530Y0159655D01*
X0201062Y0160041D01*
X0201526Y0160505D01*
X0201912Y0161037D01*
X0202211Y0161623D01*
X0202414Y0162248D01*
X0202517Y0162897D01*
X0202517Y0165613D01*
X0198729Y0165613D01*
X0198729Y0159060D01*
X0199017Y0159105D02*
X0251742Y0159105D01*
X0251742Y0161501D02*
X0245745Y0161501D01*
X0246854Y0162299D02*
X0251742Y0162299D01*
X0251742Y0163098D02*
X0247537Y0163098D01*
X0247994Y0163896D02*
X0251742Y0163896D01*
X0251742Y0164695D02*
X0248280Y0164695D01*
X0248425Y0165493D02*
X0251742Y0165493D01*
X0254942Y0165493D02*
X0255542Y0165493D01*
X0255542Y0164695D02*
X0254942Y0164695D01*
X0254942Y0163896D02*
X0255542Y0163896D01*
X0255542Y0163098D02*
X0254942Y0163098D01*
X0254942Y0162299D02*
X0255542Y0162299D01*
X0255542Y0161501D02*
X0254942Y0161501D01*
X0254942Y0160702D02*
X0255542Y0160702D01*
X0255542Y0159904D02*
X0254942Y0159904D01*
X0254942Y0159105D02*
X0255542Y0159105D01*
X0255542Y0158307D02*
X0254942Y0158307D01*
X0254942Y0157508D02*
X0255542Y0157508D01*
X0255542Y0156710D02*
X0254942Y0156710D01*
X0254942Y0155911D02*
X0255542Y0155911D01*
X0255542Y0155113D02*
X0254717Y0155113D01*
X0253919Y0154314D02*
X0255542Y0154314D01*
X0255542Y0153516D02*
X0253120Y0153516D01*
X0252322Y0152717D02*
X0255542Y0152717D01*
X0255542Y0151919D02*
X0251523Y0151919D01*
X0250725Y0151120D02*
X0255542Y0151120D01*
X0255542Y0150322D02*
X0249926Y0150322D01*
X0249128Y0149523D02*
X0255542Y0149523D01*
X0255542Y0148725D02*
X0248329Y0148725D01*
X0247531Y0147926D02*
X0255542Y0147926D01*
X0255542Y0147128D02*
X0246732Y0147128D01*
X0245934Y0146329D02*
X0255542Y0146329D01*
X0255542Y0145531D02*
X0245135Y0145531D01*
X0244337Y0144732D02*
X0255542Y0144732D01*
X0255542Y0143934D02*
X0243538Y0143934D01*
X0242740Y0143135D02*
X0255542Y0143135D01*
X0255542Y0142337D02*
X0241941Y0142337D01*
X0241143Y0141538D02*
X0255542Y0141538D01*
X0255542Y0140739D02*
X0240344Y0140739D01*
X0239546Y0139941D02*
X0255542Y0139941D01*
X0255542Y0139142D02*
X0232876Y0139142D01*
X0232545Y0138344D02*
X0255542Y0138344D01*
X0255542Y0137545D02*
X0231817Y0137545D01*
X0230878Y0136747D02*
X0255542Y0136747D01*
X0255542Y0135948D02*
X0225553Y0135948D01*
X0224754Y0135150D02*
X0255542Y0135150D01*
X0255542Y0134351D02*
X0223956Y0134351D01*
X0223157Y0133553D02*
X0255542Y0133553D01*
X0255542Y0132754D02*
X0222359Y0132754D01*
X0221560Y0131956D02*
X0255542Y0131956D01*
X0255542Y0131157D02*
X0220762Y0131157D01*
X0219963Y0130359D02*
X0255542Y0130359D01*
X0255542Y0129560D02*
X0219165Y0129560D01*
X0218342Y0131000D02*
X0228342Y0141000D01*
X0238342Y0141000D01*
X0253342Y0156000D01*
X0253342Y0186000D01*
X0243342Y0196000D01*
X0243342Y0226000D01*
X0213342Y0256000D01*
X0214282Y0257322D02*
X0238409Y0257322D01*
X0238367Y0257194D02*
X0238242Y0256401D01*
X0238242Y0256400D01*
X0242942Y0256400D01*
X0242942Y0261100D01*
X0242940Y0261100D01*
X0242148Y0260974D01*
X0241384Y0260726D01*
X0240669Y0260362D01*
X0240019Y0259890D01*
X0239452Y0259322D01*
X0238980Y0258673D01*
X0238615Y0257958D01*
X0238367Y0257194D01*
X0238261Y0256524D02*
X0215081Y0256524D01*
X0215879Y0255725D02*
X0242942Y0255725D01*
X0242942Y0255600D02*
X0238242Y0255600D01*
X0238242Y0255599D01*
X0238367Y0254806D01*
X0238615Y0254042D01*
X0238980Y0253327D01*
X0239452Y0252678D01*
X0240019Y0252110D01*
X0240669Y0251638D01*
X0241384Y0251274D01*
X0242148Y0251026D01*
X0242940Y0250900D01*
X0242942Y0250900D01*
X0242942Y0255600D01*
X0243742Y0255600D01*
X0243742Y0256400D01*
X0248442Y0256400D01*
X0248442Y0256401D01*
X0248316Y0257194D01*
X0248068Y0257958D01*
X0247704Y0258673D01*
X0247232Y0259322D01*
X0246664Y0259890D01*
X0246015Y0260362D01*
X0245300Y0260726D01*
X0244536Y0260974D01*
X0243743Y0261100D01*
X0243742Y0261100D01*
X0243742Y0256400D01*
X0242942Y0256400D01*
X0242942Y0255600D01*
X0242942Y0254927D02*
X0243742Y0254927D01*
X0243742Y0255600D02*
X0243742Y0250900D01*
X0243743Y0250900D01*
X0244536Y0251026D01*
X0245300Y0251274D01*
X0246015Y0251638D01*
X0246664Y0252110D01*
X0247232Y0252678D01*
X0247704Y0253327D01*
X0248068Y0254042D01*
X0248316Y0254806D01*
X0248442Y0255599D01*
X0248442Y0255600D01*
X0243742Y0255600D01*
X0243742Y0255725D02*
X0255542Y0255725D01*
X0255542Y0254927D02*
X0248335Y0254927D01*
X0248096Y0254128D02*
X0255542Y0254128D01*
X0255542Y0253330D02*
X0247705Y0253330D01*
X0247085Y0252531D02*
X0255542Y0252531D01*
X0255542Y0251733D02*
X0246145Y0251733D01*
X0246117Y0250154D02*
X0244316Y0250900D01*
X0242367Y0250900D01*
X0240566Y0250154D01*
X0239188Y0248776D01*
X0238442Y0246975D01*
X0238442Y0245025D01*
X0239188Y0243224D01*
X0240566Y0241846D01*
X0242367Y0241100D01*
X0244316Y0241100D01*
X0246117Y0241846D01*
X0247496Y0243224D01*
X0248242Y0245025D01*
X0248242Y0246975D01*
X0247496Y0248776D01*
X0246117Y0250154D01*
X0246136Y0250136D02*
X0255542Y0250136D01*
X0255542Y0250934D02*
X0243958Y0250934D01*
X0243742Y0250934D02*
X0242942Y0250934D01*
X0242725Y0250934D02*
X0220670Y0250934D01*
X0219872Y0251733D02*
X0240539Y0251733D01*
X0239598Y0252531D02*
X0219073Y0252531D01*
X0218275Y0253330D02*
X0238979Y0253330D01*
X0238588Y0254128D02*
X0217476Y0254128D01*
X0216678Y0254927D02*
X0238348Y0254927D01*
X0238698Y0258121D02*
X0207767Y0258121D01*
X0207352Y0258919D02*
X0239159Y0258919D01*
X0239847Y0259718D02*
X0206554Y0259718D01*
X0205243Y0260516D02*
X0240972Y0260516D01*
X0242942Y0260516D02*
X0243742Y0260516D01*
X0243742Y0259718D02*
X0242942Y0259718D01*
X0242942Y0258919D02*
X0243742Y0258919D01*
X0243742Y0258121D02*
X0242942Y0258121D01*
X0242942Y0257322D02*
X0243742Y0257322D01*
X0243742Y0256524D02*
X0242942Y0256524D01*
X0242942Y0254128D02*
X0243742Y0254128D01*
X0243742Y0253330D02*
X0242942Y0253330D01*
X0242942Y0252531D02*
X0243742Y0252531D01*
X0243742Y0251733D02*
X0242942Y0251733D01*
X0240548Y0250136D02*
X0221469Y0250136D01*
X0222268Y0249337D02*
X0239749Y0249337D01*
X0239090Y0248539D02*
X0223066Y0248539D01*
X0223865Y0247740D02*
X0238759Y0247740D01*
X0238442Y0246941D02*
X0224663Y0246941D01*
X0225462Y0246143D02*
X0238442Y0246143D01*
X0238442Y0245344D02*
X0226260Y0245344D01*
X0227059Y0244546D02*
X0238640Y0244546D01*
X0238971Y0243747D02*
X0227857Y0243747D01*
X0228656Y0242949D02*
X0239463Y0242949D01*
X0240262Y0242150D02*
X0229454Y0242150D01*
X0230253Y0241352D02*
X0241759Y0241352D01*
X0242367Y0240900D02*
X0240566Y0240154D01*
X0239188Y0238776D01*
X0238442Y0236975D01*
X0238442Y0235025D01*
X0239188Y0233224D01*
X0240566Y0231846D01*
X0242367Y0231100D01*
X0244316Y0231100D01*
X0246117Y0231846D01*
X0247496Y0233224D01*
X0248242Y0235025D01*
X0248242Y0236975D01*
X0247496Y0238776D01*
X0246117Y0240154D01*
X0244316Y0240900D01*
X0242367Y0240900D01*
X0241530Y0240553D02*
X0231051Y0240553D01*
X0231850Y0239755D02*
X0240167Y0239755D01*
X0239369Y0238956D02*
X0232648Y0238956D01*
X0233447Y0238158D02*
X0238932Y0238158D01*
X0238601Y0237359D02*
X0234245Y0237359D01*
X0235044Y0236561D02*
X0238442Y0236561D01*
X0238442Y0235762D02*
X0235842Y0235762D01*
X0236641Y0234964D02*
X0238467Y0234964D01*
X0238798Y0234165D02*
X0237439Y0234165D01*
X0238238Y0233367D02*
X0239129Y0233367D01*
X0239036Y0232568D02*
X0239844Y0232568D01*
X0239835Y0231770D02*
X0240750Y0231770D01*
X0240633Y0230971D02*
X0255542Y0230971D01*
X0255542Y0230173D02*
X0246072Y0230173D01*
X0246897Y0229374D02*
X0255542Y0229374D01*
X0255542Y0228576D02*
X0247579Y0228576D01*
X0247909Y0227777D02*
X0255542Y0227777D01*
X0255542Y0226979D02*
X0248240Y0226979D01*
X0248242Y0226180D02*
X0255542Y0226180D01*
X0255542Y0225382D02*
X0248242Y0225382D01*
X0248059Y0224583D02*
X0255542Y0224583D01*
X0255542Y0223785D02*
X0247728Y0223785D01*
X0247258Y0222986D02*
X0255542Y0222986D01*
X0255542Y0222188D02*
X0246459Y0222188D01*
X0245014Y0221389D02*
X0255542Y0221389D01*
X0255542Y0220591D02*
X0244942Y0220591D01*
X0244942Y0219792D02*
X0255542Y0219792D01*
X0255542Y0218994D02*
X0244942Y0218994D01*
X0244942Y0218195D02*
X0255542Y0218195D01*
X0255542Y0217397D02*
X0244942Y0217397D01*
X0244942Y0216598D02*
X0255542Y0216598D01*
X0255542Y0215800D02*
X0244942Y0215800D01*
X0244942Y0215001D02*
X0255542Y0215001D01*
X0255542Y0214203D02*
X0244942Y0214203D01*
X0244942Y0213404D02*
X0255542Y0213404D01*
X0255542Y0212605D02*
X0244942Y0212605D01*
X0244942Y0211807D02*
X0255542Y0211807D01*
X0255542Y0211008D02*
X0244942Y0211008D01*
X0244942Y0210210D02*
X0255542Y0210210D01*
X0255542Y0209411D02*
X0244942Y0209411D01*
X0244942Y0208613D02*
X0255542Y0208613D01*
X0255542Y0207814D02*
X0244942Y0207814D01*
X0244942Y0207016D02*
X0255542Y0207016D01*
X0255542Y0206217D02*
X0244942Y0206217D01*
X0244942Y0205419D02*
X0255542Y0205419D01*
X0255542Y0204620D02*
X0244942Y0204620D01*
X0244942Y0203822D02*
X0255542Y0203822D01*
X0255542Y0203023D02*
X0244942Y0203023D01*
X0244942Y0202225D02*
X0255542Y0202225D01*
X0255542Y0201426D02*
X0244942Y0201426D01*
X0244974Y0200628D02*
X0255542Y0200628D01*
X0255542Y0199829D02*
X0246442Y0199829D01*
X0247241Y0199031D02*
X0255542Y0199031D01*
X0255542Y0198232D02*
X0247721Y0198232D01*
X0248052Y0197434D02*
X0255542Y0197434D01*
X0255542Y0196635D02*
X0248242Y0196635D01*
X0248242Y0195837D02*
X0255542Y0195837D01*
X0255542Y0195038D02*
X0248242Y0195038D01*
X0247916Y0194240D02*
X0255542Y0194240D01*
X0255542Y0193441D02*
X0248163Y0193441D01*
X0248962Y0192643D02*
X0255542Y0192643D01*
X0255542Y0191844D02*
X0249760Y0191844D01*
X0250559Y0191046D02*
X0255542Y0191046D01*
X0255542Y0190247D02*
X0251357Y0190247D01*
X0252156Y0189449D02*
X0255542Y0189449D01*
X0255542Y0188650D02*
X0252954Y0188650D01*
X0253753Y0187852D02*
X0255542Y0187852D01*
X0255542Y0187053D02*
X0254551Y0187053D01*
X0254942Y0186255D02*
X0255542Y0186255D01*
X0255542Y0185456D02*
X0254942Y0185456D01*
X0254942Y0184658D02*
X0255542Y0184658D01*
X0255542Y0183859D02*
X0254942Y0183859D01*
X0254942Y0183061D02*
X0255542Y0183061D01*
X0255542Y0182262D02*
X0254942Y0182262D01*
X0254942Y0181464D02*
X0255542Y0181464D01*
X0255542Y0180665D02*
X0254942Y0180665D01*
X0254942Y0179867D02*
X0255542Y0179867D01*
X0255542Y0179068D02*
X0254942Y0179068D01*
X0254942Y0178270D02*
X0255542Y0178270D01*
X0255542Y0177471D02*
X0254942Y0177471D01*
X0254942Y0176672D02*
X0255542Y0176672D01*
X0255542Y0175874D02*
X0254942Y0175874D01*
X0254942Y0175075D02*
X0255542Y0175075D01*
X0255542Y0174277D02*
X0254942Y0174277D01*
X0254942Y0173478D02*
X0255542Y0173478D01*
X0255542Y0172680D02*
X0254942Y0172680D01*
X0254942Y0171881D02*
X0255542Y0171881D01*
X0255542Y0171083D02*
X0254942Y0171083D01*
X0254942Y0170284D02*
X0255542Y0170284D01*
X0255542Y0169486D02*
X0254942Y0169486D01*
X0254942Y0168687D02*
X0255542Y0168687D01*
X0255542Y0167889D02*
X0254942Y0167889D01*
X0254942Y0167090D02*
X0255542Y0167090D01*
X0255542Y0166292D02*
X0254942Y0166292D01*
X0251742Y0171083D02*
X0243851Y0171083D01*
X0243742Y0171083D02*
X0242942Y0171083D01*
X0243342Y0176000D02*
X0218342Y0201000D01*
X0200697Y0203023D02*
X0178581Y0203023D01*
X0177783Y0203822D02*
X0199942Y0203822D01*
X0199611Y0204620D02*
X0176984Y0204620D01*
X0176186Y0205419D02*
X0199367Y0205419D01*
X0199367Y0206217D02*
X0175387Y0206217D01*
X0174589Y0207016D02*
X0199460Y0207016D01*
X0199791Y0207814D02*
X0173790Y0207814D01*
X0172992Y0208613D02*
X0200334Y0208613D01*
X0200440Y0219792D02*
X0206243Y0219792D01*
X0205355Y0220591D02*
X0201328Y0220591D01*
X0201884Y0221389D02*
X0204800Y0221389D01*
X0204469Y0222188D02*
X0202214Y0222188D01*
X0202317Y0222986D02*
X0204367Y0222986D01*
X0204367Y0223785D02*
X0202317Y0223785D01*
X0202317Y0224583D02*
X0204367Y0224583D01*
X0204367Y0225382D02*
X0202317Y0225382D01*
X0202317Y0226180D02*
X0204367Y0226180D01*
X0204367Y0226979D02*
X0202317Y0226979D01*
X0202317Y0227777D02*
X0204367Y0227777D01*
X0204367Y0228576D02*
X0202317Y0228576D01*
X0202317Y0229374D02*
X0204367Y0229374D01*
X0204619Y0230173D02*
X0202065Y0230173D01*
X0201734Y0230971D02*
X0204949Y0230971D01*
X0205716Y0231770D02*
X0200968Y0231770D01*
X0221104Y0230971D02*
X0236108Y0230971D01*
X0236906Y0230173D02*
X0222159Y0230173D01*
X0222958Y0229374D02*
X0237705Y0229374D01*
X0238503Y0228576D02*
X0223390Y0228576D01*
X0223721Y0227777D02*
X0238774Y0227777D01*
X0238443Y0226979D02*
X0223992Y0226979D01*
X0223992Y0226180D02*
X0238442Y0226180D01*
X0238442Y0225382D02*
X0223992Y0225382D01*
X0223870Y0224583D02*
X0238625Y0224583D01*
X0238956Y0223785D02*
X0223540Y0223785D01*
X0223209Y0222986D02*
X0239426Y0222986D01*
X0240225Y0222188D02*
X0222520Y0222188D01*
X0221721Y0221389D02*
X0241669Y0221389D01*
X0241742Y0220591D02*
X0220047Y0220591D01*
X0241742Y0218195D02*
X0178409Y0218195D01*
X0179208Y0217397D02*
X0241742Y0217397D01*
X0241742Y0216598D02*
X0180006Y0216598D01*
X0180805Y0215800D02*
X0241742Y0215800D01*
X0241742Y0215001D02*
X0181603Y0215001D01*
X0182402Y0214203D02*
X0241742Y0214203D01*
X0241742Y0213404D02*
X0183201Y0213404D01*
X0183999Y0212605D02*
X0241742Y0212605D01*
X0245933Y0231770D02*
X0255542Y0231770D01*
X0255542Y0232568D02*
X0246840Y0232568D01*
X0247555Y0233367D02*
X0255542Y0233367D01*
X0255542Y0234165D02*
X0247886Y0234165D01*
X0248216Y0234964D02*
X0255542Y0234964D01*
X0255542Y0235762D02*
X0248242Y0235762D01*
X0248242Y0236561D02*
X0255542Y0236561D01*
X0255542Y0237359D02*
X0248082Y0237359D01*
X0247752Y0238158D02*
X0255542Y0238158D01*
X0255542Y0238956D02*
X0247315Y0238956D01*
X0246517Y0239755D02*
X0255542Y0239755D01*
X0255542Y0240553D02*
X0245153Y0240553D01*
X0244925Y0241352D02*
X0255542Y0241352D01*
X0255542Y0242150D02*
X0246422Y0242150D01*
X0247220Y0242949D02*
X0255542Y0242949D01*
X0255542Y0243747D02*
X0247712Y0243747D01*
X0248043Y0244546D02*
X0255542Y0244546D01*
X0255542Y0245344D02*
X0248242Y0245344D01*
X0248242Y0246143D02*
X0255542Y0246143D01*
X0255542Y0246941D02*
X0248242Y0246941D01*
X0247925Y0247740D02*
X0255542Y0247740D01*
X0255542Y0248539D02*
X0247594Y0248539D01*
X0246934Y0249337D02*
X0255542Y0249337D01*
X0255542Y0256524D02*
X0248422Y0256524D01*
X0248275Y0257322D02*
X0255542Y0257322D01*
X0255542Y0258121D02*
X0247985Y0258121D01*
X0247525Y0258919D02*
X0255542Y0258919D01*
X0255542Y0259718D02*
X0246837Y0259718D01*
X0245712Y0260516D02*
X0255542Y0260516D01*
X0255542Y0261315D02*
X0200290Y0261315D01*
X0199491Y0262113D02*
X0255542Y0262113D01*
X0255542Y0262912D02*
X0198693Y0262912D01*
X0197894Y0263710D02*
X0255542Y0263710D01*
X0255542Y0264509D02*
X0197096Y0264509D01*
X0196297Y0265307D02*
X0255542Y0265307D01*
X0255542Y0266106D02*
X0195499Y0266106D01*
X0194700Y0266904D02*
X0255542Y0266904D01*
X0255542Y0267703D02*
X0046142Y0267703D01*
X0046142Y0268200D02*
X0255542Y0268200D01*
X0255542Y0068800D01*
X0046142Y0068800D01*
X0046142Y0268200D01*
X0043342Y0271000D02*
X0043342Y0066000D01*
X0258342Y0066000D01*
X0258342Y0271000D01*
X0043342Y0271000D01*
X0084942Y0232568D02*
X0087113Y0232568D01*
X0085716Y0231770D02*
X0084942Y0231770D01*
X0140968Y0231770D02*
X0145716Y0231770D01*
X0144949Y0230971D02*
X0141734Y0230971D01*
X0142065Y0230173D02*
X0144619Y0230173D01*
X0144367Y0229374D02*
X0142317Y0229374D01*
X0142317Y0228576D02*
X0144367Y0228576D01*
X0144367Y0227777D02*
X0142317Y0227777D01*
X0142317Y0226979D02*
X0144367Y0226979D01*
X0144367Y0226180D02*
X0142317Y0226180D01*
X0142317Y0225382D02*
X0144367Y0225382D01*
X0144367Y0224583D02*
X0142317Y0224583D01*
X0142317Y0223785D02*
X0144367Y0223785D01*
X0144367Y0222986D02*
X0142317Y0222986D01*
X0142214Y0222188D02*
X0144469Y0222188D01*
X0144800Y0221389D02*
X0141884Y0221389D01*
X0141328Y0220591D02*
X0145355Y0220591D01*
X0146243Y0219792D02*
X0140440Y0219792D01*
X0165006Y0216598D02*
X0175481Y0216598D01*
X0176280Y0215800D02*
X0165805Y0215800D01*
X0166603Y0215001D02*
X0177078Y0215001D01*
X0177877Y0214203D02*
X0167402Y0214203D01*
X0168201Y0213404D02*
X0178675Y0213404D01*
X0179474Y0212605D02*
X0168999Y0212605D01*
X0169798Y0211807D02*
X0180272Y0211807D01*
X0181071Y0211008D02*
X0170596Y0211008D01*
X0171395Y0210210D02*
X0181869Y0210210D01*
X0182668Y0209411D02*
X0172193Y0209411D01*
X0157383Y0172680D02*
X0149301Y0172680D01*
X0150856Y0171881D02*
X0155827Y0171881D01*
X0155029Y0171083D02*
X0151655Y0171083D01*
X0152019Y0170284D02*
X0154665Y0170284D01*
X0154367Y0169486D02*
X0152317Y0169486D01*
X0152317Y0168687D02*
X0154367Y0168687D01*
X0154367Y0167889D02*
X0152317Y0167889D01*
X0152317Y0167090D02*
X0154367Y0167090D01*
X0154367Y0166292D02*
X0152317Y0166292D01*
X0152317Y0165493D02*
X0154367Y0165493D01*
X0154367Y0164695D02*
X0152317Y0164695D01*
X0152708Y0163896D02*
X0154367Y0163896D01*
X0154367Y0163098D02*
X0153507Y0163098D01*
X0154305Y0162299D02*
X0154423Y0162299D01*
X0152175Y0159904D02*
X0150642Y0159904D01*
X0148342Y0166000D02*
X0163342Y0151000D01*
X0188342Y0151000D01*
X0198342Y0141000D01*
X0202876Y0139142D02*
X0203583Y0139142D01*
X0203615Y0139042D02*
X0203980Y0138327D01*
X0204452Y0137678D01*
X0205019Y0137110D01*
X0205669Y0136638D01*
X0206384Y0136274D01*
X0207148Y0136026D01*
X0207940Y0135900D01*
X0207942Y0135900D01*
X0207942Y0140600D01*
X0208742Y0140600D01*
X0208742Y0141400D01*
X0213442Y0141400D01*
X0213442Y0141401D01*
X0213316Y0142194D01*
X0213068Y0142958D01*
X0212704Y0143673D01*
X0212232Y0144322D01*
X0211664Y0144890D01*
X0211015Y0145362D01*
X0210300Y0145726D01*
X0209536Y0145974D01*
X0208743Y0146100D01*
X0208742Y0146100D01*
X0208742Y0141400D01*
X0207942Y0141400D01*
X0207942Y0146100D01*
X0207940Y0146100D01*
X0207148Y0145974D01*
X0206384Y0145726D01*
X0205669Y0145362D01*
X0205019Y0144890D01*
X0204452Y0144322D01*
X0203980Y0143673D01*
X0203615Y0142958D01*
X0203367Y0142194D01*
X0203242Y0141401D01*
X0203242Y0141400D01*
X0207942Y0141400D01*
X0207942Y0140600D01*
X0203242Y0140600D01*
X0203242Y0140599D01*
X0203367Y0139806D01*
X0203615Y0139042D01*
X0203971Y0138344D02*
X0202545Y0138344D01*
X0201817Y0137545D02*
X0204584Y0137545D01*
X0205519Y0136747D02*
X0200878Y0136747D01*
X0203207Y0139941D02*
X0203346Y0139941D01*
X0203242Y0140739D02*
X0207942Y0140739D01*
X0207942Y0139941D02*
X0208742Y0139941D01*
X0208742Y0140600D02*
X0208742Y0135900D01*
X0208743Y0135900D01*
X0209536Y0136026D01*
X0210300Y0136274D01*
X0211015Y0136638D01*
X0211664Y0137110D01*
X0212232Y0137678D01*
X0212704Y0138327D01*
X0213068Y0139042D01*
X0213316Y0139806D01*
X0213442Y0140599D01*
X0213442Y0140600D01*
X0208742Y0140600D01*
X0208742Y0140739D02*
X0213442Y0140739D01*
X0213442Y0140025D02*
X0214188Y0138224D01*
X0215566Y0136846D01*
X0217367Y0136100D01*
X0219316Y0136100D01*
X0221117Y0136846D01*
X0222496Y0138224D01*
X0223242Y0140025D01*
X0223242Y0141975D01*
X0222496Y0143776D01*
X0221117Y0145154D01*
X0219316Y0145900D01*
X0217367Y0145900D01*
X0215566Y0145154D01*
X0214188Y0143776D01*
X0213442Y0141975D01*
X0213442Y0140025D01*
X0213477Y0139941D02*
X0213338Y0139941D01*
X0213101Y0139142D02*
X0213807Y0139142D01*
X0214138Y0138344D02*
X0212712Y0138344D01*
X0212100Y0137545D02*
X0214867Y0137545D01*
X0215805Y0136747D02*
X0211165Y0136747D01*
X0209049Y0135948D02*
X0221027Y0135948D01*
X0220878Y0136747D02*
X0221826Y0136747D01*
X0221817Y0137545D02*
X0222625Y0137545D01*
X0222545Y0138344D02*
X0223423Y0138344D01*
X0223808Y0139142D02*
X0222876Y0139142D01*
X0223207Y0139941D02*
X0223477Y0139941D01*
X0223442Y0140739D02*
X0223242Y0140739D01*
X0223242Y0141538D02*
X0223442Y0141538D01*
X0223592Y0142337D02*
X0223092Y0142337D01*
X0222761Y0143135D02*
X0223922Y0143135D01*
X0223146Y0143934D02*
X0222338Y0143934D01*
X0222347Y0144732D02*
X0221539Y0144732D01*
X0221549Y0145531D02*
X0220208Y0145531D01*
X0220750Y0146329D02*
X0195275Y0146329D01*
X0194477Y0147128D02*
X0219951Y0147128D01*
X0219153Y0147926D02*
X0193678Y0147926D01*
X0192880Y0148725D02*
X0218354Y0148725D01*
X0217556Y0149523D02*
X0192081Y0149523D01*
X0191283Y0150322D02*
X0216757Y0150322D01*
X0215959Y0151120D02*
X0190484Y0151120D01*
X0189686Y0151919D02*
X0215160Y0151919D01*
X0214362Y0152717D02*
X0163887Y0152717D01*
X0163089Y0153516D02*
X0213563Y0153516D01*
X0212765Y0154314D02*
X0162290Y0154314D01*
X0160160Y0151919D02*
X0091523Y0151919D01*
X0092322Y0152717D02*
X0159362Y0152717D01*
X0158563Y0153516D02*
X0093120Y0153516D01*
X0093919Y0154314D02*
X0157765Y0154314D01*
X0156966Y0155113D02*
X0139717Y0155113D01*
X0138342Y0156000D02*
X0148342Y0166000D01*
X0142378Y0162299D02*
X0142261Y0162299D01*
X0139184Y0159105D02*
X0069942Y0159105D01*
X0069942Y0158307D02*
X0138386Y0158307D01*
X0138342Y0156000D02*
X0093342Y0156000D01*
X0080842Y0143500D01*
X0080842Y0141000D01*
X0085376Y0139142D02*
X0086307Y0139142D01*
X0086638Y0138344D02*
X0085045Y0138344D01*
X0084317Y0137545D02*
X0087367Y0137545D01*
X0086688Y0138224D02*
X0088066Y0136846D01*
X0089867Y0136100D01*
X0091816Y0136100D01*
X0093617Y0136846D01*
X0094996Y0138224D01*
X0095742Y0140025D01*
X0095742Y0141975D01*
X0094996Y0143776D01*
X0093617Y0145154D01*
X0091816Y0145900D01*
X0089867Y0145900D01*
X0088066Y0145154D01*
X0086688Y0143776D01*
X0085942Y0141975D01*
X0085942Y0140025D01*
X0086688Y0138224D01*
X0085977Y0139941D02*
X0085707Y0139941D01*
X0085742Y0140739D02*
X0085942Y0140739D01*
X0085942Y0141538D02*
X0085742Y0141538D01*
X0085592Y0142337D02*
X0086092Y0142337D01*
X0086422Y0143135D02*
X0085261Y0143135D01*
X0084838Y0143934D02*
X0086846Y0143934D01*
X0087644Y0144732D02*
X0084337Y0144732D01*
X0085135Y0145531D02*
X0088975Y0145531D01*
X0086732Y0147128D02*
X0189951Y0147128D01*
X0189153Y0147926D02*
X0087531Y0147926D01*
X0088329Y0148725D02*
X0188354Y0148725D01*
X0189316Y0145900D02*
X0187367Y0145900D01*
X0185566Y0145154D01*
X0184188Y0143776D01*
X0183442Y0141975D01*
X0183442Y0140025D01*
X0184188Y0138224D01*
X0185566Y0136846D01*
X0187367Y0136100D01*
X0189316Y0136100D01*
X0191117Y0136846D01*
X0192496Y0138224D01*
X0193242Y0140025D01*
X0193242Y0141975D01*
X0192496Y0143776D01*
X0191117Y0145154D01*
X0189316Y0145900D01*
X0190208Y0145531D02*
X0191549Y0145531D01*
X0191539Y0144732D02*
X0192347Y0144732D01*
X0192338Y0143934D02*
X0193146Y0143934D01*
X0192761Y0143135D02*
X0193922Y0143135D01*
X0193592Y0142337D02*
X0193092Y0142337D01*
X0193242Y0141538D02*
X0193442Y0141538D01*
X0193442Y0140739D02*
X0193242Y0140739D01*
X0193207Y0139941D02*
X0193477Y0139941D01*
X0193807Y0139142D02*
X0192876Y0139142D01*
X0192545Y0138344D02*
X0194138Y0138344D01*
X0194867Y0137545D02*
X0191817Y0137545D01*
X0190878Y0136747D02*
X0195805Y0136747D01*
X0196074Y0145531D02*
X0196475Y0145531D01*
X0200208Y0145531D02*
X0206000Y0145531D01*
X0204861Y0144732D02*
X0201539Y0144732D01*
X0202338Y0143934D02*
X0204169Y0143934D01*
X0203706Y0143135D02*
X0202761Y0143135D01*
X0203092Y0142337D02*
X0203414Y0142337D01*
X0203263Y0141538D02*
X0203242Y0141538D01*
X0207942Y0141538D02*
X0208742Y0141538D01*
X0208742Y0142337D02*
X0207942Y0142337D01*
X0207942Y0143135D02*
X0208742Y0143135D01*
X0208742Y0143934D02*
X0207942Y0143934D01*
X0207942Y0144732D02*
X0208742Y0144732D01*
X0208742Y0145531D02*
X0207942Y0145531D01*
X0210684Y0145531D02*
X0216475Y0145531D01*
X0215144Y0144732D02*
X0211822Y0144732D01*
X0212514Y0143934D02*
X0214346Y0143934D01*
X0213922Y0143135D02*
X0212978Y0143135D01*
X0213270Y0142337D02*
X0213592Y0142337D01*
X0213442Y0141538D02*
X0213420Y0141538D01*
X0208742Y0139142D02*
X0207942Y0139142D01*
X0207942Y0138344D02*
X0208742Y0138344D01*
X0208742Y0137545D02*
X0207942Y0137545D01*
X0207942Y0136747D02*
X0208742Y0136747D01*
X0208742Y0135948D02*
X0207942Y0135948D01*
X0207635Y0135948D02*
X0148156Y0135948D01*
X0148955Y0135150D02*
X0220229Y0135150D01*
X0219430Y0134351D02*
X0149753Y0134351D01*
X0150552Y0133553D02*
X0218632Y0133553D01*
X0217833Y0132754D02*
X0151350Y0132754D01*
X0150842Y0131000D02*
X0218342Y0131000D01*
X0228342Y0141000D02*
X0213342Y0156000D01*
X0188342Y0156000D01*
X0190642Y0159904D02*
X0195811Y0159904D01*
X0195014Y0160702D02*
X0191440Y0160702D01*
X0191930Y0161501D02*
X0194535Y0161501D01*
X0194262Y0162299D02*
X0192261Y0162299D01*
X0192317Y0163098D02*
X0194167Y0163098D01*
X0194167Y0163896D02*
X0192317Y0163896D01*
X0192317Y0164695D02*
X0194167Y0164695D01*
X0194167Y0165493D02*
X0192317Y0165493D01*
X0192317Y0166292D02*
X0197954Y0166292D01*
X0197954Y0165493D02*
X0198729Y0165493D01*
X0198729Y0164695D02*
X0197954Y0164695D01*
X0197954Y0163896D02*
X0198729Y0163896D01*
X0198729Y0163098D02*
X0197954Y0163098D01*
X0197954Y0162299D02*
X0198729Y0162299D01*
X0198729Y0161501D02*
X0197954Y0161501D01*
X0197954Y0160702D02*
X0198729Y0160702D01*
X0198729Y0159904D02*
X0197954Y0159904D01*
X0200873Y0159904D02*
X0206042Y0159904D01*
X0205244Y0160702D02*
X0201669Y0160702D01*
X0202149Y0161501D02*
X0204754Y0161501D01*
X0204423Y0162299D02*
X0202422Y0162299D01*
X0202517Y0163098D02*
X0204367Y0163098D01*
X0204367Y0163896D02*
X0202517Y0163896D01*
X0202517Y0164695D02*
X0204367Y0164695D01*
X0204367Y0165493D02*
X0202517Y0165493D01*
X0194858Y0171083D02*
X0191655Y0171083D01*
X0192019Y0170284D02*
X0194443Y0170284D01*
X0194228Y0169486D02*
X0192317Y0169486D01*
X0192317Y0168687D02*
X0194167Y0168687D01*
X0194167Y0167889D02*
X0192317Y0167889D01*
X0192317Y0167090D02*
X0194167Y0167090D01*
X0195544Y0171881D02*
X0190856Y0171881D01*
X0174367Y0165493D02*
X0172317Y0165493D01*
X0172317Y0164695D02*
X0174367Y0164695D01*
X0174367Y0163896D02*
X0172317Y0163896D01*
X0172317Y0163098D02*
X0174367Y0163098D01*
X0174423Y0162299D02*
X0172261Y0162299D01*
X0171930Y0161501D02*
X0174754Y0161501D01*
X0175244Y0160702D02*
X0171440Y0160702D01*
X0170642Y0159904D02*
X0176042Y0159904D01*
X0162556Y0149523D02*
X0089128Y0149523D01*
X0089926Y0150322D02*
X0161757Y0150322D01*
X0160959Y0151120D02*
X0090725Y0151120D01*
X0088595Y0153516D02*
X0069942Y0153516D01*
X0069942Y0154314D02*
X0089393Y0154314D01*
X0090192Y0155113D02*
X0069942Y0155113D01*
X0069942Y0155911D02*
X0090990Y0155911D01*
X0091789Y0156710D02*
X0069942Y0156710D01*
X0069942Y0157508D02*
X0092587Y0157508D01*
X0090642Y0159904D02*
X0096042Y0159904D01*
X0095244Y0160702D02*
X0091440Y0160702D01*
X0091930Y0161501D02*
X0094754Y0161501D01*
X0094423Y0162299D02*
X0092261Y0162299D01*
X0092317Y0163098D02*
X0094367Y0163098D01*
X0094367Y0163896D02*
X0092317Y0163896D01*
X0092317Y0164695D02*
X0094367Y0164695D01*
X0094367Y0165493D02*
X0092317Y0165493D01*
X0092317Y0166292D02*
X0094367Y0166292D01*
X0094367Y0167090D02*
X0092317Y0167090D01*
X0092317Y0167889D02*
X0094367Y0167889D01*
X0094367Y0168687D02*
X0092317Y0168687D01*
X0092317Y0169486D02*
X0094367Y0169486D01*
X0094665Y0170284D02*
X0092019Y0170284D01*
X0091655Y0171083D02*
X0095029Y0171083D01*
X0095827Y0171881D02*
X0090856Y0171881D01*
X0085827Y0171881D02*
X0080856Y0171881D01*
X0081655Y0171083D02*
X0085029Y0171083D01*
X0084665Y0170284D02*
X0082019Y0170284D01*
X0082317Y0169486D02*
X0084367Y0169486D01*
X0084367Y0168687D02*
X0082317Y0168687D01*
X0082317Y0167889D02*
X0084367Y0167889D01*
X0084367Y0167090D02*
X0082317Y0167090D01*
X0082317Y0166292D02*
X0084367Y0166292D01*
X0084367Y0165493D02*
X0082317Y0165493D01*
X0082317Y0164695D02*
X0084367Y0164695D01*
X0084367Y0163896D02*
X0082317Y0163896D01*
X0082317Y0163098D02*
X0084367Y0163098D01*
X0084423Y0162299D02*
X0082261Y0162299D01*
X0081930Y0161501D02*
X0084754Y0161501D01*
X0085244Y0160702D02*
X0081440Y0160702D01*
X0080642Y0159904D02*
X0086042Y0159904D01*
X0087796Y0152717D02*
X0069942Y0152717D01*
X0069942Y0151919D02*
X0086998Y0151919D01*
X0086199Y0151120D02*
X0069942Y0151120D01*
X0069942Y0150322D02*
X0085401Y0150322D01*
X0084602Y0149523D02*
X0069942Y0149523D01*
X0069942Y0148725D02*
X0083804Y0148725D01*
X0083005Y0147926D02*
X0069942Y0147926D01*
X0069942Y0147128D02*
X0082207Y0147128D01*
X0081408Y0146329D02*
X0069942Y0146329D01*
X0069942Y0145531D02*
X0078975Y0145531D01*
X0077644Y0144732D02*
X0069942Y0144732D01*
X0069942Y0143934D02*
X0076846Y0143934D01*
X0076422Y0143135D02*
X0069942Y0143135D01*
X0069942Y0142337D02*
X0076092Y0142337D01*
X0075942Y0141538D02*
X0069942Y0141538D01*
X0069942Y0140739D02*
X0075942Y0140739D01*
X0075977Y0139941D02*
X0069942Y0139941D01*
X0069942Y0139142D02*
X0076307Y0139142D01*
X0076638Y0138344D02*
X0069942Y0138344D01*
X0069942Y0137545D02*
X0077367Y0137545D01*
X0078305Y0136747D02*
X0069942Y0136747D01*
X0069942Y0135948D02*
X0130135Y0135948D01*
X0130442Y0135948D02*
X0131242Y0135948D01*
X0131242Y0135900D02*
X0131243Y0135900D01*
X0132036Y0136026D01*
X0132800Y0136274D01*
X0133515Y0136638D01*
X0134164Y0137110D01*
X0134732Y0137678D01*
X0135204Y0138327D01*
X0135568Y0139042D01*
X0135816Y0139806D01*
X0135942Y0140599D01*
X0135942Y0140600D01*
X0131242Y0140600D01*
X0131242Y0141400D01*
X0135942Y0141400D01*
X0135942Y0141401D01*
X0135816Y0142194D01*
X0135568Y0142958D01*
X0135204Y0143673D01*
X0134732Y0144322D01*
X0134164Y0144890D01*
X0133515Y0145362D01*
X0132800Y0145726D01*
X0132036Y0145974D01*
X0131243Y0146100D01*
X0131242Y0146100D01*
X0131242Y0141400D01*
X0130442Y0141400D01*
X0130442Y0146100D01*
X0130440Y0146100D01*
X0129648Y0145974D01*
X0128884Y0145726D01*
X0128169Y0145362D01*
X0127519Y0144890D01*
X0126952Y0144322D01*
X0126480Y0143673D01*
X0126115Y0142958D01*
X0125867Y0142194D01*
X0125742Y0141401D01*
X0125742Y0141400D01*
X0130442Y0141400D01*
X0130442Y0140600D01*
X0131242Y0140600D01*
X0131242Y0135900D01*
X0131549Y0135948D02*
X0143631Y0135948D01*
X0144429Y0135150D02*
X0069942Y0135150D01*
X0069942Y0134351D02*
X0145228Y0134351D01*
X0146026Y0133553D02*
X0069942Y0133553D01*
X0069942Y0132754D02*
X0146825Y0132754D01*
X0147623Y0131956D02*
X0069942Y0131956D01*
X0069942Y0131157D02*
X0148422Y0131157D01*
X0149220Y0130359D02*
X0069942Y0130359D01*
X0069942Y0129560D02*
X0150019Y0129560D01*
X0150842Y0131000D02*
X0140842Y0141000D01*
X0145376Y0139142D02*
X0163807Y0139142D01*
X0164138Y0138344D02*
X0145761Y0138344D01*
X0146559Y0137545D02*
X0164867Y0137545D01*
X0164188Y0138224D02*
X0165566Y0136846D01*
X0167367Y0136100D01*
X0169316Y0136100D01*
X0171117Y0136846D01*
X0172496Y0138224D01*
X0173242Y0140025D01*
X0173242Y0141975D01*
X0172496Y0143776D01*
X0171117Y0145154D01*
X0169316Y0145900D01*
X0167367Y0145900D01*
X0165566Y0145154D01*
X0164188Y0143776D01*
X0163442Y0141975D01*
X0163442Y0140025D01*
X0164188Y0138224D01*
X0163477Y0139941D02*
X0145707Y0139941D01*
X0145742Y0140739D02*
X0163442Y0140739D01*
X0163442Y0141538D02*
X0145742Y0141538D01*
X0145592Y0142337D02*
X0163592Y0142337D01*
X0163922Y0143135D02*
X0145261Y0143135D01*
X0144838Y0143934D02*
X0164346Y0143934D01*
X0165144Y0144732D02*
X0144039Y0144732D01*
X0142708Y0145531D02*
X0166475Y0145531D01*
X0170208Y0145531D02*
X0176475Y0145531D01*
X0177367Y0145900D02*
X0175566Y0145154D01*
X0174188Y0143776D01*
X0173442Y0141975D01*
X0173442Y0140025D01*
X0174188Y0138224D01*
X0175566Y0136846D01*
X0177367Y0136100D01*
X0179316Y0136100D01*
X0181117Y0136846D01*
X0182496Y0138224D01*
X0183242Y0140025D01*
X0183242Y0141975D01*
X0182496Y0143776D01*
X0181117Y0145154D01*
X0179316Y0145900D01*
X0177367Y0145900D01*
X0175144Y0144732D02*
X0171539Y0144732D01*
X0172338Y0143934D02*
X0174346Y0143934D01*
X0173922Y0143135D02*
X0172761Y0143135D01*
X0173092Y0142337D02*
X0173592Y0142337D01*
X0173442Y0141538D02*
X0173242Y0141538D01*
X0173242Y0140739D02*
X0173442Y0140739D01*
X0173477Y0139941D02*
X0173207Y0139941D01*
X0172876Y0139142D02*
X0173807Y0139142D01*
X0174138Y0138344D02*
X0172545Y0138344D01*
X0171817Y0137545D02*
X0174867Y0137545D01*
X0175805Y0136747D02*
X0170878Y0136747D01*
X0165805Y0136747D02*
X0147358Y0136747D01*
X0138305Y0136747D02*
X0133665Y0136747D01*
X0134600Y0137545D02*
X0137367Y0137545D01*
X0136638Y0138344D02*
X0135212Y0138344D01*
X0135601Y0139142D02*
X0136307Y0139142D01*
X0135977Y0139941D02*
X0135838Y0139941D01*
X0135942Y0140739D02*
X0131242Y0140739D01*
X0131242Y0139941D02*
X0130442Y0139941D01*
X0130442Y0140600D02*
X0130442Y0135900D01*
X0130440Y0135900D01*
X0129648Y0136026D01*
X0128884Y0136274D01*
X0128169Y0136638D01*
X0127519Y0137110D01*
X0126952Y0137678D01*
X0126480Y0138327D01*
X0126115Y0139042D01*
X0125867Y0139806D01*
X0125742Y0140599D01*
X0125742Y0140600D01*
X0130442Y0140600D01*
X0130442Y0140739D02*
X0125742Y0140739D01*
X0125742Y0140025D02*
X0124996Y0138224D01*
X0123617Y0136846D01*
X0121816Y0136100D01*
X0119867Y0136100D01*
X0118066Y0136846D01*
X0116688Y0138224D01*
X0115942Y0140025D01*
X0115942Y0141975D01*
X0116688Y0143776D01*
X0118066Y0145154D01*
X0119867Y0145900D01*
X0121816Y0145900D01*
X0123617Y0145154D01*
X0124996Y0143776D01*
X0125742Y0141975D01*
X0125742Y0140025D01*
X0125707Y0139941D02*
X0125846Y0139941D01*
X0126083Y0139142D02*
X0125376Y0139142D01*
X0125045Y0138344D02*
X0126471Y0138344D01*
X0127084Y0137545D02*
X0124317Y0137545D01*
X0123378Y0136747D02*
X0128019Y0136747D01*
X0130442Y0136747D02*
X0131242Y0136747D01*
X0131242Y0137545D02*
X0130442Y0137545D01*
X0130442Y0138344D02*
X0131242Y0138344D01*
X0131242Y0139142D02*
X0130442Y0139142D01*
X0130442Y0141538D02*
X0131242Y0141538D01*
X0131242Y0142337D02*
X0130442Y0142337D01*
X0130442Y0143135D02*
X0131242Y0143135D01*
X0131242Y0143934D02*
X0130442Y0143934D01*
X0130442Y0144732D02*
X0131242Y0144732D01*
X0131242Y0145531D02*
X0130442Y0145531D01*
X0128500Y0145531D02*
X0122708Y0145531D01*
X0124039Y0144732D02*
X0127361Y0144732D01*
X0126669Y0143934D02*
X0124838Y0143934D01*
X0125261Y0143135D02*
X0126206Y0143135D01*
X0125914Y0142337D02*
X0125592Y0142337D01*
X0125742Y0141538D02*
X0125763Y0141538D01*
X0118975Y0145531D02*
X0112708Y0145531D01*
X0111816Y0145900D02*
X0113617Y0145154D01*
X0114996Y0143776D01*
X0115742Y0141975D01*
X0115742Y0140025D01*
X0114996Y0138224D01*
X0113617Y0136846D01*
X0111816Y0136100D01*
X0109867Y0136100D01*
X0108066Y0136846D01*
X0106688Y0138224D01*
X0105942Y0140025D01*
X0105942Y0141975D01*
X0106688Y0143776D01*
X0108066Y0145154D01*
X0109867Y0145900D01*
X0111816Y0145900D01*
X0114039Y0144732D02*
X0117644Y0144732D01*
X0116846Y0143934D02*
X0114838Y0143934D01*
X0115261Y0143135D02*
X0116422Y0143135D01*
X0116092Y0142337D02*
X0115592Y0142337D01*
X0115742Y0141538D02*
X0115942Y0141538D01*
X0115942Y0140739D02*
X0115742Y0140739D01*
X0115707Y0139941D02*
X0115977Y0139941D01*
X0116307Y0139142D02*
X0115376Y0139142D01*
X0115045Y0138344D02*
X0116638Y0138344D01*
X0117367Y0137545D02*
X0114317Y0137545D01*
X0113378Y0136747D02*
X0118305Y0136747D01*
X0108305Y0136747D02*
X0103378Y0136747D01*
X0103617Y0136846D02*
X0104996Y0138224D01*
X0105742Y0140025D01*
X0105742Y0141975D01*
X0104996Y0143776D01*
X0103617Y0145154D01*
X0101816Y0145900D01*
X0099867Y0145900D01*
X0098066Y0145154D01*
X0096688Y0143776D01*
X0095942Y0141975D01*
X0095942Y0140025D01*
X0096688Y0138224D01*
X0098066Y0136846D01*
X0099867Y0136100D01*
X0101816Y0136100D01*
X0103617Y0136846D01*
X0104317Y0137545D02*
X0107367Y0137545D01*
X0106638Y0138344D02*
X0105045Y0138344D01*
X0105376Y0139142D02*
X0106307Y0139142D01*
X0105977Y0139941D02*
X0105707Y0139941D01*
X0105742Y0140739D02*
X0105942Y0140739D01*
X0105942Y0141538D02*
X0105742Y0141538D01*
X0105592Y0142337D02*
X0106092Y0142337D01*
X0106422Y0143135D02*
X0105261Y0143135D01*
X0104838Y0143934D02*
X0106846Y0143934D01*
X0107644Y0144732D02*
X0104039Y0144732D01*
X0102708Y0145531D02*
X0108975Y0145531D01*
X0098975Y0145531D02*
X0092708Y0145531D01*
X0094039Y0144732D02*
X0097644Y0144732D01*
X0096846Y0143934D02*
X0094838Y0143934D01*
X0095261Y0143135D02*
X0096422Y0143135D01*
X0096092Y0142337D02*
X0095592Y0142337D01*
X0095742Y0141538D02*
X0095942Y0141538D01*
X0095942Y0140739D02*
X0095742Y0140739D01*
X0095707Y0139941D02*
X0095977Y0139941D01*
X0096307Y0139142D02*
X0095376Y0139142D01*
X0095045Y0138344D02*
X0096638Y0138344D01*
X0097367Y0137545D02*
X0094317Y0137545D01*
X0093378Y0136747D02*
X0098305Y0136747D01*
X0088305Y0136747D02*
X0083378Y0136747D01*
X0085934Y0146329D02*
X0190750Y0146329D01*
X0186475Y0145531D02*
X0180208Y0145531D01*
X0181539Y0144732D02*
X0185144Y0144732D01*
X0184346Y0143934D02*
X0182338Y0143934D01*
X0182761Y0143135D02*
X0183922Y0143135D01*
X0183592Y0142337D02*
X0183092Y0142337D01*
X0183242Y0141538D02*
X0183442Y0141538D01*
X0183442Y0140739D02*
X0183242Y0140739D01*
X0183207Y0139941D02*
X0183477Y0139941D01*
X0183807Y0139142D02*
X0182876Y0139142D01*
X0182545Y0138344D02*
X0184138Y0138344D01*
X0184867Y0137545D02*
X0181817Y0137545D01*
X0180878Y0136747D02*
X0185805Y0136747D01*
X0216492Y0155113D02*
X0250192Y0155113D01*
X0249393Y0154314D02*
X0217290Y0154314D01*
X0218089Y0153516D02*
X0248595Y0153516D01*
X0247796Y0152717D02*
X0218887Y0152717D01*
X0219686Y0151919D02*
X0246998Y0151919D01*
X0246199Y0151120D02*
X0220484Y0151120D01*
X0221283Y0150322D02*
X0245401Y0150322D01*
X0244602Y0149523D02*
X0222081Y0149523D01*
X0222880Y0148725D02*
X0243804Y0148725D01*
X0243005Y0147926D02*
X0223678Y0147926D01*
X0224477Y0147128D02*
X0242207Y0147128D01*
X0241408Y0146329D02*
X0225275Y0146329D01*
X0226074Y0145531D02*
X0226475Y0145531D01*
X0230208Y0145531D02*
X0240610Y0145531D01*
X0239811Y0144732D02*
X0231539Y0144732D01*
X0232338Y0143934D02*
X0239013Y0143934D01*
X0238214Y0143135D02*
X0232761Y0143135D01*
X0255542Y0128762D02*
X0069942Y0128762D01*
X0069942Y0127963D02*
X0255542Y0127963D01*
X0255542Y0127165D02*
X0069942Y0127165D01*
X0069942Y0126366D02*
X0255542Y0126366D01*
X0255542Y0125568D02*
X0069942Y0125568D01*
X0069374Y0124769D02*
X0255542Y0124769D01*
X0255542Y0123971D02*
X0068575Y0123971D01*
X0067777Y0123172D02*
X0255542Y0123172D01*
X0255542Y0122374D02*
X0066978Y0122374D01*
X0066180Y0121575D02*
X0255542Y0121575D01*
X0255542Y0120777D02*
X0065381Y0120777D01*
X0064583Y0119978D02*
X0255542Y0119978D01*
X0255542Y0119180D02*
X0062892Y0119180D01*
X0062561Y0118381D02*
X0255542Y0118381D01*
X0255542Y0117583D02*
X0061854Y0117583D01*
X0060968Y0116784D02*
X0255542Y0116784D01*
X0255542Y0115986D02*
X0059465Y0115986D01*
X0059536Y0115974D02*
X0058743Y0116100D01*
X0058742Y0116100D01*
X0058742Y0111400D01*
X0063442Y0111400D01*
X0063442Y0111401D01*
X0063316Y0112194D01*
X0063068Y0112958D01*
X0062704Y0113673D01*
X0062232Y0114322D01*
X0061664Y0114890D01*
X0061015Y0115362D01*
X0060300Y0115726D01*
X0059536Y0115974D01*
X0058742Y0115986D02*
X0057942Y0115986D01*
X0057940Y0116100D02*
X0057148Y0115974D01*
X0056384Y0115726D01*
X0055669Y0115362D01*
X0055019Y0114890D01*
X0054452Y0114322D01*
X0053980Y0113673D01*
X0053615Y0112958D01*
X0053367Y0112194D01*
X0053242Y0111401D01*
X0053242Y0111400D01*
X0057942Y0111400D01*
X0057942Y0116100D01*
X0057940Y0116100D01*
X0057218Y0115986D02*
X0046142Y0115986D01*
X0046142Y0116784D02*
X0055715Y0116784D01*
X0054830Y0117583D02*
X0046142Y0117583D01*
X0046142Y0118381D02*
X0054123Y0118381D01*
X0053792Y0119180D02*
X0046142Y0119180D01*
X0046142Y0119978D02*
X0053461Y0119978D01*
X0053442Y0120777D02*
X0046142Y0120777D01*
X0046142Y0121575D02*
X0053442Y0121575D01*
X0053607Y0122374D02*
X0046142Y0122374D01*
X0046142Y0123172D02*
X0053938Y0123172D01*
X0054383Y0123971D02*
X0046142Y0123971D01*
X0046142Y0124769D02*
X0055181Y0124769D01*
X0056565Y0125568D02*
X0046142Y0125568D01*
X0046142Y0126366D02*
X0056724Y0126366D01*
X0057367Y0126100D02*
X0059316Y0126100D01*
X0061117Y0126846D01*
X0062496Y0128224D01*
X0063242Y0130025D01*
X0063242Y0131975D01*
X0062496Y0133776D01*
X0061117Y0135154D01*
X0059316Y0135900D01*
X0057367Y0135900D01*
X0055566Y0135154D01*
X0054188Y0133776D01*
X0053442Y0131975D01*
X0053442Y0130025D01*
X0054188Y0128224D01*
X0055566Y0126846D01*
X0057367Y0126100D01*
X0055247Y0127165D02*
X0046142Y0127165D01*
X0046142Y0127963D02*
X0054449Y0127963D01*
X0053965Y0128762D02*
X0046142Y0128762D01*
X0046142Y0129560D02*
X0053634Y0129560D01*
X0053442Y0130359D02*
X0046142Y0130359D01*
X0046142Y0131157D02*
X0053442Y0131157D01*
X0053442Y0131956D02*
X0046142Y0131956D01*
X0046142Y0132754D02*
X0053765Y0132754D01*
X0054096Y0133553D02*
X0046142Y0133553D01*
X0046142Y0134351D02*
X0054764Y0134351D01*
X0055562Y0135150D02*
X0046142Y0135150D01*
X0046142Y0135948D02*
X0066742Y0135948D01*
X0066742Y0135150D02*
X0061122Y0135150D01*
X0061920Y0134351D02*
X0066742Y0134351D01*
X0066742Y0133553D02*
X0062588Y0133553D01*
X0062919Y0132754D02*
X0066742Y0132754D01*
X0066742Y0131956D02*
X0063242Y0131956D01*
X0063242Y0131157D02*
X0066742Y0131157D01*
X0066742Y0130359D02*
X0063242Y0130359D01*
X0063049Y0129560D02*
X0066742Y0129560D01*
X0066742Y0128762D02*
X0062718Y0128762D01*
X0062235Y0127963D02*
X0066742Y0127963D01*
X0066742Y0127165D02*
X0061436Y0127165D01*
X0059959Y0126366D02*
X0066445Y0126366D01*
X0065647Y0125568D02*
X0060119Y0125568D01*
X0061502Y0124769D02*
X0064848Y0124769D01*
X0064050Y0123971D02*
X0062301Y0123971D01*
X0062746Y0123172D02*
X0063251Y0123172D01*
X0063342Y0121000D02*
X0068342Y0126000D01*
X0068342Y0166000D01*
X0072317Y0166292D02*
X0074367Y0166292D01*
X0074367Y0167090D02*
X0072317Y0167090D01*
X0072317Y0167889D02*
X0074367Y0167889D01*
X0074367Y0168687D02*
X0072317Y0168687D01*
X0072317Y0169486D02*
X0074367Y0169486D01*
X0074665Y0170284D02*
X0072019Y0170284D01*
X0071655Y0171083D02*
X0075029Y0171083D01*
X0075827Y0171881D02*
X0070856Y0171881D01*
X0065827Y0171881D02*
X0046142Y0171881D01*
X0046142Y0171083D02*
X0055849Y0171083D01*
X0055141Y0170790D02*
X0053552Y0169200D01*
X0052692Y0167124D01*
X0052692Y0164876D01*
X0053552Y0162800D01*
X0055141Y0161210D01*
X0057218Y0160350D01*
X0059466Y0160350D01*
X0061542Y0161210D01*
X0063132Y0162800D01*
X0063992Y0164876D01*
X0063992Y0167124D01*
X0063132Y0169200D01*
X0061542Y0170790D01*
X0059466Y0171650D01*
X0057218Y0171650D01*
X0055141Y0170790D01*
X0054636Y0170284D02*
X0046142Y0170284D01*
X0046142Y0169486D02*
X0053837Y0169486D01*
X0053339Y0168687D02*
X0046142Y0168687D01*
X0046142Y0167889D02*
X0053009Y0167889D01*
X0052692Y0167090D02*
X0046142Y0167090D01*
X0046142Y0166292D02*
X0052692Y0166292D01*
X0052692Y0165493D02*
X0046142Y0165493D01*
X0046142Y0164695D02*
X0052767Y0164695D01*
X0053098Y0163896D02*
X0046142Y0163896D01*
X0046142Y0163098D02*
X0053428Y0163098D01*
X0054052Y0162299D02*
X0046142Y0162299D01*
X0046142Y0161501D02*
X0054851Y0161501D01*
X0056367Y0160702D02*
X0046142Y0160702D01*
X0046142Y0159904D02*
X0066042Y0159904D01*
X0066742Y0159105D02*
X0046142Y0159105D01*
X0046142Y0158307D02*
X0066742Y0158307D01*
X0066742Y0157508D02*
X0046142Y0157508D01*
X0046142Y0156710D02*
X0066742Y0156710D01*
X0066742Y0155911D02*
X0046142Y0155911D01*
X0046142Y0155113D02*
X0066742Y0155113D01*
X0066742Y0154314D02*
X0046142Y0154314D01*
X0046142Y0153516D02*
X0066742Y0153516D01*
X0066742Y0152717D02*
X0046142Y0152717D01*
X0046142Y0151919D02*
X0066742Y0151919D01*
X0066742Y0151120D02*
X0046142Y0151120D01*
X0046142Y0150322D02*
X0066742Y0150322D01*
X0066742Y0149523D02*
X0046142Y0149523D01*
X0046142Y0148725D02*
X0066742Y0148725D01*
X0066742Y0147926D02*
X0046142Y0147926D01*
X0046142Y0147128D02*
X0066742Y0147128D01*
X0066742Y0146329D02*
X0046142Y0146329D01*
X0046142Y0145531D02*
X0056475Y0145531D01*
X0057367Y0145900D02*
X0055566Y0145154D01*
X0054188Y0143776D01*
X0053442Y0141975D01*
X0053442Y0140025D01*
X0054188Y0138224D01*
X0055566Y0136846D01*
X0057367Y0136100D01*
X0059316Y0136100D01*
X0061117Y0136846D01*
X0062496Y0138224D01*
X0063242Y0140025D01*
X0063242Y0141975D01*
X0062496Y0143776D01*
X0061117Y0145154D01*
X0059316Y0145900D01*
X0057367Y0145900D01*
X0055144Y0144732D02*
X0046142Y0144732D01*
X0046142Y0143934D02*
X0054346Y0143934D01*
X0053922Y0143135D02*
X0046142Y0143135D01*
X0046142Y0142337D02*
X0053592Y0142337D01*
X0053442Y0141538D02*
X0046142Y0141538D01*
X0046142Y0140739D02*
X0053442Y0140739D01*
X0053477Y0139941D02*
X0046142Y0139941D01*
X0046142Y0139142D02*
X0053807Y0139142D01*
X0054138Y0138344D02*
X0046142Y0138344D01*
X0046142Y0137545D02*
X0054867Y0137545D01*
X0055805Y0136747D02*
X0046142Y0136747D01*
X0060878Y0136747D02*
X0066742Y0136747D01*
X0066742Y0137545D02*
X0061817Y0137545D01*
X0062545Y0138344D02*
X0066742Y0138344D01*
X0066742Y0139142D02*
X0062876Y0139142D01*
X0063207Y0139941D02*
X0066742Y0139941D01*
X0066742Y0140739D02*
X0063242Y0140739D01*
X0063242Y0141538D02*
X0066742Y0141538D01*
X0066742Y0142337D02*
X0063092Y0142337D01*
X0062761Y0143135D02*
X0066742Y0143135D01*
X0066742Y0143934D02*
X0062338Y0143934D01*
X0061539Y0144732D02*
X0066742Y0144732D01*
X0066742Y0145531D02*
X0060208Y0145531D01*
X0060316Y0160702D02*
X0065244Y0160702D01*
X0064754Y0161501D02*
X0061833Y0161501D01*
X0062631Y0162299D02*
X0064423Y0162299D01*
X0064367Y0163098D02*
X0063255Y0163098D01*
X0063586Y0163896D02*
X0064367Y0163896D01*
X0064367Y0164695D02*
X0063917Y0164695D01*
X0063992Y0165493D02*
X0064367Y0165493D01*
X0064367Y0166292D02*
X0063992Y0166292D01*
X0063992Y0167090D02*
X0064367Y0167090D01*
X0064367Y0167889D02*
X0063675Y0167889D01*
X0063344Y0168687D02*
X0064367Y0168687D01*
X0064367Y0169486D02*
X0062846Y0169486D01*
X0062048Y0170284D02*
X0064665Y0170284D01*
X0065029Y0171083D02*
X0060835Y0171083D01*
X0072317Y0165493D02*
X0074367Y0165493D01*
X0074367Y0164695D02*
X0072317Y0164695D01*
X0072317Y0163896D02*
X0074367Y0163896D01*
X0074367Y0163098D02*
X0072317Y0163098D01*
X0072261Y0162299D02*
X0074423Y0162299D01*
X0074754Y0161501D02*
X0071930Y0161501D01*
X0071440Y0160702D02*
X0075244Y0160702D01*
X0076042Y0159904D02*
X0070642Y0159904D01*
X0100642Y0159904D02*
X0106042Y0159904D01*
X0105244Y0160702D02*
X0101440Y0160702D01*
X0101930Y0161501D02*
X0104754Y0161501D01*
X0104423Y0162299D02*
X0102261Y0162299D01*
X0102317Y0163098D02*
X0104367Y0163098D01*
X0104367Y0163896D02*
X0102317Y0163896D01*
X0102317Y0164695D02*
X0104367Y0164695D01*
X0104367Y0165493D02*
X0102317Y0165493D01*
X0102317Y0166292D02*
X0104367Y0166292D01*
X0104367Y0167090D02*
X0102317Y0167090D01*
X0102317Y0167889D02*
X0104367Y0167889D01*
X0104367Y0168687D02*
X0102317Y0168687D01*
X0102317Y0169486D02*
X0104367Y0169486D01*
X0104665Y0170284D02*
X0102019Y0170284D01*
X0101655Y0171083D02*
X0105029Y0171083D01*
X0105827Y0171881D02*
X0100856Y0171881D01*
X0110856Y0171881D02*
X0115827Y0171881D01*
X0115029Y0171083D02*
X0111655Y0171083D01*
X0112019Y0170284D02*
X0114665Y0170284D01*
X0114367Y0169486D02*
X0112317Y0169486D01*
X0112317Y0168687D02*
X0114367Y0168687D01*
X0114367Y0167889D02*
X0112317Y0167889D01*
X0112317Y0167090D02*
X0114367Y0167090D01*
X0114367Y0166292D02*
X0112317Y0166292D01*
X0112317Y0165493D02*
X0114367Y0165493D01*
X0114367Y0164695D02*
X0112317Y0164695D01*
X0112317Y0163896D02*
X0114367Y0163896D01*
X0114367Y0163098D02*
X0112317Y0163098D01*
X0112261Y0162299D02*
X0114423Y0162299D01*
X0114754Y0161501D02*
X0111930Y0161501D01*
X0111440Y0160702D02*
X0115244Y0160702D01*
X0116042Y0159904D02*
X0110642Y0159904D01*
X0120642Y0159904D02*
X0126042Y0159904D01*
X0125244Y0160702D02*
X0121440Y0160702D01*
X0121930Y0161501D02*
X0124754Y0161501D01*
X0124423Y0162299D02*
X0122261Y0162299D01*
X0122317Y0163098D02*
X0124367Y0163098D01*
X0124367Y0163896D02*
X0122317Y0163896D01*
X0122317Y0164695D02*
X0124367Y0164695D01*
X0124367Y0165493D02*
X0122317Y0165493D01*
X0122317Y0166292D02*
X0124367Y0166292D01*
X0124367Y0167090D02*
X0122317Y0167090D01*
X0122317Y0167889D02*
X0124367Y0167889D01*
X0124367Y0168687D02*
X0122317Y0168687D01*
X0122317Y0169486D02*
X0124367Y0169486D01*
X0124665Y0170284D02*
X0122019Y0170284D01*
X0121655Y0171083D02*
X0125029Y0171083D01*
X0125827Y0171881D02*
X0120856Y0171881D01*
X0130856Y0171881D02*
X0135827Y0171881D01*
X0135029Y0171083D02*
X0131655Y0171083D01*
X0132019Y0170284D02*
X0134665Y0170284D01*
X0134367Y0169486D02*
X0132317Y0169486D01*
X0132317Y0168687D02*
X0134367Y0168687D01*
X0134367Y0167889D02*
X0132317Y0167889D01*
X0132317Y0167090D02*
X0134367Y0167090D01*
X0134367Y0166292D02*
X0132317Y0166292D01*
X0132317Y0165493D02*
X0134367Y0165493D01*
X0134367Y0164695D02*
X0132317Y0164695D01*
X0132317Y0163896D02*
X0134367Y0163896D01*
X0134367Y0163098D02*
X0132317Y0163098D01*
X0132261Y0162299D02*
X0134423Y0162299D01*
X0134754Y0161501D02*
X0131930Y0161501D01*
X0131440Y0160702D02*
X0135244Y0160702D01*
X0136042Y0159904D02*
X0130642Y0159904D01*
X0133184Y0145531D02*
X0138975Y0145531D01*
X0137644Y0144732D02*
X0134322Y0144732D01*
X0135014Y0143934D02*
X0136846Y0143934D01*
X0136422Y0143135D02*
X0135478Y0143135D01*
X0135770Y0142337D02*
X0136092Y0142337D01*
X0135942Y0141538D02*
X0135920Y0141538D01*
X0139213Y0104291D02*
X0135766Y0103929D01*
X0132763Y0102196D01*
X0130726Y0099391D01*
X0130005Y0096000D01*
X0130726Y0092609D01*
X0132763Y0089804D01*
X0135766Y0088071D01*
X0139213Y0087709D01*
X0142510Y0088780D01*
X0145087Y0091100D01*
X0146497Y0094267D01*
X0146497Y0097733D01*
X0145087Y0100900D01*
X0142510Y0103220D01*
X0139213Y0104291D01*
X0140085Y0104008D02*
X0255542Y0104008D01*
X0255542Y0104806D02*
X0046142Y0104806D01*
X0046142Y0104008D02*
X0081517Y0104008D01*
X0080766Y0103929D02*
X0077763Y0102196D01*
X0075726Y0099391D01*
X0075005Y0096000D01*
X0075726Y0092609D01*
X0077763Y0089804D01*
X0080766Y0088071D01*
X0084213Y0087709D01*
X0087510Y0088780D01*
X0090087Y0091100D01*
X0091497Y0094267D01*
X0091497Y0097733D01*
X0090087Y0100900D01*
X0087510Y0103220D01*
X0084213Y0104291D01*
X0080766Y0103929D01*
X0079519Y0103209D02*
X0046142Y0103209D01*
X0046142Y0102411D02*
X0078136Y0102411D01*
X0077340Y0101612D02*
X0046142Y0101612D01*
X0046142Y0100814D02*
X0076759Y0100814D01*
X0076179Y0100015D02*
X0046142Y0100015D01*
X0046142Y0099217D02*
X0075689Y0099217D01*
X0075519Y0098418D02*
X0046142Y0098418D01*
X0046142Y0097620D02*
X0075349Y0097620D01*
X0075179Y0096821D02*
X0046142Y0096821D01*
X0046142Y0096023D02*
X0075010Y0096023D01*
X0075170Y0095224D02*
X0046142Y0095224D01*
X0046142Y0094426D02*
X0075339Y0094426D01*
X0075509Y0093627D02*
X0046142Y0093627D01*
X0046142Y0092829D02*
X0075679Y0092829D01*
X0076146Y0092030D02*
X0046142Y0092030D01*
X0046142Y0091232D02*
X0076726Y0091232D01*
X0077306Y0090433D02*
X0046142Y0090433D01*
X0046142Y0089635D02*
X0078057Y0089635D01*
X0079440Y0088836D02*
X0046142Y0088836D01*
X0046142Y0088038D02*
X0081082Y0088038D01*
X0085226Y0088038D02*
X0136082Y0088038D01*
X0134440Y0088836D02*
X0087573Y0088836D01*
X0088460Y0089635D02*
X0133057Y0089635D01*
X0132306Y0090433D02*
X0089347Y0090433D01*
X0090145Y0091232D02*
X0131726Y0091232D01*
X0131146Y0092030D02*
X0090501Y0092030D01*
X0090856Y0092829D02*
X0130679Y0092829D01*
X0130509Y0093627D02*
X0091212Y0093627D01*
X0091497Y0094426D02*
X0130339Y0094426D01*
X0130170Y0095224D02*
X0091497Y0095224D01*
X0091497Y0096023D02*
X0130010Y0096023D01*
X0130179Y0096821D02*
X0091497Y0096821D01*
X0091497Y0097620D02*
X0130349Y0097620D01*
X0130519Y0098418D02*
X0091192Y0098418D01*
X0090836Y0099217D02*
X0130689Y0099217D01*
X0131179Y0100015D02*
X0090481Y0100015D01*
X0090125Y0100814D02*
X0131759Y0100814D01*
X0132340Y0101612D02*
X0089296Y0101612D01*
X0088409Y0102411D02*
X0133136Y0102411D01*
X0134519Y0103209D02*
X0087522Y0103209D01*
X0085085Y0104008D02*
X0136517Y0104008D01*
X0142522Y0103209D02*
X0255542Y0103209D01*
X0255542Y0102411D02*
X0143409Y0102411D01*
X0144296Y0101612D02*
X0255542Y0101612D01*
X0255542Y0100814D02*
X0145125Y0100814D01*
X0145481Y0100015D02*
X0255542Y0100015D01*
X0255542Y0099217D02*
X0145836Y0099217D01*
X0146192Y0098418D02*
X0255542Y0098418D01*
X0255542Y0097620D02*
X0146497Y0097620D01*
X0146497Y0096821D02*
X0255542Y0096821D01*
X0255542Y0096023D02*
X0146497Y0096023D01*
X0146497Y0095224D02*
X0255542Y0095224D01*
X0255542Y0094426D02*
X0146497Y0094426D01*
X0146212Y0093627D02*
X0170243Y0093627D01*
X0170766Y0093929D02*
X0169505Y0093201D01*
X0168741Y0092885D01*
X0168447Y0092590D01*
X0167763Y0092196D01*
X0166996Y0091139D01*
X0166457Y0090600D01*
X0166262Y0090129D01*
X0165726Y0089391D01*
X0165483Y0088248D01*
X0165221Y0087615D01*
X0165221Y0087015D01*
X0165005Y0086000D01*
X0165221Y0084985D01*
X0165221Y0084385D01*
X0165483Y0083752D01*
X0165726Y0082609D01*
X0166262Y0081871D01*
X0166457Y0081400D01*
X0166996Y0080861D01*
X0167763Y0079804D01*
X0168447Y0079410D01*
X0168741Y0079115D01*
X0169505Y0078799D01*
X0170766Y0078071D01*
X0171431Y0078001D01*
X0171726Y0077879D01*
X0172595Y0077879D01*
X0174213Y0077709D01*
X0174737Y0077879D01*
X0174957Y0077879D01*
X0175760Y0078211D01*
X0177510Y0078780D01*
X0177832Y0079069D01*
X0177942Y0079115D01*
X0178481Y0079654D01*
X0180087Y0081100D01*
X0180215Y0081388D01*
X0180227Y0081400D01*
X0180314Y0081609D01*
X0181497Y0084267D01*
X0181497Y0087733D01*
X0180314Y0090391D01*
X0180227Y0090600D01*
X0180215Y0090612D01*
X0180087Y0090900D01*
X0178481Y0092346D01*
X0177942Y0092885D01*
X0177832Y0092931D01*
X0177510Y0093220D01*
X0175760Y0093789D01*
X0174957Y0094121D01*
X0174737Y0094121D01*
X0174213Y0094291D01*
X0172595Y0094121D01*
X0171726Y0094121D01*
X0171431Y0093999D01*
X0170766Y0093929D01*
X0168685Y0092829D02*
X0145856Y0092829D01*
X0145501Y0092030D02*
X0167643Y0092030D01*
X0167063Y0091232D02*
X0145145Y0091232D01*
X0144347Y0090433D02*
X0166388Y0090433D01*
X0165903Y0089635D02*
X0143460Y0089635D01*
X0142573Y0088836D02*
X0165608Y0088836D01*
X0165395Y0088038D02*
X0140226Y0088038D01*
X0165098Y0086441D02*
X0046142Y0086441D01*
X0046142Y0087239D02*
X0165221Y0087239D01*
X0165081Y0085642D02*
X0046142Y0085642D01*
X0046142Y0084844D02*
X0165221Y0084844D01*
X0165361Y0084045D02*
X0046142Y0084045D01*
X0046142Y0083247D02*
X0165590Y0083247D01*
X0165842Y0082448D02*
X0046142Y0082448D01*
X0046142Y0081650D02*
X0166353Y0081650D01*
X0167003Y0080851D02*
X0046142Y0080851D01*
X0046142Y0080053D02*
X0167583Y0080053D01*
X0168602Y0079254D02*
X0046142Y0079254D01*
X0046142Y0078456D02*
X0170099Y0078456D01*
X0176512Y0078456D02*
X0220099Y0078456D01*
X0219505Y0078799D02*
X0220766Y0078071D01*
X0221431Y0078001D01*
X0221726Y0077879D01*
X0222595Y0077879D01*
X0224213Y0077709D01*
X0224737Y0077879D01*
X0224957Y0077879D01*
X0225760Y0078211D01*
X0227510Y0078780D01*
X0227832Y0079069D01*
X0227942Y0079115D01*
X0228481Y0079654D01*
X0230087Y0081100D01*
X0230215Y0081388D01*
X0230227Y0081400D01*
X0230314Y0081609D01*
X0231497Y0084267D01*
X0231497Y0087733D01*
X0230314Y0090391D01*
X0230227Y0090600D01*
X0230215Y0090612D01*
X0230087Y0090900D01*
X0228481Y0092346D01*
X0227942Y0092885D01*
X0227832Y0092931D01*
X0227510Y0093220D01*
X0225760Y0093789D01*
X0224957Y0094121D01*
X0224737Y0094121D01*
X0224213Y0094291D01*
X0222595Y0094121D01*
X0221726Y0094121D01*
X0221431Y0093999D01*
X0220766Y0093929D01*
X0219505Y0093201D01*
X0218741Y0092885D01*
X0218447Y0092590D01*
X0217763Y0092196D01*
X0216996Y0091139D01*
X0216457Y0090600D01*
X0216262Y0090129D01*
X0215726Y0089391D01*
X0215483Y0088248D01*
X0215221Y0087615D01*
X0215221Y0087015D01*
X0215005Y0086000D01*
X0215221Y0084985D01*
X0215221Y0084385D01*
X0215483Y0083752D01*
X0215726Y0082609D01*
X0216262Y0081871D01*
X0216457Y0081400D01*
X0216996Y0080861D01*
X0217763Y0079804D01*
X0218447Y0079410D01*
X0218741Y0079115D01*
X0219505Y0078799D01*
X0218602Y0079254D02*
X0178081Y0079254D01*
X0178924Y0080053D02*
X0217583Y0080053D01*
X0217003Y0080851D02*
X0179811Y0080851D01*
X0180331Y0081650D02*
X0216353Y0081650D01*
X0215842Y0082448D02*
X0180687Y0082448D01*
X0181042Y0083247D02*
X0215590Y0083247D01*
X0215361Y0084045D02*
X0181398Y0084045D01*
X0181497Y0084844D02*
X0215221Y0084844D01*
X0215081Y0085642D02*
X0181497Y0085642D01*
X0181497Y0086441D02*
X0215098Y0086441D01*
X0215221Y0087239D02*
X0181497Y0087239D01*
X0181361Y0088038D02*
X0215395Y0088038D01*
X0215608Y0088836D02*
X0181006Y0088836D01*
X0180650Y0089635D02*
X0215903Y0089635D01*
X0216388Y0090433D02*
X0180296Y0090433D01*
X0179719Y0091232D02*
X0217063Y0091232D01*
X0217643Y0092030D02*
X0178832Y0092030D01*
X0177998Y0092829D02*
X0218685Y0092829D01*
X0220243Y0093627D02*
X0176257Y0093627D01*
X0226257Y0093627D02*
X0255542Y0093627D01*
X0255542Y0092829D02*
X0227998Y0092829D01*
X0228832Y0092030D02*
X0255542Y0092030D01*
X0255542Y0091232D02*
X0229719Y0091232D01*
X0230296Y0090433D02*
X0255542Y0090433D01*
X0255542Y0089635D02*
X0230650Y0089635D01*
X0231006Y0088836D02*
X0255542Y0088836D01*
X0255542Y0088038D02*
X0231361Y0088038D01*
X0231497Y0087239D02*
X0255542Y0087239D01*
X0255542Y0086441D02*
X0231497Y0086441D01*
X0231497Y0085642D02*
X0255542Y0085642D01*
X0255542Y0084844D02*
X0231497Y0084844D01*
X0231398Y0084045D02*
X0255542Y0084045D01*
X0255542Y0083247D02*
X0231042Y0083247D01*
X0230687Y0082448D02*
X0255542Y0082448D01*
X0255542Y0081650D02*
X0230331Y0081650D01*
X0229811Y0080851D02*
X0255542Y0080851D01*
X0255542Y0080053D02*
X0228924Y0080053D01*
X0228081Y0079254D02*
X0255542Y0079254D01*
X0255542Y0078456D02*
X0226512Y0078456D01*
X0255542Y0077657D02*
X0046142Y0077657D01*
X0046142Y0076859D02*
X0255542Y0076859D01*
X0255542Y0076060D02*
X0046142Y0076060D01*
X0046142Y0075262D02*
X0255542Y0075262D01*
X0255542Y0074463D02*
X0046142Y0074463D01*
X0046142Y0073665D02*
X0255542Y0073665D01*
X0255542Y0072866D02*
X0046142Y0072866D01*
X0046142Y0072068D02*
X0255542Y0072068D01*
X0255542Y0071269D02*
X0046142Y0071269D01*
X0046142Y0070470D02*
X0255542Y0070470D01*
X0255542Y0069672D02*
X0046142Y0069672D01*
X0046142Y0068873D02*
X0255542Y0068873D01*
X0255542Y0105605D02*
X0046142Y0105605D01*
X0046142Y0106403D02*
X0056129Y0106403D01*
X0056384Y0106274D02*
X0057148Y0106026D01*
X0057940Y0105900D01*
X0057942Y0105900D01*
X0057942Y0110600D01*
X0058742Y0110600D01*
X0058742Y0111400D01*
X0057942Y0111400D01*
X0057942Y0110600D01*
X0053242Y0110600D01*
X0053242Y0110599D01*
X0053367Y0109806D01*
X0053615Y0109042D01*
X0053980Y0108327D01*
X0054452Y0107678D01*
X0055019Y0107110D01*
X0055669Y0106638D01*
X0056384Y0106274D01*
X0057942Y0106403D02*
X0058742Y0106403D01*
X0058743Y0105900D02*
X0059536Y0106026D01*
X0060300Y0106274D01*
X0061015Y0106638D01*
X0061664Y0107110D01*
X0062232Y0107678D01*
X0062704Y0108327D01*
X0063068Y0109042D01*
X0063316Y0109806D01*
X0063442Y0110599D01*
X0063442Y0110600D01*
X0058742Y0110600D01*
X0058742Y0105900D01*
X0058743Y0105900D01*
X0058742Y0107202D02*
X0057942Y0107202D01*
X0057942Y0108001D02*
X0058742Y0108001D01*
X0058742Y0108799D02*
X0057942Y0108799D01*
X0057942Y0109598D02*
X0058742Y0109598D01*
X0058742Y0110396D02*
X0057942Y0110396D01*
X0057942Y0111195D02*
X0046142Y0111195D01*
X0046142Y0111993D02*
X0053336Y0111993D01*
X0053561Y0112792D02*
X0046142Y0112792D01*
X0046142Y0113590D02*
X0053938Y0113590D01*
X0054518Y0114389D02*
X0046142Y0114389D01*
X0046142Y0115187D02*
X0055428Y0115187D01*
X0057942Y0115187D02*
X0058742Y0115187D01*
X0058742Y0114389D02*
X0057942Y0114389D01*
X0057942Y0113590D02*
X0058742Y0113590D01*
X0058742Y0112792D02*
X0057942Y0112792D01*
X0057942Y0111993D02*
X0058742Y0111993D01*
X0058742Y0111195D02*
X0255542Y0111195D01*
X0255542Y0111993D02*
X0063348Y0111993D01*
X0063122Y0112792D02*
X0255542Y0112792D01*
X0255542Y0113590D02*
X0062746Y0113590D01*
X0062166Y0114389D02*
X0255542Y0114389D01*
X0255542Y0115187D02*
X0061255Y0115187D01*
X0063410Y0110396D02*
X0255542Y0110396D01*
X0255542Y0109598D02*
X0063249Y0109598D01*
X0062944Y0108799D02*
X0255542Y0108799D01*
X0255542Y0108001D02*
X0062466Y0108001D01*
X0061756Y0107202D02*
X0255542Y0107202D01*
X0255542Y0106403D02*
X0060554Y0106403D01*
X0054927Y0107202D02*
X0046142Y0107202D01*
X0046142Y0108001D02*
X0054217Y0108001D01*
X0053739Y0108799D02*
X0046142Y0108799D01*
X0046142Y0109598D02*
X0053435Y0109598D01*
X0053274Y0110396D02*
X0046142Y0110396D01*
X0058342Y0121000D02*
X0063342Y0121000D01*
X0172942Y0251733D02*
X0173742Y0251733D01*
X0173742Y0252531D02*
X0172942Y0252531D01*
X0172942Y0253330D02*
X0173742Y0253330D01*
X0173742Y0254128D02*
X0172942Y0254128D01*
X0195844Y0251733D02*
X0200840Y0251733D01*
X0199881Y0252531D02*
X0196803Y0252531D01*
X0197539Y0253330D02*
X0199144Y0253330D01*
X0201088Y0260516D02*
X0201441Y0260516D01*
X0248209Y0187053D02*
X0250026Y0187053D01*
X0250824Y0186255D02*
X0248242Y0186255D01*
X0248242Y0185456D02*
X0251623Y0185456D01*
X0251742Y0184658D02*
X0248089Y0184658D01*
X0247759Y0183859D02*
X0251742Y0183859D01*
X0251742Y0183061D02*
X0247332Y0183061D01*
X0246534Y0182262D02*
X0251742Y0182262D01*
X0251742Y0181464D02*
X0245194Y0181464D01*
D12*
X0258342Y0271000D02*
X0258342Y0293677D01*
X0258086Y0286000D02*
X0248106Y0284976D01*
X0248106Y0284743D02*
X0258086Y0286000D01*
X0248106Y0287024D01*
X0248106Y0287257D02*
X0248106Y0284743D01*
X0248106Y0285488D02*
X0258086Y0286000D01*
X0248106Y0286512D01*
X0248106Y0287257D02*
X0258086Y0286000D01*
X0043598Y0286000D01*
X0053578Y0284976D01*
X0053578Y0284743D02*
X0043598Y0286000D01*
X0053578Y0287024D01*
X0053578Y0287257D02*
X0053578Y0284743D01*
X0053578Y0285488D02*
X0043598Y0286000D01*
X0053578Y0286512D01*
X0053578Y0287257D02*
X0043598Y0286000D01*
X0043342Y0293677D02*
X0043342Y0271000D01*
X0005665Y0271000D01*
X0013342Y0270744D02*
X0014365Y0260764D01*
X0014599Y0260764D02*
X0013342Y0270744D01*
X0012318Y0260764D01*
X0012085Y0260764D02*
X0014599Y0260764D01*
X0013854Y0260764D02*
X0013342Y0270744D01*
X0012830Y0260764D01*
X0012085Y0260764D02*
X0013342Y0270744D01*
X0013342Y0066256D01*
X0014365Y0076236D01*
X0014599Y0076236D02*
X0013342Y0066256D01*
X0012318Y0076236D01*
X0012085Y0076236D02*
X0014599Y0076236D01*
X0013854Y0076236D02*
X0013342Y0066256D01*
X0012830Y0076236D01*
X0012085Y0076236D02*
X0013342Y0066256D01*
X0005665Y0066000D02*
X0043342Y0066000D01*
D13*
X0010780Y0159066D02*
X0010780Y0162621D01*
X0010780Y0164974D02*
X0010780Y0165329D01*
X0010424Y0165329D01*
X0010424Y0164974D01*
X0010780Y0164974D01*
X0009891Y0170704D02*
X0009764Y0170764D01*
X0009635Y0170820D01*
X0009505Y0170873D01*
X0009373Y0170923D01*
X0009240Y0170969D01*
X0009106Y0171011D01*
X0008971Y0171050D01*
X0008834Y0171086D01*
X0008697Y0171117D01*
X0008559Y0171145D01*
X0008421Y0171170D01*
X0008282Y0171190D01*
X0008142Y0171207D01*
X0008002Y0171220D01*
X0007861Y0171229D01*
X0007721Y0171235D01*
X0007580Y0171237D01*
X0007580Y0167682D02*
X0007439Y0167684D01*
X0007299Y0167690D01*
X0007158Y0167699D01*
X0007018Y0167712D01*
X0006878Y0167729D01*
X0006739Y0167749D01*
X0006601Y0167774D01*
X0006463Y0167802D01*
X0006326Y0167833D01*
X0006189Y0167869D01*
X0006054Y0167908D01*
X0005920Y0167950D01*
X0005787Y0167996D01*
X0005655Y0168046D01*
X0005525Y0168099D01*
X0005396Y0168155D01*
X0005269Y0168215D01*
X0004380Y0169459D02*
X0004382Y0169530D01*
X0004388Y0169601D01*
X0004397Y0169671D01*
X0004411Y0169741D01*
X0004428Y0169810D01*
X0004448Y0169877D01*
X0004473Y0169944D01*
X0004501Y0170009D01*
X0004532Y0170073D01*
X0004567Y0170135D01*
X0004605Y0170195D01*
X0004646Y0170253D01*
X0004690Y0170308D01*
X0004738Y0170361D01*
X0004788Y0170411D01*
X0004840Y0170459D01*
X0004895Y0170504D01*
X0004953Y0170545D01*
X0005013Y0170584D01*
X0005074Y0170619D01*
X0005138Y0170651D01*
X0005203Y0170679D01*
X0005269Y0170704D01*
X0005802Y0170882D02*
X0009358Y0168037D01*
X0010780Y0169459D02*
X0010778Y0169530D01*
X0010772Y0169601D01*
X0010763Y0169671D01*
X0010749Y0169741D01*
X0010732Y0169810D01*
X0010712Y0169877D01*
X0010687Y0169944D01*
X0010659Y0170009D01*
X0010628Y0170073D01*
X0010593Y0170135D01*
X0010555Y0170195D01*
X0010514Y0170252D01*
X0010470Y0170308D01*
X0010422Y0170361D01*
X0010372Y0170411D01*
X0010320Y0170459D01*
X0010265Y0170504D01*
X0010207Y0170545D01*
X0010147Y0170584D01*
X0010086Y0170619D01*
X0010022Y0170651D01*
X0009957Y0170679D01*
X0009891Y0170704D01*
X0010780Y0169459D02*
X0010778Y0169388D01*
X0010772Y0169317D01*
X0010763Y0169247D01*
X0010749Y0169177D01*
X0010732Y0169108D01*
X0010712Y0169041D01*
X0010687Y0168974D01*
X0010659Y0168909D01*
X0010628Y0168845D01*
X0010593Y0168783D01*
X0010555Y0168723D01*
X0010514Y0168665D01*
X0010470Y0168610D01*
X0010422Y0168557D01*
X0010372Y0168507D01*
X0010320Y0168459D01*
X0010265Y0168414D01*
X0010207Y0168373D01*
X0010147Y0168334D01*
X0010086Y0168299D01*
X0010022Y0168267D01*
X0009957Y0168239D01*
X0009891Y0168214D01*
X0007580Y0171237D02*
X0007439Y0171235D01*
X0007299Y0171229D01*
X0007158Y0171220D01*
X0007018Y0171207D01*
X0006878Y0171190D01*
X0006739Y0171170D01*
X0006601Y0171145D01*
X0006463Y0171117D01*
X0006326Y0171086D01*
X0006189Y0171050D01*
X0006054Y0171011D01*
X0005920Y0170969D01*
X0005787Y0170923D01*
X0005655Y0170873D01*
X0005525Y0170820D01*
X0005396Y0170764D01*
X0005269Y0170704D01*
X0004380Y0169459D02*
X0004382Y0169388D01*
X0004388Y0169317D01*
X0004397Y0169247D01*
X0004411Y0169177D01*
X0004428Y0169108D01*
X0004448Y0169041D01*
X0004473Y0168974D01*
X0004501Y0168909D01*
X0004532Y0168845D01*
X0004567Y0168783D01*
X0004605Y0168723D01*
X0004646Y0168665D01*
X0004690Y0168610D01*
X0004738Y0168557D01*
X0004788Y0168507D01*
X0004840Y0168459D01*
X0004895Y0168414D01*
X0004953Y0168373D01*
X0005013Y0168334D01*
X0005074Y0168299D01*
X0005138Y0168267D01*
X0005203Y0168239D01*
X0005269Y0168214D01*
X0007580Y0167682D02*
X0007721Y0167684D01*
X0007861Y0167690D01*
X0008002Y0167699D01*
X0008142Y0167712D01*
X0008282Y0167729D01*
X0008421Y0167749D01*
X0008559Y0167774D01*
X0008697Y0167802D01*
X0008834Y0167833D01*
X0008971Y0167869D01*
X0009106Y0167908D01*
X0009240Y0167950D01*
X0009373Y0167996D01*
X0009505Y0168046D01*
X0009635Y0168099D01*
X0009764Y0168155D01*
X0009891Y0168215D01*
X0010780Y0173836D02*
X0010780Y0175969D01*
X0010778Y0176043D01*
X0010772Y0176118D01*
X0010762Y0176191D01*
X0010749Y0176265D01*
X0010732Y0176337D01*
X0010710Y0176408D01*
X0010686Y0176479D01*
X0010657Y0176547D01*
X0010625Y0176615D01*
X0010589Y0176680D01*
X0010551Y0176743D01*
X0010508Y0176805D01*
X0010463Y0176864D01*
X0010415Y0176921D01*
X0010364Y0176975D01*
X0010310Y0177026D01*
X0010253Y0177074D01*
X0010194Y0177119D01*
X0010132Y0177162D01*
X0010069Y0177200D01*
X0010004Y0177236D01*
X0009936Y0177268D01*
X0009868Y0177297D01*
X0009797Y0177321D01*
X0009726Y0177343D01*
X0009654Y0177360D01*
X0009580Y0177373D01*
X0009507Y0177383D01*
X0009432Y0177389D01*
X0009358Y0177391D01*
X0008647Y0177391D01*
X0008573Y0177389D01*
X0008498Y0177383D01*
X0008425Y0177373D01*
X0008351Y0177360D01*
X0008279Y0177343D01*
X0008208Y0177321D01*
X0008137Y0177297D01*
X0008069Y0177268D01*
X0008001Y0177236D01*
X0007936Y0177200D01*
X0007873Y0177162D01*
X0007811Y0177119D01*
X0007752Y0177074D01*
X0007695Y0177026D01*
X0007641Y0176975D01*
X0007590Y0176921D01*
X0007542Y0176864D01*
X0007497Y0176805D01*
X0007454Y0176743D01*
X0007416Y0176680D01*
X0007380Y0176615D01*
X0007348Y0176547D01*
X0007319Y0176479D01*
X0007295Y0176408D01*
X0007273Y0176337D01*
X0007256Y0176265D01*
X0007243Y0176191D01*
X0007233Y0176118D01*
X0007227Y0176043D01*
X0007225Y0175969D01*
X0007224Y0175969D02*
X0007224Y0173836D01*
X0004380Y0173836D01*
X0004380Y0177391D01*
X0007224Y0162088D02*
X0010780Y0159066D01*
X0005803Y0159065D02*
X0005718Y0159094D01*
X0005635Y0159127D01*
X0005554Y0159164D01*
X0005474Y0159204D01*
X0005397Y0159247D01*
X0005321Y0159294D01*
X0005247Y0159344D01*
X0005175Y0159397D01*
X0005106Y0159453D01*
X0005039Y0159512D01*
X0004975Y0159574D01*
X0004914Y0159639D01*
X0004855Y0159706D01*
X0004800Y0159776D01*
X0004747Y0159848D01*
X0004698Y0159922D01*
X0004652Y0159999D01*
X0004610Y0160077D01*
X0004570Y0160157D01*
X0004535Y0160239D01*
X0004502Y0160322D01*
X0004474Y0160406D01*
X0004449Y0160492D01*
X0004428Y0160579D01*
X0004411Y0160666D01*
X0004397Y0160754D01*
X0004388Y0160843D01*
X0004382Y0160932D01*
X0004380Y0161021D01*
X0004382Y0161100D01*
X0004388Y0161178D01*
X0004397Y0161256D01*
X0004411Y0161333D01*
X0004428Y0161410D01*
X0004449Y0161485D01*
X0004474Y0161560D01*
X0004502Y0161633D01*
X0004534Y0161705D01*
X0004569Y0161775D01*
X0004608Y0161844D01*
X0004650Y0161910D01*
X0004695Y0161974D01*
X0004743Y0162036D01*
X0004794Y0162095D01*
X0004849Y0162152D01*
X0004906Y0162207D01*
X0004965Y0162258D01*
X0005027Y0162306D01*
X0005091Y0162351D01*
X0005157Y0162393D01*
X0005226Y0162432D01*
X0005296Y0162467D01*
X0005368Y0162499D01*
X0005441Y0162527D01*
X0005516Y0162552D01*
X0005591Y0162573D01*
X0005668Y0162590D01*
X0005745Y0162604D01*
X0005823Y0162613D01*
X0005901Y0162619D01*
X0005980Y0162621D01*
X0005980Y0162622D02*
X0006062Y0162620D01*
X0006144Y0162614D01*
X0006225Y0162604D01*
X0006306Y0162591D01*
X0006386Y0162573D01*
X0006465Y0162552D01*
X0006543Y0162527D01*
X0006619Y0162499D01*
X0006695Y0162466D01*
X0006768Y0162431D01*
X0006840Y0162391D01*
X0006910Y0162349D01*
X0006978Y0162303D01*
X0007043Y0162254D01*
X0007106Y0162202D01*
X0007167Y0162146D01*
X0007225Y0162089D01*
X0141408Y0288562D02*
X0144963Y0288562D01*
X0147316Y0288562D02*
X0147671Y0288562D01*
X0147671Y0288917D01*
X0147316Y0288917D01*
X0147316Y0288562D01*
X0150023Y0288562D02*
X0153579Y0288562D01*
X0151801Y0288562D02*
X0151801Y0294962D01*
X0150023Y0293540D01*
X0144430Y0292117D02*
X0141408Y0288562D01*
X0141407Y0293539D02*
X0141436Y0293624D01*
X0141469Y0293707D01*
X0141506Y0293788D01*
X0141546Y0293868D01*
X0141589Y0293945D01*
X0141636Y0294021D01*
X0141686Y0294095D01*
X0141739Y0294167D01*
X0141795Y0294236D01*
X0141854Y0294303D01*
X0141916Y0294367D01*
X0141981Y0294428D01*
X0142048Y0294487D01*
X0142118Y0294542D01*
X0142190Y0294595D01*
X0142264Y0294644D01*
X0142341Y0294690D01*
X0142419Y0294732D01*
X0142499Y0294772D01*
X0142581Y0294807D01*
X0142664Y0294840D01*
X0142748Y0294868D01*
X0142834Y0294893D01*
X0142921Y0294914D01*
X0143008Y0294931D01*
X0143096Y0294945D01*
X0143185Y0294954D01*
X0143274Y0294960D01*
X0143363Y0294962D01*
X0143442Y0294960D01*
X0143520Y0294954D01*
X0143598Y0294945D01*
X0143675Y0294931D01*
X0143752Y0294914D01*
X0143827Y0294893D01*
X0143902Y0294868D01*
X0143975Y0294840D01*
X0144047Y0294808D01*
X0144117Y0294773D01*
X0144186Y0294734D01*
X0144252Y0294692D01*
X0144316Y0294647D01*
X0144378Y0294599D01*
X0144437Y0294548D01*
X0144494Y0294493D01*
X0144549Y0294436D01*
X0144600Y0294377D01*
X0144648Y0294315D01*
X0144693Y0294251D01*
X0144735Y0294185D01*
X0144774Y0294116D01*
X0144809Y0294046D01*
X0144841Y0293974D01*
X0144869Y0293901D01*
X0144894Y0293826D01*
X0144915Y0293751D01*
X0144932Y0293674D01*
X0144946Y0293597D01*
X0144955Y0293519D01*
X0144961Y0293441D01*
X0144963Y0293362D01*
X0144964Y0293362D02*
X0144962Y0293280D01*
X0144956Y0293198D01*
X0144946Y0293117D01*
X0144933Y0293036D01*
X0144915Y0292956D01*
X0144894Y0292877D01*
X0144869Y0292799D01*
X0144841Y0292723D01*
X0144808Y0292647D01*
X0144773Y0292574D01*
X0144733Y0292502D01*
X0144691Y0292432D01*
X0144645Y0292364D01*
X0144596Y0292299D01*
X0144544Y0292236D01*
X0144488Y0292175D01*
X0144431Y0292117D01*
X0156177Y0292117D02*
X0156177Y0294962D01*
X0159733Y0294962D01*
X0158311Y0292117D02*
X0156177Y0292117D01*
X0158311Y0292117D02*
X0158385Y0292115D01*
X0158460Y0292109D01*
X0158533Y0292099D01*
X0158607Y0292086D01*
X0158679Y0292069D01*
X0158750Y0292047D01*
X0158821Y0292023D01*
X0158889Y0291994D01*
X0158957Y0291962D01*
X0159022Y0291926D01*
X0159085Y0291888D01*
X0159147Y0291845D01*
X0159206Y0291800D01*
X0159263Y0291752D01*
X0159317Y0291701D01*
X0159368Y0291647D01*
X0159416Y0291590D01*
X0159461Y0291531D01*
X0159504Y0291469D01*
X0159542Y0291406D01*
X0159578Y0291341D01*
X0159610Y0291273D01*
X0159639Y0291205D01*
X0159663Y0291134D01*
X0159685Y0291063D01*
X0159702Y0290991D01*
X0159715Y0290917D01*
X0159725Y0290844D01*
X0159731Y0290769D01*
X0159733Y0290695D01*
X0159733Y0289984D01*
X0159731Y0289910D01*
X0159725Y0289835D01*
X0159715Y0289762D01*
X0159702Y0289688D01*
X0159685Y0289616D01*
X0159663Y0289545D01*
X0159639Y0289474D01*
X0159610Y0289406D01*
X0159578Y0289338D01*
X0159542Y0289273D01*
X0159504Y0289210D01*
X0159461Y0289148D01*
X0159416Y0289089D01*
X0159368Y0289032D01*
X0159317Y0288978D01*
X0159263Y0288927D01*
X0159206Y0288879D01*
X0159147Y0288834D01*
X0159085Y0288791D01*
X0159022Y0288753D01*
X0158957Y0288717D01*
X0158889Y0288685D01*
X0158821Y0288656D01*
X0158750Y0288632D01*
X0158679Y0288610D01*
X0158607Y0288593D01*
X0158533Y0288580D01*
X0158460Y0288570D01*
X0158385Y0288564D01*
X0158311Y0288562D01*
X0156177Y0288562D01*
D14*
X0148342Y0256000D03*
X0138342Y0256000D03*
X0128342Y0256000D03*
X0118342Y0256000D03*
X0093342Y0256000D03*
X0083342Y0256000D03*
X0073342Y0256000D03*
X0063342Y0256000D03*
X0173342Y0256000D03*
X0183342Y0256000D03*
X0193342Y0256000D03*
X0203342Y0256000D03*
X0243342Y0256000D03*
X0243342Y0246000D03*
X0243342Y0236000D03*
X0243342Y0226000D03*
X0243342Y0196000D03*
X0243342Y0186000D03*
X0243342Y0176000D03*
X0243342Y0166000D03*
X0228342Y0141000D03*
X0218342Y0141000D03*
X0208342Y0141000D03*
X0198342Y0141000D03*
X0188342Y0141000D03*
X0178342Y0141000D03*
X0168342Y0141000D03*
X0140842Y0141000D03*
X0130842Y0141000D03*
X0120842Y0141000D03*
X0110842Y0141000D03*
X0100842Y0141000D03*
X0090842Y0141000D03*
X0080842Y0141000D03*
X0058342Y0141000D03*
X0058342Y0131000D03*
X0058342Y0121000D03*
X0058342Y0111000D03*
D15*
X0083342Y0096000D03*
X0138342Y0096000D03*
D16*
X0173342Y0086000D03*
X0223342Y0086000D03*
D17*
X0208342Y0163225D02*
X0208342Y0168775D01*
X0198342Y0168775D02*
X0198342Y0163225D01*
X0188342Y0163225D02*
X0188342Y0168775D01*
X0178342Y0168775D02*
X0178342Y0163225D01*
X0168342Y0163225D02*
X0168342Y0168775D01*
X0158342Y0168775D02*
X0158342Y0163225D01*
X0148342Y0163225D02*
X0148342Y0168775D01*
X0138342Y0168775D02*
X0138342Y0163225D01*
X0128342Y0163225D02*
X0128342Y0168775D01*
X0118342Y0168775D02*
X0118342Y0163225D01*
X0108342Y0163225D02*
X0108342Y0168775D01*
X0098342Y0168775D02*
X0098342Y0163225D01*
X0088342Y0163225D02*
X0088342Y0168775D01*
X0078342Y0168775D02*
X0078342Y0163225D01*
X0068342Y0163225D02*
X0068342Y0168775D01*
X0068342Y0223225D02*
X0068342Y0228775D01*
X0078342Y0228775D02*
X0078342Y0223225D01*
X0088342Y0223225D02*
X0088342Y0228775D01*
X0098342Y0228775D02*
X0098342Y0223225D01*
X0108342Y0223225D02*
X0108342Y0228775D01*
X0118342Y0228775D02*
X0118342Y0223225D01*
X0128342Y0223225D02*
X0128342Y0228775D01*
X0138342Y0228775D02*
X0138342Y0223225D01*
X0148342Y0223225D02*
X0148342Y0228775D01*
X0158342Y0228775D02*
X0158342Y0223225D01*
X0168342Y0223225D02*
X0168342Y0228775D01*
X0178342Y0228775D02*
X0178342Y0223225D01*
X0188342Y0223225D02*
X0188342Y0228775D01*
X0198342Y0228775D02*
X0198342Y0223225D01*
X0208342Y0223225D02*
X0208342Y0228775D01*
D18*
X0213342Y0206000D03*
X0203342Y0206000D03*
X0203342Y0196000D03*
X0213342Y0196000D03*
X0213342Y0186000D03*
X0203342Y0186000D03*
M02*
