G75*
%MOIN*%
%OFA0B0*%
%FSLAX25Y25*%
%IPPOS*%
%LPD*%
%AMOC8*
5,1,8,0,0,1.08239X$1,22.5*
%
%ADD10C,0.07300*%
%ADD11C,0.08200*%
%ADD12C,0.13461*%
%ADD13C,0.14643*%
%ADD14C,0.06350*%
%ADD15C,0.06350*%
D10*
X0058342Y0166000D03*
X0058342Y0226000D03*
X0218342Y0226000D03*
X0218342Y0166000D03*
D11*
X0243342Y0166000D03*
X0243342Y0176000D03*
X0243342Y0186000D03*
X0243342Y0196000D03*
X0243342Y0226000D03*
X0243342Y0236000D03*
X0243342Y0246000D03*
X0243342Y0256000D03*
X0203342Y0256000D03*
X0193342Y0256000D03*
X0183342Y0256000D03*
X0173342Y0256000D03*
X0148342Y0256000D03*
X0138342Y0256000D03*
X0128342Y0256000D03*
X0118342Y0256000D03*
X0093342Y0256000D03*
X0083342Y0256000D03*
X0073342Y0256000D03*
X0063342Y0256000D03*
X0058342Y0141000D03*
X0058342Y0131000D03*
X0058342Y0121000D03*
X0058342Y0111000D03*
X0080842Y0141000D03*
X0090842Y0141000D03*
X0100842Y0141000D03*
X0110842Y0141000D03*
X0120842Y0141000D03*
X0130842Y0141000D03*
X0140842Y0141000D03*
X0168342Y0141000D03*
X0178342Y0141000D03*
X0188342Y0141000D03*
X0198342Y0141000D03*
X0208342Y0141000D03*
X0218342Y0141000D03*
X0228342Y0141000D03*
D12*
X0083342Y0096000D03*
X0138342Y0096000D03*
D13*
X0173342Y0086000D03*
X0223342Y0086000D03*
D14*
X0208342Y0163225D02*
X0208342Y0168775D01*
X0198342Y0168775D02*
X0198342Y0163225D01*
X0188342Y0163225D02*
X0188342Y0168775D01*
X0178342Y0168775D02*
X0178342Y0163225D01*
X0168342Y0163225D02*
X0168342Y0168775D01*
X0158342Y0168775D02*
X0158342Y0163225D01*
X0148342Y0163225D02*
X0148342Y0168775D01*
X0138342Y0168775D02*
X0138342Y0163225D01*
X0128342Y0163225D02*
X0128342Y0168775D01*
X0118342Y0168775D02*
X0118342Y0163225D01*
X0108342Y0163225D02*
X0108342Y0168775D01*
X0098342Y0168775D02*
X0098342Y0163225D01*
X0088342Y0163225D02*
X0088342Y0168775D01*
X0078342Y0168775D02*
X0078342Y0163225D01*
X0068342Y0163225D02*
X0068342Y0168775D01*
X0068342Y0223225D02*
X0068342Y0228775D01*
X0078342Y0228775D02*
X0078342Y0223225D01*
X0088342Y0223225D02*
X0088342Y0228775D01*
X0098342Y0228775D02*
X0098342Y0223225D01*
X0108342Y0223225D02*
X0108342Y0228775D01*
X0118342Y0228775D02*
X0118342Y0223225D01*
X0128342Y0223225D02*
X0128342Y0228775D01*
X0138342Y0228775D02*
X0138342Y0223225D01*
X0148342Y0223225D02*
X0148342Y0228775D01*
X0158342Y0228775D02*
X0158342Y0223225D01*
X0168342Y0223225D02*
X0168342Y0228775D01*
X0178342Y0228775D02*
X0178342Y0223225D01*
X0188342Y0223225D02*
X0188342Y0228775D01*
X0198342Y0228775D02*
X0198342Y0223225D01*
X0208342Y0223225D02*
X0208342Y0228775D01*
D15*
X0213342Y0206000D03*
X0203342Y0206000D03*
X0203342Y0196000D03*
X0213342Y0196000D03*
X0213342Y0186000D03*
X0203342Y0186000D03*
M02*
