G75*
%MOIN*%
%OFA0B0*%
%FSLAX25Y25*%
%IPPOS*%
%LPD*%
%AMOC8*
5,1,8,0,0,1.08239X$1,22.5*
%
%ADD10C,0.00600*%
%ADD11C,0.00700*%
%ADD12C,0.00400*%
%ADD13C,0.00800*%
%ADD14C,0.00500*%
D10*
X0073342Y0086000D02*
X0073342Y0151000D01*
X0148342Y0151000D01*
X0148342Y0086000D01*
X0073342Y0086000D01*
X0163342Y0076000D02*
X0163342Y0151000D01*
X0233342Y0151000D01*
X0233342Y0076000D01*
X0163342Y0076000D01*
X0223342Y0161000D02*
X0053342Y0161000D01*
X0053342Y0231000D01*
X0223342Y0231000D01*
X0223342Y0161000D01*
D11*
X0074009Y0068750D02*
X0073826Y0068750D01*
X0074009Y0068750D02*
X0074054Y0068752D01*
X0074100Y0068758D01*
X0074144Y0068767D01*
X0074188Y0068780D01*
X0074230Y0068796D01*
X0074271Y0068816D01*
X0074310Y0068840D01*
X0074347Y0068866D01*
X0074382Y0068895D01*
X0074414Y0068927D01*
X0074443Y0068962D01*
X0074469Y0068999D01*
X0074493Y0069038D01*
X0074513Y0069079D01*
X0074529Y0069121D01*
X0074542Y0069165D01*
X0074551Y0069209D01*
X0074557Y0069255D01*
X0074559Y0069300D01*
X0074559Y0072050D01*
X0074651Y0072967D02*
X0074467Y0072967D01*
X0074467Y0073150D01*
X0074651Y0073150D01*
X0074651Y0072967D01*
X0073112Y0071317D02*
X0073112Y0070583D01*
X0073111Y0070583D02*
X0073109Y0070531D01*
X0073104Y0070479D01*
X0073094Y0070427D01*
X0073081Y0070376D01*
X0073065Y0070327D01*
X0073045Y0070279D01*
X0073021Y0070232D01*
X0072995Y0070187D01*
X0072965Y0070144D01*
X0072932Y0070103D01*
X0072896Y0070065D01*
X0072858Y0070029D01*
X0072817Y0069996D01*
X0072774Y0069966D01*
X0072729Y0069940D01*
X0072682Y0069916D01*
X0072634Y0069896D01*
X0072585Y0069880D01*
X0072534Y0069867D01*
X0072482Y0069857D01*
X0072430Y0069852D01*
X0072378Y0069850D01*
X0072326Y0069852D01*
X0072274Y0069857D01*
X0072222Y0069867D01*
X0072171Y0069880D01*
X0072122Y0069896D01*
X0072074Y0069916D01*
X0072027Y0069940D01*
X0071982Y0069966D01*
X0071939Y0069996D01*
X0071898Y0070029D01*
X0071860Y0070065D01*
X0071824Y0070103D01*
X0071791Y0070144D01*
X0071761Y0070187D01*
X0071735Y0070232D01*
X0071711Y0070279D01*
X0071691Y0070327D01*
X0071675Y0070376D01*
X0071662Y0070427D01*
X0071652Y0070479D01*
X0071647Y0070531D01*
X0071645Y0070583D01*
X0071645Y0071317D01*
X0071647Y0071369D01*
X0071652Y0071421D01*
X0071662Y0071473D01*
X0071675Y0071524D01*
X0071691Y0071573D01*
X0071711Y0071621D01*
X0071735Y0071668D01*
X0071761Y0071713D01*
X0071791Y0071756D01*
X0071824Y0071797D01*
X0071860Y0071835D01*
X0071898Y0071871D01*
X0071939Y0071904D01*
X0071982Y0071934D01*
X0072027Y0071960D01*
X0072074Y0071984D01*
X0072122Y0072004D01*
X0072171Y0072020D01*
X0072222Y0072033D01*
X0072274Y0072043D01*
X0072326Y0072048D01*
X0072378Y0072050D01*
X0072430Y0072048D01*
X0072482Y0072043D01*
X0072534Y0072033D01*
X0072585Y0072020D01*
X0072634Y0072004D01*
X0072682Y0071984D01*
X0072729Y0071960D01*
X0072774Y0071934D01*
X0072817Y0071904D01*
X0072858Y0071871D01*
X0072896Y0071835D01*
X0072932Y0071797D01*
X0072965Y0071756D01*
X0072995Y0071713D01*
X0073021Y0071668D01*
X0073045Y0071621D01*
X0073065Y0071573D01*
X0073081Y0071524D01*
X0073094Y0071473D01*
X0073104Y0071421D01*
X0073109Y0071369D01*
X0073111Y0071317D01*
X0070378Y0071683D02*
X0070378Y0072050D01*
X0069278Y0072050D01*
X0069278Y0069850D01*
X0066703Y0071317D02*
X0065787Y0071317D01*
X0066703Y0071316D02*
X0066762Y0071318D01*
X0066820Y0071324D01*
X0066878Y0071333D01*
X0066936Y0071346D01*
X0066992Y0071363D01*
X0067047Y0071383D01*
X0067101Y0071407D01*
X0067153Y0071434D01*
X0067203Y0071464D01*
X0067251Y0071498D01*
X0067297Y0071535D01*
X0067341Y0071574D01*
X0067382Y0071617D01*
X0067420Y0071661D01*
X0067455Y0071708D01*
X0067487Y0071758D01*
X0067516Y0071809D01*
X0067542Y0071862D01*
X0067564Y0071916D01*
X0067582Y0071972D01*
X0067597Y0072029D01*
X0067608Y0072087D01*
X0067616Y0072145D01*
X0067620Y0072204D01*
X0067620Y0072262D01*
X0067616Y0072321D01*
X0067608Y0072379D01*
X0067597Y0072437D01*
X0067582Y0072494D01*
X0067564Y0072550D01*
X0067542Y0072604D01*
X0067516Y0072657D01*
X0067487Y0072708D01*
X0067455Y0072758D01*
X0067420Y0072805D01*
X0067382Y0072849D01*
X0067341Y0072892D01*
X0067297Y0072931D01*
X0067251Y0072968D01*
X0067203Y0073002D01*
X0067153Y0073032D01*
X0067101Y0073059D01*
X0067047Y0073083D01*
X0066992Y0073103D01*
X0066936Y0073120D01*
X0066878Y0073133D01*
X0066820Y0073142D01*
X0066762Y0073148D01*
X0066703Y0073150D01*
X0065787Y0073150D01*
X0065787Y0069850D01*
X0062078Y0069850D02*
X0060978Y0073150D01*
X0059878Y0069850D01*
X0060153Y0070675D02*
X0061803Y0070675D01*
X0058118Y0069850D02*
X0058118Y0073150D01*
X0057018Y0071317D01*
X0055918Y0073150D01*
X0055918Y0069850D01*
X0054012Y0069850D02*
X0053279Y0071317D01*
X0053095Y0071317D02*
X0052179Y0071317D01*
X0053095Y0071316D02*
X0053154Y0071318D01*
X0053212Y0071324D01*
X0053270Y0071333D01*
X0053328Y0071346D01*
X0053384Y0071363D01*
X0053439Y0071383D01*
X0053493Y0071407D01*
X0053545Y0071434D01*
X0053595Y0071464D01*
X0053643Y0071498D01*
X0053689Y0071535D01*
X0053733Y0071574D01*
X0053774Y0071617D01*
X0053812Y0071661D01*
X0053847Y0071708D01*
X0053879Y0071758D01*
X0053908Y0071809D01*
X0053934Y0071862D01*
X0053956Y0071916D01*
X0053974Y0071972D01*
X0053989Y0072029D01*
X0054000Y0072087D01*
X0054008Y0072145D01*
X0054012Y0072204D01*
X0054012Y0072262D01*
X0054008Y0072321D01*
X0054000Y0072379D01*
X0053989Y0072437D01*
X0053974Y0072494D01*
X0053956Y0072550D01*
X0053934Y0072604D01*
X0053908Y0072657D01*
X0053879Y0072708D01*
X0053847Y0072758D01*
X0053812Y0072805D01*
X0053774Y0072849D01*
X0053733Y0072892D01*
X0053689Y0072931D01*
X0053643Y0072968D01*
X0053595Y0073002D01*
X0053545Y0073032D01*
X0053493Y0073059D01*
X0053439Y0073083D01*
X0053384Y0073103D01*
X0053328Y0073120D01*
X0053270Y0073133D01*
X0053212Y0073142D01*
X0053154Y0073148D01*
X0053095Y0073150D01*
X0052179Y0073150D01*
X0052179Y0069850D01*
X0050425Y0069850D02*
X0049692Y0069850D01*
X0050058Y0069850D02*
X0050058Y0073150D01*
X0049692Y0073150D02*
X0050425Y0073150D01*
X0076205Y0071317D02*
X0076205Y0070400D01*
X0076207Y0070355D01*
X0076213Y0070309D01*
X0076222Y0070265D01*
X0076235Y0070221D01*
X0076251Y0070179D01*
X0076271Y0070138D01*
X0076295Y0070099D01*
X0076321Y0070062D01*
X0076350Y0070027D01*
X0076382Y0069995D01*
X0076417Y0069966D01*
X0076454Y0069940D01*
X0076493Y0069916D01*
X0076534Y0069896D01*
X0076576Y0069880D01*
X0076620Y0069867D01*
X0076664Y0069858D01*
X0076710Y0069852D01*
X0076755Y0069850D01*
X0077672Y0069850D01*
X0077672Y0070950D02*
X0076205Y0070950D01*
X0076205Y0071317D02*
X0076207Y0071369D01*
X0076212Y0071421D01*
X0076222Y0071473D01*
X0076235Y0071524D01*
X0076251Y0071573D01*
X0076271Y0071621D01*
X0076295Y0071668D01*
X0076321Y0071713D01*
X0076351Y0071756D01*
X0076384Y0071797D01*
X0076420Y0071835D01*
X0076458Y0071871D01*
X0076499Y0071904D01*
X0076542Y0071934D01*
X0076587Y0071960D01*
X0076634Y0071984D01*
X0076682Y0072004D01*
X0076731Y0072020D01*
X0076782Y0072033D01*
X0076834Y0072043D01*
X0076886Y0072048D01*
X0076938Y0072050D01*
X0076990Y0072048D01*
X0077042Y0072043D01*
X0077094Y0072033D01*
X0077145Y0072020D01*
X0077194Y0072004D01*
X0077242Y0071984D01*
X0077289Y0071960D01*
X0077334Y0071934D01*
X0077377Y0071904D01*
X0077418Y0071871D01*
X0077456Y0071835D01*
X0077492Y0071797D01*
X0077525Y0071756D01*
X0077555Y0071713D01*
X0077581Y0071668D01*
X0077605Y0071621D01*
X0077625Y0071573D01*
X0077641Y0071524D01*
X0077654Y0071473D01*
X0077664Y0071421D01*
X0077669Y0071369D01*
X0077671Y0071317D01*
X0077672Y0071317D02*
X0077672Y0070950D01*
X0079332Y0070400D02*
X0079332Y0071500D01*
X0079334Y0071545D01*
X0079340Y0071591D01*
X0079349Y0071635D01*
X0079362Y0071679D01*
X0079378Y0071721D01*
X0079398Y0071762D01*
X0079422Y0071801D01*
X0079448Y0071838D01*
X0079477Y0071873D01*
X0079509Y0071905D01*
X0079544Y0071934D01*
X0079581Y0071960D01*
X0079620Y0071984D01*
X0079661Y0072004D01*
X0079703Y0072020D01*
X0079747Y0072033D01*
X0079791Y0072042D01*
X0079837Y0072048D01*
X0079882Y0072050D01*
X0080615Y0072050D01*
X0081742Y0072050D02*
X0082842Y0072050D01*
X0082109Y0073150D02*
X0082109Y0070400D01*
X0082111Y0070355D01*
X0082117Y0070309D01*
X0082126Y0070265D01*
X0082139Y0070221D01*
X0082155Y0070179D01*
X0082175Y0070138D01*
X0082199Y0070099D01*
X0082225Y0070062D01*
X0082254Y0070027D01*
X0082286Y0069995D01*
X0082321Y0069966D01*
X0082358Y0069940D01*
X0082397Y0069916D01*
X0082438Y0069896D01*
X0082480Y0069880D01*
X0082524Y0069867D01*
X0082568Y0069858D01*
X0082614Y0069852D01*
X0082659Y0069850D01*
X0082842Y0069850D01*
X0084287Y0070125D02*
X0084470Y0070125D01*
X0084470Y0070308D01*
X0084287Y0070308D01*
X0084287Y0070125D01*
X0084287Y0071592D02*
X0084470Y0071592D01*
X0084470Y0071775D01*
X0084287Y0071775D01*
X0084287Y0071592D01*
X0080615Y0069850D02*
X0079882Y0069850D01*
X0079837Y0069852D01*
X0079791Y0069858D01*
X0079747Y0069867D01*
X0079703Y0069880D01*
X0079661Y0069896D01*
X0079620Y0069916D01*
X0079581Y0069940D01*
X0079544Y0069966D01*
X0079509Y0069995D01*
X0079477Y0070027D01*
X0079448Y0070062D01*
X0079422Y0070099D01*
X0079398Y0070138D01*
X0079378Y0070179D01*
X0079362Y0070221D01*
X0079349Y0070265D01*
X0079340Y0070309D01*
X0079334Y0070355D01*
X0079332Y0070400D01*
X0088198Y0069850D02*
X0088198Y0073150D01*
X0089298Y0071317D01*
X0090398Y0073150D01*
X0090398Y0069850D01*
X0092285Y0070400D02*
X0092285Y0071317D01*
X0092285Y0070950D02*
X0093752Y0070950D01*
X0093752Y0071317D01*
X0093751Y0071317D02*
X0093749Y0071369D01*
X0093744Y0071421D01*
X0093734Y0071473D01*
X0093721Y0071524D01*
X0093705Y0071573D01*
X0093685Y0071621D01*
X0093661Y0071668D01*
X0093635Y0071713D01*
X0093605Y0071756D01*
X0093572Y0071797D01*
X0093536Y0071835D01*
X0093498Y0071871D01*
X0093457Y0071904D01*
X0093414Y0071934D01*
X0093369Y0071960D01*
X0093322Y0071984D01*
X0093274Y0072004D01*
X0093225Y0072020D01*
X0093174Y0072033D01*
X0093122Y0072043D01*
X0093070Y0072048D01*
X0093018Y0072050D01*
X0092966Y0072048D01*
X0092914Y0072043D01*
X0092862Y0072033D01*
X0092811Y0072020D01*
X0092762Y0072004D01*
X0092714Y0071984D01*
X0092667Y0071960D01*
X0092622Y0071934D01*
X0092579Y0071904D01*
X0092538Y0071871D01*
X0092500Y0071835D01*
X0092464Y0071797D01*
X0092431Y0071756D01*
X0092401Y0071713D01*
X0092375Y0071668D01*
X0092351Y0071621D01*
X0092331Y0071573D01*
X0092315Y0071524D01*
X0092302Y0071473D01*
X0092292Y0071421D01*
X0092287Y0071369D01*
X0092285Y0071317D01*
X0092285Y0070400D02*
X0092287Y0070355D01*
X0092293Y0070309D01*
X0092302Y0070265D01*
X0092315Y0070221D01*
X0092331Y0070179D01*
X0092351Y0070138D01*
X0092375Y0070099D01*
X0092401Y0070062D01*
X0092430Y0070027D01*
X0092462Y0069995D01*
X0092497Y0069966D01*
X0092534Y0069940D01*
X0092573Y0069916D01*
X0092614Y0069896D01*
X0092656Y0069880D01*
X0092700Y0069867D01*
X0092744Y0069858D01*
X0092790Y0069852D01*
X0092835Y0069850D01*
X0093752Y0069850D01*
X0095375Y0070400D02*
X0095375Y0071500D01*
X0095377Y0071545D01*
X0095383Y0071591D01*
X0095392Y0071635D01*
X0095405Y0071679D01*
X0095421Y0071721D01*
X0095441Y0071762D01*
X0095465Y0071801D01*
X0095491Y0071838D01*
X0095520Y0071873D01*
X0095552Y0071905D01*
X0095587Y0071934D01*
X0095624Y0071960D01*
X0095663Y0071984D01*
X0095704Y0072004D01*
X0095746Y0072020D01*
X0095790Y0072033D01*
X0095834Y0072042D01*
X0095880Y0072048D01*
X0095925Y0072050D01*
X0096842Y0072050D01*
X0096842Y0069300D01*
X0096842Y0069850D02*
X0095925Y0069850D01*
X0095880Y0069852D01*
X0095834Y0069858D01*
X0095790Y0069867D01*
X0095746Y0069880D01*
X0095704Y0069896D01*
X0095663Y0069916D01*
X0095624Y0069940D01*
X0095587Y0069966D01*
X0095552Y0069995D01*
X0095520Y0070027D01*
X0095491Y0070062D01*
X0095465Y0070099D01*
X0095441Y0070138D01*
X0095421Y0070179D01*
X0095405Y0070221D01*
X0095392Y0070265D01*
X0095383Y0070309D01*
X0095377Y0070355D01*
X0095375Y0070400D01*
X0096842Y0069300D02*
X0096840Y0069255D01*
X0096834Y0069209D01*
X0096825Y0069165D01*
X0096812Y0069121D01*
X0096796Y0069079D01*
X0096776Y0069038D01*
X0096752Y0068999D01*
X0096726Y0068962D01*
X0096697Y0068927D01*
X0096665Y0068895D01*
X0096630Y0068866D01*
X0096593Y0068840D01*
X0096554Y0068816D01*
X0096513Y0068796D01*
X0096471Y0068780D01*
X0096427Y0068767D01*
X0096383Y0068758D01*
X0096337Y0068752D01*
X0096292Y0068750D01*
X0095559Y0068750D01*
X0099257Y0069850D02*
X0100082Y0069850D01*
X0100082Y0071500D01*
X0100082Y0071133D02*
X0099257Y0071133D01*
X0100082Y0071500D02*
X0100080Y0071545D01*
X0100074Y0071591D01*
X0100065Y0071635D01*
X0100052Y0071679D01*
X0100036Y0071721D01*
X0100016Y0071762D01*
X0099992Y0071801D01*
X0099966Y0071838D01*
X0099937Y0071873D01*
X0099905Y0071905D01*
X0099870Y0071934D01*
X0099833Y0071960D01*
X0099794Y0071984D01*
X0099753Y0072004D01*
X0099711Y0072020D01*
X0099667Y0072033D01*
X0099623Y0072042D01*
X0099577Y0072048D01*
X0099532Y0072050D01*
X0098799Y0072050D01*
X0099257Y0071134D02*
X0099208Y0071132D01*
X0099159Y0071126D01*
X0099111Y0071117D01*
X0099063Y0071104D01*
X0099017Y0071087D01*
X0098972Y0071067D01*
X0098929Y0071044D01*
X0098888Y0071017D01*
X0098849Y0070987D01*
X0098812Y0070955D01*
X0098778Y0070919D01*
X0098746Y0070881D01*
X0098718Y0070841D01*
X0098693Y0070799D01*
X0098671Y0070755D01*
X0098653Y0070709D01*
X0098638Y0070662D01*
X0098627Y0070614D01*
X0098619Y0070566D01*
X0098615Y0070517D01*
X0098615Y0070467D01*
X0098619Y0070418D01*
X0098627Y0070370D01*
X0098638Y0070322D01*
X0098653Y0070275D01*
X0098671Y0070229D01*
X0098693Y0070185D01*
X0098718Y0070143D01*
X0098746Y0070103D01*
X0098778Y0070065D01*
X0098812Y0070029D01*
X0098849Y0069997D01*
X0098888Y0069967D01*
X0098929Y0069940D01*
X0098972Y0069917D01*
X0099017Y0069897D01*
X0099063Y0069880D01*
X0099111Y0069867D01*
X0099159Y0069858D01*
X0099208Y0069852D01*
X0099257Y0069850D01*
X0102005Y0069850D02*
X0102005Y0072050D01*
X0102921Y0072050D01*
X0102966Y0072048D01*
X0103012Y0072042D01*
X0103056Y0072033D01*
X0103100Y0072020D01*
X0103142Y0072004D01*
X0103183Y0071984D01*
X0103222Y0071960D01*
X0103259Y0071934D01*
X0103294Y0071905D01*
X0103326Y0071873D01*
X0103355Y0071838D01*
X0103381Y0071801D01*
X0103405Y0071762D01*
X0103425Y0071721D01*
X0103441Y0071679D01*
X0103454Y0071635D01*
X0103463Y0071591D01*
X0103469Y0071545D01*
X0103471Y0071500D01*
X0103471Y0069850D01*
X0107426Y0069850D02*
X0107426Y0073150D01*
X0108343Y0073150D01*
X0108395Y0073148D01*
X0108447Y0073143D01*
X0108499Y0073133D01*
X0108550Y0073120D01*
X0108599Y0073104D01*
X0108647Y0073084D01*
X0108694Y0073060D01*
X0108739Y0073034D01*
X0108782Y0073004D01*
X0108823Y0072971D01*
X0108861Y0072935D01*
X0108897Y0072897D01*
X0108930Y0072856D01*
X0108960Y0072813D01*
X0108986Y0072768D01*
X0109010Y0072721D01*
X0109030Y0072673D01*
X0109046Y0072624D01*
X0109059Y0072573D01*
X0109069Y0072521D01*
X0109074Y0072469D01*
X0109076Y0072417D01*
X0109074Y0072365D01*
X0109069Y0072313D01*
X0109059Y0072261D01*
X0109046Y0072210D01*
X0109030Y0072161D01*
X0109010Y0072113D01*
X0108986Y0072066D01*
X0108960Y0072021D01*
X0108930Y0071978D01*
X0108897Y0071937D01*
X0108861Y0071899D01*
X0108823Y0071863D01*
X0108782Y0071830D01*
X0108739Y0071800D01*
X0108694Y0071774D01*
X0108647Y0071750D01*
X0108599Y0071730D01*
X0108550Y0071714D01*
X0108499Y0071701D01*
X0108447Y0071691D01*
X0108395Y0071686D01*
X0108343Y0071684D01*
X0108343Y0071683D02*
X0107426Y0071683D01*
X0108343Y0071684D02*
X0108402Y0071682D01*
X0108460Y0071676D01*
X0108518Y0071667D01*
X0108576Y0071654D01*
X0108632Y0071637D01*
X0108687Y0071617D01*
X0108741Y0071593D01*
X0108793Y0071566D01*
X0108843Y0071536D01*
X0108891Y0071502D01*
X0108937Y0071465D01*
X0108981Y0071426D01*
X0109022Y0071383D01*
X0109060Y0071339D01*
X0109095Y0071292D01*
X0109127Y0071242D01*
X0109156Y0071191D01*
X0109182Y0071138D01*
X0109204Y0071084D01*
X0109222Y0071028D01*
X0109237Y0070971D01*
X0109248Y0070913D01*
X0109256Y0070855D01*
X0109260Y0070796D01*
X0109260Y0070738D01*
X0109256Y0070679D01*
X0109248Y0070621D01*
X0109237Y0070563D01*
X0109222Y0070506D01*
X0109204Y0070450D01*
X0109182Y0070396D01*
X0109156Y0070343D01*
X0109127Y0070292D01*
X0109095Y0070242D01*
X0109060Y0070195D01*
X0109022Y0070151D01*
X0108981Y0070108D01*
X0108937Y0070069D01*
X0108891Y0070032D01*
X0108843Y0069998D01*
X0108793Y0069968D01*
X0108741Y0069941D01*
X0108687Y0069917D01*
X0108632Y0069897D01*
X0108576Y0069880D01*
X0108518Y0069867D01*
X0108460Y0069858D01*
X0108402Y0069852D01*
X0108343Y0069850D01*
X0107426Y0069850D01*
X0110765Y0070400D02*
X0110765Y0071317D01*
X0110765Y0070950D02*
X0112231Y0070950D01*
X0112231Y0071317D01*
X0112229Y0071369D01*
X0112224Y0071421D01*
X0112214Y0071473D01*
X0112201Y0071524D01*
X0112185Y0071573D01*
X0112165Y0071621D01*
X0112141Y0071668D01*
X0112115Y0071713D01*
X0112085Y0071756D01*
X0112052Y0071797D01*
X0112016Y0071835D01*
X0111978Y0071871D01*
X0111937Y0071904D01*
X0111894Y0071934D01*
X0111849Y0071960D01*
X0111802Y0071984D01*
X0111754Y0072004D01*
X0111705Y0072020D01*
X0111654Y0072033D01*
X0111602Y0072043D01*
X0111550Y0072048D01*
X0111498Y0072050D01*
X0111446Y0072048D01*
X0111394Y0072043D01*
X0111342Y0072033D01*
X0111291Y0072020D01*
X0111242Y0072004D01*
X0111194Y0071984D01*
X0111147Y0071960D01*
X0111102Y0071934D01*
X0111059Y0071904D01*
X0111018Y0071871D01*
X0110980Y0071835D01*
X0110944Y0071797D01*
X0110911Y0071756D01*
X0110881Y0071713D01*
X0110855Y0071668D01*
X0110831Y0071621D01*
X0110811Y0071573D01*
X0110795Y0071524D01*
X0110782Y0071473D01*
X0110772Y0071421D01*
X0110767Y0071369D01*
X0110765Y0071317D01*
X0110765Y0070400D02*
X0110767Y0070355D01*
X0110773Y0070309D01*
X0110782Y0070265D01*
X0110795Y0070221D01*
X0110811Y0070179D01*
X0110831Y0070138D01*
X0110855Y0070099D01*
X0110881Y0070062D01*
X0110910Y0070027D01*
X0110942Y0069995D01*
X0110977Y0069966D01*
X0111014Y0069940D01*
X0111053Y0069916D01*
X0111094Y0069896D01*
X0111136Y0069880D01*
X0111180Y0069867D01*
X0111224Y0069858D01*
X0111270Y0069852D01*
X0111315Y0069850D01*
X0112231Y0069850D01*
X0113889Y0070400D02*
X0113889Y0073150D01*
X0115959Y0072050D02*
X0116692Y0072050D01*
X0116737Y0072048D01*
X0116783Y0072042D01*
X0116827Y0072033D01*
X0116871Y0072020D01*
X0116913Y0072004D01*
X0116954Y0071984D01*
X0116993Y0071960D01*
X0117030Y0071934D01*
X0117065Y0071905D01*
X0117097Y0071873D01*
X0117126Y0071838D01*
X0117152Y0071801D01*
X0117176Y0071762D01*
X0117196Y0071721D01*
X0117212Y0071679D01*
X0117225Y0071635D01*
X0117234Y0071591D01*
X0117240Y0071545D01*
X0117242Y0071500D01*
X0117242Y0069850D01*
X0116417Y0069850D01*
X0116368Y0069852D01*
X0116319Y0069858D01*
X0116271Y0069867D01*
X0116223Y0069880D01*
X0116177Y0069897D01*
X0116132Y0069917D01*
X0116089Y0069940D01*
X0116048Y0069967D01*
X0116009Y0069997D01*
X0115972Y0070029D01*
X0115938Y0070065D01*
X0115906Y0070103D01*
X0115878Y0070143D01*
X0115853Y0070185D01*
X0115831Y0070229D01*
X0115813Y0070275D01*
X0115798Y0070322D01*
X0115787Y0070370D01*
X0115779Y0070418D01*
X0115775Y0070467D01*
X0115775Y0070517D01*
X0115779Y0070566D01*
X0115787Y0070614D01*
X0115798Y0070662D01*
X0115813Y0070709D01*
X0115831Y0070755D01*
X0115853Y0070799D01*
X0115878Y0070841D01*
X0115906Y0070881D01*
X0115938Y0070919D01*
X0115972Y0070955D01*
X0116009Y0070987D01*
X0116048Y0071017D01*
X0116089Y0071044D01*
X0116132Y0071067D01*
X0116177Y0071087D01*
X0116223Y0071104D01*
X0116271Y0071117D01*
X0116319Y0071126D01*
X0116368Y0071132D01*
X0116417Y0071134D01*
X0116417Y0071133D02*
X0117242Y0071133D01*
X0119165Y0072050D02*
X0120081Y0072050D01*
X0120126Y0072048D01*
X0120172Y0072042D01*
X0120216Y0072033D01*
X0120260Y0072020D01*
X0120302Y0072004D01*
X0120343Y0071984D01*
X0120382Y0071960D01*
X0120419Y0071934D01*
X0120454Y0071905D01*
X0120486Y0071873D01*
X0120515Y0071838D01*
X0120541Y0071801D01*
X0120565Y0071762D01*
X0120585Y0071721D01*
X0120601Y0071679D01*
X0120614Y0071635D01*
X0120623Y0071591D01*
X0120629Y0071545D01*
X0120631Y0071500D01*
X0120631Y0069850D01*
X0119165Y0069850D02*
X0119165Y0072050D01*
X0122375Y0071500D02*
X0122375Y0070400D01*
X0122377Y0070355D01*
X0122383Y0070309D01*
X0122392Y0070265D01*
X0122405Y0070221D01*
X0122421Y0070179D01*
X0122441Y0070138D01*
X0122465Y0070099D01*
X0122491Y0070062D01*
X0122520Y0070027D01*
X0122552Y0069995D01*
X0122587Y0069966D01*
X0122624Y0069940D01*
X0122663Y0069916D01*
X0122704Y0069896D01*
X0122746Y0069880D01*
X0122790Y0069867D01*
X0122834Y0069858D01*
X0122880Y0069852D01*
X0122925Y0069850D01*
X0123842Y0069850D01*
X0123842Y0069300D02*
X0123842Y0072050D01*
X0122925Y0072050D01*
X0122880Y0072048D01*
X0122834Y0072042D01*
X0122790Y0072033D01*
X0122746Y0072020D01*
X0122704Y0072004D01*
X0122663Y0071984D01*
X0122624Y0071960D01*
X0122587Y0071934D01*
X0122552Y0071905D01*
X0122520Y0071873D01*
X0122491Y0071838D01*
X0122465Y0071801D01*
X0122441Y0071762D01*
X0122421Y0071721D01*
X0122405Y0071679D01*
X0122392Y0071635D01*
X0122383Y0071591D01*
X0122377Y0071545D01*
X0122375Y0071500D01*
X0123842Y0069300D02*
X0123840Y0069255D01*
X0123834Y0069209D01*
X0123825Y0069165D01*
X0123812Y0069121D01*
X0123796Y0069079D01*
X0123776Y0069038D01*
X0123752Y0068999D01*
X0123726Y0068962D01*
X0123697Y0068927D01*
X0123665Y0068895D01*
X0123630Y0068866D01*
X0123593Y0068840D01*
X0123554Y0068816D01*
X0123513Y0068796D01*
X0123471Y0068780D01*
X0123427Y0068767D01*
X0123383Y0068758D01*
X0123337Y0068752D01*
X0123292Y0068750D01*
X0122558Y0068750D01*
X0125645Y0070400D02*
X0125645Y0071317D01*
X0125645Y0070950D02*
X0127111Y0070950D01*
X0127111Y0071317D01*
X0127109Y0071369D01*
X0127104Y0071421D01*
X0127094Y0071473D01*
X0127081Y0071524D01*
X0127065Y0071573D01*
X0127045Y0071621D01*
X0127021Y0071668D01*
X0126995Y0071713D01*
X0126965Y0071756D01*
X0126932Y0071797D01*
X0126896Y0071835D01*
X0126858Y0071871D01*
X0126817Y0071904D01*
X0126774Y0071934D01*
X0126729Y0071960D01*
X0126682Y0071984D01*
X0126634Y0072004D01*
X0126585Y0072020D01*
X0126534Y0072033D01*
X0126482Y0072043D01*
X0126430Y0072048D01*
X0126378Y0072050D01*
X0126326Y0072048D01*
X0126274Y0072043D01*
X0126222Y0072033D01*
X0126171Y0072020D01*
X0126122Y0072004D01*
X0126074Y0071984D01*
X0126027Y0071960D01*
X0125982Y0071934D01*
X0125939Y0071904D01*
X0125898Y0071871D01*
X0125860Y0071835D01*
X0125824Y0071797D01*
X0125791Y0071756D01*
X0125761Y0071713D01*
X0125735Y0071668D01*
X0125711Y0071621D01*
X0125691Y0071573D01*
X0125675Y0071524D01*
X0125662Y0071473D01*
X0125652Y0071421D01*
X0125647Y0071369D01*
X0125645Y0071317D01*
X0125645Y0070400D02*
X0125647Y0070355D01*
X0125653Y0070309D01*
X0125662Y0070265D01*
X0125675Y0070221D01*
X0125691Y0070179D01*
X0125711Y0070138D01*
X0125735Y0070099D01*
X0125761Y0070062D01*
X0125790Y0070027D01*
X0125822Y0069995D01*
X0125857Y0069966D01*
X0125894Y0069940D01*
X0125933Y0069916D01*
X0125974Y0069896D01*
X0126016Y0069880D01*
X0126060Y0069867D01*
X0126104Y0069858D01*
X0126150Y0069852D01*
X0126195Y0069850D01*
X0127111Y0069850D01*
X0128918Y0069850D02*
X0128918Y0072050D01*
X0130018Y0072050D01*
X0130018Y0071683D01*
X0131065Y0070033D02*
X0131248Y0070033D01*
X0131248Y0069850D01*
X0130973Y0069117D01*
X0131065Y0069850D02*
X0131065Y0070033D01*
X0131065Y0069850D02*
X0131248Y0069850D01*
X0134258Y0069850D02*
X0134625Y0069850D01*
X0134677Y0069852D01*
X0134729Y0069857D01*
X0134781Y0069867D01*
X0134832Y0069880D01*
X0134881Y0069896D01*
X0134929Y0069916D01*
X0134976Y0069940D01*
X0135021Y0069966D01*
X0135064Y0069996D01*
X0135105Y0070029D01*
X0135143Y0070065D01*
X0135179Y0070103D01*
X0135212Y0070144D01*
X0135242Y0070187D01*
X0135268Y0070232D01*
X0135292Y0070278D01*
X0135312Y0070327D01*
X0135328Y0070376D01*
X0135341Y0070427D01*
X0135351Y0070479D01*
X0135356Y0070531D01*
X0135358Y0070583D01*
X0135358Y0073150D01*
X0137165Y0071317D02*
X0137165Y0070583D01*
X0137167Y0070531D01*
X0137172Y0070479D01*
X0137182Y0070427D01*
X0137195Y0070376D01*
X0137211Y0070327D01*
X0137231Y0070279D01*
X0137255Y0070232D01*
X0137281Y0070187D01*
X0137311Y0070144D01*
X0137344Y0070103D01*
X0137380Y0070065D01*
X0137418Y0070029D01*
X0137459Y0069996D01*
X0137502Y0069966D01*
X0137547Y0069940D01*
X0137594Y0069916D01*
X0137642Y0069896D01*
X0137691Y0069880D01*
X0137742Y0069867D01*
X0137794Y0069857D01*
X0137846Y0069852D01*
X0137898Y0069850D01*
X0137950Y0069852D01*
X0138002Y0069857D01*
X0138054Y0069867D01*
X0138105Y0069880D01*
X0138154Y0069896D01*
X0138202Y0069916D01*
X0138249Y0069940D01*
X0138294Y0069966D01*
X0138337Y0069996D01*
X0138378Y0070029D01*
X0138416Y0070065D01*
X0138452Y0070103D01*
X0138485Y0070144D01*
X0138515Y0070187D01*
X0138541Y0070232D01*
X0138565Y0070279D01*
X0138585Y0070327D01*
X0138601Y0070376D01*
X0138614Y0070427D01*
X0138624Y0070479D01*
X0138629Y0070531D01*
X0138631Y0070583D01*
X0138631Y0071317D01*
X0138629Y0071369D01*
X0138624Y0071421D01*
X0138614Y0071473D01*
X0138601Y0071524D01*
X0138585Y0071573D01*
X0138565Y0071621D01*
X0138541Y0071668D01*
X0138515Y0071713D01*
X0138485Y0071756D01*
X0138452Y0071797D01*
X0138416Y0071835D01*
X0138378Y0071871D01*
X0138337Y0071904D01*
X0138294Y0071934D01*
X0138249Y0071960D01*
X0138202Y0071984D01*
X0138154Y0072004D01*
X0138105Y0072020D01*
X0138054Y0072033D01*
X0138002Y0072043D01*
X0137950Y0072048D01*
X0137898Y0072050D01*
X0137846Y0072048D01*
X0137794Y0072043D01*
X0137742Y0072033D01*
X0137691Y0072020D01*
X0137642Y0072004D01*
X0137594Y0071984D01*
X0137547Y0071960D01*
X0137502Y0071934D01*
X0137459Y0071904D01*
X0137418Y0071871D01*
X0137380Y0071835D01*
X0137344Y0071797D01*
X0137311Y0071756D01*
X0137281Y0071713D01*
X0137255Y0071668D01*
X0137231Y0071621D01*
X0137211Y0071573D01*
X0137195Y0071524D01*
X0137182Y0071473D01*
X0137172Y0071421D01*
X0137167Y0071369D01*
X0137165Y0071317D01*
X0140438Y0072050D02*
X0141538Y0072050D01*
X0141538Y0071683D01*
X0140438Y0072050D02*
X0140438Y0069850D01*
X0142775Y0070400D02*
X0142775Y0071500D01*
X0142777Y0071545D01*
X0142783Y0071591D01*
X0142792Y0071635D01*
X0142805Y0071679D01*
X0142821Y0071721D01*
X0142841Y0071762D01*
X0142865Y0071801D01*
X0142891Y0071838D01*
X0142920Y0071873D01*
X0142952Y0071905D01*
X0142987Y0071934D01*
X0143024Y0071960D01*
X0143063Y0071984D01*
X0143104Y0072004D01*
X0143146Y0072020D01*
X0143190Y0072033D01*
X0143234Y0072042D01*
X0143280Y0072048D01*
X0143325Y0072050D01*
X0144242Y0072050D01*
X0144242Y0073150D02*
X0144242Y0069850D01*
X0143325Y0069850D01*
X0143280Y0069852D01*
X0143234Y0069858D01*
X0143190Y0069867D01*
X0143146Y0069880D01*
X0143104Y0069896D01*
X0143063Y0069916D01*
X0143024Y0069940D01*
X0142987Y0069966D01*
X0142952Y0069995D01*
X0142920Y0070027D01*
X0142891Y0070062D01*
X0142865Y0070099D01*
X0142841Y0070138D01*
X0142821Y0070179D01*
X0142805Y0070221D01*
X0142792Y0070265D01*
X0142783Y0070309D01*
X0142777Y0070355D01*
X0142775Y0070400D01*
X0146045Y0070400D02*
X0146045Y0071317D01*
X0146045Y0070950D02*
X0147511Y0070950D01*
X0147511Y0071317D01*
X0147509Y0071369D01*
X0147504Y0071421D01*
X0147494Y0071473D01*
X0147481Y0071524D01*
X0147465Y0071573D01*
X0147445Y0071621D01*
X0147421Y0071668D01*
X0147395Y0071713D01*
X0147365Y0071756D01*
X0147332Y0071797D01*
X0147296Y0071835D01*
X0147258Y0071871D01*
X0147217Y0071904D01*
X0147174Y0071934D01*
X0147129Y0071960D01*
X0147082Y0071984D01*
X0147034Y0072004D01*
X0146985Y0072020D01*
X0146934Y0072033D01*
X0146882Y0072043D01*
X0146830Y0072048D01*
X0146778Y0072050D01*
X0146726Y0072048D01*
X0146674Y0072043D01*
X0146622Y0072033D01*
X0146571Y0072020D01*
X0146522Y0072004D01*
X0146474Y0071984D01*
X0146427Y0071960D01*
X0146382Y0071934D01*
X0146339Y0071904D01*
X0146298Y0071871D01*
X0146260Y0071835D01*
X0146224Y0071797D01*
X0146191Y0071756D01*
X0146161Y0071713D01*
X0146135Y0071668D01*
X0146111Y0071621D01*
X0146091Y0071573D01*
X0146075Y0071524D01*
X0146062Y0071473D01*
X0146052Y0071421D01*
X0146047Y0071369D01*
X0146045Y0071317D01*
X0146045Y0070400D02*
X0146047Y0070355D01*
X0146053Y0070309D01*
X0146062Y0070265D01*
X0146075Y0070221D01*
X0146091Y0070179D01*
X0146111Y0070138D01*
X0146135Y0070099D01*
X0146161Y0070062D01*
X0146190Y0070027D01*
X0146222Y0069995D01*
X0146257Y0069966D01*
X0146294Y0069940D01*
X0146333Y0069916D01*
X0146374Y0069896D01*
X0146416Y0069880D01*
X0146460Y0069867D01*
X0146504Y0069858D01*
X0146550Y0069852D01*
X0146595Y0069850D01*
X0147511Y0069850D01*
X0149285Y0069850D02*
X0149285Y0072050D01*
X0150201Y0072050D01*
X0150246Y0072048D01*
X0150292Y0072042D01*
X0150336Y0072033D01*
X0150380Y0072020D01*
X0150422Y0072004D01*
X0150463Y0071984D01*
X0150502Y0071960D01*
X0150539Y0071934D01*
X0150574Y0071905D01*
X0150606Y0071873D01*
X0150635Y0071838D01*
X0150661Y0071801D01*
X0150685Y0071762D01*
X0150705Y0071721D01*
X0150721Y0071679D01*
X0150734Y0071635D01*
X0150743Y0071591D01*
X0150749Y0071545D01*
X0150751Y0071500D01*
X0150751Y0069850D01*
X0154632Y0069850D02*
X0154632Y0073150D01*
X0157718Y0072050D02*
X0158452Y0072050D01*
X0158497Y0072048D01*
X0158543Y0072042D01*
X0158587Y0072033D01*
X0158631Y0072020D01*
X0158673Y0072004D01*
X0158714Y0071984D01*
X0158753Y0071960D01*
X0158790Y0071934D01*
X0158825Y0071905D01*
X0158857Y0071873D01*
X0158886Y0071838D01*
X0158912Y0071801D01*
X0158936Y0071762D01*
X0158956Y0071721D01*
X0158972Y0071679D01*
X0158985Y0071635D01*
X0158994Y0071591D01*
X0159000Y0071545D01*
X0159002Y0071500D01*
X0159002Y0069850D01*
X0158177Y0069850D01*
X0158128Y0069852D01*
X0158079Y0069858D01*
X0158031Y0069867D01*
X0157983Y0069880D01*
X0157937Y0069897D01*
X0157892Y0069917D01*
X0157849Y0069940D01*
X0157808Y0069967D01*
X0157769Y0069997D01*
X0157732Y0070029D01*
X0157698Y0070065D01*
X0157666Y0070103D01*
X0157638Y0070143D01*
X0157613Y0070185D01*
X0157591Y0070229D01*
X0157573Y0070275D01*
X0157558Y0070322D01*
X0157547Y0070370D01*
X0157539Y0070418D01*
X0157535Y0070467D01*
X0157535Y0070517D01*
X0157539Y0070566D01*
X0157547Y0070614D01*
X0157558Y0070662D01*
X0157573Y0070709D01*
X0157591Y0070755D01*
X0157613Y0070799D01*
X0157638Y0070841D01*
X0157666Y0070881D01*
X0157698Y0070919D01*
X0157732Y0070955D01*
X0157769Y0070987D01*
X0157808Y0071017D01*
X0157849Y0071044D01*
X0157892Y0071067D01*
X0157937Y0071087D01*
X0157983Y0071104D01*
X0158031Y0071117D01*
X0158079Y0071126D01*
X0158128Y0071132D01*
X0158177Y0071134D01*
X0158177Y0071133D02*
X0159002Y0071133D01*
X0160954Y0072050D02*
X0161871Y0072050D01*
X0161916Y0072048D01*
X0161962Y0072042D01*
X0162006Y0072033D01*
X0162050Y0072020D01*
X0162092Y0072004D01*
X0162133Y0071984D01*
X0162172Y0071960D01*
X0162209Y0071934D01*
X0162244Y0071905D01*
X0162276Y0071873D01*
X0162305Y0071838D01*
X0162331Y0071801D01*
X0162355Y0071762D01*
X0162375Y0071721D01*
X0162391Y0071679D01*
X0162404Y0071635D01*
X0162413Y0071591D01*
X0162419Y0071545D01*
X0162421Y0071500D01*
X0162421Y0070400D01*
X0162419Y0070355D01*
X0162413Y0070309D01*
X0162404Y0070265D01*
X0162391Y0070221D01*
X0162375Y0070179D01*
X0162355Y0070138D01*
X0162331Y0070099D01*
X0162305Y0070062D01*
X0162276Y0070027D01*
X0162244Y0069995D01*
X0162209Y0069966D01*
X0162172Y0069940D01*
X0162133Y0069916D01*
X0162092Y0069896D01*
X0162050Y0069880D01*
X0162006Y0069867D01*
X0161962Y0069858D01*
X0161916Y0069852D01*
X0161871Y0069850D01*
X0160954Y0069850D01*
X0160954Y0073150D01*
X0164044Y0071317D02*
X0164044Y0070583D01*
X0164045Y0070583D02*
X0164047Y0070531D01*
X0164052Y0070479D01*
X0164062Y0070427D01*
X0164075Y0070376D01*
X0164091Y0070327D01*
X0164111Y0070279D01*
X0164135Y0070232D01*
X0164161Y0070187D01*
X0164191Y0070144D01*
X0164224Y0070103D01*
X0164260Y0070065D01*
X0164298Y0070029D01*
X0164339Y0069996D01*
X0164382Y0069966D01*
X0164427Y0069940D01*
X0164474Y0069916D01*
X0164522Y0069896D01*
X0164571Y0069880D01*
X0164622Y0069867D01*
X0164674Y0069857D01*
X0164726Y0069852D01*
X0164778Y0069850D01*
X0164830Y0069852D01*
X0164882Y0069857D01*
X0164934Y0069867D01*
X0164985Y0069880D01*
X0165034Y0069896D01*
X0165082Y0069916D01*
X0165129Y0069940D01*
X0165174Y0069966D01*
X0165217Y0069996D01*
X0165258Y0070029D01*
X0165296Y0070065D01*
X0165332Y0070103D01*
X0165365Y0070144D01*
X0165395Y0070187D01*
X0165421Y0070232D01*
X0165445Y0070279D01*
X0165465Y0070327D01*
X0165481Y0070376D01*
X0165494Y0070427D01*
X0165504Y0070479D01*
X0165509Y0070531D01*
X0165511Y0070583D01*
X0165511Y0071317D01*
X0165509Y0071369D01*
X0165504Y0071421D01*
X0165494Y0071473D01*
X0165481Y0071524D01*
X0165465Y0071573D01*
X0165445Y0071621D01*
X0165421Y0071668D01*
X0165395Y0071713D01*
X0165365Y0071756D01*
X0165332Y0071797D01*
X0165296Y0071835D01*
X0165258Y0071871D01*
X0165217Y0071904D01*
X0165174Y0071934D01*
X0165129Y0071960D01*
X0165082Y0071984D01*
X0165034Y0072004D01*
X0164985Y0072020D01*
X0164934Y0072033D01*
X0164882Y0072043D01*
X0164830Y0072048D01*
X0164778Y0072050D01*
X0164726Y0072048D01*
X0164674Y0072043D01*
X0164622Y0072033D01*
X0164571Y0072020D01*
X0164522Y0072004D01*
X0164474Y0071984D01*
X0164427Y0071960D01*
X0164382Y0071934D01*
X0164339Y0071904D01*
X0164298Y0071871D01*
X0164260Y0071835D01*
X0164224Y0071797D01*
X0164191Y0071756D01*
X0164161Y0071713D01*
X0164135Y0071668D01*
X0164111Y0071621D01*
X0164091Y0071573D01*
X0164075Y0071524D01*
X0164062Y0071473D01*
X0164052Y0071421D01*
X0164047Y0071369D01*
X0164045Y0071317D01*
X0167439Y0071133D02*
X0168356Y0070767D01*
X0168356Y0070766D02*
X0168395Y0070748D01*
X0168432Y0070728D01*
X0168467Y0070703D01*
X0168500Y0070676D01*
X0168530Y0070646D01*
X0168557Y0070614D01*
X0168582Y0070579D01*
X0168603Y0070542D01*
X0168620Y0070503D01*
X0168634Y0070463D01*
X0168645Y0070422D01*
X0168652Y0070380D01*
X0168655Y0070338D01*
X0168654Y0070295D01*
X0168649Y0070253D01*
X0168641Y0070211D01*
X0168629Y0070170D01*
X0168613Y0070131D01*
X0168594Y0070093D01*
X0168572Y0070057D01*
X0168546Y0070023D01*
X0168518Y0069991D01*
X0168487Y0069962D01*
X0168453Y0069936D01*
X0168417Y0069913D01*
X0168379Y0069894D01*
X0168340Y0069878D01*
X0168299Y0069865D01*
X0168258Y0069856D01*
X0168216Y0069851D01*
X0168173Y0069850D01*
X0168448Y0071866D02*
X0168369Y0071900D01*
X0168290Y0071930D01*
X0168209Y0071957D01*
X0168127Y0071980D01*
X0168045Y0072000D01*
X0167961Y0072017D01*
X0167877Y0072031D01*
X0167793Y0072040D01*
X0167708Y0072047D01*
X0167623Y0072050D01*
X0167580Y0072049D01*
X0167538Y0072044D01*
X0167497Y0072035D01*
X0167456Y0072022D01*
X0167417Y0072006D01*
X0167379Y0071987D01*
X0167343Y0071964D01*
X0167309Y0071938D01*
X0167278Y0071909D01*
X0167250Y0071877D01*
X0167224Y0071843D01*
X0167202Y0071807D01*
X0167183Y0071769D01*
X0167167Y0071730D01*
X0167155Y0071689D01*
X0167147Y0071647D01*
X0167142Y0071605D01*
X0167141Y0071562D01*
X0167144Y0071520D01*
X0167151Y0071478D01*
X0167162Y0071437D01*
X0167176Y0071397D01*
X0167193Y0071358D01*
X0167214Y0071321D01*
X0167239Y0071286D01*
X0167266Y0071254D01*
X0167296Y0071224D01*
X0167329Y0071197D01*
X0167364Y0071172D01*
X0167401Y0071152D01*
X0167440Y0071134D01*
X0167164Y0070034D02*
X0167262Y0070000D01*
X0167360Y0069970D01*
X0167460Y0069944D01*
X0167560Y0069920D01*
X0167661Y0069900D01*
X0167762Y0069883D01*
X0167864Y0069870D01*
X0167967Y0069860D01*
X0168070Y0069853D01*
X0168173Y0069850D01*
X0170743Y0072050D02*
X0170828Y0072047D01*
X0170913Y0072040D01*
X0170997Y0072031D01*
X0171081Y0072017D01*
X0171165Y0072000D01*
X0171247Y0071980D01*
X0171329Y0071957D01*
X0171410Y0071930D01*
X0171489Y0071900D01*
X0171568Y0071866D01*
X0170743Y0072050D02*
X0170700Y0072049D01*
X0170658Y0072044D01*
X0170617Y0072035D01*
X0170576Y0072022D01*
X0170537Y0072006D01*
X0170499Y0071987D01*
X0170463Y0071964D01*
X0170429Y0071938D01*
X0170398Y0071909D01*
X0170370Y0071877D01*
X0170344Y0071843D01*
X0170322Y0071807D01*
X0170303Y0071769D01*
X0170287Y0071730D01*
X0170275Y0071689D01*
X0170267Y0071647D01*
X0170262Y0071605D01*
X0170261Y0071562D01*
X0170264Y0071520D01*
X0170271Y0071478D01*
X0170282Y0071437D01*
X0170296Y0071397D01*
X0170313Y0071358D01*
X0170334Y0071321D01*
X0170359Y0071286D01*
X0170386Y0071254D01*
X0170416Y0071224D01*
X0170449Y0071197D01*
X0170484Y0071172D01*
X0170521Y0071152D01*
X0170560Y0071134D01*
X0170559Y0071133D02*
X0171476Y0070767D01*
X0171476Y0070766D02*
X0171515Y0070748D01*
X0171552Y0070728D01*
X0171587Y0070703D01*
X0171620Y0070676D01*
X0171650Y0070646D01*
X0171677Y0070614D01*
X0171702Y0070579D01*
X0171723Y0070542D01*
X0171740Y0070503D01*
X0171754Y0070463D01*
X0171765Y0070422D01*
X0171772Y0070380D01*
X0171775Y0070338D01*
X0171774Y0070295D01*
X0171769Y0070253D01*
X0171761Y0070211D01*
X0171749Y0070170D01*
X0171733Y0070131D01*
X0171714Y0070093D01*
X0171692Y0070057D01*
X0171666Y0070023D01*
X0171638Y0069991D01*
X0171607Y0069962D01*
X0171573Y0069936D01*
X0171537Y0069913D01*
X0171499Y0069894D01*
X0171460Y0069878D01*
X0171419Y0069865D01*
X0171378Y0069856D01*
X0171336Y0069851D01*
X0171293Y0069850D01*
X0173298Y0069850D02*
X0173298Y0072050D01*
X0173389Y0072967D02*
X0173206Y0072967D01*
X0173206Y0073150D01*
X0173389Y0073150D01*
X0173389Y0072967D01*
X0171293Y0069850D02*
X0171190Y0069853D01*
X0171087Y0069860D01*
X0170984Y0069870D01*
X0170882Y0069883D01*
X0170781Y0069900D01*
X0170680Y0069920D01*
X0170580Y0069944D01*
X0170480Y0069970D01*
X0170382Y0070000D01*
X0170284Y0070034D01*
X0174844Y0070400D02*
X0174844Y0071317D01*
X0174844Y0070950D02*
X0176311Y0070950D01*
X0176311Y0071317D01*
X0176309Y0071369D01*
X0176304Y0071421D01*
X0176294Y0071473D01*
X0176281Y0071524D01*
X0176265Y0071573D01*
X0176245Y0071621D01*
X0176221Y0071668D01*
X0176195Y0071713D01*
X0176165Y0071756D01*
X0176132Y0071797D01*
X0176096Y0071835D01*
X0176058Y0071871D01*
X0176017Y0071904D01*
X0175974Y0071934D01*
X0175929Y0071960D01*
X0175882Y0071984D01*
X0175834Y0072004D01*
X0175785Y0072020D01*
X0175734Y0072033D01*
X0175682Y0072043D01*
X0175630Y0072048D01*
X0175578Y0072050D01*
X0175526Y0072048D01*
X0175474Y0072043D01*
X0175422Y0072033D01*
X0175371Y0072020D01*
X0175322Y0072004D01*
X0175274Y0071984D01*
X0175227Y0071960D01*
X0175182Y0071934D01*
X0175139Y0071904D01*
X0175098Y0071871D01*
X0175060Y0071835D01*
X0175024Y0071797D01*
X0174991Y0071756D01*
X0174961Y0071713D01*
X0174935Y0071668D01*
X0174911Y0071621D01*
X0174891Y0071573D01*
X0174875Y0071524D01*
X0174862Y0071473D01*
X0174852Y0071421D01*
X0174847Y0071369D01*
X0174845Y0071317D01*
X0174844Y0070400D02*
X0174846Y0070355D01*
X0174852Y0070309D01*
X0174861Y0070265D01*
X0174874Y0070221D01*
X0174890Y0070179D01*
X0174910Y0070138D01*
X0174934Y0070099D01*
X0174960Y0070062D01*
X0174989Y0070027D01*
X0175021Y0069995D01*
X0175056Y0069966D01*
X0175093Y0069940D01*
X0175132Y0069916D01*
X0175173Y0069896D01*
X0175215Y0069880D01*
X0175259Y0069867D01*
X0175303Y0069858D01*
X0175349Y0069852D01*
X0175394Y0069850D01*
X0176311Y0069850D01*
X0178118Y0069850D02*
X0178118Y0072050D01*
X0179218Y0072050D01*
X0179218Y0071683D01*
X0180484Y0071317D02*
X0180484Y0070400D01*
X0180484Y0070950D02*
X0181951Y0070950D01*
X0181951Y0071317D01*
X0181949Y0071369D01*
X0181944Y0071421D01*
X0181934Y0071473D01*
X0181921Y0071524D01*
X0181905Y0071573D01*
X0181885Y0071621D01*
X0181861Y0071668D01*
X0181835Y0071713D01*
X0181805Y0071756D01*
X0181772Y0071797D01*
X0181736Y0071835D01*
X0181698Y0071871D01*
X0181657Y0071904D01*
X0181614Y0071934D01*
X0181569Y0071960D01*
X0181522Y0071984D01*
X0181474Y0072004D01*
X0181425Y0072020D01*
X0181374Y0072033D01*
X0181322Y0072043D01*
X0181270Y0072048D01*
X0181218Y0072050D01*
X0181166Y0072048D01*
X0181114Y0072043D01*
X0181062Y0072033D01*
X0181011Y0072020D01*
X0180962Y0072004D01*
X0180914Y0071984D01*
X0180867Y0071960D01*
X0180822Y0071934D01*
X0180779Y0071904D01*
X0180738Y0071871D01*
X0180700Y0071835D01*
X0180664Y0071797D01*
X0180631Y0071756D01*
X0180601Y0071713D01*
X0180575Y0071668D01*
X0180551Y0071621D01*
X0180531Y0071573D01*
X0180515Y0071524D01*
X0180502Y0071473D01*
X0180492Y0071421D01*
X0180487Y0071369D01*
X0180485Y0071317D01*
X0180484Y0070400D02*
X0180486Y0070355D01*
X0180492Y0070309D01*
X0180501Y0070265D01*
X0180514Y0070221D01*
X0180530Y0070179D01*
X0180550Y0070138D01*
X0180574Y0070099D01*
X0180600Y0070062D01*
X0180629Y0070027D01*
X0180661Y0069995D01*
X0180696Y0069966D01*
X0180733Y0069940D01*
X0180772Y0069916D01*
X0180813Y0069896D01*
X0180855Y0069880D01*
X0180899Y0069867D01*
X0180943Y0069858D01*
X0180989Y0069852D01*
X0181034Y0069850D01*
X0181951Y0069850D01*
X0183384Y0069850D02*
X0183384Y0070033D01*
X0183568Y0070033D01*
X0183568Y0069850D01*
X0183293Y0069117D01*
X0183384Y0069850D02*
X0183568Y0069850D01*
X0187141Y0070583D02*
X0187141Y0072417D01*
X0187143Y0072469D01*
X0187148Y0072521D01*
X0187158Y0072573D01*
X0187171Y0072624D01*
X0187187Y0072673D01*
X0187207Y0072721D01*
X0187231Y0072768D01*
X0187257Y0072813D01*
X0187287Y0072856D01*
X0187320Y0072897D01*
X0187356Y0072935D01*
X0187394Y0072971D01*
X0187435Y0073004D01*
X0187478Y0073034D01*
X0187523Y0073060D01*
X0187569Y0073084D01*
X0187618Y0073104D01*
X0187667Y0073120D01*
X0187718Y0073133D01*
X0187770Y0073143D01*
X0187822Y0073148D01*
X0187874Y0073150D01*
X0188974Y0073150D01*
X0188974Y0071683D02*
X0188974Y0069850D01*
X0187874Y0069850D01*
X0187822Y0069852D01*
X0187770Y0069857D01*
X0187718Y0069867D01*
X0187667Y0069880D01*
X0187618Y0069896D01*
X0187570Y0069916D01*
X0187523Y0069940D01*
X0187478Y0069966D01*
X0187435Y0069996D01*
X0187394Y0070029D01*
X0187356Y0070065D01*
X0187320Y0070103D01*
X0187287Y0070144D01*
X0187257Y0070187D01*
X0187231Y0070232D01*
X0187207Y0070279D01*
X0187187Y0070327D01*
X0187171Y0070376D01*
X0187158Y0070427D01*
X0187148Y0070479D01*
X0187143Y0070531D01*
X0187141Y0070583D01*
X0188424Y0071683D02*
X0188974Y0071683D01*
X0190924Y0072050D02*
X0190924Y0070400D01*
X0190926Y0070355D01*
X0190932Y0070309D01*
X0190941Y0070265D01*
X0190954Y0070221D01*
X0190970Y0070179D01*
X0190990Y0070138D01*
X0191014Y0070099D01*
X0191040Y0070062D01*
X0191069Y0070027D01*
X0191101Y0069995D01*
X0191136Y0069966D01*
X0191173Y0069940D01*
X0191212Y0069916D01*
X0191253Y0069896D01*
X0191295Y0069880D01*
X0191339Y0069867D01*
X0191383Y0069858D01*
X0191429Y0069852D01*
X0191474Y0069850D01*
X0192391Y0069850D01*
X0192391Y0072050D01*
X0194164Y0071317D02*
X0194164Y0070583D01*
X0194165Y0070583D02*
X0194167Y0070531D01*
X0194172Y0070479D01*
X0194182Y0070427D01*
X0194195Y0070376D01*
X0194211Y0070327D01*
X0194231Y0070279D01*
X0194255Y0070232D01*
X0194281Y0070187D01*
X0194311Y0070144D01*
X0194344Y0070103D01*
X0194380Y0070065D01*
X0194418Y0070029D01*
X0194459Y0069996D01*
X0194502Y0069966D01*
X0194547Y0069940D01*
X0194594Y0069916D01*
X0194642Y0069896D01*
X0194691Y0069880D01*
X0194742Y0069867D01*
X0194794Y0069857D01*
X0194846Y0069852D01*
X0194898Y0069850D01*
X0194950Y0069852D01*
X0195002Y0069857D01*
X0195054Y0069867D01*
X0195105Y0069880D01*
X0195154Y0069896D01*
X0195202Y0069916D01*
X0195249Y0069940D01*
X0195294Y0069966D01*
X0195337Y0069996D01*
X0195378Y0070029D01*
X0195416Y0070065D01*
X0195452Y0070103D01*
X0195485Y0070144D01*
X0195515Y0070187D01*
X0195541Y0070232D01*
X0195565Y0070279D01*
X0195585Y0070327D01*
X0195601Y0070376D01*
X0195614Y0070427D01*
X0195624Y0070479D01*
X0195629Y0070531D01*
X0195631Y0070583D01*
X0195631Y0071317D01*
X0195629Y0071369D01*
X0195624Y0071421D01*
X0195614Y0071473D01*
X0195601Y0071524D01*
X0195585Y0071573D01*
X0195565Y0071621D01*
X0195541Y0071668D01*
X0195515Y0071713D01*
X0195485Y0071756D01*
X0195452Y0071797D01*
X0195416Y0071835D01*
X0195378Y0071871D01*
X0195337Y0071904D01*
X0195294Y0071934D01*
X0195249Y0071960D01*
X0195202Y0071984D01*
X0195154Y0072004D01*
X0195105Y0072020D01*
X0195054Y0072033D01*
X0195002Y0072043D01*
X0194950Y0072048D01*
X0194898Y0072050D01*
X0194846Y0072048D01*
X0194794Y0072043D01*
X0194742Y0072033D01*
X0194691Y0072020D01*
X0194642Y0072004D01*
X0194594Y0071984D01*
X0194547Y0071960D01*
X0194502Y0071934D01*
X0194459Y0071904D01*
X0194418Y0071871D01*
X0194380Y0071835D01*
X0194344Y0071797D01*
X0194311Y0071756D01*
X0194281Y0071713D01*
X0194255Y0071668D01*
X0194231Y0071621D01*
X0194211Y0071573D01*
X0194195Y0071524D01*
X0194182Y0071473D01*
X0194172Y0071421D01*
X0194167Y0071369D01*
X0194165Y0071317D01*
X0197164Y0072050D02*
X0198631Y0069850D01*
X0200058Y0069850D02*
X0200058Y0072050D01*
X0200149Y0072967D02*
X0199966Y0072967D01*
X0199966Y0073150D01*
X0200149Y0073150D01*
X0200149Y0072967D01*
X0198631Y0072050D02*
X0197164Y0069850D01*
X0201724Y0069850D02*
X0201724Y0072050D01*
X0202641Y0072050D01*
X0202686Y0072048D01*
X0202732Y0072042D01*
X0202776Y0072033D01*
X0202820Y0072020D01*
X0202862Y0072004D01*
X0202903Y0071984D01*
X0202942Y0071960D01*
X0202979Y0071934D01*
X0203014Y0071905D01*
X0203046Y0071873D01*
X0203075Y0071838D01*
X0203101Y0071801D01*
X0203125Y0071762D01*
X0203145Y0071721D01*
X0203161Y0071679D01*
X0203174Y0071635D01*
X0203183Y0071591D01*
X0203189Y0071545D01*
X0203191Y0071500D01*
X0203191Y0069850D01*
X0207072Y0069850D02*
X0208539Y0069850D01*
X0209897Y0069850D02*
X0209897Y0072050D01*
X0209989Y0072967D02*
X0209806Y0072967D01*
X0209806Y0073150D01*
X0209989Y0073150D01*
X0209989Y0072967D01*
X0211564Y0072050D02*
X0211564Y0070400D01*
X0211566Y0070355D01*
X0211572Y0070309D01*
X0211581Y0070265D01*
X0211594Y0070221D01*
X0211610Y0070179D01*
X0211630Y0070138D01*
X0211654Y0070099D01*
X0211680Y0070062D01*
X0211709Y0070027D01*
X0211741Y0069995D01*
X0211776Y0069966D01*
X0211813Y0069940D01*
X0211852Y0069916D01*
X0211893Y0069896D01*
X0211935Y0069880D01*
X0211979Y0069867D01*
X0212023Y0069858D01*
X0212069Y0069852D01*
X0212114Y0069850D01*
X0213031Y0069850D01*
X0213031Y0072050D01*
X0214584Y0070033D02*
X0214767Y0070033D01*
X0214767Y0069850D01*
X0214492Y0069117D01*
X0214584Y0069850D02*
X0214584Y0070033D01*
X0214584Y0069850D02*
X0214767Y0069850D01*
X0218397Y0069850D02*
X0218397Y0073150D01*
X0219497Y0071317D01*
X0220597Y0073150D01*
X0220597Y0069850D01*
X0222377Y0069850D02*
X0222377Y0072050D01*
X0222469Y0072967D02*
X0222286Y0072967D01*
X0222286Y0073150D01*
X0222469Y0073150D01*
X0222469Y0072967D01*
X0223928Y0073150D02*
X0223928Y0070400D01*
X0223930Y0070355D01*
X0223936Y0070309D01*
X0223945Y0070265D01*
X0223958Y0070221D01*
X0223974Y0070179D01*
X0223994Y0070138D01*
X0224018Y0070099D01*
X0224044Y0070062D01*
X0224073Y0070027D01*
X0224105Y0069995D01*
X0224140Y0069966D01*
X0224177Y0069940D01*
X0224216Y0069916D01*
X0224257Y0069896D01*
X0224299Y0069880D01*
X0224343Y0069867D01*
X0224387Y0069858D01*
X0224433Y0069852D01*
X0224478Y0069850D01*
X0226456Y0069850D02*
X0227281Y0069850D01*
X0227281Y0071500D01*
X0227281Y0071133D02*
X0226456Y0071133D01*
X0227281Y0071500D02*
X0227279Y0071545D01*
X0227273Y0071591D01*
X0227264Y0071635D01*
X0227251Y0071679D01*
X0227235Y0071721D01*
X0227215Y0071762D01*
X0227191Y0071801D01*
X0227165Y0071838D01*
X0227136Y0071873D01*
X0227104Y0071905D01*
X0227069Y0071934D01*
X0227032Y0071960D01*
X0226993Y0071984D01*
X0226952Y0072004D01*
X0226910Y0072020D01*
X0226866Y0072033D01*
X0226822Y0072042D01*
X0226776Y0072048D01*
X0226731Y0072050D01*
X0225998Y0072050D01*
X0226456Y0071134D02*
X0226407Y0071132D01*
X0226358Y0071126D01*
X0226310Y0071117D01*
X0226262Y0071104D01*
X0226216Y0071087D01*
X0226171Y0071067D01*
X0226128Y0071044D01*
X0226087Y0071017D01*
X0226048Y0070987D01*
X0226011Y0070955D01*
X0225977Y0070919D01*
X0225945Y0070881D01*
X0225917Y0070841D01*
X0225892Y0070799D01*
X0225870Y0070755D01*
X0225852Y0070709D01*
X0225837Y0070662D01*
X0225826Y0070614D01*
X0225818Y0070566D01*
X0225814Y0070517D01*
X0225814Y0070467D01*
X0225818Y0070418D01*
X0225826Y0070370D01*
X0225837Y0070322D01*
X0225852Y0070275D01*
X0225870Y0070229D01*
X0225892Y0070185D01*
X0225917Y0070143D01*
X0225945Y0070103D01*
X0225977Y0070065D01*
X0226011Y0070029D01*
X0226048Y0069997D01*
X0226087Y0069967D01*
X0226128Y0069940D01*
X0226171Y0069917D01*
X0226216Y0069897D01*
X0226262Y0069880D01*
X0226310Y0069867D01*
X0226358Y0069858D01*
X0226407Y0069852D01*
X0226456Y0069850D01*
X0229204Y0069850D02*
X0229204Y0072050D01*
X0230121Y0072050D01*
X0230166Y0072048D01*
X0230212Y0072042D01*
X0230256Y0072033D01*
X0230300Y0072020D01*
X0230342Y0072004D01*
X0230383Y0071984D01*
X0230422Y0071960D01*
X0230459Y0071934D01*
X0230494Y0071905D01*
X0230526Y0071873D01*
X0230555Y0071838D01*
X0230581Y0071801D01*
X0230605Y0071762D01*
X0230625Y0071721D01*
X0230641Y0071679D01*
X0230654Y0071635D01*
X0230663Y0071591D01*
X0230669Y0071545D01*
X0230671Y0071500D01*
X0230671Y0069850D01*
X0234626Y0069850D02*
X0234626Y0073150D01*
X0235542Y0073150D01*
X0235601Y0073148D01*
X0235659Y0073142D01*
X0235717Y0073133D01*
X0235775Y0073120D01*
X0235831Y0073103D01*
X0235886Y0073083D01*
X0235940Y0073059D01*
X0235992Y0073032D01*
X0236042Y0073002D01*
X0236090Y0072968D01*
X0236136Y0072931D01*
X0236180Y0072892D01*
X0236221Y0072849D01*
X0236259Y0072805D01*
X0236294Y0072758D01*
X0236326Y0072708D01*
X0236355Y0072657D01*
X0236381Y0072604D01*
X0236403Y0072550D01*
X0236421Y0072494D01*
X0236436Y0072437D01*
X0236447Y0072379D01*
X0236455Y0072321D01*
X0236459Y0072262D01*
X0236459Y0072204D01*
X0236455Y0072145D01*
X0236447Y0072087D01*
X0236436Y0072029D01*
X0236421Y0071972D01*
X0236403Y0071916D01*
X0236381Y0071862D01*
X0236355Y0071809D01*
X0236326Y0071758D01*
X0236294Y0071708D01*
X0236259Y0071661D01*
X0236221Y0071617D01*
X0236180Y0071574D01*
X0236136Y0071535D01*
X0236090Y0071498D01*
X0236042Y0071464D01*
X0235992Y0071434D01*
X0235940Y0071407D01*
X0235886Y0071383D01*
X0235831Y0071363D01*
X0235775Y0071346D01*
X0235717Y0071333D01*
X0235659Y0071324D01*
X0235601Y0071318D01*
X0235542Y0071316D01*
X0235542Y0071317D02*
X0234626Y0071317D01*
X0238118Y0072050D02*
X0238851Y0072050D01*
X0238896Y0072048D01*
X0238942Y0072042D01*
X0238986Y0072033D01*
X0239030Y0072020D01*
X0239072Y0072004D01*
X0239113Y0071984D01*
X0239152Y0071960D01*
X0239189Y0071934D01*
X0239224Y0071905D01*
X0239256Y0071873D01*
X0239285Y0071838D01*
X0239311Y0071801D01*
X0239335Y0071762D01*
X0239355Y0071721D01*
X0239371Y0071679D01*
X0239384Y0071635D01*
X0239393Y0071591D01*
X0239399Y0071545D01*
X0239401Y0071500D01*
X0239401Y0069850D01*
X0238576Y0069850D01*
X0238527Y0069852D01*
X0238478Y0069858D01*
X0238430Y0069867D01*
X0238382Y0069880D01*
X0238336Y0069897D01*
X0238291Y0069917D01*
X0238248Y0069940D01*
X0238207Y0069967D01*
X0238168Y0069997D01*
X0238131Y0070029D01*
X0238097Y0070065D01*
X0238065Y0070103D01*
X0238037Y0070143D01*
X0238012Y0070185D01*
X0237990Y0070229D01*
X0237972Y0070275D01*
X0237957Y0070322D01*
X0237946Y0070370D01*
X0237938Y0070418D01*
X0237934Y0070467D01*
X0237934Y0070517D01*
X0237938Y0070566D01*
X0237946Y0070614D01*
X0237957Y0070662D01*
X0237972Y0070709D01*
X0237990Y0070755D01*
X0238012Y0070799D01*
X0238037Y0070841D01*
X0238065Y0070881D01*
X0238097Y0070919D01*
X0238131Y0070955D01*
X0238168Y0070987D01*
X0238207Y0071017D01*
X0238248Y0071044D01*
X0238291Y0071067D01*
X0238336Y0071087D01*
X0238382Y0071104D01*
X0238430Y0071117D01*
X0238478Y0071126D01*
X0238527Y0071132D01*
X0238576Y0071134D01*
X0238576Y0071133D02*
X0239401Y0071133D01*
X0240861Y0072050D02*
X0241961Y0072050D01*
X0241228Y0073150D02*
X0241228Y0070400D01*
X0241230Y0070355D01*
X0241236Y0070309D01*
X0241245Y0070265D01*
X0241258Y0070221D01*
X0241274Y0070179D01*
X0241294Y0070138D01*
X0241318Y0070099D01*
X0241344Y0070062D01*
X0241373Y0070027D01*
X0241405Y0069995D01*
X0241440Y0069966D01*
X0241477Y0069940D01*
X0241516Y0069916D01*
X0241557Y0069896D01*
X0241599Y0069880D01*
X0241643Y0069867D01*
X0241687Y0069858D01*
X0241733Y0069852D01*
X0241778Y0069850D01*
X0241961Y0069850D01*
X0243484Y0070400D02*
X0243484Y0071317D01*
X0243484Y0070950D02*
X0244951Y0070950D01*
X0244951Y0071317D01*
X0244950Y0071317D02*
X0244948Y0071369D01*
X0244943Y0071421D01*
X0244933Y0071473D01*
X0244920Y0071524D01*
X0244904Y0071573D01*
X0244884Y0071621D01*
X0244860Y0071668D01*
X0244834Y0071713D01*
X0244804Y0071756D01*
X0244771Y0071797D01*
X0244735Y0071835D01*
X0244697Y0071871D01*
X0244656Y0071904D01*
X0244613Y0071934D01*
X0244568Y0071960D01*
X0244521Y0071984D01*
X0244473Y0072004D01*
X0244424Y0072020D01*
X0244373Y0072033D01*
X0244321Y0072043D01*
X0244269Y0072048D01*
X0244217Y0072050D01*
X0244165Y0072048D01*
X0244113Y0072043D01*
X0244061Y0072033D01*
X0244010Y0072020D01*
X0243961Y0072004D01*
X0243913Y0071984D01*
X0243866Y0071960D01*
X0243821Y0071934D01*
X0243778Y0071904D01*
X0243737Y0071871D01*
X0243699Y0071835D01*
X0243663Y0071797D01*
X0243630Y0071756D01*
X0243600Y0071713D01*
X0243574Y0071668D01*
X0243550Y0071621D01*
X0243530Y0071573D01*
X0243514Y0071524D01*
X0243501Y0071473D01*
X0243491Y0071421D01*
X0243486Y0071369D01*
X0243484Y0071317D01*
X0243484Y0070400D02*
X0243486Y0070355D01*
X0243492Y0070309D01*
X0243501Y0070265D01*
X0243514Y0070221D01*
X0243530Y0070179D01*
X0243550Y0070138D01*
X0243574Y0070099D01*
X0243600Y0070062D01*
X0243629Y0070027D01*
X0243661Y0069995D01*
X0243696Y0069966D01*
X0243733Y0069940D01*
X0243772Y0069916D01*
X0243813Y0069896D01*
X0243855Y0069880D01*
X0243899Y0069867D01*
X0243943Y0069858D01*
X0243989Y0069852D01*
X0244034Y0069850D01*
X0244951Y0069850D01*
X0246608Y0070400D02*
X0246608Y0073150D01*
X0246608Y0070400D02*
X0246610Y0070355D01*
X0246616Y0070309D01*
X0246625Y0070265D01*
X0246638Y0070221D01*
X0246654Y0070179D01*
X0246674Y0070138D01*
X0246698Y0070099D01*
X0246724Y0070062D01*
X0246753Y0070027D01*
X0246785Y0069995D01*
X0246820Y0069966D01*
X0246857Y0069940D01*
X0246896Y0069916D01*
X0246937Y0069896D01*
X0246979Y0069880D01*
X0247023Y0069867D01*
X0247067Y0069858D01*
X0247113Y0069852D01*
X0247158Y0069850D01*
X0207072Y0069850D02*
X0207072Y0073150D01*
X0156099Y0069850D02*
X0154632Y0069850D01*
X0114439Y0069850D02*
X0114394Y0069852D01*
X0114348Y0069858D01*
X0114304Y0069867D01*
X0114260Y0069880D01*
X0114218Y0069896D01*
X0114177Y0069916D01*
X0114138Y0069940D01*
X0114101Y0069966D01*
X0114066Y0069995D01*
X0114034Y0070027D01*
X0114005Y0070062D01*
X0113979Y0070099D01*
X0113955Y0070138D01*
X0113935Y0070179D01*
X0113919Y0070221D01*
X0113906Y0070265D01*
X0113897Y0070309D01*
X0113891Y0070355D01*
X0113889Y0070400D01*
X0126925Y0130850D02*
X0128025Y0130850D01*
X0128025Y0132683D01*
X0127475Y0132683D01*
X0126192Y0133417D02*
X0126194Y0133469D01*
X0126199Y0133521D01*
X0126209Y0133573D01*
X0126222Y0133624D01*
X0126238Y0133673D01*
X0126258Y0133721D01*
X0126282Y0133768D01*
X0126308Y0133813D01*
X0126338Y0133856D01*
X0126371Y0133897D01*
X0126407Y0133935D01*
X0126445Y0133971D01*
X0126486Y0134004D01*
X0126529Y0134034D01*
X0126574Y0134060D01*
X0126620Y0134084D01*
X0126669Y0134104D01*
X0126718Y0134120D01*
X0126769Y0134133D01*
X0126821Y0134143D01*
X0126873Y0134148D01*
X0126925Y0134150D01*
X0128025Y0134150D01*
X0126192Y0133417D02*
X0126192Y0131583D01*
X0126194Y0131531D01*
X0126199Y0131479D01*
X0126209Y0131427D01*
X0126222Y0131376D01*
X0126238Y0131327D01*
X0126258Y0131279D01*
X0126282Y0131232D01*
X0126308Y0131187D01*
X0126338Y0131144D01*
X0126371Y0131103D01*
X0126407Y0131065D01*
X0126445Y0131029D01*
X0126486Y0130996D01*
X0126529Y0130966D01*
X0126574Y0130940D01*
X0126621Y0130916D01*
X0126669Y0130896D01*
X0126718Y0130880D01*
X0126769Y0130867D01*
X0126821Y0130857D01*
X0126873Y0130852D01*
X0126925Y0130850D01*
X0130032Y0130850D02*
X0130032Y0134150D01*
X0131865Y0130850D01*
X0131865Y0134150D01*
X0133872Y0134150D02*
X0134788Y0134150D01*
X0133872Y0134150D02*
X0133872Y0130850D01*
X0134788Y0130850D01*
X0134846Y0130852D01*
X0134903Y0130857D01*
X0134960Y0130866D01*
X0135016Y0130879D01*
X0135071Y0130895D01*
X0135126Y0130914D01*
X0135178Y0130937D01*
X0135230Y0130963D01*
X0135279Y0130993D01*
X0135327Y0131025D01*
X0135373Y0131060D01*
X0135416Y0131099D01*
X0135456Y0131139D01*
X0135495Y0131182D01*
X0135530Y0131228D01*
X0135562Y0131276D01*
X0135592Y0131325D01*
X0135618Y0131377D01*
X0135641Y0131429D01*
X0135660Y0131484D01*
X0135676Y0131539D01*
X0135689Y0131595D01*
X0135698Y0131652D01*
X0135703Y0131709D01*
X0135705Y0131767D01*
X0135705Y0133233D01*
X0135703Y0133291D01*
X0135698Y0133348D01*
X0135689Y0133405D01*
X0135676Y0133461D01*
X0135660Y0133516D01*
X0135641Y0133571D01*
X0135618Y0133623D01*
X0135592Y0133675D01*
X0135562Y0133724D01*
X0135530Y0133772D01*
X0135495Y0133818D01*
X0135456Y0133861D01*
X0135416Y0133901D01*
X0135373Y0133940D01*
X0135327Y0133975D01*
X0135279Y0134007D01*
X0135230Y0134037D01*
X0135178Y0134063D01*
X0135126Y0134086D01*
X0135071Y0134105D01*
X0135016Y0134121D01*
X0134960Y0134134D01*
X0134903Y0134143D01*
X0134846Y0134148D01*
X0134788Y0134150D01*
X0138192Y0134150D02*
X0139292Y0130850D01*
X0140392Y0134150D01*
X0141958Y0133417D02*
X0141958Y0131583D01*
X0141959Y0131583D02*
X0141961Y0131531D01*
X0141966Y0131479D01*
X0141976Y0131427D01*
X0141989Y0131376D01*
X0142005Y0131327D01*
X0142025Y0131279D01*
X0142049Y0131232D01*
X0142075Y0131187D01*
X0142105Y0131144D01*
X0142138Y0131103D01*
X0142174Y0131065D01*
X0142212Y0131029D01*
X0142253Y0130996D01*
X0142296Y0130966D01*
X0142341Y0130940D01*
X0142388Y0130916D01*
X0142436Y0130896D01*
X0142485Y0130880D01*
X0142536Y0130867D01*
X0142588Y0130857D01*
X0142640Y0130852D01*
X0142692Y0130850D01*
X0143425Y0130850D01*
X0144958Y0131583D02*
X0144958Y0133417D01*
X0144959Y0133417D02*
X0144961Y0133469D01*
X0144966Y0133521D01*
X0144976Y0133573D01*
X0144989Y0133624D01*
X0145005Y0133673D01*
X0145025Y0133721D01*
X0145049Y0133768D01*
X0145075Y0133813D01*
X0145105Y0133856D01*
X0145138Y0133897D01*
X0145174Y0133935D01*
X0145212Y0133971D01*
X0145253Y0134004D01*
X0145296Y0134034D01*
X0145341Y0134060D01*
X0145387Y0134084D01*
X0145436Y0134104D01*
X0145485Y0134120D01*
X0145536Y0134133D01*
X0145588Y0134143D01*
X0145640Y0134148D01*
X0145692Y0134150D01*
X0146425Y0134150D01*
X0144959Y0131583D02*
X0144961Y0131531D01*
X0144966Y0131479D01*
X0144976Y0131427D01*
X0144989Y0131376D01*
X0145005Y0131327D01*
X0145025Y0131279D01*
X0145049Y0131232D01*
X0145075Y0131187D01*
X0145105Y0131144D01*
X0145138Y0131103D01*
X0145174Y0131065D01*
X0145212Y0131029D01*
X0145253Y0130996D01*
X0145296Y0130966D01*
X0145341Y0130940D01*
X0145388Y0130916D01*
X0145436Y0130896D01*
X0145485Y0130880D01*
X0145536Y0130867D01*
X0145588Y0130857D01*
X0145640Y0130852D01*
X0145692Y0130850D01*
X0146425Y0130850D01*
X0143425Y0134150D02*
X0142692Y0134150D01*
X0142640Y0134148D01*
X0142588Y0134143D01*
X0142536Y0134133D01*
X0142485Y0134120D01*
X0142436Y0134104D01*
X0142387Y0134084D01*
X0142341Y0134060D01*
X0142296Y0134034D01*
X0142253Y0134004D01*
X0142212Y0133971D01*
X0142174Y0133935D01*
X0142138Y0133897D01*
X0142105Y0133856D01*
X0142075Y0133813D01*
X0142049Y0133768D01*
X0142025Y0133721D01*
X0142005Y0133673D01*
X0141989Y0133624D01*
X0141976Y0133573D01*
X0141966Y0133521D01*
X0141961Y0133469D01*
X0141959Y0133417D01*
X0141575Y0156350D02*
X0140842Y0156350D01*
X0141208Y0156350D02*
X0141208Y0159650D01*
X0140842Y0159650D02*
X0141575Y0159650D01*
X0139125Y0158733D02*
X0139125Y0157267D01*
X0139123Y0157209D01*
X0139118Y0157152D01*
X0139109Y0157095D01*
X0139096Y0157039D01*
X0139080Y0156984D01*
X0139061Y0156929D01*
X0139038Y0156877D01*
X0139012Y0156825D01*
X0138982Y0156776D01*
X0138950Y0156728D01*
X0138915Y0156682D01*
X0138876Y0156639D01*
X0138836Y0156599D01*
X0138793Y0156560D01*
X0138747Y0156525D01*
X0138699Y0156493D01*
X0138650Y0156463D01*
X0138598Y0156437D01*
X0138546Y0156414D01*
X0138491Y0156395D01*
X0138436Y0156379D01*
X0138380Y0156366D01*
X0138323Y0156357D01*
X0138266Y0156352D01*
X0138208Y0156350D01*
X0137292Y0156350D01*
X0137292Y0159650D01*
X0138208Y0159650D01*
X0138266Y0159648D01*
X0138323Y0159643D01*
X0138380Y0159634D01*
X0138436Y0159621D01*
X0138491Y0159605D01*
X0138546Y0159586D01*
X0138598Y0159563D01*
X0138650Y0159537D01*
X0138699Y0159507D01*
X0138747Y0159475D01*
X0138793Y0159440D01*
X0138836Y0159401D01*
X0138876Y0159361D01*
X0138915Y0159318D01*
X0138950Y0159272D01*
X0138982Y0159224D01*
X0139012Y0159175D01*
X0139038Y0159123D01*
X0139061Y0159071D01*
X0139080Y0159016D01*
X0139096Y0158961D01*
X0139109Y0158905D01*
X0139118Y0158848D01*
X0139123Y0158791D01*
X0139125Y0158733D01*
X0135158Y0157725D02*
X0134150Y0158275D01*
X0134517Y0159650D02*
X0134591Y0159648D01*
X0134664Y0159642D01*
X0134737Y0159632D01*
X0134810Y0159618D01*
X0134881Y0159601D01*
X0134952Y0159579D01*
X0135021Y0159554D01*
X0135089Y0159525D01*
X0135155Y0159493D01*
X0135220Y0159457D01*
X0135282Y0159418D01*
X0135342Y0159375D01*
X0134150Y0158275D02*
X0134106Y0158303D01*
X0134065Y0158333D01*
X0134026Y0158367D01*
X0133989Y0158403D01*
X0133954Y0158442D01*
X0133923Y0158482D01*
X0133894Y0158525D01*
X0133869Y0158570D01*
X0133846Y0158616D01*
X0133827Y0158664D01*
X0133811Y0158713D01*
X0133799Y0158763D01*
X0133790Y0158814D01*
X0133785Y0158865D01*
X0133783Y0158917D01*
X0133784Y0158917D02*
X0133786Y0158969D01*
X0133791Y0159021D01*
X0133801Y0159073D01*
X0133814Y0159124D01*
X0133830Y0159173D01*
X0133850Y0159221D01*
X0133874Y0159268D01*
X0133900Y0159313D01*
X0133930Y0159356D01*
X0133963Y0159397D01*
X0133999Y0159435D01*
X0134037Y0159471D01*
X0134078Y0159504D01*
X0134121Y0159534D01*
X0134166Y0159560D01*
X0134213Y0159584D01*
X0134261Y0159604D01*
X0134310Y0159620D01*
X0134361Y0159633D01*
X0134413Y0159643D01*
X0134465Y0159648D01*
X0134517Y0159650D01*
X0133692Y0156808D02*
X0133747Y0156755D01*
X0133805Y0156705D01*
X0133865Y0156658D01*
X0133927Y0156614D01*
X0133992Y0156573D01*
X0134058Y0156535D01*
X0134126Y0156500D01*
X0134196Y0156469D01*
X0134267Y0156442D01*
X0134340Y0156417D01*
X0134414Y0156397D01*
X0134488Y0156380D01*
X0134564Y0156367D01*
X0134639Y0156358D01*
X0134716Y0156352D01*
X0134792Y0156350D01*
X0134844Y0156352D01*
X0134896Y0156357D01*
X0134948Y0156367D01*
X0134999Y0156380D01*
X0135048Y0156396D01*
X0135097Y0156416D01*
X0135143Y0156440D01*
X0135188Y0156466D01*
X0135231Y0156496D01*
X0135272Y0156529D01*
X0135310Y0156565D01*
X0135346Y0156603D01*
X0135379Y0156644D01*
X0135409Y0156687D01*
X0135435Y0156732D01*
X0135459Y0156779D01*
X0135479Y0156827D01*
X0135495Y0156876D01*
X0135508Y0156927D01*
X0135518Y0156979D01*
X0135523Y0157031D01*
X0135525Y0157083D01*
X0135523Y0157135D01*
X0135518Y0157186D01*
X0135509Y0157237D01*
X0135497Y0157287D01*
X0135481Y0157336D01*
X0135462Y0157384D01*
X0135439Y0157430D01*
X0135414Y0157475D01*
X0135385Y0157518D01*
X0135354Y0157558D01*
X0135319Y0157597D01*
X0135282Y0157633D01*
X0135243Y0157667D01*
X0135202Y0157697D01*
X0135158Y0157725D01*
X0144692Y0157083D02*
X0144692Y0158917D01*
X0144694Y0158969D01*
X0144699Y0159021D01*
X0144709Y0159073D01*
X0144722Y0159124D01*
X0144738Y0159173D01*
X0144758Y0159221D01*
X0144782Y0159268D01*
X0144808Y0159313D01*
X0144838Y0159356D01*
X0144871Y0159397D01*
X0144907Y0159435D01*
X0144945Y0159471D01*
X0144986Y0159504D01*
X0145029Y0159534D01*
X0145074Y0159560D01*
X0145120Y0159584D01*
X0145169Y0159604D01*
X0145218Y0159620D01*
X0145269Y0159633D01*
X0145321Y0159643D01*
X0145373Y0159648D01*
X0145425Y0159650D01*
X0146158Y0159650D01*
X0147840Y0159650D02*
X0147840Y0156350D01*
X0149306Y0156350D01*
X0151033Y0156350D02*
X0151033Y0159650D01*
X0151767Y0158367D02*
X0152867Y0156350D01*
X0151033Y0157633D02*
X0152867Y0159650D01*
X0146158Y0156350D02*
X0145425Y0156350D01*
X0145373Y0156352D01*
X0145321Y0156357D01*
X0145269Y0156367D01*
X0145218Y0156380D01*
X0145169Y0156396D01*
X0145121Y0156416D01*
X0145074Y0156440D01*
X0145029Y0156466D01*
X0144986Y0156496D01*
X0144945Y0156529D01*
X0144907Y0156565D01*
X0144871Y0156603D01*
X0144838Y0156644D01*
X0144808Y0156687D01*
X0144782Y0156732D01*
X0144758Y0156779D01*
X0144738Y0156827D01*
X0144722Y0156876D01*
X0144709Y0156927D01*
X0144699Y0156979D01*
X0144694Y0157031D01*
X0144692Y0157083D01*
X0174692Y0159650D02*
X0175792Y0156350D01*
X0176892Y0159650D01*
X0178458Y0158917D02*
X0178458Y0157083D01*
X0178459Y0157083D02*
X0178461Y0157031D01*
X0178466Y0156979D01*
X0178476Y0156927D01*
X0178489Y0156876D01*
X0178505Y0156827D01*
X0178525Y0156779D01*
X0178549Y0156732D01*
X0178575Y0156687D01*
X0178605Y0156644D01*
X0178638Y0156603D01*
X0178674Y0156565D01*
X0178712Y0156529D01*
X0178753Y0156496D01*
X0178796Y0156466D01*
X0178841Y0156440D01*
X0178888Y0156416D01*
X0178936Y0156396D01*
X0178985Y0156380D01*
X0179036Y0156367D01*
X0179088Y0156357D01*
X0179140Y0156352D01*
X0179192Y0156350D01*
X0179925Y0156350D01*
X0181458Y0157083D02*
X0181458Y0158917D01*
X0181459Y0158917D02*
X0181461Y0158969D01*
X0181466Y0159021D01*
X0181476Y0159073D01*
X0181489Y0159124D01*
X0181505Y0159173D01*
X0181525Y0159221D01*
X0181549Y0159268D01*
X0181575Y0159313D01*
X0181605Y0159356D01*
X0181638Y0159397D01*
X0181674Y0159435D01*
X0181712Y0159471D01*
X0181753Y0159504D01*
X0181796Y0159534D01*
X0181841Y0159560D01*
X0181887Y0159584D01*
X0181936Y0159604D01*
X0181985Y0159620D01*
X0182036Y0159633D01*
X0182088Y0159643D01*
X0182140Y0159648D01*
X0182192Y0159650D01*
X0182925Y0159650D01*
X0181459Y0157083D02*
X0181461Y0157031D01*
X0181466Y0156979D01*
X0181476Y0156927D01*
X0181489Y0156876D01*
X0181505Y0156827D01*
X0181525Y0156779D01*
X0181549Y0156732D01*
X0181575Y0156687D01*
X0181605Y0156644D01*
X0181638Y0156603D01*
X0181674Y0156565D01*
X0181712Y0156529D01*
X0181753Y0156496D01*
X0181796Y0156466D01*
X0181841Y0156440D01*
X0181888Y0156416D01*
X0181936Y0156396D01*
X0181985Y0156380D01*
X0182036Y0156367D01*
X0182088Y0156357D01*
X0182140Y0156352D01*
X0182192Y0156350D01*
X0182925Y0156350D01*
X0179925Y0159650D02*
X0179192Y0159650D01*
X0179140Y0159648D01*
X0179088Y0159643D01*
X0179036Y0159633D01*
X0178985Y0159620D01*
X0178936Y0159604D01*
X0178887Y0159584D01*
X0178841Y0159560D01*
X0178796Y0159534D01*
X0178753Y0159504D01*
X0178712Y0159471D01*
X0178674Y0159435D01*
X0178638Y0159397D01*
X0178605Y0159356D01*
X0178575Y0159313D01*
X0178549Y0159268D01*
X0178525Y0159221D01*
X0178505Y0159173D01*
X0178489Y0159124D01*
X0178476Y0159073D01*
X0178466Y0159021D01*
X0178461Y0158969D01*
X0178459Y0158917D01*
X0194692Y0158917D02*
X0194692Y0157083D01*
X0194694Y0157031D01*
X0194699Y0156979D01*
X0194709Y0156927D01*
X0194722Y0156876D01*
X0194738Y0156827D01*
X0194758Y0156779D01*
X0194782Y0156732D01*
X0194808Y0156687D01*
X0194838Y0156644D01*
X0194871Y0156603D01*
X0194907Y0156565D01*
X0194945Y0156529D01*
X0194986Y0156496D01*
X0195029Y0156466D01*
X0195074Y0156440D01*
X0195121Y0156416D01*
X0195169Y0156396D01*
X0195218Y0156380D01*
X0195269Y0156367D01*
X0195321Y0156357D01*
X0195373Y0156352D01*
X0195425Y0156350D01*
X0196525Y0156350D01*
X0196525Y0158183D01*
X0195975Y0158183D01*
X0194692Y0158917D02*
X0194694Y0158969D01*
X0194699Y0159021D01*
X0194709Y0159073D01*
X0194722Y0159124D01*
X0194738Y0159173D01*
X0194758Y0159221D01*
X0194782Y0159268D01*
X0194808Y0159313D01*
X0194838Y0159356D01*
X0194871Y0159397D01*
X0194907Y0159435D01*
X0194945Y0159471D01*
X0194986Y0159504D01*
X0195029Y0159534D01*
X0195074Y0159560D01*
X0195120Y0159584D01*
X0195169Y0159604D01*
X0195218Y0159620D01*
X0195269Y0159633D01*
X0195321Y0159643D01*
X0195373Y0159648D01*
X0195425Y0159650D01*
X0196525Y0159650D01*
X0198532Y0159650D02*
X0200365Y0156350D01*
X0200365Y0159650D01*
X0198532Y0159650D02*
X0198532Y0156350D01*
X0202372Y0156350D02*
X0202372Y0159650D01*
X0203288Y0159650D01*
X0203346Y0159648D01*
X0203403Y0159643D01*
X0203460Y0159634D01*
X0203516Y0159621D01*
X0203571Y0159605D01*
X0203626Y0159586D01*
X0203678Y0159563D01*
X0203730Y0159537D01*
X0203779Y0159507D01*
X0203827Y0159475D01*
X0203873Y0159440D01*
X0203916Y0159401D01*
X0203956Y0159361D01*
X0203995Y0159318D01*
X0204030Y0159272D01*
X0204062Y0159224D01*
X0204092Y0159175D01*
X0204118Y0159123D01*
X0204141Y0159071D01*
X0204160Y0159016D01*
X0204176Y0158961D01*
X0204189Y0158905D01*
X0204198Y0158848D01*
X0204203Y0158791D01*
X0204205Y0158733D01*
X0204205Y0157267D01*
X0204203Y0157209D01*
X0204198Y0157152D01*
X0204189Y0157095D01*
X0204176Y0157039D01*
X0204160Y0156984D01*
X0204141Y0156929D01*
X0204118Y0156877D01*
X0204092Y0156825D01*
X0204062Y0156776D01*
X0204030Y0156728D01*
X0203995Y0156682D01*
X0203956Y0156639D01*
X0203916Y0156599D01*
X0203873Y0156560D01*
X0203827Y0156525D01*
X0203779Y0156493D01*
X0203730Y0156463D01*
X0203678Y0156437D01*
X0203626Y0156414D01*
X0203571Y0156395D01*
X0203516Y0156379D01*
X0203460Y0156366D01*
X0203403Y0156357D01*
X0203346Y0156352D01*
X0203288Y0156350D01*
X0202372Y0156350D01*
X0201533Y0134650D02*
X0201533Y0131350D01*
X0201533Y0132633D02*
X0203367Y0134650D01*
X0202267Y0133367D02*
X0203367Y0131350D01*
X0205692Y0132083D02*
X0205692Y0133917D01*
X0205694Y0133969D01*
X0205699Y0134021D01*
X0205709Y0134073D01*
X0205722Y0134124D01*
X0205738Y0134173D01*
X0205758Y0134221D01*
X0205782Y0134268D01*
X0205808Y0134313D01*
X0205838Y0134356D01*
X0205871Y0134397D01*
X0205907Y0134435D01*
X0205945Y0134471D01*
X0205986Y0134504D01*
X0206029Y0134534D01*
X0206074Y0134560D01*
X0206120Y0134584D01*
X0206169Y0134604D01*
X0206218Y0134620D01*
X0206269Y0134633D01*
X0206321Y0134643D01*
X0206373Y0134648D01*
X0206425Y0134650D01*
X0207525Y0134650D01*
X0207525Y0133183D02*
X0207525Y0131350D01*
X0206425Y0131350D01*
X0206373Y0131352D01*
X0206321Y0131357D01*
X0206269Y0131367D01*
X0206218Y0131380D01*
X0206169Y0131396D01*
X0206121Y0131416D01*
X0206074Y0131440D01*
X0206029Y0131466D01*
X0205986Y0131496D01*
X0205945Y0131529D01*
X0205907Y0131565D01*
X0205871Y0131603D01*
X0205838Y0131644D01*
X0205808Y0131687D01*
X0205782Y0131732D01*
X0205758Y0131779D01*
X0205738Y0131827D01*
X0205722Y0131876D01*
X0205709Y0131927D01*
X0205699Y0131979D01*
X0205694Y0132031D01*
X0205692Y0132083D01*
X0206975Y0133183D02*
X0207525Y0133183D01*
X0209532Y0134650D02*
X0211365Y0131350D01*
X0211365Y0134650D01*
X0209532Y0134650D02*
X0209532Y0131350D01*
X0213372Y0131350D02*
X0213372Y0134650D01*
X0214288Y0134650D01*
X0214346Y0134648D01*
X0214403Y0134643D01*
X0214460Y0134634D01*
X0214516Y0134621D01*
X0214571Y0134605D01*
X0214626Y0134586D01*
X0214678Y0134563D01*
X0214730Y0134537D01*
X0214779Y0134507D01*
X0214827Y0134475D01*
X0214873Y0134440D01*
X0214916Y0134401D01*
X0214956Y0134361D01*
X0214995Y0134318D01*
X0215030Y0134272D01*
X0215062Y0134224D01*
X0215092Y0134175D01*
X0215118Y0134123D01*
X0215141Y0134071D01*
X0215160Y0134016D01*
X0215176Y0133961D01*
X0215189Y0133905D01*
X0215198Y0133848D01*
X0215203Y0133791D01*
X0215205Y0133733D01*
X0215205Y0132267D01*
X0215203Y0132209D01*
X0215198Y0132152D01*
X0215189Y0132095D01*
X0215176Y0132039D01*
X0215160Y0131984D01*
X0215141Y0131929D01*
X0215118Y0131877D01*
X0215092Y0131825D01*
X0215062Y0131776D01*
X0215030Y0131728D01*
X0214995Y0131682D01*
X0214956Y0131639D01*
X0214916Y0131599D01*
X0214873Y0131560D01*
X0214827Y0131525D01*
X0214779Y0131493D01*
X0214730Y0131463D01*
X0214678Y0131437D01*
X0214626Y0131414D01*
X0214571Y0131395D01*
X0214516Y0131379D01*
X0214460Y0131366D01*
X0214403Y0131357D01*
X0214346Y0131352D01*
X0214288Y0131350D01*
X0213372Y0131350D01*
X0223692Y0134150D02*
X0224792Y0130850D01*
X0225892Y0134150D01*
X0227458Y0133417D02*
X0227458Y0131583D01*
X0227459Y0131583D02*
X0227461Y0131531D01*
X0227466Y0131479D01*
X0227476Y0131427D01*
X0227489Y0131376D01*
X0227505Y0131327D01*
X0227525Y0131279D01*
X0227549Y0131232D01*
X0227575Y0131187D01*
X0227605Y0131144D01*
X0227638Y0131103D01*
X0227674Y0131065D01*
X0227712Y0131029D01*
X0227753Y0130996D01*
X0227796Y0130966D01*
X0227841Y0130940D01*
X0227888Y0130916D01*
X0227936Y0130896D01*
X0227985Y0130880D01*
X0228036Y0130867D01*
X0228088Y0130857D01*
X0228140Y0130852D01*
X0228192Y0130850D01*
X0228925Y0130850D01*
X0230458Y0131583D02*
X0230458Y0133417D01*
X0230459Y0133417D02*
X0230461Y0133469D01*
X0230466Y0133521D01*
X0230476Y0133573D01*
X0230489Y0133624D01*
X0230505Y0133673D01*
X0230525Y0133721D01*
X0230549Y0133768D01*
X0230575Y0133813D01*
X0230605Y0133856D01*
X0230638Y0133897D01*
X0230674Y0133935D01*
X0230712Y0133971D01*
X0230753Y0134004D01*
X0230796Y0134034D01*
X0230841Y0134060D01*
X0230887Y0134084D01*
X0230936Y0134104D01*
X0230985Y0134120D01*
X0231036Y0134133D01*
X0231088Y0134143D01*
X0231140Y0134148D01*
X0231192Y0134150D01*
X0231925Y0134150D01*
X0230459Y0131583D02*
X0230461Y0131531D01*
X0230466Y0131479D01*
X0230476Y0131427D01*
X0230489Y0131376D01*
X0230505Y0131327D01*
X0230525Y0131279D01*
X0230549Y0131232D01*
X0230575Y0131187D01*
X0230605Y0131144D01*
X0230638Y0131103D01*
X0230674Y0131065D01*
X0230712Y0131029D01*
X0230753Y0130996D01*
X0230796Y0130966D01*
X0230841Y0130940D01*
X0230888Y0130916D01*
X0230936Y0130896D01*
X0230985Y0130880D01*
X0231036Y0130867D01*
X0231088Y0130857D01*
X0231140Y0130852D01*
X0231192Y0130850D01*
X0231925Y0130850D01*
X0228925Y0134150D02*
X0228192Y0134150D01*
X0228140Y0134148D01*
X0228088Y0134143D01*
X0228036Y0134133D01*
X0227985Y0134120D01*
X0227936Y0134104D01*
X0227887Y0134084D01*
X0227841Y0134060D01*
X0227796Y0134034D01*
X0227753Y0134004D01*
X0227712Y0133971D01*
X0227674Y0133935D01*
X0227638Y0133897D01*
X0227605Y0133856D01*
X0227575Y0133813D01*
X0227549Y0133768D01*
X0227525Y0133721D01*
X0227505Y0133673D01*
X0227489Y0133624D01*
X0227476Y0133573D01*
X0227466Y0133521D01*
X0227461Y0133469D01*
X0227459Y0133417D01*
X0199806Y0131350D02*
X0198340Y0131350D01*
X0198340Y0134650D01*
X0196658Y0134650D02*
X0195925Y0134650D01*
X0195873Y0134648D01*
X0195821Y0134643D01*
X0195769Y0134633D01*
X0195718Y0134620D01*
X0195669Y0134604D01*
X0195620Y0134584D01*
X0195574Y0134560D01*
X0195529Y0134534D01*
X0195486Y0134504D01*
X0195445Y0134471D01*
X0195407Y0134435D01*
X0195371Y0134397D01*
X0195338Y0134356D01*
X0195308Y0134313D01*
X0195282Y0134268D01*
X0195258Y0134221D01*
X0195238Y0134173D01*
X0195222Y0134124D01*
X0195209Y0134073D01*
X0195199Y0134021D01*
X0195194Y0133969D01*
X0195192Y0133917D01*
X0195192Y0132083D01*
X0195194Y0132031D01*
X0195199Y0131979D01*
X0195209Y0131927D01*
X0195222Y0131876D01*
X0195238Y0131827D01*
X0195258Y0131779D01*
X0195282Y0131732D01*
X0195308Y0131687D01*
X0195338Y0131644D01*
X0195371Y0131603D01*
X0195407Y0131565D01*
X0195445Y0131529D01*
X0195486Y0131496D01*
X0195529Y0131466D01*
X0195574Y0131440D01*
X0195621Y0131416D01*
X0195669Y0131396D01*
X0195718Y0131380D01*
X0195769Y0131367D01*
X0195821Y0131357D01*
X0195873Y0131352D01*
X0195925Y0131350D01*
X0196658Y0131350D01*
X0183075Y0131350D02*
X0182342Y0131350D01*
X0182708Y0131350D02*
X0182708Y0134650D01*
X0182342Y0134650D02*
X0183075Y0134650D01*
X0180625Y0133733D02*
X0180625Y0132267D01*
X0180623Y0132209D01*
X0180618Y0132152D01*
X0180609Y0132095D01*
X0180596Y0132039D01*
X0180580Y0131984D01*
X0180561Y0131929D01*
X0180538Y0131877D01*
X0180512Y0131825D01*
X0180482Y0131776D01*
X0180450Y0131728D01*
X0180415Y0131682D01*
X0180376Y0131639D01*
X0180336Y0131599D01*
X0180293Y0131560D01*
X0180247Y0131525D01*
X0180199Y0131493D01*
X0180150Y0131463D01*
X0180098Y0131437D01*
X0180046Y0131414D01*
X0179991Y0131395D01*
X0179936Y0131379D01*
X0179880Y0131366D01*
X0179823Y0131357D01*
X0179766Y0131352D01*
X0179708Y0131350D01*
X0178792Y0131350D01*
X0178792Y0134650D01*
X0179708Y0134650D01*
X0179766Y0134648D01*
X0179823Y0134643D01*
X0179880Y0134634D01*
X0179936Y0134621D01*
X0179991Y0134605D01*
X0180046Y0134586D01*
X0180098Y0134563D01*
X0180150Y0134537D01*
X0180199Y0134507D01*
X0180247Y0134475D01*
X0180293Y0134440D01*
X0180336Y0134401D01*
X0180376Y0134361D01*
X0180415Y0134318D01*
X0180450Y0134272D01*
X0180482Y0134224D01*
X0180512Y0134175D01*
X0180538Y0134123D01*
X0180561Y0134071D01*
X0180580Y0134016D01*
X0180596Y0133961D01*
X0180609Y0133905D01*
X0180618Y0133848D01*
X0180623Y0133791D01*
X0180625Y0133733D01*
X0176658Y0132725D02*
X0175650Y0133275D01*
X0176017Y0134650D02*
X0176091Y0134648D01*
X0176164Y0134642D01*
X0176237Y0134632D01*
X0176310Y0134618D01*
X0176381Y0134601D01*
X0176452Y0134579D01*
X0176521Y0134554D01*
X0176589Y0134525D01*
X0176655Y0134493D01*
X0176720Y0134457D01*
X0176782Y0134418D01*
X0176842Y0134375D01*
X0175650Y0133275D02*
X0175606Y0133303D01*
X0175565Y0133333D01*
X0175526Y0133367D01*
X0175489Y0133403D01*
X0175454Y0133442D01*
X0175423Y0133482D01*
X0175394Y0133525D01*
X0175369Y0133570D01*
X0175346Y0133616D01*
X0175327Y0133664D01*
X0175311Y0133713D01*
X0175299Y0133763D01*
X0175290Y0133814D01*
X0175285Y0133865D01*
X0175283Y0133917D01*
X0175284Y0133917D02*
X0175286Y0133969D01*
X0175291Y0134021D01*
X0175301Y0134073D01*
X0175314Y0134124D01*
X0175330Y0134173D01*
X0175350Y0134221D01*
X0175374Y0134268D01*
X0175400Y0134313D01*
X0175430Y0134356D01*
X0175463Y0134397D01*
X0175499Y0134435D01*
X0175537Y0134471D01*
X0175578Y0134504D01*
X0175621Y0134534D01*
X0175666Y0134560D01*
X0175713Y0134584D01*
X0175761Y0134604D01*
X0175810Y0134620D01*
X0175861Y0134633D01*
X0175913Y0134643D01*
X0175965Y0134648D01*
X0176017Y0134650D01*
X0175192Y0131808D02*
X0175247Y0131755D01*
X0175305Y0131705D01*
X0175365Y0131658D01*
X0175427Y0131614D01*
X0175492Y0131573D01*
X0175558Y0131535D01*
X0175626Y0131500D01*
X0175696Y0131469D01*
X0175767Y0131442D01*
X0175840Y0131417D01*
X0175914Y0131397D01*
X0175988Y0131380D01*
X0176064Y0131367D01*
X0176139Y0131358D01*
X0176216Y0131352D01*
X0176292Y0131350D01*
X0176344Y0131352D01*
X0176396Y0131357D01*
X0176448Y0131367D01*
X0176499Y0131380D01*
X0176548Y0131396D01*
X0176597Y0131416D01*
X0176643Y0131440D01*
X0176688Y0131466D01*
X0176731Y0131496D01*
X0176772Y0131529D01*
X0176810Y0131565D01*
X0176846Y0131603D01*
X0176879Y0131644D01*
X0176909Y0131687D01*
X0176935Y0131732D01*
X0176959Y0131779D01*
X0176979Y0131827D01*
X0176995Y0131876D01*
X0177008Y0131927D01*
X0177018Y0131979D01*
X0177023Y0132031D01*
X0177025Y0132083D01*
X0177023Y0132135D01*
X0177018Y0132186D01*
X0177009Y0132237D01*
X0176997Y0132287D01*
X0176981Y0132336D01*
X0176962Y0132384D01*
X0176939Y0132430D01*
X0176914Y0132475D01*
X0176885Y0132518D01*
X0176854Y0132558D01*
X0176819Y0132597D01*
X0176782Y0132633D01*
X0176743Y0132667D01*
X0176702Y0132697D01*
X0176658Y0132725D01*
X0096575Y0131350D02*
X0095842Y0131350D01*
X0096208Y0131350D02*
X0096208Y0134650D01*
X0095842Y0134650D02*
X0096575Y0134650D01*
X0094125Y0133733D02*
X0094125Y0132267D01*
X0094123Y0132209D01*
X0094118Y0132152D01*
X0094109Y0132095D01*
X0094096Y0132039D01*
X0094080Y0131984D01*
X0094061Y0131929D01*
X0094038Y0131877D01*
X0094012Y0131825D01*
X0093982Y0131776D01*
X0093950Y0131728D01*
X0093915Y0131682D01*
X0093876Y0131639D01*
X0093836Y0131599D01*
X0093793Y0131560D01*
X0093747Y0131525D01*
X0093699Y0131493D01*
X0093650Y0131463D01*
X0093598Y0131437D01*
X0093546Y0131414D01*
X0093491Y0131395D01*
X0093436Y0131379D01*
X0093380Y0131366D01*
X0093323Y0131357D01*
X0093266Y0131352D01*
X0093208Y0131350D01*
X0092292Y0131350D01*
X0092292Y0134650D01*
X0093208Y0134650D01*
X0093266Y0134648D01*
X0093323Y0134643D01*
X0093380Y0134634D01*
X0093436Y0134621D01*
X0093491Y0134605D01*
X0093546Y0134586D01*
X0093598Y0134563D01*
X0093650Y0134537D01*
X0093699Y0134507D01*
X0093747Y0134475D01*
X0093793Y0134440D01*
X0093836Y0134401D01*
X0093876Y0134361D01*
X0093915Y0134318D01*
X0093950Y0134272D01*
X0093982Y0134224D01*
X0094012Y0134175D01*
X0094038Y0134123D01*
X0094061Y0134071D01*
X0094080Y0134016D01*
X0094096Y0133961D01*
X0094109Y0133905D01*
X0094118Y0133848D01*
X0094123Y0133791D01*
X0094125Y0133733D01*
X0090158Y0132725D02*
X0089150Y0133275D01*
X0089517Y0134650D02*
X0089591Y0134648D01*
X0089664Y0134642D01*
X0089737Y0134632D01*
X0089810Y0134618D01*
X0089881Y0134601D01*
X0089952Y0134579D01*
X0090021Y0134554D01*
X0090089Y0134525D01*
X0090155Y0134493D01*
X0090220Y0134457D01*
X0090282Y0134418D01*
X0090342Y0134375D01*
X0089150Y0133275D02*
X0089106Y0133303D01*
X0089065Y0133333D01*
X0089026Y0133367D01*
X0088989Y0133403D01*
X0088954Y0133442D01*
X0088923Y0133482D01*
X0088894Y0133525D01*
X0088869Y0133570D01*
X0088846Y0133616D01*
X0088827Y0133664D01*
X0088811Y0133713D01*
X0088799Y0133763D01*
X0088790Y0133814D01*
X0088785Y0133865D01*
X0088783Y0133917D01*
X0088784Y0133917D02*
X0088786Y0133969D01*
X0088791Y0134021D01*
X0088801Y0134073D01*
X0088814Y0134124D01*
X0088830Y0134173D01*
X0088850Y0134221D01*
X0088874Y0134268D01*
X0088900Y0134313D01*
X0088930Y0134356D01*
X0088963Y0134397D01*
X0088999Y0134435D01*
X0089037Y0134471D01*
X0089078Y0134504D01*
X0089121Y0134534D01*
X0089166Y0134560D01*
X0089213Y0134584D01*
X0089261Y0134604D01*
X0089310Y0134620D01*
X0089361Y0134633D01*
X0089413Y0134643D01*
X0089465Y0134648D01*
X0089517Y0134650D01*
X0088692Y0131808D02*
X0088747Y0131755D01*
X0088805Y0131705D01*
X0088865Y0131658D01*
X0088927Y0131614D01*
X0088992Y0131573D01*
X0089058Y0131535D01*
X0089126Y0131500D01*
X0089196Y0131469D01*
X0089267Y0131442D01*
X0089340Y0131417D01*
X0089414Y0131397D01*
X0089488Y0131380D01*
X0089564Y0131367D01*
X0089639Y0131358D01*
X0089716Y0131352D01*
X0089792Y0131350D01*
X0089844Y0131352D01*
X0089896Y0131357D01*
X0089948Y0131367D01*
X0089999Y0131380D01*
X0090048Y0131396D01*
X0090097Y0131416D01*
X0090143Y0131440D01*
X0090188Y0131466D01*
X0090231Y0131496D01*
X0090272Y0131529D01*
X0090310Y0131565D01*
X0090346Y0131603D01*
X0090379Y0131644D01*
X0090409Y0131687D01*
X0090435Y0131732D01*
X0090459Y0131779D01*
X0090479Y0131827D01*
X0090495Y0131876D01*
X0090508Y0131927D01*
X0090518Y0131979D01*
X0090523Y0132031D01*
X0090525Y0132083D01*
X0090523Y0132135D01*
X0090518Y0132186D01*
X0090509Y0132237D01*
X0090497Y0132287D01*
X0090481Y0132336D01*
X0090462Y0132384D01*
X0090439Y0132430D01*
X0090414Y0132475D01*
X0090385Y0132518D01*
X0090354Y0132558D01*
X0090319Y0132597D01*
X0090282Y0132633D01*
X0090243Y0132667D01*
X0090202Y0132697D01*
X0090158Y0132725D01*
X0084867Y0131350D02*
X0083767Y0133367D01*
X0083033Y0132633D02*
X0084867Y0134650D01*
X0083033Y0134650D02*
X0083033Y0131350D01*
X0081306Y0131350D02*
X0079840Y0131350D01*
X0079840Y0134650D01*
X0078158Y0134650D02*
X0077425Y0134650D01*
X0077373Y0134648D01*
X0077321Y0134643D01*
X0077269Y0134633D01*
X0077218Y0134620D01*
X0077169Y0134604D01*
X0077120Y0134584D01*
X0077074Y0134560D01*
X0077029Y0134534D01*
X0076986Y0134504D01*
X0076945Y0134471D01*
X0076907Y0134435D01*
X0076871Y0134397D01*
X0076838Y0134356D01*
X0076808Y0134313D01*
X0076782Y0134268D01*
X0076758Y0134221D01*
X0076738Y0134173D01*
X0076722Y0134124D01*
X0076709Y0134073D01*
X0076699Y0134021D01*
X0076694Y0133969D01*
X0076692Y0133917D01*
X0076692Y0132083D01*
X0076694Y0132031D01*
X0076699Y0131979D01*
X0076709Y0131927D01*
X0076722Y0131876D01*
X0076738Y0131827D01*
X0076758Y0131779D01*
X0076782Y0131732D01*
X0076808Y0131687D01*
X0076838Y0131644D01*
X0076871Y0131603D01*
X0076907Y0131565D01*
X0076945Y0131529D01*
X0076986Y0131496D01*
X0077029Y0131466D01*
X0077074Y0131440D01*
X0077121Y0131416D01*
X0077169Y0131396D01*
X0077218Y0131380D01*
X0077269Y0131367D01*
X0077321Y0131357D01*
X0077373Y0131352D01*
X0077425Y0131350D01*
X0078158Y0131350D01*
X0174425Y0232850D02*
X0175525Y0232850D01*
X0175525Y0234683D01*
X0174975Y0234683D01*
X0173692Y0235417D02*
X0173694Y0235469D01*
X0173699Y0235521D01*
X0173709Y0235573D01*
X0173722Y0235624D01*
X0173738Y0235673D01*
X0173758Y0235721D01*
X0173782Y0235768D01*
X0173808Y0235813D01*
X0173838Y0235856D01*
X0173871Y0235897D01*
X0173907Y0235935D01*
X0173945Y0235971D01*
X0173986Y0236004D01*
X0174029Y0236034D01*
X0174074Y0236060D01*
X0174120Y0236084D01*
X0174169Y0236104D01*
X0174218Y0236120D01*
X0174269Y0236133D01*
X0174321Y0236143D01*
X0174373Y0236148D01*
X0174425Y0236150D01*
X0175525Y0236150D01*
X0173692Y0235417D02*
X0173692Y0233583D01*
X0173694Y0233531D01*
X0173699Y0233479D01*
X0173709Y0233427D01*
X0173722Y0233376D01*
X0173738Y0233327D01*
X0173758Y0233279D01*
X0173782Y0233232D01*
X0173808Y0233187D01*
X0173838Y0233144D01*
X0173871Y0233103D01*
X0173907Y0233065D01*
X0173945Y0233029D01*
X0173986Y0232996D01*
X0174029Y0232966D01*
X0174074Y0232940D01*
X0174121Y0232916D01*
X0174169Y0232896D01*
X0174218Y0232880D01*
X0174269Y0232867D01*
X0174321Y0232857D01*
X0174373Y0232852D01*
X0174425Y0232850D01*
X0177532Y0232850D02*
X0177532Y0236150D01*
X0179365Y0232850D01*
X0179365Y0236150D01*
X0181372Y0236150D02*
X0182288Y0236150D01*
X0181372Y0236150D02*
X0181372Y0232850D01*
X0182288Y0232850D01*
X0182346Y0232852D01*
X0182403Y0232857D01*
X0182460Y0232866D01*
X0182516Y0232879D01*
X0182571Y0232895D01*
X0182626Y0232914D01*
X0182678Y0232937D01*
X0182730Y0232963D01*
X0182779Y0232993D01*
X0182827Y0233025D01*
X0182873Y0233060D01*
X0182916Y0233099D01*
X0182956Y0233139D01*
X0182995Y0233182D01*
X0183030Y0233228D01*
X0183062Y0233276D01*
X0183092Y0233325D01*
X0183118Y0233377D01*
X0183141Y0233429D01*
X0183160Y0233484D01*
X0183176Y0233539D01*
X0183189Y0233595D01*
X0183198Y0233652D01*
X0183203Y0233709D01*
X0183205Y0233767D01*
X0183205Y0235233D01*
X0183203Y0235291D01*
X0183198Y0235348D01*
X0183189Y0235405D01*
X0183176Y0235461D01*
X0183160Y0235516D01*
X0183141Y0235571D01*
X0183118Y0235623D01*
X0183092Y0235675D01*
X0183062Y0235724D01*
X0183030Y0235772D01*
X0182995Y0235818D01*
X0182956Y0235861D01*
X0182916Y0235901D01*
X0182873Y0235940D01*
X0182827Y0235975D01*
X0182779Y0236007D01*
X0182730Y0236037D01*
X0182678Y0236063D01*
X0182626Y0236086D01*
X0182571Y0236105D01*
X0182516Y0236121D01*
X0182460Y0236134D01*
X0182403Y0236143D01*
X0182346Y0236148D01*
X0182288Y0236150D01*
D12*
X0181668Y0246700D02*
X0181046Y0246700D01*
X0180997Y0246702D01*
X0180949Y0246708D01*
X0180901Y0246717D01*
X0180854Y0246730D01*
X0180808Y0246747D01*
X0180764Y0246768D01*
X0180721Y0246792D01*
X0180680Y0246819D01*
X0180642Y0246849D01*
X0180606Y0246882D01*
X0180573Y0246918D01*
X0180543Y0246956D01*
X0180516Y0246997D01*
X0180492Y0247040D01*
X0180471Y0247084D01*
X0180454Y0247130D01*
X0180441Y0247177D01*
X0180432Y0247225D01*
X0180426Y0247273D01*
X0180424Y0247322D01*
X0180424Y0248878D01*
X0180426Y0248927D01*
X0180432Y0248975D01*
X0180441Y0249023D01*
X0180454Y0249070D01*
X0180471Y0249116D01*
X0180492Y0249160D01*
X0180516Y0249203D01*
X0180543Y0249244D01*
X0180573Y0249282D01*
X0180606Y0249318D01*
X0180642Y0249351D01*
X0180680Y0249381D01*
X0180721Y0249408D01*
X0180764Y0249432D01*
X0180808Y0249453D01*
X0180854Y0249470D01*
X0180901Y0249483D01*
X0180949Y0249492D01*
X0180997Y0249498D01*
X0181046Y0249500D01*
X0181668Y0249500D01*
X0182930Y0249500D02*
X0182930Y0246700D01*
X0182930Y0248256D02*
X0184486Y0248256D01*
X0184486Y0249500D02*
X0184486Y0246700D01*
X0185906Y0247478D02*
X0185906Y0248722D01*
X0185908Y0248778D01*
X0185914Y0248833D01*
X0185924Y0248887D01*
X0185938Y0248941D01*
X0185955Y0248994D01*
X0185976Y0249045D01*
X0186001Y0249095D01*
X0186030Y0249143D01*
X0186061Y0249188D01*
X0186096Y0249231D01*
X0186134Y0249272D01*
X0186175Y0249310D01*
X0186218Y0249345D01*
X0186263Y0249376D01*
X0186311Y0249405D01*
X0186361Y0249430D01*
X0186412Y0249451D01*
X0186465Y0249468D01*
X0186519Y0249482D01*
X0186573Y0249492D01*
X0186628Y0249498D01*
X0186684Y0249500D01*
X0186740Y0249498D01*
X0186795Y0249492D01*
X0186849Y0249482D01*
X0186903Y0249468D01*
X0186956Y0249451D01*
X0187007Y0249430D01*
X0187057Y0249405D01*
X0187105Y0249376D01*
X0187150Y0249345D01*
X0187193Y0249310D01*
X0187234Y0249272D01*
X0187272Y0249231D01*
X0187307Y0249188D01*
X0187338Y0249143D01*
X0187367Y0249095D01*
X0187392Y0249045D01*
X0187413Y0248994D01*
X0187430Y0248941D01*
X0187444Y0248887D01*
X0187454Y0248833D01*
X0187460Y0248778D01*
X0187462Y0248722D01*
X0187462Y0247478D01*
X0187460Y0247422D01*
X0187454Y0247367D01*
X0187444Y0247313D01*
X0187430Y0247259D01*
X0187413Y0247206D01*
X0187392Y0247155D01*
X0187367Y0247105D01*
X0187338Y0247057D01*
X0187307Y0247012D01*
X0187272Y0246969D01*
X0187234Y0246928D01*
X0187193Y0246890D01*
X0187150Y0246855D01*
X0187105Y0246824D01*
X0187057Y0246795D01*
X0187007Y0246770D01*
X0186956Y0246749D01*
X0186903Y0246732D01*
X0186849Y0246718D01*
X0186795Y0246708D01*
X0186740Y0246702D01*
X0186684Y0246700D01*
X0186628Y0246702D01*
X0186573Y0246708D01*
X0186519Y0246718D01*
X0186465Y0246732D01*
X0186412Y0246749D01*
X0186361Y0246770D01*
X0186311Y0246795D01*
X0186263Y0246824D01*
X0186218Y0246855D01*
X0186175Y0246890D01*
X0186134Y0246928D01*
X0186096Y0246969D01*
X0186061Y0247012D01*
X0186030Y0247057D01*
X0186001Y0247105D01*
X0185976Y0247155D01*
X0185955Y0247206D01*
X0185938Y0247259D01*
X0185924Y0247313D01*
X0185914Y0247367D01*
X0185908Y0247422D01*
X0185906Y0247478D01*
X0190042Y0249500D02*
X0191597Y0249500D01*
X0190820Y0249500D02*
X0190820Y0246700D01*
X0192850Y0246700D02*
X0192850Y0249500D01*
X0193627Y0249500D01*
X0193683Y0249498D01*
X0193738Y0249492D01*
X0193792Y0249482D01*
X0193846Y0249468D01*
X0193899Y0249451D01*
X0193950Y0249430D01*
X0194000Y0249405D01*
X0194048Y0249376D01*
X0194093Y0249345D01*
X0194136Y0249310D01*
X0194177Y0249272D01*
X0194215Y0249231D01*
X0194250Y0249188D01*
X0194281Y0249143D01*
X0194310Y0249095D01*
X0194335Y0249045D01*
X0194356Y0248994D01*
X0194373Y0248941D01*
X0194387Y0248887D01*
X0194397Y0248833D01*
X0194403Y0248778D01*
X0194405Y0248722D01*
X0194403Y0248666D01*
X0194397Y0248611D01*
X0194387Y0248557D01*
X0194373Y0248503D01*
X0194356Y0248450D01*
X0194335Y0248399D01*
X0194310Y0248349D01*
X0194281Y0248301D01*
X0194250Y0248256D01*
X0194215Y0248213D01*
X0194177Y0248172D01*
X0194136Y0248134D01*
X0194093Y0248099D01*
X0194048Y0248068D01*
X0194000Y0248039D01*
X0193950Y0248014D01*
X0193899Y0247993D01*
X0193846Y0247976D01*
X0193792Y0247962D01*
X0193738Y0247952D01*
X0193683Y0247946D01*
X0193627Y0247944D01*
X0192850Y0247944D01*
X0193783Y0247944D02*
X0194405Y0246700D01*
X0195596Y0246700D02*
X0196219Y0246700D01*
X0195908Y0246700D02*
X0195908Y0249500D01*
X0196219Y0249500D02*
X0195596Y0249500D01*
X0197530Y0248878D02*
X0197530Y0247322D01*
X0197532Y0247273D01*
X0197538Y0247225D01*
X0197547Y0247177D01*
X0197560Y0247130D01*
X0197577Y0247084D01*
X0197598Y0247040D01*
X0197622Y0246997D01*
X0197649Y0246956D01*
X0197679Y0246918D01*
X0197712Y0246882D01*
X0197748Y0246849D01*
X0197786Y0246819D01*
X0197827Y0246792D01*
X0197870Y0246768D01*
X0197914Y0246747D01*
X0197960Y0246730D01*
X0198007Y0246717D01*
X0198055Y0246708D01*
X0198103Y0246702D01*
X0198152Y0246700D01*
X0199085Y0246700D01*
X0199085Y0248256D01*
X0198619Y0248256D01*
X0197530Y0248878D02*
X0197532Y0248927D01*
X0197538Y0248975D01*
X0197547Y0249023D01*
X0197560Y0249070D01*
X0197577Y0249116D01*
X0197598Y0249160D01*
X0197622Y0249203D01*
X0197649Y0249244D01*
X0197679Y0249282D01*
X0197712Y0249318D01*
X0197748Y0249351D01*
X0197786Y0249381D01*
X0197827Y0249408D01*
X0197870Y0249432D01*
X0197914Y0249453D01*
X0197960Y0249470D01*
X0198007Y0249483D01*
X0198055Y0249492D01*
X0198103Y0249498D01*
X0198152Y0249500D01*
X0199085Y0249500D01*
X0179286Y0249500D02*
X0178042Y0249500D01*
X0178042Y0246700D01*
X0179286Y0246700D01*
X0178975Y0248256D02*
X0178042Y0248256D01*
X0143585Y0248256D02*
X0143585Y0246700D01*
X0142652Y0246700D01*
X0142603Y0246702D01*
X0142555Y0246708D01*
X0142507Y0246717D01*
X0142460Y0246730D01*
X0142414Y0246747D01*
X0142370Y0246768D01*
X0142327Y0246792D01*
X0142286Y0246819D01*
X0142248Y0246849D01*
X0142212Y0246882D01*
X0142179Y0246918D01*
X0142149Y0246956D01*
X0142122Y0246997D01*
X0142098Y0247040D01*
X0142077Y0247084D01*
X0142060Y0247130D01*
X0142047Y0247177D01*
X0142038Y0247225D01*
X0142032Y0247273D01*
X0142030Y0247322D01*
X0142030Y0248878D01*
X0142032Y0248927D01*
X0142038Y0248975D01*
X0142047Y0249023D01*
X0142060Y0249070D01*
X0142077Y0249116D01*
X0142098Y0249160D01*
X0142122Y0249203D01*
X0142149Y0249244D01*
X0142179Y0249282D01*
X0142212Y0249318D01*
X0142248Y0249351D01*
X0142286Y0249381D01*
X0142327Y0249408D01*
X0142370Y0249432D01*
X0142414Y0249453D01*
X0142460Y0249470D01*
X0142507Y0249483D01*
X0142555Y0249492D01*
X0142603Y0249498D01*
X0142652Y0249500D01*
X0143585Y0249500D01*
X0143585Y0248256D02*
X0143119Y0248256D01*
X0140719Y0249500D02*
X0140096Y0249500D01*
X0140408Y0249500D02*
X0140408Y0246700D01*
X0140719Y0246700D02*
X0140096Y0246700D01*
X0138905Y0246700D02*
X0138283Y0247944D01*
X0138127Y0247944D02*
X0137350Y0247944D01*
X0138127Y0247944D02*
X0138183Y0247946D01*
X0138238Y0247952D01*
X0138292Y0247962D01*
X0138346Y0247976D01*
X0138399Y0247993D01*
X0138450Y0248014D01*
X0138500Y0248039D01*
X0138548Y0248068D01*
X0138593Y0248099D01*
X0138636Y0248134D01*
X0138677Y0248172D01*
X0138715Y0248213D01*
X0138750Y0248256D01*
X0138781Y0248301D01*
X0138810Y0248349D01*
X0138835Y0248399D01*
X0138856Y0248450D01*
X0138873Y0248503D01*
X0138887Y0248557D01*
X0138897Y0248611D01*
X0138903Y0248666D01*
X0138905Y0248722D01*
X0138903Y0248778D01*
X0138897Y0248833D01*
X0138887Y0248887D01*
X0138873Y0248941D01*
X0138856Y0248994D01*
X0138835Y0249045D01*
X0138810Y0249095D01*
X0138781Y0249143D01*
X0138750Y0249188D01*
X0138715Y0249231D01*
X0138677Y0249272D01*
X0138636Y0249310D01*
X0138593Y0249345D01*
X0138548Y0249376D01*
X0138500Y0249405D01*
X0138450Y0249430D01*
X0138399Y0249451D01*
X0138346Y0249468D01*
X0138292Y0249482D01*
X0138238Y0249492D01*
X0138183Y0249498D01*
X0138127Y0249500D01*
X0137350Y0249500D01*
X0137350Y0246700D01*
X0135320Y0246700D02*
X0135320Y0249500D01*
X0136097Y0249500D02*
X0134542Y0249500D01*
X0132462Y0248722D02*
X0132462Y0247478D01*
X0132460Y0247422D01*
X0132454Y0247367D01*
X0132444Y0247313D01*
X0132430Y0247259D01*
X0132413Y0247206D01*
X0132392Y0247155D01*
X0132367Y0247105D01*
X0132338Y0247057D01*
X0132307Y0247012D01*
X0132272Y0246969D01*
X0132234Y0246928D01*
X0132193Y0246890D01*
X0132150Y0246855D01*
X0132105Y0246824D01*
X0132057Y0246795D01*
X0132007Y0246770D01*
X0131956Y0246749D01*
X0131903Y0246732D01*
X0131849Y0246718D01*
X0131795Y0246708D01*
X0131740Y0246702D01*
X0131684Y0246700D01*
X0131628Y0246702D01*
X0131573Y0246708D01*
X0131519Y0246718D01*
X0131465Y0246732D01*
X0131412Y0246749D01*
X0131361Y0246770D01*
X0131311Y0246795D01*
X0131263Y0246824D01*
X0131218Y0246855D01*
X0131175Y0246890D01*
X0131134Y0246928D01*
X0131096Y0246969D01*
X0131061Y0247012D01*
X0131030Y0247057D01*
X0131001Y0247105D01*
X0130976Y0247155D01*
X0130955Y0247206D01*
X0130938Y0247259D01*
X0130924Y0247313D01*
X0130914Y0247367D01*
X0130908Y0247422D01*
X0130906Y0247478D01*
X0130906Y0248722D01*
X0130908Y0248778D01*
X0130914Y0248833D01*
X0130924Y0248887D01*
X0130938Y0248941D01*
X0130955Y0248994D01*
X0130976Y0249045D01*
X0131001Y0249095D01*
X0131030Y0249143D01*
X0131061Y0249188D01*
X0131096Y0249231D01*
X0131134Y0249272D01*
X0131175Y0249310D01*
X0131218Y0249345D01*
X0131263Y0249376D01*
X0131311Y0249405D01*
X0131361Y0249430D01*
X0131412Y0249451D01*
X0131465Y0249468D01*
X0131519Y0249482D01*
X0131573Y0249492D01*
X0131628Y0249498D01*
X0131684Y0249500D01*
X0131740Y0249498D01*
X0131795Y0249492D01*
X0131849Y0249482D01*
X0131903Y0249468D01*
X0131956Y0249451D01*
X0132007Y0249430D01*
X0132057Y0249405D01*
X0132105Y0249376D01*
X0132150Y0249345D01*
X0132193Y0249310D01*
X0132234Y0249272D01*
X0132272Y0249231D01*
X0132307Y0249188D01*
X0132338Y0249143D01*
X0132367Y0249095D01*
X0132392Y0249045D01*
X0132413Y0248994D01*
X0132430Y0248941D01*
X0132444Y0248887D01*
X0132454Y0248833D01*
X0132460Y0248778D01*
X0132462Y0248722D01*
X0129486Y0248256D02*
X0127930Y0248256D01*
X0127930Y0249500D02*
X0127930Y0246700D01*
X0126668Y0246700D02*
X0126046Y0246700D01*
X0125997Y0246702D01*
X0125949Y0246708D01*
X0125901Y0246717D01*
X0125854Y0246730D01*
X0125808Y0246747D01*
X0125764Y0246768D01*
X0125721Y0246792D01*
X0125680Y0246819D01*
X0125642Y0246849D01*
X0125606Y0246882D01*
X0125573Y0246918D01*
X0125543Y0246956D01*
X0125516Y0246997D01*
X0125492Y0247040D01*
X0125471Y0247084D01*
X0125454Y0247130D01*
X0125441Y0247177D01*
X0125432Y0247225D01*
X0125426Y0247273D01*
X0125424Y0247322D01*
X0125424Y0248878D01*
X0125426Y0248927D01*
X0125432Y0248975D01*
X0125441Y0249023D01*
X0125454Y0249070D01*
X0125471Y0249116D01*
X0125492Y0249160D01*
X0125516Y0249203D01*
X0125543Y0249244D01*
X0125573Y0249282D01*
X0125606Y0249318D01*
X0125642Y0249351D01*
X0125680Y0249381D01*
X0125721Y0249408D01*
X0125764Y0249432D01*
X0125808Y0249453D01*
X0125854Y0249470D01*
X0125901Y0249483D01*
X0125949Y0249492D01*
X0125997Y0249498D01*
X0126046Y0249500D01*
X0126668Y0249500D01*
X0124286Y0249500D02*
X0123042Y0249500D01*
X0123042Y0246700D01*
X0124286Y0246700D01*
X0123975Y0248256D02*
X0123042Y0248256D01*
X0129486Y0249500D02*
X0129486Y0246700D01*
X0088585Y0246700D02*
X0087652Y0246700D01*
X0087603Y0246702D01*
X0087555Y0246708D01*
X0087507Y0246717D01*
X0087460Y0246730D01*
X0087414Y0246747D01*
X0087370Y0246768D01*
X0087327Y0246792D01*
X0087286Y0246819D01*
X0087248Y0246849D01*
X0087212Y0246882D01*
X0087179Y0246918D01*
X0087149Y0246956D01*
X0087122Y0246997D01*
X0087098Y0247040D01*
X0087077Y0247084D01*
X0087060Y0247130D01*
X0087047Y0247177D01*
X0087038Y0247225D01*
X0087032Y0247273D01*
X0087030Y0247322D01*
X0087030Y0248878D01*
X0087032Y0248927D01*
X0087038Y0248975D01*
X0087047Y0249023D01*
X0087060Y0249070D01*
X0087077Y0249116D01*
X0087098Y0249160D01*
X0087122Y0249203D01*
X0087149Y0249244D01*
X0087179Y0249282D01*
X0087212Y0249318D01*
X0087248Y0249351D01*
X0087286Y0249381D01*
X0087327Y0249408D01*
X0087370Y0249432D01*
X0087414Y0249453D01*
X0087460Y0249470D01*
X0087507Y0249483D01*
X0087555Y0249492D01*
X0087603Y0249498D01*
X0087652Y0249500D01*
X0088585Y0249500D01*
X0088585Y0248256D02*
X0088585Y0246700D01*
X0088585Y0248256D02*
X0088119Y0248256D01*
X0085719Y0249500D02*
X0085096Y0249500D01*
X0085408Y0249500D02*
X0085408Y0246700D01*
X0085719Y0246700D02*
X0085096Y0246700D01*
X0083905Y0246700D02*
X0083283Y0247944D01*
X0083127Y0247944D02*
X0082350Y0247944D01*
X0083127Y0247944D02*
X0083183Y0247946D01*
X0083238Y0247952D01*
X0083292Y0247962D01*
X0083346Y0247976D01*
X0083399Y0247993D01*
X0083450Y0248014D01*
X0083500Y0248039D01*
X0083548Y0248068D01*
X0083593Y0248099D01*
X0083636Y0248134D01*
X0083677Y0248172D01*
X0083715Y0248213D01*
X0083750Y0248256D01*
X0083781Y0248301D01*
X0083810Y0248349D01*
X0083835Y0248399D01*
X0083856Y0248450D01*
X0083873Y0248503D01*
X0083887Y0248557D01*
X0083897Y0248611D01*
X0083903Y0248666D01*
X0083905Y0248722D01*
X0083903Y0248778D01*
X0083897Y0248833D01*
X0083887Y0248887D01*
X0083873Y0248941D01*
X0083856Y0248994D01*
X0083835Y0249045D01*
X0083810Y0249095D01*
X0083781Y0249143D01*
X0083750Y0249188D01*
X0083715Y0249231D01*
X0083677Y0249272D01*
X0083636Y0249310D01*
X0083593Y0249345D01*
X0083548Y0249376D01*
X0083500Y0249405D01*
X0083450Y0249430D01*
X0083399Y0249451D01*
X0083346Y0249468D01*
X0083292Y0249482D01*
X0083238Y0249492D01*
X0083183Y0249498D01*
X0083127Y0249500D01*
X0082350Y0249500D01*
X0082350Y0246700D01*
X0080320Y0246700D02*
X0080320Y0249500D01*
X0081097Y0249500D02*
X0079542Y0249500D01*
X0077462Y0248722D02*
X0077462Y0247478D01*
X0077460Y0247422D01*
X0077454Y0247367D01*
X0077444Y0247313D01*
X0077430Y0247259D01*
X0077413Y0247206D01*
X0077392Y0247155D01*
X0077367Y0247105D01*
X0077338Y0247057D01*
X0077307Y0247012D01*
X0077272Y0246969D01*
X0077234Y0246928D01*
X0077193Y0246890D01*
X0077150Y0246855D01*
X0077105Y0246824D01*
X0077057Y0246795D01*
X0077007Y0246770D01*
X0076956Y0246749D01*
X0076903Y0246732D01*
X0076849Y0246718D01*
X0076795Y0246708D01*
X0076740Y0246702D01*
X0076684Y0246700D01*
X0076628Y0246702D01*
X0076573Y0246708D01*
X0076519Y0246718D01*
X0076465Y0246732D01*
X0076412Y0246749D01*
X0076361Y0246770D01*
X0076311Y0246795D01*
X0076263Y0246824D01*
X0076218Y0246855D01*
X0076175Y0246890D01*
X0076134Y0246928D01*
X0076096Y0246969D01*
X0076061Y0247012D01*
X0076030Y0247057D01*
X0076001Y0247105D01*
X0075976Y0247155D01*
X0075955Y0247206D01*
X0075938Y0247259D01*
X0075924Y0247313D01*
X0075914Y0247367D01*
X0075908Y0247422D01*
X0075906Y0247478D01*
X0075906Y0248722D01*
X0075908Y0248778D01*
X0075914Y0248833D01*
X0075924Y0248887D01*
X0075938Y0248941D01*
X0075955Y0248994D01*
X0075976Y0249045D01*
X0076001Y0249095D01*
X0076030Y0249143D01*
X0076061Y0249188D01*
X0076096Y0249231D01*
X0076134Y0249272D01*
X0076175Y0249310D01*
X0076218Y0249345D01*
X0076263Y0249376D01*
X0076311Y0249405D01*
X0076361Y0249430D01*
X0076412Y0249451D01*
X0076465Y0249468D01*
X0076519Y0249482D01*
X0076573Y0249492D01*
X0076628Y0249498D01*
X0076684Y0249500D01*
X0076740Y0249498D01*
X0076795Y0249492D01*
X0076849Y0249482D01*
X0076903Y0249468D01*
X0076956Y0249451D01*
X0077007Y0249430D01*
X0077057Y0249405D01*
X0077105Y0249376D01*
X0077150Y0249345D01*
X0077193Y0249310D01*
X0077234Y0249272D01*
X0077272Y0249231D01*
X0077307Y0249188D01*
X0077338Y0249143D01*
X0077367Y0249095D01*
X0077392Y0249045D01*
X0077413Y0248994D01*
X0077430Y0248941D01*
X0077444Y0248887D01*
X0077454Y0248833D01*
X0077460Y0248778D01*
X0077462Y0248722D01*
X0074486Y0248256D02*
X0072930Y0248256D01*
X0072930Y0249500D02*
X0072930Y0246700D01*
X0071668Y0246700D02*
X0071046Y0246700D01*
X0070997Y0246702D01*
X0070949Y0246708D01*
X0070901Y0246717D01*
X0070854Y0246730D01*
X0070808Y0246747D01*
X0070764Y0246768D01*
X0070721Y0246792D01*
X0070680Y0246819D01*
X0070642Y0246849D01*
X0070606Y0246882D01*
X0070573Y0246918D01*
X0070543Y0246956D01*
X0070516Y0246997D01*
X0070492Y0247040D01*
X0070471Y0247084D01*
X0070454Y0247130D01*
X0070441Y0247177D01*
X0070432Y0247225D01*
X0070426Y0247273D01*
X0070424Y0247322D01*
X0070424Y0248878D01*
X0070426Y0248927D01*
X0070432Y0248975D01*
X0070441Y0249023D01*
X0070454Y0249070D01*
X0070471Y0249116D01*
X0070492Y0249160D01*
X0070516Y0249203D01*
X0070543Y0249244D01*
X0070573Y0249282D01*
X0070606Y0249318D01*
X0070642Y0249351D01*
X0070680Y0249381D01*
X0070721Y0249408D01*
X0070764Y0249432D01*
X0070808Y0249453D01*
X0070854Y0249470D01*
X0070901Y0249483D01*
X0070949Y0249492D01*
X0070997Y0249498D01*
X0071046Y0249500D01*
X0071668Y0249500D01*
X0069286Y0249500D02*
X0068042Y0249500D01*
X0068042Y0246700D01*
X0069286Y0246700D01*
X0068975Y0248256D02*
X0068042Y0248256D01*
X0074486Y0249500D02*
X0074486Y0246700D01*
X0068142Y0135744D02*
X0066586Y0135744D01*
X0066586Y0135277D01*
X0065964Y0134188D02*
X0065915Y0134190D01*
X0065867Y0134196D01*
X0065819Y0134205D01*
X0065772Y0134218D01*
X0065726Y0134235D01*
X0065682Y0134256D01*
X0065639Y0134280D01*
X0065598Y0134307D01*
X0065560Y0134337D01*
X0065524Y0134370D01*
X0065491Y0134406D01*
X0065461Y0134444D01*
X0065434Y0134485D01*
X0065410Y0134528D01*
X0065389Y0134572D01*
X0065372Y0134618D01*
X0065359Y0134665D01*
X0065350Y0134713D01*
X0065344Y0134761D01*
X0065342Y0134810D01*
X0065342Y0135744D01*
X0065964Y0134188D02*
X0067520Y0134188D01*
X0067569Y0134190D01*
X0067617Y0134196D01*
X0067665Y0134205D01*
X0067712Y0134218D01*
X0067758Y0134235D01*
X0067802Y0134256D01*
X0067845Y0134280D01*
X0067886Y0134307D01*
X0067924Y0134337D01*
X0067960Y0134370D01*
X0067993Y0134406D01*
X0068023Y0134444D01*
X0068050Y0134485D01*
X0068074Y0134528D01*
X0068095Y0134572D01*
X0068112Y0134618D01*
X0068125Y0134665D01*
X0068134Y0134713D01*
X0068140Y0134761D01*
X0068142Y0134810D01*
X0068142Y0135744D01*
X0068142Y0132877D02*
X0068142Y0132255D01*
X0068142Y0132566D02*
X0065342Y0132566D01*
X0065342Y0132255D02*
X0065342Y0132877D01*
X0065342Y0130286D02*
X0065342Y0129508D01*
X0068142Y0129508D01*
X0066897Y0129508D02*
X0066897Y0130286D01*
X0066897Y0130441D02*
X0068142Y0131063D01*
X0066898Y0130286D02*
X0066896Y0130342D01*
X0066890Y0130397D01*
X0066880Y0130451D01*
X0066866Y0130505D01*
X0066849Y0130558D01*
X0066828Y0130609D01*
X0066803Y0130659D01*
X0066774Y0130707D01*
X0066743Y0130752D01*
X0066708Y0130795D01*
X0066670Y0130836D01*
X0066629Y0130874D01*
X0066586Y0130909D01*
X0066541Y0130940D01*
X0066493Y0130969D01*
X0066443Y0130994D01*
X0066392Y0131015D01*
X0066339Y0131032D01*
X0066285Y0131046D01*
X0066231Y0131056D01*
X0066176Y0131062D01*
X0066120Y0131064D01*
X0066064Y0131062D01*
X0066009Y0131056D01*
X0065955Y0131046D01*
X0065901Y0131032D01*
X0065848Y0131015D01*
X0065797Y0130994D01*
X0065747Y0130969D01*
X0065699Y0130940D01*
X0065654Y0130909D01*
X0065611Y0130874D01*
X0065570Y0130836D01*
X0065532Y0130795D01*
X0065497Y0130752D01*
X0065466Y0130707D01*
X0065437Y0130659D01*
X0065412Y0130609D01*
X0065391Y0130558D01*
X0065374Y0130505D01*
X0065360Y0130451D01*
X0065350Y0130397D01*
X0065344Y0130342D01*
X0065342Y0130286D01*
X0065342Y0128256D02*
X0065342Y0126700D01*
X0065342Y0127478D02*
X0068142Y0127478D01*
X0066864Y0124620D02*
X0065620Y0124620D01*
X0065564Y0124618D01*
X0065509Y0124612D01*
X0065455Y0124602D01*
X0065401Y0124588D01*
X0065348Y0124571D01*
X0065297Y0124550D01*
X0065247Y0124525D01*
X0065199Y0124496D01*
X0065154Y0124465D01*
X0065111Y0124430D01*
X0065070Y0124392D01*
X0065032Y0124351D01*
X0064997Y0124308D01*
X0064966Y0124263D01*
X0064937Y0124215D01*
X0064912Y0124165D01*
X0064891Y0124114D01*
X0064874Y0124061D01*
X0064860Y0124007D01*
X0064850Y0123953D01*
X0064844Y0123898D01*
X0064842Y0123842D01*
X0064844Y0123786D01*
X0064850Y0123731D01*
X0064860Y0123677D01*
X0064874Y0123623D01*
X0064891Y0123570D01*
X0064912Y0123519D01*
X0064937Y0123469D01*
X0064966Y0123421D01*
X0064997Y0123376D01*
X0065032Y0123333D01*
X0065070Y0123292D01*
X0065111Y0123254D01*
X0065154Y0123219D01*
X0065199Y0123188D01*
X0065247Y0123159D01*
X0065297Y0123134D01*
X0065348Y0123113D01*
X0065401Y0123096D01*
X0065455Y0123082D01*
X0065509Y0123072D01*
X0065564Y0123066D01*
X0065620Y0123064D01*
X0065620Y0123065D02*
X0066864Y0123065D01*
X0066864Y0123064D02*
X0066920Y0123066D01*
X0066975Y0123072D01*
X0067029Y0123082D01*
X0067083Y0123096D01*
X0067136Y0123113D01*
X0067187Y0123134D01*
X0067237Y0123159D01*
X0067285Y0123188D01*
X0067330Y0123219D01*
X0067373Y0123254D01*
X0067414Y0123292D01*
X0067452Y0123333D01*
X0067487Y0123376D01*
X0067518Y0123421D01*
X0067547Y0123469D01*
X0067572Y0123519D01*
X0067593Y0123570D01*
X0067610Y0123623D01*
X0067624Y0123677D01*
X0067634Y0123731D01*
X0067640Y0123786D01*
X0067642Y0123842D01*
X0067640Y0123898D01*
X0067634Y0123953D01*
X0067624Y0124007D01*
X0067610Y0124061D01*
X0067593Y0124114D01*
X0067572Y0124165D01*
X0067547Y0124215D01*
X0067518Y0124263D01*
X0067487Y0124308D01*
X0067452Y0124351D01*
X0067414Y0124392D01*
X0067373Y0124430D01*
X0067330Y0124465D01*
X0067285Y0124496D01*
X0067237Y0124525D01*
X0067187Y0124550D01*
X0067136Y0124571D01*
X0067083Y0124588D01*
X0067029Y0124602D01*
X0066975Y0124612D01*
X0066920Y0124618D01*
X0066864Y0124620D01*
X0066086Y0121644D02*
X0066086Y0120089D01*
X0064842Y0120089D02*
X0067642Y0120089D01*
X0067642Y0118826D02*
X0067642Y0118204D01*
X0067640Y0118155D01*
X0067634Y0118107D01*
X0067625Y0118059D01*
X0067612Y0118012D01*
X0067595Y0117966D01*
X0067574Y0117922D01*
X0067550Y0117879D01*
X0067523Y0117838D01*
X0067493Y0117800D01*
X0067460Y0117764D01*
X0067424Y0117731D01*
X0067386Y0117701D01*
X0067345Y0117674D01*
X0067302Y0117650D01*
X0067258Y0117629D01*
X0067212Y0117612D01*
X0067165Y0117599D01*
X0067117Y0117590D01*
X0067069Y0117584D01*
X0067020Y0117582D01*
X0065464Y0117582D01*
X0065415Y0117584D01*
X0065367Y0117590D01*
X0065319Y0117599D01*
X0065272Y0117612D01*
X0065226Y0117629D01*
X0065182Y0117650D01*
X0065139Y0117674D01*
X0065098Y0117701D01*
X0065060Y0117731D01*
X0065024Y0117764D01*
X0064991Y0117800D01*
X0064961Y0117838D01*
X0064934Y0117879D01*
X0064910Y0117922D01*
X0064889Y0117966D01*
X0064872Y0118012D01*
X0064859Y0118059D01*
X0064850Y0118107D01*
X0064844Y0118155D01*
X0064842Y0118204D01*
X0064842Y0118826D01*
X0064842Y0116444D02*
X0064842Y0115200D01*
X0067642Y0115200D01*
X0067642Y0116444D01*
X0066086Y0116133D02*
X0066086Y0115200D01*
X0064842Y0121644D02*
X0067642Y0121644D01*
X0233842Y0170200D02*
X0233842Y0171444D01*
X0233842Y0170200D02*
X0236642Y0170200D01*
X0236642Y0171444D01*
X0236020Y0172582D02*
X0234464Y0172582D01*
X0234415Y0172584D01*
X0234367Y0172590D01*
X0234319Y0172599D01*
X0234272Y0172612D01*
X0234226Y0172629D01*
X0234182Y0172650D01*
X0234139Y0172674D01*
X0234098Y0172701D01*
X0234060Y0172731D01*
X0234024Y0172764D01*
X0233991Y0172800D01*
X0233961Y0172838D01*
X0233934Y0172879D01*
X0233910Y0172922D01*
X0233889Y0172966D01*
X0233872Y0173012D01*
X0233859Y0173059D01*
X0233850Y0173107D01*
X0233844Y0173155D01*
X0233842Y0173204D01*
X0233842Y0173826D01*
X0233842Y0175089D02*
X0236642Y0175089D01*
X0236642Y0173826D02*
X0236642Y0173204D01*
X0236640Y0173155D01*
X0236634Y0173107D01*
X0236625Y0173059D01*
X0236612Y0173012D01*
X0236595Y0172966D01*
X0236574Y0172922D01*
X0236550Y0172879D01*
X0236523Y0172838D01*
X0236493Y0172800D01*
X0236460Y0172764D01*
X0236424Y0172731D01*
X0236386Y0172701D01*
X0236345Y0172674D01*
X0236302Y0172650D01*
X0236258Y0172629D01*
X0236212Y0172612D01*
X0236165Y0172599D01*
X0236117Y0172590D01*
X0236069Y0172584D01*
X0236020Y0172582D01*
X0235086Y0171133D02*
X0235086Y0170200D01*
X0235086Y0175089D02*
X0235086Y0176644D01*
X0233842Y0176644D02*
X0236642Y0176644D01*
X0235864Y0178065D02*
X0234620Y0178065D01*
X0234620Y0178064D02*
X0234564Y0178066D01*
X0234509Y0178072D01*
X0234455Y0178082D01*
X0234401Y0178096D01*
X0234348Y0178113D01*
X0234297Y0178134D01*
X0234247Y0178159D01*
X0234199Y0178188D01*
X0234154Y0178219D01*
X0234111Y0178254D01*
X0234070Y0178292D01*
X0234032Y0178333D01*
X0233997Y0178376D01*
X0233966Y0178421D01*
X0233937Y0178469D01*
X0233912Y0178519D01*
X0233891Y0178570D01*
X0233874Y0178623D01*
X0233860Y0178677D01*
X0233850Y0178731D01*
X0233844Y0178786D01*
X0233842Y0178842D01*
X0233844Y0178898D01*
X0233850Y0178953D01*
X0233860Y0179007D01*
X0233874Y0179061D01*
X0233891Y0179114D01*
X0233912Y0179165D01*
X0233937Y0179215D01*
X0233966Y0179263D01*
X0233997Y0179308D01*
X0234032Y0179351D01*
X0234070Y0179392D01*
X0234111Y0179430D01*
X0234154Y0179465D01*
X0234199Y0179496D01*
X0234247Y0179525D01*
X0234297Y0179550D01*
X0234348Y0179571D01*
X0234401Y0179588D01*
X0234455Y0179602D01*
X0234509Y0179612D01*
X0234564Y0179618D01*
X0234620Y0179620D01*
X0235864Y0179620D01*
X0235920Y0179618D01*
X0235975Y0179612D01*
X0236029Y0179602D01*
X0236083Y0179588D01*
X0236136Y0179571D01*
X0236187Y0179550D01*
X0236237Y0179525D01*
X0236285Y0179496D01*
X0236330Y0179465D01*
X0236373Y0179430D01*
X0236414Y0179392D01*
X0236452Y0179351D01*
X0236487Y0179308D01*
X0236518Y0179263D01*
X0236547Y0179215D01*
X0236572Y0179165D01*
X0236593Y0179114D01*
X0236610Y0179061D01*
X0236624Y0179007D01*
X0236634Y0178953D01*
X0236640Y0178898D01*
X0236642Y0178842D01*
X0236640Y0178786D01*
X0236634Y0178731D01*
X0236624Y0178677D01*
X0236610Y0178623D01*
X0236593Y0178570D01*
X0236572Y0178519D01*
X0236547Y0178469D01*
X0236518Y0178421D01*
X0236487Y0178376D01*
X0236452Y0178333D01*
X0236414Y0178292D01*
X0236373Y0178254D01*
X0236330Y0178219D01*
X0236285Y0178188D01*
X0236237Y0178159D01*
X0236187Y0178134D01*
X0236136Y0178113D01*
X0236083Y0178096D01*
X0236029Y0178082D01*
X0235975Y0178072D01*
X0235920Y0178066D01*
X0235864Y0178064D01*
X0233342Y0182200D02*
X0233342Y0183756D01*
X0233342Y0182978D02*
X0236142Y0182978D01*
X0236142Y0185008D02*
X0233342Y0185008D01*
X0233342Y0185786D01*
X0233344Y0185842D01*
X0233350Y0185897D01*
X0233360Y0185951D01*
X0233374Y0186005D01*
X0233391Y0186058D01*
X0233412Y0186109D01*
X0233437Y0186159D01*
X0233466Y0186207D01*
X0233497Y0186252D01*
X0233532Y0186295D01*
X0233570Y0186336D01*
X0233611Y0186374D01*
X0233654Y0186409D01*
X0233699Y0186440D01*
X0233747Y0186469D01*
X0233797Y0186494D01*
X0233848Y0186515D01*
X0233901Y0186532D01*
X0233955Y0186546D01*
X0234009Y0186556D01*
X0234064Y0186562D01*
X0234120Y0186564D01*
X0234176Y0186562D01*
X0234231Y0186556D01*
X0234285Y0186546D01*
X0234339Y0186532D01*
X0234392Y0186515D01*
X0234443Y0186494D01*
X0234493Y0186469D01*
X0234541Y0186440D01*
X0234586Y0186409D01*
X0234629Y0186374D01*
X0234670Y0186336D01*
X0234708Y0186295D01*
X0234743Y0186252D01*
X0234774Y0186207D01*
X0234803Y0186159D01*
X0234828Y0186109D01*
X0234849Y0186058D01*
X0234866Y0186005D01*
X0234880Y0185951D01*
X0234890Y0185897D01*
X0234896Y0185842D01*
X0234898Y0185786D01*
X0234897Y0185786D02*
X0234897Y0185008D01*
X0234897Y0185941D02*
X0236142Y0186563D01*
X0236142Y0187755D02*
X0236142Y0188377D01*
X0236142Y0188066D02*
X0233342Y0188066D01*
X0233342Y0187755D02*
X0233342Y0188377D01*
X0233964Y0189688D02*
X0235520Y0189688D01*
X0235569Y0189690D01*
X0235617Y0189696D01*
X0235665Y0189705D01*
X0235712Y0189718D01*
X0235758Y0189735D01*
X0235802Y0189756D01*
X0235845Y0189780D01*
X0235886Y0189807D01*
X0235924Y0189837D01*
X0235960Y0189870D01*
X0235993Y0189906D01*
X0236023Y0189944D01*
X0236050Y0189985D01*
X0236074Y0190028D01*
X0236095Y0190072D01*
X0236112Y0190118D01*
X0236125Y0190165D01*
X0236134Y0190213D01*
X0236140Y0190261D01*
X0236142Y0190310D01*
X0236142Y0191244D01*
X0234586Y0191244D01*
X0234586Y0190777D01*
X0233964Y0189688D02*
X0233915Y0189690D01*
X0233867Y0189696D01*
X0233819Y0189705D01*
X0233772Y0189718D01*
X0233726Y0189735D01*
X0233682Y0189756D01*
X0233639Y0189780D01*
X0233598Y0189807D01*
X0233560Y0189837D01*
X0233524Y0189870D01*
X0233491Y0189906D01*
X0233461Y0189944D01*
X0233434Y0189985D01*
X0233410Y0190028D01*
X0233389Y0190072D01*
X0233372Y0190118D01*
X0233359Y0190165D01*
X0233350Y0190213D01*
X0233344Y0190261D01*
X0233342Y0190310D01*
X0233342Y0191244D01*
X0233342Y0231200D02*
X0233342Y0232756D01*
X0233342Y0231978D02*
X0236142Y0231978D01*
X0236142Y0234008D02*
X0233342Y0234008D01*
X0233342Y0234786D01*
X0233344Y0234842D01*
X0233350Y0234897D01*
X0233360Y0234951D01*
X0233374Y0235005D01*
X0233391Y0235058D01*
X0233412Y0235109D01*
X0233437Y0235159D01*
X0233466Y0235207D01*
X0233497Y0235252D01*
X0233532Y0235295D01*
X0233570Y0235336D01*
X0233611Y0235374D01*
X0233654Y0235409D01*
X0233699Y0235440D01*
X0233747Y0235469D01*
X0233797Y0235494D01*
X0233848Y0235515D01*
X0233901Y0235532D01*
X0233955Y0235546D01*
X0234009Y0235556D01*
X0234064Y0235562D01*
X0234120Y0235564D01*
X0234176Y0235562D01*
X0234231Y0235556D01*
X0234285Y0235546D01*
X0234339Y0235532D01*
X0234392Y0235515D01*
X0234443Y0235494D01*
X0234493Y0235469D01*
X0234541Y0235440D01*
X0234586Y0235409D01*
X0234629Y0235374D01*
X0234670Y0235336D01*
X0234708Y0235295D01*
X0234743Y0235252D01*
X0234774Y0235207D01*
X0234803Y0235159D01*
X0234828Y0235109D01*
X0234849Y0235058D01*
X0234866Y0235005D01*
X0234880Y0234951D01*
X0234890Y0234897D01*
X0234896Y0234842D01*
X0234898Y0234786D01*
X0234897Y0234786D02*
X0234897Y0234008D01*
X0234897Y0234941D02*
X0236142Y0235563D01*
X0236142Y0236755D02*
X0236142Y0237377D01*
X0236142Y0237066D02*
X0233342Y0237066D01*
X0233342Y0236755D02*
X0233342Y0237377D01*
X0233964Y0238688D02*
X0235520Y0238688D01*
X0235569Y0238690D01*
X0235617Y0238696D01*
X0235665Y0238705D01*
X0235712Y0238718D01*
X0235758Y0238735D01*
X0235802Y0238756D01*
X0235845Y0238780D01*
X0235886Y0238807D01*
X0235924Y0238837D01*
X0235960Y0238870D01*
X0235993Y0238906D01*
X0236023Y0238944D01*
X0236050Y0238985D01*
X0236074Y0239028D01*
X0236095Y0239072D01*
X0236112Y0239118D01*
X0236125Y0239165D01*
X0236134Y0239213D01*
X0236140Y0239261D01*
X0236142Y0239310D01*
X0236142Y0240244D01*
X0234586Y0240244D01*
X0234586Y0239777D01*
X0233964Y0238688D02*
X0233915Y0238690D01*
X0233867Y0238696D01*
X0233819Y0238705D01*
X0233772Y0238718D01*
X0233726Y0238735D01*
X0233682Y0238756D01*
X0233639Y0238780D01*
X0233598Y0238807D01*
X0233560Y0238837D01*
X0233524Y0238870D01*
X0233491Y0238906D01*
X0233461Y0238944D01*
X0233434Y0238985D01*
X0233410Y0239028D01*
X0233389Y0239072D01*
X0233372Y0239118D01*
X0233359Y0239165D01*
X0233350Y0239213D01*
X0233344Y0239261D01*
X0233342Y0239310D01*
X0233342Y0240244D01*
X0233342Y0242700D02*
X0233342Y0243944D01*
X0233342Y0242700D02*
X0236142Y0242700D01*
X0236142Y0243944D01*
X0235520Y0245082D02*
X0233964Y0245082D01*
X0233915Y0245084D01*
X0233867Y0245090D01*
X0233819Y0245099D01*
X0233772Y0245112D01*
X0233726Y0245129D01*
X0233682Y0245150D01*
X0233639Y0245174D01*
X0233598Y0245201D01*
X0233560Y0245231D01*
X0233524Y0245264D01*
X0233491Y0245300D01*
X0233461Y0245338D01*
X0233434Y0245379D01*
X0233410Y0245422D01*
X0233389Y0245466D01*
X0233372Y0245512D01*
X0233359Y0245559D01*
X0233350Y0245607D01*
X0233344Y0245655D01*
X0233342Y0245704D01*
X0233342Y0246326D01*
X0233342Y0247589D02*
X0236142Y0247589D01*
X0236142Y0246326D02*
X0236142Y0245704D01*
X0236140Y0245655D01*
X0236134Y0245607D01*
X0236125Y0245559D01*
X0236112Y0245512D01*
X0236095Y0245466D01*
X0236074Y0245422D01*
X0236050Y0245379D01*
X0236023Y0245338D01*
X0235993Y0245300D01*
X0235960Y0245264D01*
X0235924Y0245231D01*
X0235886Y0245201D01*
X0235845Y0245174D01*
X0235802Y0245150D01*
X0235758Y0245129D01*
X0235712Y0245112D01*
X0235665Y0245099D01*
X0235617Y0245090D01*
X0235569Y0245084D01*
X0235520Y0245082D01*
X0234586Y0243633D02*
X0234586Y0242700D01*
X0234586Y0247589D02*
X0234586Y0249144D01*
X0233342Y0249144D02*
X0236142Y0249144D01*
X0235364Y0250565D02*
X0234120Y0250565D01*
X0234120Y0250564D02*
X0234064Y0250566D01*
X0234009Y0250572D01*
X0233955Y0250582D01*
X0233901Y0250596D01*
X0233848Y0250613D01*
X0233797Y0250634D01*
X0233747Y0250659D01*
X0233699Y0250688D01*
X0233654Y0250719D01*
X0233611Y0250754D01*
X0233570Y0250792D01*
X0233532Y0250833D01*
X0233497Y0250876D01*
X0233466Y0250921D01*
X0233437Y0250969D01*
X0233412Y0251019D01*
X0233391Y0251070D01*
X0233374Y0251123D01*
X0233360Y0251177D01*
X0233350Y0251231D01*
X0233344Y0251286D01*
X0233342Y0251342D01*
X0233344Y0251398D01*
X0233350Y0251453D01*
X0233360Y0251507D01*
X0233374Y0251561D01*
X0233391Y0251614D01*
X0233412Y0251665D01*
X0233437Y0251715D01*
X0233466Y0251763D01*
X0233497Y0251808D01*
X0233532Y0251851D01*
X0233570Y0251892D01*
X0233611Y0251930D01*
X0233654Y0251965D01*
X0233699Y0251996D01*
X0233747Y0252025D01*
X0233797Y0252050D01*
X0233848Y0252071D01*
X0233901Y0252088D01*
X0233955Y0252102D01*
X0234009Y0252112D01*
X0234064Y0252118D01*
X0234120Y0252120D01*
X0235364Y0252120D01*
X0235420Y0252118D01*
X0235475Y0252112D01*
X0235529Y0252102D01*
X0235583Y0252088D01*
X0235636Y0252071D01*
X0235687Y0252050D01*
X0235737Y0252025D01*
X0235785Y0251996D01*
X0235830Y0251965D01*
X0235873Y0251930D01*
X0235914Y0251892D01*
X0235952Y0251851D01*
X0235987Y0251808D01*
X0236018Y0251763D01*
X0236047Y0251715D01*
X0236072Y0251665D01*
X0236093Y0251614D01*
X0236110Y0251561D01*
X0236124Y0251507D01*
X0236134Y0251453D01*
X0236140Y0251398D01*
X0236142Y0251342D01*
X0236140Y0251286D01*
X0236134Y0251231D01*
X0236124Y0251177D01*
X0236110Y0251123D01*
X0236093Y0251070D01*
X0236072Y0251019D01*
X0236047Y0250969D01*
X0236018Y0250921D01*
X0235987Y0250876D01*
X0235952Y0250833D01*
X0235914Y0250792D01*
X0235873Y0250754D01*
X0235830Y0250719D01*
X0235785Y0250688D01*
X0235737Y0250659D01*
X0235687Y0250634D01*
X0235636Y0250613D01*
X0235583Y0250596D01*
X0235529Y0250582D01*
X0235475Y0250572D01*
X0235420Y0250566D01*
X0235364Y0250564D01*
D13*
X0238342Y0248500D02*
X0240842Y0251000D01*
X0238342Y0253500D01*
X0238342Y0258500D01*
X0240842Y0261000D01*
X0245842Y0261000D01*
X0248342Y0258500D01*
X0248342Y0253500D01*
X0245842Y0251000D01*
X0248342Y0248500D01*
X0248342Y0243500D01*
X0245842Y0241000D01*
X0248342Y0238500D01*
X0248342Y0233500D01*
X0245842Y0231000D01*
X0248342Y0228500D01*
X0248342Y0223500D01*
X0245842Y0221000D01*
X0240842Y0221000D01*
X0238342Y0223500D01*
X0238342Y0228500D01*
X0240842Y0231000D01*
X0238342Y0233500D01*
X0238342Y0238500D01*
X0240842Y0241000D01*
X0238342Y0243500D01*
X0238342Y0248500D01*
X0208342Y0253500D02*
X0208342Y0258500D01*
X0205842Y0261000D01*
X0200842Y0261000D01*
X0198342Y0258500D01*
X0195842Y0261000D01*
X0190842Y0261000D01*
X0188342Y0258500D01*
X0185842Y0261000D01*
X0180842Y0261000D01*
X0178342Y0258500D01*
X0175842Y0261000D01*
X0170842Y0261000D01*
X0168342Y0258500D01*
X0168342Y0253500D01*
X0170842Y0251000D01*
X0175842Y0251000D01*
X0178342Y0253500D01*
X0180842Y0251000D01*
X0185842Y0251000D01*
X0188342Y0253500D01*
X0190842Y0251000D01*
X0195842Y0251000D01*
X0198342Y0253500D01*
X0200842Y0251000D01*
X0205842Y0251000D01*
X0208342Y0253500D01*
X0153342Y0253500D02*
X0153342Y0258500D01*
X0150842Y0261000D01*
X0145842Y0261000D01*
X0143342Y0258500D01*
X0140842Y0261000D01*
X0135842Y0261000D01*
X0133342Y0258500D01*
X0130842Y0261000D01*
X0125842Y0261000D01*
X0123342Y0258500D01*
X0120842Y0261000D01*
X0115842Y0261000D01*
X0113342Y0258500D01*
X0113342Y0253500D01*
X0115842Y0251000D01*
X0120842Y0251000D01*
X0123342Y0253500D01*
X0125842Y0251000D01*
X0130842Y0251000D01*
X0133342Y0253500D01*
X0135842Y0251000D01*
X0140842Y0251000D01*
X0143342Y0253500D01*
X0145842Y0251000D01*
X0150842Y0251000D01*
X0153342Y0253500D01*
X0098342Y0253500D02*
X0098342Y0258500D01*
X0095842Y0261000D01*
X0090842Y0261000D01*
X0088342Y0258500D01*
X0085842Y0261000D01*
X0080842Y0261000D01*
X0078342Y0258500D01*
X0075842Y0261000D01*
X0070842Y0261000D01*
X0068342Y0258500D01*
X0065842Y0261000D01*
X0060842Y0261000D01*
X0058342Y0258500D01*
X0058342Y0253500D01*
X0060842Y0251000D01*
X0065842Y0251000D01*
X0068342Y0253500D01*
X0070842Y0251000D01*
X0075842Y0251000D01*
X0078342Y0253500D01*
X0080842Y0251000D01*
X0085842Y0251000D01*
X0088342Y0253500D01*
X0090842Y0251000D01*
X0095842Y0251000D01*
X0098342Y0253500D01*
X0098342Y0146000D02*
X0103342Y0146000D01*
X0105842Y0143500D01*
X0108342Y0146000D01*
X0113342Y0146000D01*
X0115842Y0143500D01*
X0118342Y0146000D01*
X0123342Y0146000D01*
X0125842Y0143500D01*
X0128342Y0146000D01*
X0133342Y0146000D01*
X0135842Y0143500D01*
X0138342Y0146000D01*
X0143342Y0146000D01*
X0145842Y0143500D01*
X0145842Y0138500D01*
X0143342Y0136000D01*
X0138342Y0136000D01*
X0135842Y0138500D01*
X0133342Y0136000D01*
X0128342Y0136000D01*
X0125842Y0138500D01*
X0123342Y0136000D01*
X0118342Y0136000D01*
X0115842Y0138500D01*
X0113342Y0136000D01*
X0108342Y0136000D01*
X0105842Y0138500D01*
X0103342Y0136000D01*
X0098342Y0136000D01*
X0095842Y0138500D01*
X0093342Y0136000D01*
X0088342Y0136000D01*
X0085842Y0138500D01*
X0083342Y0136000D01*
X0078342Y0136000D01*
X0075842Y0138500D01*
X0075842Y0143500D01*
X0078342Y0146000D01*
X0083342Y0146000D01*
X0085842Y0143500D01*
X0088342Y0146000D01*
X0093342Y0146000D01*
X0095842Y0143500D01*
X0098342Y0146000D01*
X0063342Y0143500D02*
X0063342Y0138500D01*
X0060842Y0136000D01*
X0063342Y0133500D01*
X0063342Y0128500D01*
X0060842Y0126000D01*
X0063342Y0123500D01*
X0063342Y0118500D01*
X0060842Y0116000D01*
X0063342Y0113500D01*
X0063342Y0108500D01*
X0060842Y0106000D01*
X0055842Y0106000D01*
X0053342Y0108500D01*
X0053342Y0113500D01*
X0055842Y0116000D01*
X0053342Y0118500D01*
X0053342Y0123500D01*
X0055842Y0126000D01*
X0053342Y0128500D01*
X0053342Y0133500D01*
X0055842Y0136000D01*
X0053342Y0138500D01*
X0053342Y0143500D01*
X0055842Y0146000D01*
X0060842Y0146000D01*
X0063342Y0143500D01*
X0076452Y0096000D02*
X0076454Y0096169D01*
X0076460Y0096338D01*
X0076471Y0096507D01*
X0076485Y0096675D01*
X0076504Y0096843D01*
X0076527Y0097011D01*
X0076553Y0097178D01*
X0076584Y0097344D01*
X0076619Y0097510D01*
X0076658Y0097674D01*
X0076702Y0097838D01*
X0076749Y0098000D01*
X0076800Y0098161D01*
X0076855Y0098321D01*
X0076914Y0098480D01*
X0076976Y0098637D01*
X0077043Y0098792D01*
X0077114Y0098946D01*
X0077188Y0099098D01*
X0077266Y0099248D01*
X0077347Y0099396D01*
X0077432Y0099542D01*
X0077521Y0099686D01*
X0077613Y0099828D01*
X0077709Y0099967D01*
X0077808Y0100104D01*
X0077910Y0100239D01*
X0078016Y0100371D01*
X0078125Y0100500D01*
X0078237Y0100627D01*
X0078352Y0100751D01*
X0078470Y0100872D01*
X0078591Y0100990D01*
X0078715Y0101105D01*
X0078842Y0101217D01*
X0078971Y0101326D01*
X0079103Y0101432D01*
X0079238Y0101534D01*
X0079375Y0101633D01*
X0079514Y0101729D01*
X0079656Y0101821D01*
X0079800Y0101910D01*
X0079946Y0101995D01*
X0080094Y0102076D01*
X0080244Y0102154D01*
X0080396Y0102228D01*
X0080550Y0102299D01*
X0080705Y0102366D01*
X0080862Y0102428D01*
X0081021Y0102487D01*
X0081181Y0102542D01*
X0081342Y0102593D01*
X0081504Y0102640D01*
X0081668Y0102684D01*
X0081832Y0102723D01*
X0081998Y0102758D01*
X0082164Y0102789D01*
X0082331Y0102815D01*
X0082499Y0102838D01*
X0082667Y0102857D01*
X0082835Y0102871D01*
X0083004Y0102882D01*
X0083173Y0102888D01*
X0083342Y0102890D01*
X0083511Y0102888D01*
X0083680Y0102882D01*
X0083849Y0102871D01*
X0084017Y0102857D01*
X0084185Y0102838D01*
X0084353Y0102815D01*
X0084520Y0102789D01*
X0084686Y0102758D01*
X0084852Y0102723D01*
X0085016Y0102684D01*
X0085180Y0102640D01*
X0085342Y0102593D01*
X0085503Y0102542D01*
X0085663Y0102487D01*
X0085822Y0102428D01*
X0085979Y0102366D01*
X0086134Y0102299D01*
X0086288Y0102228D01*
X0086440Y0102154D01*
X0086590Y0102076D01*
X0086738Y0101995D01*
X0086884Y0101910D01*
X0087028Y0101821D01*
X0087170Y0101729D01*
X0087309Y0101633D01*
X0087446Y0101534D01*
X0087581Y0101432D01*
X0087713Y0101326D01*
X0087842Y0101217D01*
X0087969Y0101105D01*
X0088093Y0100990D01*
X0088214Y0100872D01*
X0088332Y0100751D01*
X0088447Y0100627D01*
X0088559Y0100500D01*
X0088668Y0100371D01*
X0088774Y0100239D01*
X0088876Y0100104D01*
X0088975Y0099967D01*
X0089071Y0099828D01*
X0089163Y0099686D01*
X0089252Y0099542D01*
X0089337Y0099396D01*
X0089418Y0099248D01*
X0089496Y0099098D01*
X0089570Y0098946D01*
X0089641Y0098792D01*
X0089708Y0098637D01*
X0089770Y0098480D01*
X0089829Y0098321D01*
X0089884Y0098161D01*
X0089935Y0098000D01*
X0089982Y0097838D01*
X0090026Y0097674D01*
X0090065Y0097510D01*
X0090100Y0097344D01*
X0090131Y0097178D01*
X0090157Y0097011D01*
X0090180Y0096843D01*
X0090199Y0096675D01*
X0090213Y0096507D01*
X0090224Y0096338D01*
X0090230Y0096169D01*
X0090232Y0096000D01*
X0090230Y0095831D01*
X0090224Y0095662D01*
X0090213Y0095493D01*
X0090199Y0095325D01*
X0090180Y0095157D01*
X0090157Y0094989D01*
X0090131Y0094822D01*
X0090100Y0094656D01*
X0090065Y0094490D01*
X0090026Y0094326D01*
X0089982Y0094162D01*
X0089935Y0094000D01*
X0089884Y0093839D01*
X0089829Y0093679D01*
X0089770Y0093520D01*
X0089708Y0093363D01*
X0089641Y0093208D01*
X0089570Y0093054D01*
X0089496Y0092902D01*
X0089418Y0092752D01*
X0089337Y0092604D01*
X0089252Y0092458D01*
X0089163Y0092314D01*
X0089071Y0092172D01*
X0088975Y0092033D01*
X0088876Y0091896D01*
X0088774Y0091761D01*
X0088668Y0091629D01*
X0088559Y0091500D01*
X0088447Y0091373D01*
X0088332Y0091249D01*
X0088214Y0091128D01*
X0088093Y0091010D01*
X0087969Y0090895D01*
X0087842Y0090783D01*
X0087713Y0090674D01*
X0087581Y0090568D01*
X0087446Y0090466D01*
X0087309Y0090367D01*
X0087170Y0090271D01*
X0087028Y0090179D01*
X0086884Y0090090D01*
X0086738Y0090005D01*
X0086590Y0089924D01*
X0086440Y0089846D01*
X0086288Y0089772D01*
X0086134Y0089701D01*
X0085979Y0089634D01*
X0085822Y0089572D01*
X0085663Y0089513D01*
X0085503Y0089458D01*
X0085342Y0089407D01*
X0085180Y0089360D01*
X0085016Y0089316D01*
X0084852Y0089277D01*
X0084686Y0089242D01*
X0084520Y0089211D01*
X0084353Y0089185D01*
X0084185Y0089162D01*
X0084017Y0089143D01*
X0083849Y0089129D01*
X0083680Y0089118D01*
X0083511Y0089112D01*
X0083342Y0089110D01*
X0083173Y0089112D01*
X0083004Y0089118D01*
X0082835Y0089129D01*
X0082667Y0089143D01*
X0082499Y0089162D01*
X0082331Y0089185D01*
X0082164Y0089211D01*
X0081998Y0089242D01*
X0081832Y0089277D01*
X0081668Y0089316D01*
X0081504Y0089360D01*
X0081342Y0089407D01*
X0081181Y0089458D01*
X0081021Y0089513D01*
X0080862Y0089572D01*
X0080705Y0089634D01*
X0080550Y0089701D01*
X0080396Y0089772D01*
X0080244Y0089846D01*
X0080094Y0089924D01*
X0079946Y0090005D01*
X0079800Y0090090D01*
X0079656Y0090179D01*
X0079514Y0090271D01*
X0079375Y0090367D01*
X0079238Y0090466D01*
X0079103Y0090568D01*
X0078971Y0090674D01*
X0078842Y0090783D01*
X0078715Y0090895D01*
X0078591Y0091010D01*
X0078470Y0091128D01*
X0078352Y0091249D01*
X0078237Y0091373D01*
X0078125Y0091500D01*
X0078016Y0091629D01*
X0077910Y0091761D01*
X0077808Y0091896D01*
X0077709Y0092033D01*
X0077613Y0092172D01*
X0077521Y0092314D01*
X0077432Y0092458D01*
X0077347Y0092604D01*
X0077266Y0092752D01*
X0077188Y0092902D01*
X0077114Y0093054D01*
X0077043Y0093208D01*
X0076976Y0093363D01*
X0076914Y0093520D01*
X0076855Y0093679D01*
X0076800Y0093839D01*
X0076749Y0094000D01*
X0076702Y0094162D01*
X0076658Y0094326D01*
X0076619Y0094490D01*
X0076584Y0094656D01*
X0076553Y0094822D01*
X0076527Y0094989D01*
X0076504Y0095157D01*
X0076485Y0095325D01*
X0076471Y0095493D01*
X0076460Y0095662D01*
X0076454Y0095831D01*
X0076452Y0096000D01*
X0131452Y0096000D02*
X0131454Y0096169D01*
X0131460Y0096338D01*
X0131471Y0096507D01*
X0131485Y0096675D01*
X0131504Y0096843D01*
X0131527Y0097011D01*
X0131553Y0097178D01*
X0131584Y0097344D01*
X0131619Y0097510D01*
X0131658Y0097674D01*
X0131702Y0097838D01*
X0131749Y0098000D01*
X0131800Y0098161D01*
X0131855Y0098321D01*
X0131914Y0098480D01*
X0131976Y0098637D01*
X0132043Y0098792D01*
X0132114Y0098946D01*
X0132188Y0099098D01*
X0132266Y0099248D01*
X0132347Y0099396D01*
X0132432Y0099542D01*
X0132521Y0099686D01*
X0132613Y0099828D01*
X0132709Y0099967D01*
X0132808Y0100104D01*
X0132910Y0100239D01*
X0133016Y0100371D01*
X0133125Y0100500D01*
X0133237Y0100627D01*
X0133352Y0100751D01*
X0133470Y0100872D01*
X0133591Y0100990D01*
X0133715Y0101105D01*
X0133842Y0101217D01*
X0133971Y0101326D01*
X0134103Y0101432D01*
X0134238Y0101534D01*
X0134375Y0101633D01*
X0134514Y0101729D01*
X0134656Y0101821D01*
X0134800Y0101910D01*
X0134946Y0101995D01*
X0135094Y0102076D01*
X0135244Y0102154D01*
X0135396Y0102228D01*
X0135550Y0102299D01*
X0135705Y0102366D01*
X0135862Y0102428D01*
X0136021Y0102487D01*
X0136181Y0102542D01*
X0136342Y0102593D01*
X0136504Y0102640D01*
X0136668Y0102684D01*
X0136832Y0102723D01*
X0136998Y0102758D01*
X0137164Y0102789D01*
X0137331Y0102815D01*
X0137499Y0102838D01*
X0137667Y0102857D01*
X0137835Y0102871D01*
X0138004Y0102882D01*
X0138173Y0102888D01*
X0138342Y0102890D01*
X0138511Y0102888D01*
X0138680Y0102882D01*
X0138849Y0102871D01*
X0139017Y0102857D01*
X0139185Y0102838D01*
X0139353Y0102815D01*
X0139520Y0102789D01*
X0139686Y0102758D01*
X0139852Y0102723D01*
X0140016Y0102684D01*
X0140180Y0102640D01*
X0140342Y0102593D01*
X0140503Y0102542D01*
X0140663Y0102487D01*
X0140822Y0102428D01*
X0140979Y0102366D01*
X0141134Y0102299D01*
X0141288Y0102228D01*
X0141440Y0102154D01*
X0141590Y0102076D01*
X0141738Y0101995D01*
X0141884Y0101910D01*
X0142028Y0101821D01*
X0142170Y0101729D01*
X0142309Y0101633D01*
X0142446Y0101534D01*
X0142581Y0101432D01*
X0142713Y0101326D01*
X0142842Y0101217D01*
X0142969Y0101105D01*
X0143093Y0100990D01*
X0143214Y0100872D01*
X0143332Y0100751D01*
X0143447Y0100627D01*
X0143559Y0100500D01*
X0143668Y0100371D01*
X0143774Y0100239D01*
X0143876Y0100104D01*
X0143975Y0099967D01*
X0144071Y0099828D01*
X0144163Y0099686D01*
X0144252Y0099542D01*
X0144337Y0099396D01*
X0144418Y0099248D01*
X0144496Y0099098D01*
X0144570Y0098946D01*
X0144641Y0098792D01*
X0144708Y0098637D01*
X0144770Y0098480D01*
X0144829Y0098321D01*
X0144884Y0098161D01*
X0144935Y0098000D01*
X0144982Y0097838D01*
X0145026Y0097674D01*
X0145065Y0097510D01*
X0145100Y0097344D01*
X0145131Y0097178D01*
X0145157Y0097011D01*
X0145180Y0096843D01*
X0145199Y0096675D01*
X0145213Y0096507D01*
X0145224Y0096338D01*
X0145230Y0096169D01*
X0145232Y0096000D01*
X0145230Y0095831D01*
X0145224Y0095662D01*
X0145213Y0095493D01*
X0145199Y0095325D01*
X0145180Y0095157D01*
X0145157Y0094989D01*
X0145131Y0094822D01*
X0145100Y0094656D01*
X0145065Y0094490D01*
X0145026Y0094326D01*
X0144982Y0094162D01*
X0144935Y0094000D01*
X0144884Y0093839D01*
X0144829Y0093679D01*
X0144770Y0093520D01*
X0144708Y0093363D01*
X0144641Y0093208D01*
X0144570Y0093054D01*
X0144496Y0092902D01*
X0144418Y0092752D01*
X0144337Y0092604D01*
X0144252Y0092458D01*
X0144163Y0092314D01*
X0144071Y0092172D01*
X0143975Y0092033D01*
X0143876Y0091896D01*
X0143774Y0091761D01*
X0143668Y0091629D01*
X0143559Y0091500D01*
X0143447Y0091373D01*
X0143332Y0091249D01*
X0143214Y0091128D01*
X0143093Y0091010D01*
X0142969Y0090895D01*
X0142842Y0090783D01*
X0142713Y0090674D01*
X0142581Y0090568D01*
X0142446Y0090466D01*
X0142309Y0090367D01*
X0142170Y0090271D01*
X0142028Y0090179D01*
X0141884Y0090090D01*
X0141738Y0090005D01*
X0141590Y0089924D01*
X0141440Y0089846D01*
X0141288Y0089772D01*
X0141134Y0089701D01*
X0140979Y0089634D01*
X0140822Y0089572D01*
X0140663Y0089513D01*
X0140503Y0089458D01*
X0140342Y0089407D01*
X0140180Y0089360D01*
X0140016Y0089316D01*
X0139852Y0089277D01*
X0139686Y0089242D01*
X0139520Y0089211D01*
X0139353Y0089185D01*
X0139185Y0089162D01*
X0139017Y0089143D01*
X0138849Y0089129D01*
X0138680Y0089118D01*
X0138511Y0089112D01*
X0138342Y0089110D01*
X0138173Y0089112D01*
X0138004Y0089118D01*
X0137835Y0089129D01*
X0137667Y0089143D01*
X0137499Y0089162D01*
X0137331Y0089185D01*
X0137164Y0089211D01*
X0136998Y0089242D01*
X0136832Y0089277D01*
X0136668Y0089316D01*
X0136504Y0089360D01*
X0136342Y0089407D01*
X0136181Y0089458D01*
X0136021Y0089513D01*
X0135862Y0089572D01*
X0135705Y0089634D01*
X0135550Y0089701D01*
X0135396Y0089772D01*
X0135244Y0089846D01*
X0135094Y0089924D01*
X0134946Y0090005D01*
X0134800Y0090090D01*
X0134656Y0090179D01*
X0134514Y0090271D01*
X0134375Y0090367D01*
X0134238Y0090466D01*
X0134103Y0090568D01*
X0133971Y0090674D01*
X0133842Y0090783D01*
X0133715Y0090895D01*
X0133591Y0091010D01*
X0133470Y0091128D01*
X0133352Y0091249D01*
X0133237Y0091373D01*
X0133125Y0091500D01*
X0133016Y0091629D01*
X0132910Y0091761D01*
X0132808Y0091896D01*
X0132709Y0092033D01*
X0132613Y0092172D01*
X0132521Y0092314D01*
X0132432Y0092458D01*
X0132347Y0092604D01*
X0132266Y0092752D01*
X0132188Y0092902D01*
X0132114Y0093054D01*
X0132043Y0093208D01*
X0131976Y0093363D01*
X0131914Y0093520D01*
X0131855Y0093679D01*
X0131800Y0093839D01*
X0131749Y0094000D01*
X0131702Y0094162D01*
X0131658Y0094326D01*
X0131619Y0094490D01*
X0131584Y0094656D01*
X0131553Y0094822D01*
X0131527Y0094989D01*
X0131504Y0095157D01*
X0131485Y0095325D01*
X0131471Y0095493D01*
X0131460Y0095662D01*
X0131454Y0095831D01*
X0131452Y0096000D01*
X0166452Y0086000D02*
X0166454Y0086169D01*
X0166460Y0086338D01*
X0166471Y0086507D01*
X0166485Y0086675D01*
X0166504Y0086843D01*
X0166527Y0087011D01*
X0166553Y0087178D01*
X0166584Y0087344D01*
X0166619Y0087510D01*
X0166658Y0087674D01*
X0166702Y0087838D01*
X0166749Y0088000D01*
X0166800Y0088161D01*
X0166855Y0088321D01*
X0166914Y0088480D01*
X0166976Y0088637D01*
X0167043Y0088792D01*
X0167114Y0088946D01*
X0167188Y0089098D01*
X0167266Y0089248D01*
X0167347Y0089396D01*
X0167432Y0089542D01*
X0167521Y0089686D01*
X0167613Y0089828D01*
X0167709Y0089967D01*
X0167808Y0090104D01*
X0167910Y0090239D01*
X0168016Y0090371D01*
X0168125Y0090500D01*
X0168237Y0090627D01*
X0168352Y0090751D01*
X0168470Y0090872D01*
X0168591Y0090990D01*
X0168715Y0091105D01*
X0168842Y0091217D01*
X0168971Y0091326D01*
X0169103Y0091432D01*
X0169238Y0091534D01*
X0169375Y0091633D01*
X0169514Y0091729D01*
X0169656Y0091821D01*
X0169800Y0091910D01*
X0169946Y0091995D01*
X0170094Y0092076D01*
X0170244Y0092154D01*
X0170396Y0092228D01*
X0170550Y0092299D01*
X0170705Y0092366D01*
X0170862Y0092428D01*
X0171021Y0092487D01*
X0171181Y0092542D01*
X0171342Y0092593D01*
X0171504Y0092640D01*
X0171668Y0092684D01*
X0171832Y0092723D01*
X0171998Y0092758D01*
X0172164Y0092789D01*
X0172331Y0092815D01*
X0172499Y0092838D01*
X0172667Y0092857D01*
X0172835Y0092871D01*
X0173004Y0092882D01*
X0173173Y0092888D01*
X0173342Y0092890D01*
X0173511Y0092888D01*
X0173680Y0092882D01*
X0173849Y0092871D01*
X0174017Y0092857D01*
X0174185Y0092838D01*
X0174353Y0092815D01*
X0174520Y0092789D01*
X0174686Y0092758D01*
X0174852Y0092723D01*
X0175016Y0092684D01*
X0175180Y0092640D01*
X0175342Y0092593D01*
X0175503Y0092542D01*
X0175663Y0092487D01*
X0175822Y0092428D01*
X0175979Y0092366D01*
X0176134Y0092299D01*
X0176288Y0092228D01*
X0176440Y0092154D01*
X0176590Y0092076D01*
X0176738Y0091995D01*
X0176884Y0091910D01*
X0177028Y0091821D01*
X0177170Y0091729D01*
X0177309Y0091633D01*
X0177446Y0091534D01*
X0177581Y0091432D01*
X0177713Y0091326D01*
X0177842Y0091217D01*
X0177969Y0091105D01*
X0178093Y0090990D01*
X0178214Y0090872D01*
X0178332Y0090751D01*
X0178447Y0090627D01*
X0178559Y0090500D01*
X0178668Y0090371D01*
X0178774Y0090239D01*
X0178876Y0090104D01*
X0178975Y0089967D01*
X0179071Y0089828D01*
X0179163Y0089686D01*
X0179252Y0089542D01*
X0179337Y0089396D01*
X0179418Y0089248D01*
X0179496Y0089098D01*
X0179570Y0088946D01*
X0179641Y0088792D01*
X0179708Y0088637D01*
X0179770Y0088480D01*
X0179829Y0088321D01*
X0179884Y0088161D01*
X0179935Y0088000D01*
X0179982Y0087838D01*
X0180026Y0087674D01*
X0180065Y0087510D01*
X0180100Y0087344D01*
X0180131Y0087178D01*
X0180157Y0087011D01*
X0180180Y0086843D01*
X0180199Y0086675D01*
X0180213Y0086507D01*
X0180224Y0086338D01*
X0180230Y0086169D01*
X0180232Y0086000D01*
X0180230Y0085831D01*
X0180224Y0085662D01*
X0180213Y0085493D01*
X0180199Y0085325D01*
X0180180Y0085157D01*
X0180157Y0084989D01*
X0180131Y0084822D01*
X0180100Y0084656D01*
X0180065Y0084490D01*
X0180026Y0084326D01*
X0179982Y0084162D01*
X0179935Y0084000D01*
X0179884Y0083839D01*
X0179829Y0083679D01*
X0179770Y0083520D01*
X0179708Y0083363D01*
X0179641Y0083208D01*
X0179570Y0083054D01*
X0179496Y0082902D01*
X0179418Y0082752D01*
X0179337Y0082604D01*
X0179252Y0082458D01*
X0179163Y0082314D01*
X0179071Y0082172D01*
X0178975Y0082033D01*
X0178876Y0081896D01*
X0178774Y0081761D01*
X0178668Y0081629D01*
X0178559Y0081500D01*
X0178447Y0081373D01*
X0178332Y0081249D01*
X0178214Y0081128D01*
X0178093Y0081010D01*
X0177969Y0080895D01*
X0177842Y0080783D01*
X0177713Y0080674D01*
X0177581Y0080568D01*
X0177446Y0080466D01*
X0177309Y0080367D01*
X0177170Y0080271D01*
X0177028Y0080179D01*
X0176884Y0080090D01*
X0176738Y0080005D01*
X0176590Y0079924D01*
X0176440Y0079846D01*
X0176288Y0079772D01*
X0176134Y0079701D01*
X0175979Y0079634D01*
X0175822Y0079572D01*
X0175663Y0079513D01*
X0175503Y0079458D01*
X0175342Y0079407D01*
X0175180Y0079360D01*
X0175016Y0079316D01*
X0174852Y0079277D01*
X0174686Y0079242D01*
X0174520Y0079211D01*
X0174353Y0079185D01*
X0174185Y0079162D01*
X0174017Y0079143D01*
X0173849Y0079129D01*
X0173680Y0079118D01*
X0173511Y0079112D01*
X0173342Y0079110D01*
X0173173Y0079112D01*
X0173004Y0079118D01*
X0172835Y0079129D01*
X0172667Y0079143D01*
X0172499Y0079162D01*
X0172331Y0079185D01*
X0172164Y0079211D01*
X0171998Y0079242D01*
X0171832Y0079277D01*
X0171668Y0079316D01*
X0171504Y0079360D01*
X0171342Y0079407D01*
X0171181Y0079458D01*
X0171021Y0079513D01*
X0170862Y0079572D01*
X0170705Y0079634D01*
X0170550Y0079701D01*
X0170396Y0079772D01*
X0170244Y0079846D01*
X0170094Y0079924D01*
X0169946Y0080005D01*
X0169800Y0080090D01*
X0169656Y0080179D01*
X0169514Y0080271D01*
X0169375Y0080367D01*
X0169238Y0080466D01*
X0169103Y0080568D01*
X0168971Y0080674D01*
X0168842Y0080783D01*
X0168715Y0080895D01*
X0168591Y0081010D01*
X0168470Y0081128D01*
X0168352Y0081249D01*
X0168237Y0081373D01*
X0168125Y0081500D01*
X0168016Y0081629D01*
X0167910Y0081761D01*
X0167808Y0081896D01*
X0167709Y0082033D01*
X0167613Y0082172D01*
X0167521Y0082314D01*
X0167432Y0082458D01*
X0167347Y0082604D01*
X0167266Y0082752D01*
X0167188Y0082902D01*
X0167114Y0083054D01*
X0167043Y0083208D01*
X0166976Y0083363D01*
X0166914Y0083520D01*
X0166855Y0083679D01*
X0166800Y0083839D01*
X0166749Y0084000D01*
X0166702Y0084162D01*
X0166658Y0084326D01*
X0166619Y0084490D01*
X0166584Y0084656D01*
X0166553Y0084822D01*
X0166527Y0084989D01*
X0166504Y0085157D01*
X0166485Y0085325D01*
X0166471Y0085493D01*
X0166460Y0085662D01*
X0166454Y0085831D01*
X0166452Y0086000D01*
X0216452Y0086000D02*
X0216454Y0086169D01*
X0216460Y0086338D01*
X0216471Y0086507D01*
X0216485Y0086675D01*
X0216504Y0086843D01*
X0216527Y0087011D01*
X0216553Y0087178D01*
X0216584Y0087344D01*
X0216619Y0087510D01*
X0216658Y0087674D01*
X0216702Y0087838D01*
X0216749Y0088000D01*
X0216800Y0088161D01*
X0216855Y0088321D01*
X0216914Y0088480D01*
X0216976Y0088637D01*
X0217043Y0088792D01*
X0217114Y0088946D01*
X0217188Y0089098D01*
X0217266Y0089248D01*
X0217347Y0089396D01*
X0217432Y0089542D01*
X0217521Y0089686D01*
X0217613Y0089828D01*
X0217709Y0089967D01*
X0217808Y0090104D01*
X0217910Y0090239D01*
X0218016Y0090371D01*
X0218125Y0090500D01*
X0218237Y0090627D01*
X0218352Y0090751D01*
X0218470Y0090872D01*
X0218591Y0090990D01*
X0218715Y0091105D01*
X0218842Y0091217D01*
X0218971Y0091326D01*
X0219103Y0091432D01*
X0219238Y0091534D01*
X0219375Y0091633D01*
X0219514Y0091729D01*
X0219656Y0091821D01*
X0219800Y0091910D01*
X0219946Y0091995D01*
X0220094Y0092076D01*
X0220244Y0092154D01*
X0220396Y0092228D01*
X0220550Y0092299D01*
X0220705Y0092366D01*
X0220862Y0092428D01*
X0221021Y0092487D01*
X0221181Y0092542D01*
X0221342Y0092593D01*
X0221504Y0092640D01*
X0221668Y0092684D01*
X0221832Y0092723D01*
X0221998Y0092758D01*
X0222164Y0092789D01*
X0222331Y0092815D01*
X0222499Y0092838D01*
X0222667Y0092857D01*
X0222835Y0092871D01*
X0223004Y0092882D01*
X0223173Y0092888D01*
X0223342Y0092890D01*
X0223511Y0092888D01*
X0223680Y0092882D01*
X0223849Y0092871D01*
X0224017Y0092857D01*
X0224185Y0092838D01*
X0224353Y0092815D01*
X0224520Y0092789D01*
X0224686Y0092758D01*
X0224852Y0092723D01*
X0225016Y0092684D01*
X0225180Y0092640D01*
X0225342Y0092593D01*
X0225503Y0092542D01*
X0225663Y0092487D01*
X0225822Y0092428D01*
X0225979Y0092366D01*
X0226134Y0092299D01*
X0226288Y0092228D01*
X0226440Y0092154D01*
X0226590Y0092076D01*
X0226738Y0091995D01*
X0226884Y0091910D01*
X0227028Y0091821D01*
X0227170Y0091729D01*
X0227309Y0091633D01*
X0227446Y0091534D01*
X0227581Y0091432D01*
X0227713Y0091326D01*
X0227842Y0091217D01*
X0227969Y0091105D01*
X0228093Y0090990D01*
X0228214Y0090872D01*
X0228332Y0090751D01*
X0228447Y0090627D01*
X0228559Y0090500D01*
X0228668Y0090371D01*
X0228774Y0090239D01*
X0228876Y0090104D01*
X0228975Y0089967D01*
X0229071Y0089828D01*
X0229163Y0089686D01*
X0229252Y0089542D01*
X0229337Y0089396D01*
X0229418Y0089248D01*
X0229496Y0089098D01*
X0229570Y0088946D01*
X0229641Y0088792D01*
X0229708Y0088637D01*
X0229770Y0088480D01*
X0229829Y0088321D01*
X0229884Y0088161D01*
X0229935Y0088000D01*
X0229982Y0087838D01*
X0230026Y0087674D01*
X0230065Y0087510D01*
X0230100Y0087344D01*
X0230131Y0087178D01*
X0230157Y0087011D01*
X0230180Y0086843D01*
X0230199Y0086675D01*
X0230213Y0086507D01*
X0230224Y0086338D01*
X0230230Y0086169D01*
X0230232Y0086000D01*
X0230230Y0085831D01*
X0230224Y0085662D01*
X0230213Y0085493D01*
X0230199Y0085325D01*
X0230180Y0085157D01*
X0230157Y0084989D01*
X0230131Y0084822D01*
X0230100Y0084656D01*
X0230065Y0084490D01*
X0230026Y0084326D01*
X0229982Y0084162D01*
X0229935Y0084000D01*
X0229884Y0083839D01*
X0229829Y0083679D01*
X0229770Y0083520D01*
X0229708Y0083363D01*
X0229641Y0083208D01*
X0229570Y0083054D01*
X0229496Y0082902D01*
X0229418Y0082752D01*
X0229337Y0082604D01*
X0229252Y0082458D01*
X0229163Y0082314D01*
X0229071Y0082172D01*
X0228975Y0082033D01*
X0228876Y0081896D01*
X0228774Y0081761D01*
X0228668Y0081629D01*
X0228559Y0081500D01*
X0228447Y0081373D01*
X0228332Y0081249D01*
X0228214Y0081128D01*
X0228093Y0081010D01*
X0227969Y0080895D01*
X0227842Y0080783D01*
X0227713Y0080674D01*
X0227581Y0080568D01*
X0227446Y0080466D01*
X0227309Y0080367D01*
X0227170Y0080271D01*
X0227028Y0080179D01*
X0226884Y0080090D01*
X0226738Y0080005D01*
X0226590Y0079924D01*
X0226440Y0079846D01*
X0226288Y0079772D01*
X0226134Y0079701D01*
X0225979Y0079634D01*
X0225822Y0079572D01*
X0225663Y0079513D01*
X0225503Y0079458D01*
X0225342Y0079407D01*
X0225180Y0079360D01*
X0225016Y0079316D01*
X0224852Y0079277D01*
X0224686Y0079242D01*
X0224520Y0079211D01*
X0224353Y0079185D01*
X0224185Y0079162D01*
X0224017Y0079143D01*
X0223849Y0079129D01*
X0223680Y0079118D01*
X0223511Y0079112D01*
X0223342Y0079110D01*
X0223173Y0079112D01*
X0223004Y0079118D01*
X0222835Y0079129D01*
X0222667Y0079143D01*
X0222499Y0079162D01*
X0222331Y0079185D01*
X0222164Y0079211D01*
X0221998Y0079242D01*
X0221832Y0079277D01*
X0221668Y0079316D01*
X0221504Y0079360D01*
X0221342Y0079407D01*
X0221181Y0079458D01*
X0221021Y0079513D01*
X0220862Y0079572D01*
X0220705Y0079634D01*
X0220550Y0079701D01*
X0220396Y0079772D01*
X0220244Y0079846D01*
X0220094Y0079924D01*
X0219946Y0080005D01*
X0219800Y0080090D01*
X0219656Y0080179D01*
X0219514Y0080271D01*
X0219375Y0080367D01*
X0219238Y0080466D01*
X0219103Y0080568D01*
X0218971Y0080674D01*
X0218842Y0080783D01*
X0218715Y0080895D01*
X0218591Y0081010D01*
X0218470Y0081128D01*
X0218352Y0081249D01*
X0218237Y0081373D01*
X0218125Y0081500D01*
X0218016Y0081629D01*
X0217910Y0081761D01*
X0217808Y0081896D01*
X0217709Y0082033D01*
X0217613Y0082172D01*
X0217521Y0082314D01*
X0217432Y0082458D01*
X0217347Y0082604D01*
X0217266Y0082752D01*
X0217188Y0082902D01*
X0217114Y0083054D01*
X0217043Y0083208D01*
X0216976Y0083363D01*
X0216914Y0083520D01*
X0216855Y0083679D01*
X0216800Y0083839D01*
X0216749Y0084000D01*
X0216702Y0084162D01*
X0216658Y0084326D01*
X0216619Y0084490D01*
X0216584Y0084656D01*
X0216553Y0084822D01*
X0216527Y0084989D01*
X0216504Y0085157D01*
X0216485Y0085325D01*
X0216471Y0085493D01*
X0216460Y0085662D01*
X0216454Y0085831D01*
X0216452Y0086000D01*
X0215842Y0136000D02*
X0213342Y0138500D01*
X0210842Y0136000D01*
X0205842Y0136000D01*
X0203342Y0138500D01*
X0200842Y0136000D01*
X0195842Y0136000D01*
X0193342Y0138500D01*
X0190842Y0136000D01*
X0185842Y0136000D01*
X0183342Y0138500D01*
X0180842Y0136000D01*
X0175842Y0136000D01*
X0173342Y0138500D01*
X0170842Y0136000D01*
X0165842Y0136000D01*
X0163342Y0138500D01*
X0163342Y0143500D01*
X0165842Y0146000D01*
X0170842Y0146000D01*
X0173342Y0143500D01*
X0175842Y0146000D01*
X0180842Y0146000D01*
X0183342Y0143500D01*
X0185842Y0146000D01*
X0190842Y0146000D01*
X0193342Y0143500D01*
X0195842Y0146000D01*
X0200842Y0146000D01*
X0203342Y0143500D01*
X0205842Y0146000D01*
X0210842Y0146000D01*
X0213342Y0143500D01*
X0215842Y0146000D01*
X0220842Y0146000D01*
X0223342Y0143500D01*
X0225842Y0146000D01*
X0230842Y0146000D01*
X0233342Y0143500D01*
X0233342Y0138500D01*
X0230842Y0136000D01*
X0225842Y0136000D01*
X0223342Y0138500D01*
X0220842Y0136000D01*
X0215842Y0136000D01*
X0240842Y0161000D02*
X0238342Y0163500D01*
X0238342Y0168500D01*
X0240842Y0171000D01*
X0238342Y0173500D01*
X0238342Y0178500D01*
X0240842Y0181000D01*
X0238342Y0183500D01*
X0238342Y0188500D01*
X0240842Y0191000D01*
X0238342Y0193500D01*
X0238342Y0198500D01*
X0240842Y0201000D01*
X0245842Y0201000D01*
X0248342Y0198500D01*
X0248342Y0193500D01*
X0245842Y0191000D01*
X0248342Y0188500D01*
X0248342Y0183500D01*
X0245842Y0181000D01*
X0248342Y0178500D01*
X0248342Y0173500D01*
X0245842Y0171000D01*
X0248342Y0168500D01*
X0248342Y0163500D01*
X0245842Y0161000D01*
X0240842Y0161000D01*
D14*
X0249192Y0164383D02*
X0250670Y0164383D01*
X0250709Y0164381D01*
X0250748Y0164376D01*
X0250785Y0164367D01*
X0250822Y0164355D01*
X0250858Y0164339D01*
X0250892Y0164320D01*
X0250924Y0164298D01*
X0250954Y0164273D01*
X0250982Y0164245D01*
X0251007Y0164215D01*
X0251029Y0164183D01*
X0251048Y0164149D01*
X0251064Y0164113D01*
X0251076Y0164076D01*
X0251085Y0164039D01*
X0251090Y0164000D01*
X0251092Y0163961D01*
X0251092Y0163750D01*
X0251092Y0165544D02*
X0251092Y0166177D01*
X0251090Y0166216D01*
X0251085Y0166255D01*
X0251076Y0166292D01*
X0251064Y0166329D01*
X0251048Y0166365D01*
X0251029Y0166399D01*
X0251007Y0166431D01*
X0250982Y0166461D01*
X0250954Y0166489D01*
X0250924Y0166514D01*
X0250892Y0166536D01*
X0250858Y0166555D01*
X0250822Y0166571D01*
X0250785Y0166583D01*
X0250748Y0166592D01*
X0250709Y0166597D01*
X0250670Y0166599D01*
X0250458Y0166599D01*
X0250419Y0166597D01*
X0250380Y0166592D01*
X0250343Y0166583D01*
X0250306Y0166571D01*
X0250270Y0166555D01*
X0250236Y0166536D01*
X0250204Y0166514D01*
X0250174Y0166489D01*
X0250146Y0166461D01*
X0250121Y0166431D01*
X0250099Y0166399D01*
X0250080Y0166365D01*
X0250064Y0166329D01*
X0250052Y0166292D01*
X0250043Y0166255D01*
X0250038Y0166216D01*
X0250036Y0166177D01*
X0250036Y0165544D01*
X0249192Y0165544D01*
X0249192Y0166599D01*
X0174406Y0147700D02*
X0174408Y0147629D01*
X0174412Y0147558D01*
X0174420Y0147488D01*
X0174432Y0147417D01*
X0174446Y0147348D01*
X0174464Y0147279D01*
X0174484Y0147211D01*
X0174508Y0147144D01*
X0174535Y0147078D01*
X0174564Y0147014D01*
X0174512Y0147172D02*
X0175356Y0148228D01*
X0175304Y0148386D02*
X0175290Y0148420D01*
X0175273Y0148454D01*
X0175253Y0148485D01*
X0175230Y0148514D01*
X0175204Y0148541D01*
X0175176Y0148566D01*
X0175146Y0148588D01*
X0175114Y0148606D01*
X0175080Y0148622D01*
X0175044Y0148634D01*
X0175008Y0148643D01*
X0174971Y0148648D01*
X0174934Y0148650D01*
X0174897Y0148648D01*
X0174860Y0148643D01*
X0174824Y0148634D01*
X0174788Y0148622D01*
X0174754Y0148606D01*
X0174722Y0148588D01*
X0174692Y0148566D01*
X0174664Y0148541D01*
X0174638Y0148514D01*
X0174615Y0148485D01*
X0174595Y0148454D01*
X0174578Y0148420D01*
X0174564Y0148386D01*
X0175304Y0148386D02*
X0175333Y0148322D01*
X0175360Y0148256D01*
X0175384Y0148189D01*
X0175404Y0148121D01*
X0175422Y0148052D01*
X0175436Y0147983D01*
X0175448Y0147912D01*
X0175456Y0147842D01*
X0175460Y0147771D01*
X0175462Y0147700D01*
X0174406Y0147700D02*
X0174408Y0147771D01*
X0174412Y0147842D01*
X0174420Y0147912D01*
X0174432Y0147983D01*
X0174446Y0148052D01*
X0174464Y0148121D01*
X0174484Y0148189D01*
X0174508Y0148256D01*
X0174535Y0148322D01*
X0174564Y0148386D01*
X0175462Y0147700D02*
X0175460Y0147629D01*
X0175456Y0147558D01*
X0175448Y0147488D01*
X0175436Y0147417D01*
X0175422Y0147348D01*
X0175404Y0147279D01*
X0175384Y0147211D01*
X0175360Y0147144D01*
X0175333Y0147078D01*
X0175304Y0147014D01*
X0175290Y0146980D01*
X0175273Y0146946D01*
X0175253Y0146915D01*
X0175230Y0146886D01*
X0175204Y0146858D01*
X0175176Y0146834D01*
X0175146Y0146812D01*
X0175114Y0146794D01*
X0175080Y0146778D01*
X0175044Y0146766D01*
X0175008Y0146757D01*
X0174971Y0146752D01*
X0174934Y0146750D01*
X0174897Y0146752D01*
X0174860Y0146757D01*
X0174824Y0146766D01*
X0174788Y0146778D01*
X0174754Y0146794D01*
X0174722Y0146812D01*
X0174692Y0146834D01*
X0174664Y0146858D01*
X0174638Y0146886D01*
X0174615Y0146915D01*
X0174595Y0146946D01*
X0174578Y0146980D01*
X0174564Y0147014D01*
X0173302Y0147278D02*
X0173300Y0147233D01*
X0173294Y0147189D01*
X0173285Y0147145D01*
X0173272Y0147102D01*
X0173255Y0147061D01*
X0173235Y0147020D01*
X0173211Y0146982D01*
X0173185Y0146946D01*
X0173155Y0146913D01*
X0173123Y0146882D01*
X0173088Y0146853D01*
X0173051Y0146828D01*
X0173012Y0146807D01*
X0172971Y0146788D01*
X0172929Y0146773D01*
X0172885Y0146762D01*
X0172841Y0146754D01*
X0172796Y0146750D01*
X0172752Y0146750D01*
X0172707Y0146754D01*
X0172663Y0146762D01*
X0172619Y0146773D01*
X0172577Y0146788D01*
X0172536Y0146807D01*
X0172497Y0146828D01*
X0172460Y0146853D01*
X0172425Y0146882D01*
X0172393Y0146913D01*
X0172363Y0146946D01*
X0172337Y0146982D01*
X0172313Y0147020D01*
X0172293Y0147061D01*
X0172276Y0147102D01*
X0172263Y0147145D01*
X0172254Y0147189D01*
X0172248Y0147233D01*
X0172246Y0147278D01*
X0172248Y0147323D01*
X0172254Y0147367D01*
X0172263Y0147411D01*
X0172276Y0147454D01*
X0172293Y0147495D01*
X0172313Y0147536D01*
X0172337Y0147574D01*
X0172363Y0147610D01*
X0172393Y0147643D01*
X0172425Y0147674D01*
X0172460Y0147703D01*
X0172497Y0147728D01*
X0172536Y0147749D01*
X0172577Y0147768D01*
X0172619Y0147783D01*
X0172663Y0147794D01*
X0172707Y0147802D01*
X0172752Y0147806D01*
X0172796Y0147806D01*
X0172841Y0147802D01*
X0172885Y0147794D01*
X0172929Y0147783D01*
X0172971Y0147768D01*
X0173012Y0147749D01*
X0173051Y0147728D01*
X0173088Y0147703D01*
X0173123Y0147674D01*
X0173155Y0147643D01*
X0173185Y0147610D01*
X0173211Y0147574D01*
X0173235Y0147536D01*
X0173255Y0147495D01*
X0173272Y0147454D01*
X0173285Y0147411D01*
X0173294Y0147367D01*
X0173300Y0147323D01*
X0173302Y0147278D01*
X0173196Y0148228D02*
X0173194Y0148188D01*
X0173188Y0148148D01*
X0173179Y0148109D01*
X0173166Y0148071D01*
X0173149Y0148035D01*
X0173129Y0148000D01*
X0173106Y0147967D01*
X0173079Y0147937D01*
X0173050Y0147909D01*
X0173019Y0147884D01*
X0172985Y0147863D01*
X0172949Y0147844D01*
X0172912Y0147829D01*
X0172873Y0147818D01*
X0172834Y0147810D01*
X0172794Y0147806D01*
X0172754Y0147806D01*
X0172714Y0147810D01*
X0172675Y0147818D01*
X0172636Y0147829D01*
X0172599Y0147844D01*
X0172563Y0147863D01*
X0172529Y0147884D01*
X0172498Y0147909D01*
X0172469Y0147937D01*
X0172442Y0147967D01*
X0172419Y0148000D01*
X0172399Y0148035D01*
X0172382Y0148071D01*
X0172369Y0148109D01*
X0172360Y0148148D01*
X0172354Y0148188D01*
X0172352Y0148228D01*
X0172354Y0148268D01*
X0172360Y0148308D01*
X0172369Y0148347D01*
X0172382Y0148385D01*
X0172399Y0148421D01*
X0172419Y0148456D01*
X0172442Y0148489D01*
X0172469Y0148519D01*
X0172498Y0148547D01*
X0172529Y0148572D01*
X0172563Y0148593D01*
X0172599Y0148612D01*
X0172636Y0148627D01*
X0172675Y0148638D01*
X0172714Y0148646D01*
X0172754Y0148650D01*
X0172794Y0148650D01*
X0172834Y0148646D01*
X0172873Y0148638D01*
X0172912Y0148627D01*
X0172949Y0148612D01*
X0172985Y0148593D01*
X0173019Y0148572D01*
X0173050Y0148547D01*
X0173079Y0148519D01*
X0173106Y0148489D01*
X0173129Y0148456D01*
X0173149Y0148421D01*
X0173166Y0148385D01*
X0173179Y0148347D01*
X0173188Y0148308D01*
X0173194Y0148268D01*
X0173196Y0148228D01*
X0170983Y0147806D02*
X0170086Y0146750D01*
X0171142Y0146750D01*
X0170087Y0148228D02*
X0170103Y0148273D01*
X0170123Y0148316D01*
X0170147Y0148358D01*
X0170173Y0148398D01*
X0170203Y0148436D01*
X0170235Y0148471D01*
X0170271Y0148504D01*
X0170308Y0148533D01*
X0170348Y0148560D01*
X0170390Y0148583D01*
X0170433Y0148603D01*
X0170478Y0148620D01*
X0170524Y0148633D01*
X0170572Y0148642D01*
X0170619Y0148648D01*
X0170667Y0148650D01*
X0170708Y0148648D01*
X0170749Y0148643D01*
X0170790Y0148634D01*
X0170829Y0148621D01*
X0170868Y0148605D01*
X0170905Y0148586D01*
X0170939Y0148564D01*
X0170972Y0148539D01*
X0171003Y0148511D01*
X0171031Y0148480D01*
X0171056Y0148447D01*
X0171078Y0148413D01*
X0171097Y0148376D01*
X0171113Y0148337D01*
X0171126Y0148298D01*
X0171135Y0148257D01*
X0171140Y0148216D01*
X0171142Y0148175D01*
X0171141Y0148175D02*
X0171139Y0148134D01*
X0171134Y0148093D01*
X0171126Y0148052D01*
X0171114Y0148013D01*
X0171100Y0147974D01*
X0171082Y0147937D01*
X0171061Y0147901D01*
X0171038Y0147867D01*
X0171011Y0147835D01*
X0170983Y0147806D01*
X0169138Y0148650D02*
X0168294Y0148650D01*
X0168294Y0146750D01*
X0169138Y0146750D01*
X0168927Y0147806D02*
X0168294Y0147806D01*
X0166999Y0148650D02*
X0166999Y0146750D01*
X0166366Y0147594D02*
X0166999Y0148650D01*
X0166366Y0147594D02*
X0165733Y0148650D01*
X0165733Y0146750D01*
X0164120Y0146750D02*
X0163592Y0146750D01*
X0163592Y0148650D01*
X0164120Y0148650D01*
X0164160Y0148648D01*
X0164200Y0148642D01*
X0164239Y0148633D01*
X0164277Y0148620D01*
X0164313Y0148603D01*
X0164348Y0148583D01*
X0164381Y0148560D01*
X0164411Y0148533D01*
X0164439Y0148504D01*
X0164464Y0148473D01*
X0164485Y0148439D01*
X0164504Y0148403D01*
X0164519Y0148366D01*
X0164530Y0148327D01*
X0164538Y0148288D01*
X0164542Y0148248D01*
X0164542Y0148208D01*
X0164538Y0148168D01*
X0164530Y0148129D01*
X0164519Y0148090D01*
X0164504Y0148053D01*
X0164485Y0148017D01*
X0164464Y0147983D01*
X0164439Y0147952D01*
X0164411Y0147923D01*
X0164381Y0147896D01*
X0164348Y0147873D01*
X0164313Y0147853D01*
X0164277Y0147836D01*
X0164239Y0147823D01*
X0164200Y0147814D01*
X0164160Y0147808D01*
X0164120Y0147806D01*
X0163592Y0147806D01*
X0164120Y0147806D02*
X0164165Y0147804D01*
X0164209Y0147798D01*
X0164253Y0147789D01*
X0164296Y0147776D01*
X0164337Y0147759D01*
X0164378Y0147739D01*
X0164416Y0147715D01*
X0164452Y0147689D01*
X0164485Y0147659D01*
X0164516Y0147627D01*
X0164545Y0147592D01*
X0164570Y0147555D01*
X0164591Y0147516D01*
X0164610Y0147475D01*
X0164625Y0147433D01*
X0164636Y0147389D01*
X0164644Y0147345D01*
X0164648Y0147300D01*
X0164648Y0147256D01*
X0164644Y0147211D01*
X0164636Y0147167D01*
X0164625Y0147123D01*
X0164610Y0147081D01*
X0164591Y0147040D01*
X0164570Y0147001D01*
X0164545Y0146964D01*
X0164516Y0146929D01*
X0164485Y0146897D01*
X0164452Y0146867D01*
X0164416Y0146841D01*
X0164378Y0146817D01*
X0164337Y0146797D01*
X0164296Y0146780D01*
X0164253Y0146767D01*
X0164209Y0146758D01*
X0164165Y0146752D01*
X0164120Y0146750D01*
X0089531Y0146750D02*
X0088476Y0146750D01*
X0089003Y0146750D02*
X0089003Y0148650D01*
X0088476Y0148228D01*
X0087160Y0148650D02*
X0087102Y0148648D01*
X0087045Y0148642D01*
X0086988Y0148632D01*
X0086932Y0148619D01*
X0086877Y0148601D01*
X0086824Y0148580D01*
X0086772Y0148555D01*
X0086721Y0148527D01*
X0086673Y0148496D01*
X0086627Y0148461D01*
X0086584Y0148423D01*
X0086543Y0148382D01*
X0086505Y0148339D01*
X0086470Y0148293D01*
X0086439Y0148245D01*
X0086411Y0148194D01*
X0086386Y0148142D01*
X0086365Y0148089D01*
X0086347Y0148034D01*
X0086334Y0147978D01*
X0086324Y0147921D01*
X0086318Y0147864D01*
X0086316Y0147806D01*
X0086316Y0147278D01*
X0086315Y0147278D02*
X0086317Y0147233D01*
X0086323Y0147189D01*
X0086332Y0147145D01*
X0086345Y0147102D01*
X0086362Y0147061D01*
X0086382Y0147020D01*
X0086406Y0146982D01*
X0086432Y0146946D01*
X0086462Y0146913D01*
X0086494Y0146882D01*
X0086529Y0146853D01*
X0086566Y0146828D01*
X0086605Y0146807D01*
X0086646Y0146788D01*
X0086688Y0146773D01*
X0086732Y0146762D01*
X0086776Y0146754D01*
X0086821Y0146750D01*
X0086865Y0146750D01*
X0086910Y0146754D01*
X0086954Y0146762D01*
X0086998Y0146773D01*
X0087040Y0146788D01*
X0087081Y0146807D01*
X0087120Y0146828D01*
X0087157Y0146853D01*
X0087192Y0146882D01*
X0087224Y0146913D01*
X0087254Y0146946D01*
X0087280Y0146982D01*
X0087304Y0147020D01*
X0087324Y0147061D01*
X0087341Y0147102D01*
X0087354Y0147145D01*
X0087363Y0147189D01*
X0087369Y0147233D01*
X0087371Y0147278D01*
X0087371Y0147383D01*
X0087369Y0147422D01*
X0087364Y0147461D01*
X0087355Y0147498D01*
X0087343Y0147535D01*
X0087327Y0147571D01*
X0087308Y0147605D01*
X0087286Y0147637D01*
X0087261Y0147667D01*
X0087233Y0147695D01*
X0087203Y0147720D01*
X0087171Y0147742D01*
X0087137Y0147761D01*
X0087101Y0147777D01*
X0087064Y0147789D01*
X0087027Y0147798D01*
X0086988Y0147803D01*
X0086949Y0147805D01*
X0086949Y0147806D02*
X0086316Y0147806D01*
X0085211Y0147383D02*
X0085211Y0147172D01*
X0085209Y0147133D01*
X0085204Y0147094D01*
X0085195Y0147057D01*
X0085183Y0147020D01*
X0085167Y0146984D01*
X0085148Y0146950D01*
X0085126Y0146918D01*
X0085101Y0146888D01*
X0085073Y0146860D01*
X0085043Y0146835D01*
X0085011Y0146813D01*
X0084977Y0146794D01*
X0084941Y0146778D01*
X0084904Y0146766D01*
X0084867Y0146757D01*
X0084828Y0146752D01*
X0084789Y0146750D01*
X0084156Y0146750D01*
X0085211Y0147383D02*
X0085209Y0147422D01*
X0085204Y0147461D01*
X0085195Y0147498D01*
X0085183Y0147535D01*
X0085167Y0147571D01*
X0085148Y0147605D01*
X0085126Y0147637D01*
X0085101Y0147667D01*
X0085073Y0147695D01*
X0085043Y0147720D01*
X0085011Y0147742D01*
X0084977Y0147761D01*
X0084941Y0147777D01*
X0084904Y0147789D01*
X0084867Y0147798D01*
X0084828Y0147803D01*
X0084789Y0147805D01*
X0084789Y0147806D02*
X0084156Y0147806D01*
X0084156Y0148650D01*
X0085211Y0148650D01*
X0082893Y0147806D02*
X0081996Y0146750D01*
X0083051Y0146750D01*
X0081996Y0148228D02*
X0082012Y0148273D01*
X0082032Y0148316D01*
X0082056Y0148358D01*
X0082082Y0148398D01*
X0082112Y0148436D01*
X0082144Y0148471D01*
X0082180Y0148504D01*
X0082217Y0148533D01*
X0082257Y0148560D01*
X0082299Y0148583D01*
X0082342Y0148603D01*
X0082387Y0148620D01*
X0082433Y0148633D01*
X0082481Y0148642D01*
X0082528Y0148648D01*
X0082576Y0148650D01*
X0082617Y0148648D01*
X0082658Y0148643D01*
X0082699Y0148634D01*
X0082738Y0148621D01*
X0082777Y0148605D01*
X0082814Y0148586D01*
X0082848Y0148564D01*
X0082881Y0148539D01*
X0082912Y0148511D01*
X0082940Y0148480D01*
X0082965Y0148447D01*
X0082987Y0148413D01*
X0083006Y0148376D01*
X0083022Y0148337D01*
X0083035Y0148298D01*
X0083044Y0148257D01*
X0083049Y0148216D01*
X0083051Y0148175D01*
X0083049Y0148134D01*
X0083044Y0148093D01*
X0083036Y0148052D01*
X0083024Y0148013D01*
X0083010Y0147974D01*
X0082992Y0147937D01*
X0082971Y0147901D01*
X0082948Y0147867D01*
X0082921Y0147835D01*
X0082893Y0147806D01*
X0081048Y0146750D02*
X0080203Y0146750D01*
X0080203Y0148650D01*
X0078880Y0147542D02*
X0078300Y0147858D01*
X0078511Y0148650D02*
X0078562Y0148648D01*
X0078613Y0148643D01*
X0078663Y0148635D01*
X0078713Y0148624D01*
X0078761Y0148609D01*
X0078809Y0148592D01*
X0078856Y0148571D01*
X0078901Y0148547D01*
X0078944Y0148521D01*
X0078986Y0148492D01*
X0078299Y0147858D02*
X0078265Y0147881D01*
X0078234Y0147906D01*
X0078205Y0147934D01*
X0078178Y0147965D01*
X0078155Y0147998D01*
X0078135Y0148033D01*
X0078118Y0148070D01*
X0078105Y0148108D01*
X0078096Y0148147D01*
X0078090Y0148188D01*
X0078088Y0148228D01*
X0078089Y0148228D02*
X0078091Y0148267D01*
X0078096Y0148306D01*
X0078105Y0148343D01*
X0078117Y0148380D01*
X0078133Y0148416D01*
X0078152Y0148450D01*
X0078174Y0148482D01*
X0078199Y0148512D01*
X0078227Y0148540D01*
X0078257Y0148565D01*
X0078289Y0148587D01*
X0078323Y0148606D01*
X0078359Y0148622D01*
X0078396Y0148634D01*
X0078433Y0148643D01*
X0078472Y0148648D01*
X0078511Y0148650D01*
X0078036Y0147014D02*
X0078078Y0146974D01*
X0078124Y0146936D01*
X0078171Y0146902D01*
X0078221Y0146871D01*
X0078273Y0146843D01*
X0078326Y0146819D01*
X0078381Y0146798D01*
X0078437Y0146781D01*
X0078494Y0146767D01*
X0078552Y0146758D01*
X0078610Y0146752D01*
X0078669Y0146750D01*
X0078708Y0146752D01*
X0078747Y0146757D01*
X0078784Y0146766D01*
X0078821Y0146778D01*
X0078857Y0146794D01*
X0078891Y0146813D01*
X0078923Y0146835D01*
X0078953Y0146860D01*
X0078981Y0146888D01*
X0079006Y0146918D01*
X0079028Y0146950D01*
X0079047Y0146984D01*
X0079063Y0147020D01*
X0079075Y0147057D01*
X0079084Y0147094D01*
X0079089Y0147133D01*
X0079091Y0147172D01*
X0079092Y0147172D02*
X0079090Y0147212D01*
X0079084Y0147253D01*
X0079075Y0147292D01*
X0079062Y0147330D01*
X0079045Y0147367D01*
X0079025Y0147402D01*
X0079002Y0147435D01*
X0078975Y0147466D01*
X0078946Y0147494D01*
X0078915Y0147519D01*
X0078881Y0147542D01*
X0077147Y0148650D02*
X0076092Y0148650D01*
X0076620Y0148650D02*
X0076620Y0146750D01*
X0052328Y0110362D02*
X0052264Y0110333D01*
X0052198Y0110306D01*
X0052131Y0110282D01*
X0052063Y0110262D01*
X0051994Y0110244D01*
X0051925Y0110230D01*
X0051854Y0110218D01*
X0051784Y0110210D01*
X0051713Y0110206D01*
X0051642Y0110204D01*
X0051642Y0111260D02*
X0051571Y0111258D01*
X0051500Y0111254D01*
X0051430Y0111246D01*
X0051359Y0111234D01*
X0051290Y0111220D01*
X0051221Y0111202D01*
X0051153Y0111182D01*
X0051086Y0111158D01*
X0051020Y0111131D01*
X0050956Y0111102D01*
X0051114Y0111154D02*
X0052170Y0110309D01*
X0052592Y0110732D02*
X0052590Y0110769D01*
X0052585Y0110806D01*
X0052576Y0110842D01*
X0052564Y0110878D01*
X0052548Y0110912D01*
X0052530Y0110944D01*
X0052508Y0110974D01*
X0052484Y0111002D01*
X0052456Y0111028D01*
X0052427Y0111051D01*
X0052396Y0111071D01*
X0052362Y0111088D01*
X0052328Y0111102D01*
X0052592Y0110732D02*
X0052590Y0110695D01*
X0052585Y0110658D01*
X0052576Y0110622D01*
X0052564Y0110586D01*
X0052548Y0110552D01*
X0052530Y0110520D01*
X0052508Y0110490D01*
X0052484Y0110462D01*
X0052456Y0110436D01*
X0052427Y0110413D01*
X0052396Y0110393D01*
X0052362Y0110376D01*
X0052328Y0110362D01*
X0052328Y0111102D02*
X0052264Y0111131D01*
X0052198Y0111158D01*
X0052131Y0111182D01*
X0052063Y0111202D01*
X0051994Y0111220D01*
X0051925Y0111234D01*
X0051854Y0111246D01*
X0051784Y0111254D01*
X0051713Y0111258D01*
X0051642Y0111260D01*
X0051642Y0110204D02*
X0051571Y0110206D01*
X0051500Y0110210D01*
X0051430Y0110218D01*
X0051359Y0110230D01*
X0051290Y0110244D01*
X0051221Y0110262D01*
X0051153Y0110282D01*
X0051086Y0110306D01*
X0051020Y0110333D01*
X0050956Y0110362D01*
X0050691Y0110732D02*
X0050693Y0110769D01*
X0050698Y0110806D01*
X0050707Y0110842D01*
X0050719Y0110878D01*
X0050735Y0110912D01*
X0050753Y0110944D01*
X0050775Y0110974D01*
X0050800Y0111002D01*
X0050827Y0111028D01*
X0050856Y0111051D01*
X0050887Y0111071D01*
X0050921Y0111088D01*
X0050955Y0111102D01*
X0050691Y0110732D02*
X0050693Y0110695D01*
X0050698Y0110658D01*
X0050707Y0110622D01*
X0050719Y0110586D01*
X0050735Y0110552D01*
X0050753Y0110520D01*
X0050775Y0110490D01*
X0050800Y0110462D01*
X0050827Y0110436D01*
X0050856Y0110413D01*
X0050887Y0110393D01*
X0050921Y0110376D01*
X0050955Y0110362D01*
X0050692Y0108572D02*
X0052592Y0108572D01*
X0052592Y0109099D02*
X0052592Y0108044D01*
X0052170Y0106883D02*
X0050692Y0106883D01*
X0051114Y0108044D02*
X0050692Y0108572D01*
X0052170Y0106883D02*
X0052209Y0106881D01*
X0052248Y0106876D01*
X0052285Y0106867D01*
X0052322Y0106855D01*
X0052358Y0106839D01*
X0052392Y0106820D01*
X0052424Y0106798D01*
X0052454Y0106773D01*
X0052482Y0106745D01*
X0052507Y0106715D01*
X0052529Y0106683D01*
X0052548Y0106649D01*
X0052564Y0106613D01*
X0052576Y0106576D01*
X0052585Y0106539D01*
X0052590Y0106500D01*
X0052592Y0106461D01*
X0052592Y0106250D01*
X0249092Y0258534D02*
X0250570Y0258534D01*
X0250609Y0258532D01*
X0250648Y0258527D01*
X0250685Y0258518D01*
X0250722Y0258506D01*
X0250758Y0258490D01*
X0250792Y0258471D01*
X0250824Y0258449D01*
X0250854Y0258424D01*
X0250882Y0258396D01*
X0250907Y0258366D01*
X0250929Y0258334D01*
X0250948Y0258300D01*
X0250964Y0258264D01*
X0250976Y0258227D01*
X0250985Y0258190D01*
X0250990Y0258151D01*
X0250992Y0258112D01*
X0250992Y0257901D01*
X0250464Y0259694D02*
X0249936Y0259694D01*
X0249936Y0260328D01*
X0249936Y0259695D02*
X0249878Y0259697D01*
X0249821Y0259703D01*
X0249764Y0259713D01*
X0249708Y0259726D01*
X0249653Y0259744D01*
X0249600Y0259765D01*
X0249548Y0259790D01*
X0249497Y0259818D01*
X0249449Y0259849D01*
X0249403Y0259884D01*
X0249360Y0259922D01*
X0249319Y0259963D01*
X0249281Y0260006D01*
X0249246Y0260052D01*
X0249215Y0260100D01*
X0249187Y0260151D01*
X0249162Y0260203D01*
X0249141Y0260256D01*
X0249123Y0260311D01*
X0249110Y0260367D01*
X0249100Y0260424D01*
X0249094Y0260481D01*
X0249092Y0260539D01*
X0250358Y0260750D02*
X0250464Y0260750D01*
X0250358Y0260750D02*
X0250319Y0260748D01*
X0250280Y0260743D01*
X0250243Y0260734D01*
X0250206Y0260722D01*
X0250170Y0260706D01*
X0250136Y0260687D01*
X0250104Y0260665D01*
X0250074Y0260640D01*
X0250046Y0260612D01*
X0250021Y0260582D01*
X0249999Y0260550D01*
X0249980Y0260516D01*
X0249964Y0260480D01*
X0249952Y0260443D01*
X0249943Y0260406D01*
X0249938Y0260367D01*
X0249936Y0260328D01*
X0250464Y0260750D02*
X0250509Y0260748D01*
X0250553Y0260742D01*
X0250597Y0260733D01*
X0250640Y0260720D01*
X0250681Y0260703D01*
X0250722Y0260683D01*
X0250760Y0260659D01*
X0250796Y0260633D01*
X0250829Y0260603D01*
X0250860Y0260571D01*
X0250889Y0260536D01*
X0250914Y0260499D01*
X0250935Y0260460D01*
X0250954Y0260419D01*
X0250969Y0260377D01*
X0250980Y0260333D01*
X0250988Y0260289D01*
X0250992Y0260244D01*
X0250992Y0260200D01*
X0250988Y0260155D01*
X0250980Y0260111D01*
X0250969Y0260067D01*
X0250954Y0260025D01*
X0250935Y0259984D01*
X0250914Y0259945D01*
X0250889Y0259908D01*
X0250860Y0259873D01*
X0250829Y0259841D01*
X0250796Y0259811D01*
X0250760Y0259785D01*
X0250722Y0259761D01*
X0250681Y0259741D01*
X0250640Y0259724D01*
X0250597Y0259711D01*
X0250553Y0259702D01*
X0250509Y0259696D01*
X0250464Y0259694D01*
X0171441Y0263650D02*
X0170914Y0261750D01*
X0169225Y0262172D02*
X0169225Y0263650D01*
X0170386Y0263650D02*
X0171441Y0263650D01*
X0170386Y0263650D02*
X0170386Y0263439D01*
X0169225Y0262172D02*
X0169223Y0262133D01*
X0169218Y0262094D01*
X0169209Y0262057D01*
X0169197Y0262020D01*
X0169181Y0261984D01*
X0169162Y0261950D01*
X0169140Y0261918D01*
X0169115Y0261888D01*
X0169087Y0261860D01*
X0169057Y0261835D01*
X0169025Y0261813D01*
X0168991Y0261794D01*
X0168955Y0261778D01*
X0168918Y0261766D01*
X0168881Y0261757D01*
X0168842Y0261752D01*
X0168803Y0261750D01*
X0168592Y0261750D01*
X0116442Y0262278D02*
X0116440Y0262233D01*
X0116434Y0262189D01*
X0116425Y0262145D01*
X0116412Y0262102D01*
X0116395Y0262061D01*
X0116375Y0262020D01*
X0116351Y0261982D01*
X0116325Y0261946D01*
X0116295Y0261913D01*
X0116263Y0261882D01*
X0116228Y0261853D01*
X0116191Y0261828D01*
X0116152Y0261807D01*
X0116111Y0261788D01*
X0116069Y0261773D01*
X0116025Y0261762D01*
X0115981Y0261754D01*
X0115936Y0261750D01*
X0115892Y0261750D01*
X0115847Y0261754D01*
X0115803Y0261762D01*
X0115759Y0261773D01*
X0115717Y0261788D01*
X0115676Y0261807D01*
X0115637Y0261828D01*
X0115600Y0261853D01*
X0115565Y0261882D01*
X0115533Y0261913D01*
X0115503Y0261946D01*
X0115477Y0261982D01*
X0115453Y0262020D01*
X0115433Y0262061D01*
X0115416Y0262102D01*
X0115403Y0262145D01*
X0115394Y0262189D01*
X0115388Y0262233D01*
X0115386Y0262278D01*
X0115388Y0262323D01*
X0115394Y0262367D01*
X0115403Y0262411D01*
X0115416Y0262454D01*
X0115433Y0262495D01*
X0115453Y0262536D01*
X0115477Y0262574D01*
X0115503Y0262610D01*
X0115533Y0262643D01*
X0115565Y0262674D01*
X0115600Y0262703D01*
X0115637Y0262728D01*
X0115676Y0262749D01*
X0115717Y0262768D01*
X0115759Y0262783D01*
X0115803Y0262794D01*
X0115847Y0262802D01*
X0115892Y0262806D01*
X0115936Y0262806D01*
X0115981Y0262802D01*
X0116025Y0262794D01*
X0116069Y0262783D01*
X0116111Y0262768D01*
X0116152Y0262749D01*
X0116191Y0262728D01*
X0116228Y0262703D01*
X0116263Y0262674D01*
X0116295Y0262643D01*
X0116325Y0262610D01*
X0116351Y0262574D01*
X0116375Y0262536D01*
X0116395Y0262495D01*
X0116412Y0262454D01*
X0116425Y0262411D01*
X0116434Y0262367D01*
X0116440Y0262323D01*
X0116442Y0262278D01*
X0116336Y0263228D02*
X0116334Y0263188D01*
X0116328Y0263148D01*
X0116319Y0263109D01*
X0116306Y0263071D01*
X0116289Y0263035D01*
X0116269Y0263000D01*
X0116246Y0262967D01*
X0116219Y0262937D01*
X0116190Y0262909D01*
X0116159Y0262884D01*
X0116125Y0262863D01*
X0116089Y0262844D01*
X0116052Y0262829D01*
X0116013Y0262818D01*
X0115974Y0262810D01*
X0115934Y0262806D01*
X0115894Y0262806D01*
X0115854Y0262810D01*
X0115815Y0262818D01*
X0115776Y0262829D01*
X0115739Y0262844D01*
X0115703Y0262863D01*
X0115669Y0262884D01*
X0115638Y0262909D01*
X0115609Y0262937D01*
X0115582Y0262967D01*
X0115559Y0263000D01*
X0115539Y0263035D01*
X0115522Y0263071D01*
X0115509Y0263109D01*
X0115500Y0263148D01*
X0115494Y0263188D01*
X0115492Y0263228D01*
X0115494Y0263268D01*
X0115500Y0263308D01*
X0115509Y0263347D01*
X0115522Y0263385D01*
X0115539Y0263421D01*
X0115559Y0263456D01*
X0115582Y0263489D01*
X0115609Y0263519D01*
X0115638Y0263547D01*
X0115669Y0263572D01*
X0115703Y0263593D01*
X0115739Y0263612D01*
X0115776Y0263627D01*
X0115815Y0263638D01*
X0115854Y0263646D01*
X0115894Y0263650D01*
X0115934Y0263650D01*
X0115974Y0263646D01*
X0116013Y0263638D01*
X0116052Y0263627D01*
X0116089Y0263612D01*
X0116125Y0263593D01*
X0116159Y0263572D01*
X0116190Y0263547D01*
X0116219Y0263519D01*
X0116246Y0263489D01*
X0116269Y0263456D01*
X0116289Y0263421D01*
X0116306Y0263385D01*
X0116319Y0263347D01*
X0116328Y0263308D01*
X0116334Y0263268D01*
X0116336Y0263228D01*
X0114225Y0263650D02*
X0114225Y0262172D01*
X0114223Y0262133D01*
X0114218Y0262094D01*
X0114209Y0262057D01*
X0114197Y0262020D01*
X0114181Y0261984D01*
X0114162Y0261950D01*
X0114140Y0261918D01*
X0114115Y0261888D01*
X0114087Y0261860D01*
X0114057Y0261835D01*
X0114025Y0261813D01*
X0113991Y0261794D01*
X0113955Y0261778D01*
X0113918Y0261766D01*
X0113881Y0261757D01*
X0113842Y0261752D01*
X0113803Y0261750D01*
X0113592Y0261750D01*
X0061441Y0262594D02*
X0061441Y0263122D01*
X0061442Y0263122D02*
X0061440Y0263167D01*
X0061434Y0263211D01*
X0061425Y0263255D01*
X0061412Y0263298D01*
X0061395Y0263339D01*
X0061375Y0263380D01*
X0061351Y0263418D01*
X0061325Y0263454D01*
X0061295Y0263487D01*
X0061263Y0263518D01*
X0061228Y0263547D01*
X0061191Y0263572D01*
X0061152Y0263593D01*
X0061111Y0263612D01*
X0061069Y0263627D01*
X0061025Y0263638D01*
X0060981Y0263646D01*
X0060936Y0263650D01*
X0060892Y0263650D01*
X0060847Y0263646D01*
X0060803Y0263638D01*
X0060759Y0263627D01*
X0060717Y0263612D01*
X0060676Y0263593D01*
X0060637Y0263572D01*
X0060600Y0263547D01*
X0060565Y0263518D01*
X0060533Y0263487D01*
X0060503Y0263454D01*
X0060477Y0263418D01*
X0060453Y0263380D01*
X0060433Y0263339D01*
X0060416Y0263298D01*
X0060403Y0263255D01*
X0060394Y0263211D01*
X0060388Y0263167D01*
X0060386Y0263122D01*
X0060386Y0263017D01*
X0060388Y0262978D01*
X0060393Y0262939D01*
X0060402Y0262902D01*
X0060414Y0262865D01*
X0060430Y0262829D01*
X0060449Y0262795D01*
X0060471Y0262763D01*
X0060496Y0262733D01*
X0060524Y0262705D01*
X0060554Y0262680D01*
X0060586Y0262658D01*
X0060620Y0262639D01*
X0060656Y0262623D01*
X0060693Y0262611D01*
X0060730Y0262602D01*
X0060769Y0262597D01*
X0060808Y0262595D01*
X0060808Y0262594D02*
X0061441Y0262594D01*
X0061439Y0262539D01*
X0061434Y0262484D01*
X0061425Y0262429D01*
X0061412Y0262376D01*
X0061396Y0262323D01*
X0061377Y0262271D01*
X0061354Y0262221D01*
X0061328Y0262172D01*
X0061299Y0262125D01*
X0061267Y0262080D01*
X0061232Y0262038D01*
X0061194Y0261997D01*
X0061153Y0261959D01*
X0061111Y0261924D01*
X0061066Y0261892D01*
X0061019Y0261863D01*
X0060970Y0261837D01*
X0060920Y0261814D01*
X0060868Y0261795D01*
X0060815Y0261779D01*
X0060762Y0261766D01*
X0060707Y0261757D01*
X0060652Y0261752D01*
X0060597Y0261750D01*
X0059225Y0262172D02*
X0059225Y0263650D01*
X0059225Y0262172D02*
X0059223Y0262133D01*
X0059218Y0262094D01*
X0059209Y0262057D01*
X0059197Y0262020D01*
X0059181Y0261984D01*
X0059162Y0261950D01*
X0059140Y0261918D01*
X0059115Y0261888D01*
X0059087Y0261860D01*
X0059057Y0261835D01*
X0059025Y0261813D01*
X0058991Y0261794D01*
X0058955Y0261778D01*
X0058918Y0261766D01*
X0058881Y0261757D01*
X0058842Y0261752D01*
X0058803Y0261750D01*
X0058592Y0261750D01*
M02*
